<svg width="56" height="57" viewBox="0 0 56 57" fill="none" xmlns="http://www.w3.org/2000/svg">
<path d="M52 28.0649V48.0649C52 50.2741 50.2092 52.0649 48 52.0649H28M52 28.0649V8.06494C52 5.85582 50.2092 4.06494 48 4.06494H28M52 28.0649L48.1704 28.0649C46.6084 28.0648 45.5384 25.9344 45.5384 24.3725C45.5384 21.3136 43.0588 18.834 40 18.834C36.9412 18.834 34.4615 21.3136 34.4615 24.3725C34.4615 25.9344 33.3917 28.0647 31.8298 28.0647H24.1702C22.6083 28.0647 21.5385 30.1951 21.5385 31.7571C21.5385 34.8159 19.0588 37.2955 16 37.2955C12.9412 37.2955 10.4615 34.8159 10.4615 31.7571C10.4615 30.1951 9.39168 28.0648 7.82976 28.0649L4 28.0649M28 52.0649V44.1929C28.9798 45.0701 30.2738 45.6033 31.6923 45.6033C34.7511 45.6033 37.2308 43.1237 37.2308 40.0649C37.2308 37.0061 34.7511 34.5265 31.6923 34.5265C30.2738 34.5265 28.9798 35.0597 28 35.9367V20.1931C27.0201 21.0701 25.7262 21.6034 24.3077 21.6034C21.2489 21.6034 18.7692 19.1237 18.7692 16.0649C18.7692 13.0061 21.2489 10.5265 24.3077 10.5265C25.7262 10.5265 27.0201 11.0597 28 11.9367V4.06494M28 52.0649H8C5.79088 52.0649 4 50.2741 4 48.0649V28.0649M28 4.06494H8C5.79088 4.06494 4 5.85582 4 8.06494V28.0649" stroke="url(#paint0_linear_872_9044)" stroke-width="2.5" stroke-linecap="round" stroke-linejoin="round"/>
<defs>
<linearGradient id="paint0_linear_872_9044" x1="1.14286" y1="20.3507" x2="53.1126" y2="23.5627" gradientUnits="userSpaceOnUse">
<stop stop-color="#4A68FF"/>
<stop offset="1" stop-color="#67B0FF"/>
</linearGradient>
</defs>
</svg>
