<svg width="109" height="64" viewBox="0 0 109 64" fill="none" xmlns="http://www.w3.org/2000/svg">
<g clip-path="url(#clip0_1214_9048)">
<path fill-rule="evenodd" clip-rule="evenodd" d="M63.786 34.7164C63.0574 35.37 62.1216 35.7019 61.0053 35.7019C59.8885 35.7019 58.9528 35.37 58.2247 34.7164C57.5292 34.0939 57.1295 33.0985 57.1295 31.9863C57.1295 30.9008 57.5336 29.919 58.2366 29.2921C58.9723 28.6385 59.9036 28.3051 61.0044 28.3025C62.1071 28.3051 63.0384 28.6385 63.7736 29.2921C64.4775 29.919 64.8807 30.9008 64.8807 31.9863C64.8807 33.0985 64.4815 34.0939 63.786 34.7164ZM54.0093 31.9863C54.0093 32.0366 54.0119 32.086 54.0137 32.1355C52.8965 31.2852 51.2812 30.9687 50.2942 30.8037C48.4683 30.4817 47.0733 30.1871 47.0733 29.1001C47.0733 28.3332 47.8947 27.7753 49.4724 27.8709C50.9142 27.9584 51.5214 28.6954 51.6879 29.4065C51.7117 29.5232 51.7762 29.6081 51.9352 29.6092L54.5281 29.6277C54.5405 29.6277 54.5511 29.6266 54.5621 29.6259C54.1965 30.3388 54.0093 31.1327 54.0093 31.9863ZM49.5992 35.9748C48.3451 35.9748 46.9634 35.6022 46.645 34.1607C46.618 34.023 46.5403 33.9662 46.414 33.9632L43.9071 33.9351V30.2299C44.2366 31.3158 45.3277 32.0676 47.6876 32.5118C49.2671 32.8278 52.0071 33.0287 52.0071 34.3845C52.0071 35.3297 51.1747 35.9969 49.5992 35.9748ZM37.1129 35.7034C35.0905 35.7034 33.2376 34.3723 33.2376 31.9878C33.2376 30.1169 34.6268 28.304 37.1262 28.304C38.2089 28.304 40.9543 28.6142 40.9543 31.9878C40.9543 35.3703 38.0879 35.7034 37.1125 35.7034H37.1129ZM67.9263 31.0777C68.5017 31.7194 69.5403 32.1946 71.2276 32.5121C72.8067 32.8282 75.5472 33.0291 75.5472 34.3849C75.5472 35.3301 74.7143 35.9973 73.1392 35.9751C71.8855 35.9751 70.5029 35.6026 70.185 34.1611C70.1585 34.0234 70.0808 33.9665 69.954 33.9636L67.6313 33.9377C67.8764 33.3333 68.0013 32.6787 68.0013 31.9867C68.0012 31.6826 67.9761 31.3789 67.9263 31.0777ZM72.9679 37.8619C75.7494 37.8619 79.0277 36.9961 78.7712 34.1877C78.4877 31.6947 75.3851 31.0633 73.8342 30.8041C72.0079 30.4821 70.6129 30.1875 70.6129 29.1004C70.6129 28.3335 71.4342 27.7756 73.0125 27.8713C74.4542 27.9588 75.0614 28.6958 75.2279 29.4069C75.2517 29.5236 75.3166 29.6085 75.4752 29.6096L78.0682 29.6281C78.2656 29.6292 78.3269 29.5435 78.3022 29.4261C77.7944 26.8275 75.1979 26.0923 72.8084 26.0923C70.4226 26.0923 67.5478 26.6528 67.3438 29.1344C67.3368 29.2304 67.3341 29.3249 67.3341 29.4176C66.9544 28.7574 66.4068 28.1511 65.7011 27.6143C64.3985 26.6321 62.7743 26.106 61.0031 26.0931H60.9444C60.0983 26.0931 59.2703 26.2234 58.483 26.4819C57.6827 26.7465 56.9463 27.1302 56.3095 27.6143C55.6414 28.1223 55.1137 28.6924 54.7366 29.3116C54.1749 26.8071 51.6216 26.0923 49.268 26.0923C47.0777 26.0923 44.475 26.566 43.9071 28.5662V26.5808C43.907 26.53 43.8828 26.4812 43.8397 26.4453C43.7967 26.4094 43.7383 26.3892 43.6775 26.3892H41.2356C41.1747 26.3893 41.1164 26.4095 41.0735 26.4455C41.0305 26.4815 41.0064 26.5303 41.0064 26.5812V27.1166C41.0064 27.2067 40.9344 27.238 40.8465 27.1856C39.9779 26.6587 38.6929 26.0934 37.1465 26.0934C36.2774 26.0934 35.4477 26.2212 34.6798 26.473C33.9114 26.7255 33.181 27.1099 32.5107 27.6158C31.7477 28.1962 31.1665 28.8579 30.7854 29.5823C30.4044 30.3067 30.2109 31.1161 30.2109 31.9875C30.2109 32.8009 30.3823 33.5637 30.7196 34.2531C31.057 34.9424 31.5706 35.5801 32.2466 36.1487C32.9223 36.7173 33.6783 37.1493 34.4921 37.4336C35.3059 37.7168 36.2028 37.8604 37.1593 37.8604C38.8029 37.8604 40.0362 37.2752 40.8443 36.7431C40.9335 36.6863 41.0064 36.7169 41.0064 36.81V37.3723C41.0064 37.4779 41.1097 37.5643 41.236 37.5643H43.678C43.7387 37.5641 43.797 37.5438 43.8399 37.5078C43.8829 37.4719 43.907 37.4231 43.9071 37.3723V35.4782C45.0584 37.7415 47.9918 37.8615 49.4278 37.8615C51.8283 37.8615 54.5966 37.2154 55.1459 35.2334C55.41 35.5614 55.7112 35.8674 56.0454 36.1472C57.3543 37.2486 59.0694 37.8409 61.0075 37.8586H61.087C62.0073 37.8586 62.8953 37.7109 63.7264 37.4188C64.5654 37.1222 65.3262 36.6901 65.9652 36.1472C66.4432 35.7487 66.8515 35.2958 67.1778 34.8017C68.0482 37.7198 71.4007 37.8619 72.9679 37.8619Z" fill="white"/>
</g>
<defs>
<clipPath id="clip0_1214_9048">
<rect width="48.5744" height="11.8154" fill="white" transform="translate(30.2109 26.0923)"/>
</clipPath>
</defs>
</svg>
