<svg width="109" height="64" viewBox="0 0 109 64" fill="none" xmlns="http://www.w3.org/2000/svg">
<path d="M22.6641 27.7287L29.5725 24.1525L36.5551 27.7287L29.5725 31.3261L22.6641 27.7287ZM64.1675 29.469V29.3841C64.1675 28.2062 64.8572 27.8242 66.0352 27.9091V25.7549C63.2336 25.5851 61.9071 26.9858 61.9071 29.3841V29.469H60.6443V31.6233H61.9071V38.1496H64.1781V31.6233H65.5152H66.0352H66.778V38.1496H69.049V31.6233H70.9167V29.469H69.049V29.3841C69.049 28.2062 69.7281 27.8242 70.9167 27.9091V25.7549C68.1151 25.5851 66.7886 26.9858 66.7886 29.3841V29.469H66.0458H65.5258H64.1675ZM48.3238 31.8355C49.0454 31.2625 49.4805 30.4453 49.4805 29.3948C49.4805 27.3573 47.825 25.9777 45.7345 25.9777H40.8954V38.1284H46.1271C48.2601 38.1284 49.9687 36.6958 49.9687 34.6052C49.9368 33.353 49.3107 32.3873 48.3238 31.8355ZM45.7451 28.2274C46.5304 28.2274 47.061 28.8005 47.061 29.5646C47.061 30.3286 46.4985 30.9017 45.7451 30.9017H43.3149V28.2274H45.7451ZM46.1165 35.8999H43.3256V33.0347H46.1165C46.9442 33.0347 47.5385 33.6395 47.5385 34.4567C47.5385 35.295 46.9442 35.8999 46.1165 35.8999ZM57.0362 29.4584V34.1489C57.0362 35.6558 56.2085 36.3032 55.0942 36.3032C54.0755 36.3032 53.3539 35.6983 53.3539 34.5097V29.4584H51.0829V34.7963C51.0829 37.1097 52.5367 38.3937 54.4151 38.3937C55.593 38.3937 56.5162 37.9586 57.0256 37.1733V38.1496H59.2966V29.469H57.0362V29.4584ZM80.2977 34.722H73.6652C73.9941 35.8681 74.9492 36.3562 76.1271 36.3562C77.0185 36.3562 77.7189 35.9954 78.101 35.4966L79.9262 36.5366C79.1091 37.7145 77.7932 38.4043 76.0953 38.4043C73.1452 38.4043 71.2775 36.4093 71.2775 33.8093C71.2775 31.22 73.1558 29.2144 75.9255 29.2144C78.5255 29.2144 80.3719 31.2519 80.3719 33.8093C80.3825 34.1383 80.3507 34.4248 80.2977 34.722ZM75.9361 31.2306C74.7158 31.2306 73.888 31.878 73.6333 32.9816H78.1222C77.8357 31.7294 76.8912 31.2306 75.9361 31.2306ZM83.6616 30.9547V29.4584H81.3907V38.139H83.6616V33.9897C83.6616 32.1645 85.1473 31.6445 86.3359 31.7825V29.2886C85.2216 29.2886 84.118 29.7768 83.6616 30.9547ZM29.5725 37.4705L24.8607 34.913L22.6641 36.1015L29.5725 39.8475L36.5551 36.1015L34.3478 34.913L29.5725 37.4705ZM24.8607 30.8698L29.5725 33.1938L34.3372 30.8698L36.5551 31.9522L29.5725 35.3587L22.6641 31.9522L24.8607 30.8698Z" fill="#B1EC9C"/>
</svg>
