<svg width="109" height="64" viewBox="0 0 109 64" fill="none" xmlns="http://www.w3.org/2000/svg">
<g clip-path="url(#clip0_1214_9107)">
<path d="M17.9714 31.8719L9.37016 33.6621C9.36017 33.6642 9.35069 33.6683 9.34227 33.6741C9.33385 33.6798 9.32666 33.6872 9.3211 33.6958C9.31554 33.7043 9.31172 33.7139 9.30988 33.7239C9.30803 33.734 9.30818 33.7443 9.31033 33.7543L10.8238 40.8072C10.8263 40.8191 10.8323 40.83 10.8408 40.8385C10.8494 40.8471 10.8602 40.8529 10.872 40.8554L26.0759 44.0299C26.0973 44.0343 26.1196 44.0313 26.1391 44.0214C26.1587 44.0115 26.1743 43.9952 26.1835 43.9753C27.2871 41.569 28.3826 39.1557 29.4699 36.7351C29.6057 36.4332 29.6909 36.1176 29.7256 35.7881C30.2585 30.7579 30.7914 25.7331 31.3243 20.7138C31.3255 20.703 31.3244 20.6921 31.3214 20.6817C31.3183 20.6713 31.3132 20.6616 31.3063 20.6532C31.2995 20.6447 31.2911 20.6377 31.2815 20.6325C31.272 20.6274 31.2615 20.6241 31.2507 20.623L25.2795 19.9967C25.2448 19.9932 25.2158 20.0053 25.1926 20.0328C25.1785 20.0495 25.1686 20.0844 25.1629 20.1374C24.8007 23.5673 24.4361 26.9966 24.0691 30.4256C24.0668 30.4468 24.0631 30.4653 24.0579 30.4811C24.0571 30.4836 24.0554 30.4857 24.0532 30.4872C24.051 30.4887 24.0485 30.4895 24.0459 30.4894C24.0433 30.4893 24.0408 30.4883 24.0389 30.4867C24.0369 30.485 24.0356 30.4828 24.0351 30.4803L22.1622 21.8192C22.1401 21.7168 22.0777 21.6763 21.975 21.6978L16.157 22.9095C16.1469 22.9116 16.1372 22.9157 16.1287 22.9216C16.1201 22.9274 16.1128 22.9349 16.1072 22.9437C16.1015 22.9524 16.0977 22.9622 16.0958 22.9724C16.0939 22.9827 16.0941 22.9932 16.0963 23.0034L17.9976 31.8319C17.9994 31.8407 17.9977 31.8498 17.9927 31.8573C17.9878 31.8648 17.9801 31.87 17.9714 31.8719Z" stroke="#80E6DE" stroke-width="0.0860897"/>
<path d="M60.3218 28.0581C60.3218 27.729 60.1911 27.4134 59.9583 27.1806C59.7256 26.9479 59.41 26.8172 59.0808 26.8172C58.7517 26.8172 58.4361 26.9479 58.2033 27.1806C57.9706 27.4134 57.8398 27.729 57.8398 28.0581C57.8398 28.3873 57.9706 28.7029 58.2033 28.9356C58.4361 29.1684 58.7517 29.2991 59.0808 29.2991C59.41 29.2991 59.7256 29.1684 59.9583 28.9356C60.1911 28.7029 60.3218 28.3873 60.3218 28.0581Z" stroke="#80E6DE" stroke-width="0.0860897"/>
<path d="M39.3616 30.2156C35.3175 30.6125 35.1268 37.3038 39.1054 38.1036C40.2543 38.3347 41.2925 37.8802 42.0936 37.095C42.0995 37.0893 42.1069 37.0853 42.1149 37.0834C42.1229 37.0815 42.1313 37.0817 42.1391 37.0842C42.147 37.0866 42.1541 37.091 42.1596 37.0971C42.1652 37.1032 42.169 37.1107 42.1707 37.1187L42.3372 37.9323C42.3421 37.9557 42.3549 37.9768 42.3735 37.9919C42.3921 38.0071 42.4153 38.0153 42.4393 38.0153H44.2842C44.3754 38.0153 44.4107 37.9708 44.3901 37.8819C44.2304 37.1927 44.0698 36.4773 44.0698 35.777C44.0695 32.8479 44.0694 29.9242 44.0694 27.0057C44.0694 26.9946 44.0649 26.9838 44.057 26.9759C44.0491 26.968 44.0384 26.9636 44.0272 26.9636H42.1431C42.1317 26.9636 42.1208 26.9681 42.1127 26.9762C42.1046 26.9842 42.1001 26.9952 42.1001 27.0066V31.1789C42.1001 31.1867 42.0979 31.1943 42.0936 31.2008C42.0893 31.2072 42.0831 31.2122 42.0759 31.2152C42.0687 31.2181 42.0608 31.2188 42.0532 31.2172C42.0456 31.2155 42.0387 31.2117 42.0334 31.2061C41.2904 30.4439 40.3998 30.1137 39.3616 30.2156Z" stroke="#80E6DE" stroke-width="0.0860897"/>
<path d="M56.3361 27.0243C56.3361 27.0081 56.3296 26.9926 56.3182 26.9811C56.3067 26.9697 56.2911 26.9632 56.2749 26.9632H54.4283C54.4121 26.9632 54.3966 26.9697 54.3851 26.9811C54.3736 26.9926 54.3672 27.0081 54.3672 27.0243V37.9534C54.3672 37.9696 54.3736 37.9852 54.3851 37.9966C54.3966 38.0081 54.4121 38.0145 54.4283 38.0145H56.2749C56.2911 38.0145 56.3067 38.0081 56.3182 37.9966C56.3296 37.9852 56.3361 37.9696 56.3361 37.9534V27.0243Z" stroke="#80E6DE" stroke-width="0.0860897"/>
<path d="M45.3897 34.2576C45.5374 38.2556 49.6495 38.9465 52.5296 37.3008C52.5482 37.2902 52.5622 37.2731 52.5689 37.2527C52.5756 37.2324 52.5744 37.2102 52.5658 37.1907L51.8779 35.6514C51.8732 35.6408 51.8663 35.6312 51.8578 35.6234C51.8492 35.6155 51.8392 35.6095 51.8282 35.6056C51.8173 35.6017 51.8057 35.6001 51.7941 35.6009C51.7825 35.6017 51.7712 35.6048 51.7608 35.61C50.4484 36.2803 48.5105 36.582 47.5192 35.1749C47.5105 35.1626 47.5054 35.1483 47.5044 35.1333C47.5034 35.1184 47.5065 35.1034 47.5134 35.0901C47.5203 35.0768 47.5308 35.0656 47.5437 35.0578C47.5565 35.0499 47.5713 35.0458 47.5863 35.0457L52.9549 35.0444C52.9667 35.0444 52.9782 35.0403 52.9873 35.0328C52.9964 35.0252 53.0026 35.0147 53.0048 35.0031C53.508 32.4062 51.8943 30.2178 49.1996 30.1722C46.9066 30.1335 45.3075 32.0304 45.3897 34.2576Z" stroke="#80E6DE" stroke-width="0.0860897"/>
<path d="M69.3019 35.8756C70.3961 38.6451 73.9688 38.5646 76.1021 37.3267C76.1469 37.3008 76.1587 37.2643 76.1374 37.2169L75.4517 35.6905C75.4476 35.6814 75.4417 35.6732 75.4343 35.6664C75.427 35.6596 75.4184 35.6543 75.409 35.6509C75.3996 35.6475 75.3896 35.646 75.3797 35.6465C75.3697 35.647 75.36 35.6496 75.351 35.6539C74.0132 36.2992 72.161 36.6121 71.1158 35.2446C71.0943 35.2162 71.0794 35.1906 71.0711 35.168C71.0673 35.1577 71.0661 35.1467 71.0675 35.1359C71.069 35.1251 71.073 35.1147 71.0792 35.1058C71.0855 35.0968 71.0938 35.0895 71.1034 35.0845C71.1131 35.0794 71.1239 35.0767 71.1348 35.0767L76.5193 35.0664C76.5623 35.0664 76.5874 35.0451 76.5946 35.0027C76.9562 32.8474 75.8895 30.709 73.6154 30.2764C70.2149 29.6294 68.1074 32.8522 69.3019 35.8756Z" stroke="#80E6DE" stroke-width="0.0860897"/>
<path d="M78.0247 38.0148H79.87C79.8877 38.0148 79.9047 38.0078 79.9172 37.9952C79.9297 37.9827 79.9368 37.9658 79.9368 37.9481C79.9356 36.5385 79.9359 35.1222 79.9376 33.6991C79.9379 33.3929 79.9593 33.1826 80.0018 33.0681C80.3418 32.1555 81.7369 32.3032 82.4024 32.6148C82.4129 32.6198 82.4244 32.6226 82.436 32.6231C82.4477 32.6236 82.4593 32.6218 82.4702 32.6177C82.4812 32.6137 82.4912 32.6075 82.4997 32.5995C82.5083 32.5916 82.5151 32.582 82.5199 32.5713L83.3958 30.6029C83.3997 30.5943 83.4 30.5845 83.3967 30.5756C83.3934 30.5668 83.3867 30.5596 83.3782 30.5555C82.0946 29.9361 80.8416 30.1221 79.9083 31.2434C79.9053 31.2471 79.9013 31.2498 79.8968 31.2513C79.8923 31.2528 79.8874 31.253 79.8828 31.2519C79.8782 31.2507 79.874 31.2483 79.8707 31.2449C79.8673 31.2415 79.865 31.2373 79.864 31.2326L79.691 30.4165C79.6821 30.3743 79.656 30.3532 79.6126 30.3532H77.7199C77.7116 30.3533 77.7034 30.3551 77.6959 30.3587C77.6884 30.3623 77.6818 30.3675 77.6765 30.3739C77.6713 30.3803 77.6676 30.3879 77.6656 30.3959C77.6637 30.4039 77.6636 30.4123 77.6653 30.4204C77.8073 31.0932 77.9632 31.7552 77.964 32.4301C77.9663 34.2796 77.9673 36.122 77.967 37.9571C77.967 37.9724 77.9731 37.9871 77.9839 37.9979C77.9947 38.0087 78.0094 38.0148 78.0247 38.0148Z" stroke="#80E6DE" stroke-width="0.0860897"/>
<path d="M83.6679 36.0383C84.5705 37.9684 86.8321 38.6261 88.7183 37.8363C90.1195 37.2496 90.9623 36.0142 91.0406 34.499C91.1581 32.2288 89.7204 30.3125 87.3409 30.2048C84.1496 30.0602 82.3748 33.2735 83.6679 36.0383Z" stroke="#80E6DE" stroke-width="0.0860897"/>
<path d="M92.909 31.5341C91.2324 33.4608 91.8987 36.9707 94.3988 37.8836C95.5063 38.2878 96.7525 38.2439 97.7963 37.6925C100.074 36.4903 100.394 33.2921 98.7885 31.4476C97.2776 29.7116 94.391 29.8308 92.909 31.5341Z" stroke="#80E6DE" stroke-width="0.0860897"/>
<path d="M60.083 30.4278C60.083 30.4079 60.0751 30.3889 60.0611 30.3748C60.047 30.3608 60.028 30.3529 60.0081 30.3529H58.1882C58.1683 30.3529 58.1493 30.3608 58.1352 30.3748C58.1212 30.3889 58.1133 30.4079 58.1133 30.4278V37.94C58.1133 37.9598 58.1212 37.9789 58.1352 37.9929C58.1493 38.007 58.1683 38.0149 58.1882 38.0149H60.0081C60.028 38.0149 60.047 38.007 60.0611 37.9929C60.0751 37.9789 60.083 37.9598 60.083 37.94V30.4278Z" stroke="#80E6DE" stroke-width="0.0860897"/>
<path d="M63.1835 37.9877C63.1857 37.9956 63.1904 38.0026 63.1969 38.0075C63.2035 38.0125 63.2115 38.0152 63.2197 38.0152H66.3297C66.3379 38.0152 66.3459 38.0125 66.3524 38.0075C66.3589 38.0026 66.3636 37.9956 66.3658 37.9877L68.4092 30.4006C68.4107 30.395 68.4109 30.3892 68.4098 30.3835C68.4087 30.3779 68.4063 30.3725 68.4028 30.3679C68.3993 30.3634 68.3948 30.3597 68.3896 30.3571C68.3845 30.3545 68.3788 30.3532 68.373 30.3532H66.303C66.2946 30.3533 66.2866 30.3561 66.28 30.3612C66.2735 30.3664 66.2688 30.3736 66.2668 30.3816L64.7973 36.4075C64.7953 36.4156 64.7906 36.4229 64.784 36.428C64.7774 36.4332 64.7693 36.436 64.7609 36.436C64.7525 36.436 64.7444 36.4332 64.7378 36.428C64.7312 36.4229 64.7265 36.4156 64.7245 36.4075L63.2567 30.3816C63.2547 30.3736 63.25 30.3664 63.2435 30.3612C63.2369 30.3561 63.2289 30.3533 63.2205 30.3532H61.1703C61.1645 30.3532 61.1589 30.3545 61.1537 30.3571C61.1485 30.3597 61.144 30.3634 61.1405 30.3679C61.137 30.3725 61.1346 30.3779 61.1335 30.3835C61.1324 30.3892 61.1326 30.395 61.1341 30.4006L63.1835 37.9877Z" stroke="#80E6DE" stroke-width="0.0860897"/>
<path d="M20.6659 34.7591C20.8549 33.6658 18.9747 33.1849 18.7061 34.2925C18.4977 35.1517 18.9575 35.6062 19.8115 35.5735C20.272 35.5554 20.5923 35.1839 20.6659 34.7591Z" stroke="#80E6DE" stroke-width="0.0860897"/>
<path d="M24.9471 35.459C25.0274 35.2407 25.0177 34.9995 24.9202 34.7884C24.8226 34.5773 24.6452 34.4136 24.427 34.3333L24.229 34.2605C24.0108 34.1802 23.7696 34.1899 23.5585 34.2874C23.3474 34.385 23.1837 34.5624 23.1034 34.7806L23.0344 34.968C22.9541 35.1863 22.9638 35.4275 23.0613 35.6386C23.1589 35.8497 23.3363 36.0134 23.5545 36.0937L23.7525 36.1665C23.9707 36.2468 24.2119 36.2371 24.423 36.1396C24.6341 36.0421 24.7978 35.8647 24.8781 35.6464L24.9471 35.459Z" stroke="#80E6DE" stroke-width="0.0860897"/>
<path d="M42.1247 34.2049C42.1283 33.689 41.921 33.1927 41.5485 32.8253C41.1761 32.4579 40.6688 32.2494 40.1384 32.2457C39.8758 32.2439 39.6154 32.2924 39.3721 32.3885C39.1288 32.4845 38.9073 32.6263 38.7204 32.8056C38.5334 32.9849 38.3846 33.1983 38.2825 33.4336C38.1803 33.6689 38.1268 33.9215 38.125 34.1769C38.1214 34.6928 38.3287 35.1891 38.7012 35.5565C39.0737 35.9239 39.5809 36.1323 40.1113 36.136C40.3739 36.1379 40.6343 36.0894 40.8776 35.9933C41.1209 35.8973 41.3424 35.7555 41.5293 35.5762C41.7163 35.3969 41.8651 35.1835 41.9673 34.9482C42.0694 34.7129 42.1229 34.4603 42.1247 34.2049Z" stroke="#80E6DE" stroke-width="0.0860897"/>
<path d="M47.3794 33.4779C47.4126 33.4801 47.4642 33.4994 47.4948 33.499C48.4042 33.4898 49.3136 33.4852 50.223 33.4852C50.418 33.4848 50.7541 33.5081 51.0184 33.4887C51.0293 33.4879 51.0399 33.4845 51.0493 33.479C51.0587 33.4734 51.0667 33.4657 51.0726 33.4566C51.0786 33.4474 51.0824 33.437 51.0836 33.4261C51.0849 33.4153 51.0837 33.4043 51.08 33.394C50.8952 32.8751 50.5541 32.5162 50.0568 32.317C49.0276 31.9046 47.6287 32.1913 47.3347 33.4164C47.3255 33.4542 47.3404 33.4748 47.3794 33.4779Z" stroke="#80E6DE" stroke-width="0.0860897"/>
<path d="M74.6788 33.4556C74.5346 31.6943 71.0166 31.7855 70.9688 33.4574C70.9686 33.462 70.9694 33.4667 70.971 33.471C70.9727 33.4754 70.9752 33.4794 70.9784 33.4827C70.9816 33.4861 70.9855 33.4887 70.9898 33.4905C70.994 33.4923 70.9986 33.4932 71.0032 33.4931L74.6547 33.4815C74.6581 33.4815 74.6614 33.4808 74.6645 33.4795C74.6675 33.4782 74.6703 33.4762 74.6726 33.4738C74.6748 33.4714 74.6766 33.4685 74.6776 33.4654C74.6787 33.4622 74.6791 33.4589 74.6788 33.4556Z" stroke="#80E6DE" stroke-width="0.0860897"/>
<path d="M89.1479 34.1535C89.1389 33.638 88.92 33.1473 88.5394 32.7893C88.1588 32.4314 87.6476 32.2355 87.1183 32.2447C86.589 32.2539 86.085 32.4676 85.7171 32.8386C85.3492 33.2096 85.1475 33.7077 85.1565 34.2231C85.1655 34.7386 85.3844 35.2293 85.7651 35.5873C86.1457 35.9452 86.6569 36.1411 87.1862 36.1319C87.7154 36.1227 88.2195 35.909 88.5874 35.538C88.9553 35.167 89.1569 34.6689 89.1479 34.1535Z" stroke="#80E6DE" stroke-width="0.0860897"/>
<path d="M97.8929 34.207C97.8974 33.6911 97.6913 33.1945 97.32 32.8265C96.9486 32.4584 96.4424 32.2491 95.9127 32.2445C95.6504 32.2422 95.3903 32.2902 95.1471 32.3858C94.9039 32.4815 94.6825 32.6228 94.4955 32.8018C94.3084 32.9808 94.1595 33.194 94.057 33.4291C93.9546 33.6642 93.9007 33.9167 93.8985 34.1721C93.894 34.688 94.1001 35.1846 94.4715 35.5527C94.8428 35.9207 95.349 36.1301 95.8787 36.1347C96.141 36.137 96.4012 36.0889 96.6443 35.9933C96.8875 35.8977 97.1089 35.7563 97.2959 35.5773C97.483 35.3983 97.632 35.1852 97.7344 34.95C97.8368 34.7149 97.8907 34.4624 97.8929 34.207Z" stroke="#80E6DE" stroke-width="0.0860897"/>
<path d="M17.9714 31.8721C17.9801 31.8702 17.9878 31.865 17.9927 31.8575C17.9977 31.85 17.9994 31.8408 17.9976 31.832L16.0963 23.0035C16.0941 22.9934 16.0939 22.9828 16.0958 22.9726C16.0977 22.9623 16.1015 22.9526 16.1072 22.9438C16.1128 22.9351 16.1201 22.9276 16.1287 22.9217C16.1372 22.9159 16.1469 22.9118 16.157 22.9097L21.975 21.698C22.0777 21.6765 22.1401 21.7169 22.1622 21.8194L24.0351 30.4804C24.0356 30.483 24.0369 30.4852 24.0389 30.4869C24.0408 30.4885 24.0433 30.4895 24.0459 30.4896C24.0485 30.4897 24.051 30.4889 24.0532 30.4874C24.0554 30.4859 24.0571 30.4838 24.0579 30.4813C24.0631 30.4655 24.0668 30.447 24.0691 30.4258C24.4361 26.9968 24.8007 23.5674 25.1629 20.1376C25.1686 20.0845 25.1785 20.0497 25.1926 20.033C25.2158 20.0055 25.2448 19.9934 25.2795 19.9969L31.2507 20.6232C31.2615 20.6243 31.272 20.6275 31.2815 20.6327C31.2911 20.6379 31.2995 20.6449 31.3063 20.6533C31.3132 20.6618 31.3183 20.6715 31.3214 20.6819C31.3244 20.6923 31.3255 20.7032 31.3243 20.714C30.7914 25.7333 30.2585 30.7581 29.7256 35.7883C29.6909 36.1177 29.6057 36.4334 29.4699 36.7353C28.3826 39.1558 27.2871 41.5692 26.1835 43.9754C26.1743 43.9954 26.1587 44.0116 26.1391 44.0216C26.1196 44.0315 26.0973 44.0345 26.0759 44.0301L10.872 40.8555C10.8602 40.8531 10.8494 40.8473 10.8408 40.8387C10.8323 40.8301 10.8263 40.8192 10.8238 40.8073L9.31033 33.7544C9.30818 33.7445 9.30803 33.7341 9.30988 33.7241C9.31172 33.7141 9.31554 33.7045 9.3211 33.6959C9.32666 33.6874 9.33385 33.68 9.34227 33.6742C9.35069 33.6685 9.36017 33.6644 9.37016 33.6623L17.9714 31.8721ZM20.6677 34.7591C20.8567 33.6658 18.9765 33.1849 18.7079 34.2925C18.4995 35.1517 18.9593 35.6062 19.8133 35.5735C20.2738 35.5554 20.5941 35.1839 20.6677 34.7591ZM24.9488 35.4591C25.0291 35.2409 25.0195 34.9997 24.9219 34.7886C24.8244 34.5775 24.647 34.4138 24.4287 34.3335L24.2308 34.2606C24.0125 34.1803 23.7713 34.19 23.5602 34.2876C23.3491 34.3851 23.1854 34.5625 23.1051 34.7807L23.0361 34.9682C22.9558 35.1864 22.9655 35.4276 23.0631 35.6387C23.1606 35.8498 23.338 36.0136 23.5563 36.0938L23.7542 36.1667C23.9725 36.247 24.2137 36.2373 24.4248 36.1397C24.6359 36.0422 24.7996 35.8648 24.8799 35.6466L24.9488 35.4591Z" fill="#00CCBC"/>
<path d="M59.0808 29.2993C59.7662 29.2993 60.3218 28.7437 60.3218 28.0583C60.3218 27.3729 59.7662 26.8173 59.0808 26.8173C58.3955 26.8173 57.8398 27.3729 57.8398 28.0583C57.8398 28.7437 58.3955 29.2993 59.0808 29.2993Z" fill="#00CCBC"/>
<path d="M39.1054 38.1037C35.1268 37.304 35.3175 30.6126 39.3616 30.2158C40.3998 30.1139 41.2904 30.4441 42.0334 31.2062C42.0387 31.2118 42.0456 31.2157 42.0532 31.2173C42.0608 31.219 42.0687 31.2183 42.0759 31.2153C42.0831 31.2124 42.0893 31.2074 42.0936 31.2009C42.0979 31.1945 42.1001 31.1869 42.1001 31.1791V27.0068C42.1001 26.9954 42.1046 26.9844 42.1127 26.9763C42.1208 26.9683 42.1317 26.9637 42.1431 26.9637H44.0272C44.0384 26.9637 44.0491 26.9682 44.057 26.9761C44.0649 26.984 44.0694 26.9947 44.0694 27.0059C44.0694 29.9244 44.0695 32.8481 44.0698 35.7772C44.0698 36.4775 44.2304 37.1929 44.3901 37.8821C44.4107 37.971 44.3754 38.0155 44.2842 38.0155H42.4393C42.4153 38.0155 42.3921 38.0072 42.3735 37.9921C42.3549 37.977 42.3421 37.9559 42.3372 37.9324L42.1707 37.1189C42.169 37.1108 42.1652 37.1034 42.1596 37.0973C42.1541 37.0912 42.147 37.0867 42.1391 37.0843C42.1313 37.0819 42.1229 37.0816 42.1149 37.0836C42.1069 37.0855 42.0995 37.0895 42.0936 37.0952C41.2925 37.8803 40.2543 38.3349 39.1054 38.1037ZM42.128 34.2049C42.1316 33.689 41.9244 33.1928 41.5519 32.8254C41.1794 32.458 40.6722 32.2495 40.1418 32.2458C39.8791 32.244 39.6187 32.2925 39.3754 32.3885C39.1321 32.4846 38.9107 32.6263 38.7237 32.8057C38.5367 32.985 38.3879 33.1984 38.2858 33.4337C38.1836 33.669 38.1302 33.9216 38.1284 34.177C38.1248 34.6929 38.332 35.1891 38.7045 35.5565C39.077 35.9239 39.5842 36.1324 40.1146 36.1361C40.3772 36.138 40.6376 36.0895 40.8809 35.9934C41.1242 35.8973 41.3457 35.7556 41.5327 35.5763C41.7196 35.3969 41.8684 35.1835 41.9706 34.9482C42.0727 34.7129 42.1262 34.4604 42.128 34.2049Z" fill="#00CCBC"/>
<path d="M56.2749 26.9634H54.4283C54.3946 26.9634 54.3672 26.9908 54.3672 27.0245V37.9536C54.3672 37.9874 54.3946 38.0147 54.4283 38.0147H56.2749C56.3087 38.0147 56.3361 37.9874 56.3361 37.9536V27.0245C56.3361 26.9908 56.3087 26.9634 56.2749 26.9634Z" fill="#00CCBC"/>
<path d="M52.5296 37.301C49.6495 38.9466 45.5374 38.2558 45.3897 34.2578C45.3075 32.0306 46.9066 30.1336 49.1996 30.1724C51.8943 30.218 53.508 32.4064 53.0048 35.0033C53.0026 35.0149 52.9964 35.0254 52.9873 35.033C52.9782 35.0405 52.9667 35.0446 52.9549 35.0446L47.5863 35.0459C47.5713 35.046 47.5565 35.0501 47.5437 35.0579C47.5308 35.0658 47.5203 35.077 47.5134 35.0903C47.5065 35.1036 47.5034 35.1186 47.5044 35.1335C47.5054 35.1484 47.5105 35.1628 47.5192 35.175C48.5105 36.5822 50.4484 36.2804 51.7608 35.6102C51.7712 35.6049 51.7825 35.6018 51.7941 35.6011C51.8057 35.6003 51.8173 35.6019 51.8282 35.6058C51.8392 35.6096 51.8492 35.6157 51.8578 35.6236C51.8663 35.6314 51.8732 35.6409 51.8779 35.6515L52.5658 37.1908C52.5744 37.2104 52.5756 37.2325 52.5689 37.2529C52.5622 37.2732 52.5482 37.2904 52.5296 37.301ZM47.3823 33.4782C47.4154 33.4804 47.4671 33.4997 47.4977 33.4993C48.4071 33.4901 49.3164 33.4855 50.2258 33.4855C50.4208 33.4851 50.757 33.5083 51.0213 33.489C51.0322 33.4882 51.0428 33.4848 51.0522 33.4793C51.0616 33.4737 51.0696 33.466 51.0755 33.4569C51.0815 33.4477 51.0852 33.4373 51.0865 33.4264C51.0878 33.4156 51.0865 33.4046 51.0829 33.3943C50.8981 32.8754 50.557 32.5164 50.0597 32.3173C49.0305 31.9049 47.6315 32.1916 47.3375 33.4167C47.3283 33.4545 47.3433 33.4751 47.3823 33.4782Z" fill="#00CCBC"/>
<path d="M76.1021 37.3268C73.9688 38.5648 70.3961 38.6453 69.3019 35.8758C68.1074 32.8523 70.2149 29.6296 73.6154 30.2765C75.8895 30.7091 76.9562 32.8476 76.5946 35.0029C76.5874 35.0453 76.5623 35.0666 76.5193 35.0666L71.1348 35.0769C71.1239 35.0769 71.1131 35.0796 71.1034 35.0846C71.0938 35.0897 71.0855 35.097 71.0792 35.106C71.073 35.1149 71.069 35.1252 71.0675 35.1361C71.0661 35.1469 71.0673 35.1579 71.0711 35.1681C71.0794 35.1908 71.0943 35.2164 71.1158 35.2448C72.161 36.6123 74.0132 36.2994 75.351 35.6541C75.36 35.6497 75.3697 35.6472 75.3797 35.6467C75.3896 35.6462 75.3996 35.6477 75.409 35.6511C75.4184 35.6545 75.427 35.6597 75.4343 35.6666C75.4417 35.6734 75.4476 35.6816 75.4517 35.6907L76.1374 37.2171C76.1587 37.2644 76.1469 37.301 76.1021 37.3268ZM74.6752 33.4558C74.531 31.6944 71.013 31.7857 70.9652 33.4575C70.965 33.4622 70.9658 33.4669 70.9674 33.4712C70.9691 33.4756 70.9716 33.4796 70.9748 33.4829C70.978 33.4862 70.9819 33.4889 70.9862 33.4907C70.9904 33.4924 70.995 33.4933 70.9996 33.4933L74.6511 33.4816C74.6545 33.4817 74.6578 33.481 74.6609 33.4797C74.6639 33.4783 74.6667 33.4764 74.669 33.474C74.6712 33.4715 74.673 33.4687 74.674 33.4655C74.6751 33.4624 74.6755 33.4591 74.6752 33.4558Z" fill="#00CCBC"/>
<path d="M78.0247 38.0151C78.0094 38.0151 77.9947 38.009 77.9839 37.9982C77.9731 37.9873 77.967 37.9727 77.967 37.9574C77.9673 36.1222 77.9663 34.2799 77.964 32.4304C77.9632 31.7555 77.8073 31.0934 77.6653 30.4207C77.6636 30.4126 77.6637 30.4042 77.6656 30.3962C77.6676 30.3881 77.6713 30.3806 77.6765 30.3742C77.6818 30.3677 77.6884 30.3625 77.6959 30.359C77.7034 30.3554 77.7116 30.3535 77.7199 30.3535H79.6126C79.656 30.3535 79.6821 30.3746 79.691 30.4168L79.864 31.2329C79.865 31.2375 79.8673 31.2418 79.8707 31.2452C79.874 31.2486 79.8782 31.251 79.8828 31.2521C79.8874 31.2532 79.8923 31.253 79.8968 31.2515C79.9013 31.2501 79.9053 31.2473 79.9083 31.2437C80.8416 30.1223 82.0946 29.9364 83.3782 30.5558C83.3867 30.5598 83.3934 30.567 83.3967 30.5759C83.4 30.5847 83.3997 30.5945 83.3958 30.6032L82.5199 32.5716C82.5151 32.5822 82.5083 32.5918 82.4997 32.5998C82.4912 32.6078 82.4812 32.6139 82.4702 32.618C82.4593 32.622 82.4477 32.6239 82.436 32.6234C82.4244 32.6229 82.4129 32.62 82.4024 32.6151C81.7369 32.3034 80.3418 32.1558 80.0018 33.0683C79.9593 33.1828 79.9379 33.3932 79.9376 33.6994C79.9359 35.1224 79.9356 36.5388 79.9368 37.9483C79.9368 37.966 79.9297 37.983 79.9172 37.9955C79.9047 38.008 79.8877 38.0151 79.87 38.0151H78.0247Z" fill="#00CCBC"/>
<path d="M88.7183 37.8364C86.8321 38.6263 84.5705 37.9686 83.6679 36.0385C82.3748 33.2737 84.1496 30.0604 87.3409 30.205C89.7204 30.3126 91.1581 32.229 91.0406 34.4992C90.9623 36.0144 90.1195 37.2497 88.7183 37.8364ZM89.1524 34.1536C89.1434 33.6381 88.9245 33.1474 88.5439 32.7894C88.1632 32.4315 87.652 32.2356 87.1228 32.2448C86.5935 32.254 86.0894 32.4677 85.7215 32.8387C85.3536 33.2097 85.152 33.7078 85.161 34.2232C85.17 34.7387 85.3889 35.2294 85.7695 35.5874C86.1501 35.9453 86.6613 36.1412 87.1906 36.132C87.7199 36.1228 88.2239 35.9091 88.5918 35.5381C88.9597 35.1671 89.1614 34.669 89.1524 34.1536Z" fill="#00CCBC"/>
<path d="M94.4027 37.8838C91.9026 36.9708 91.2363 33.461 92.9129 31.5343C94.3949 29.831 97.2815 29.7118 98.7924 31.4478C100.398 33.2922 100.078 36.4905 97.8002 37.6927C96.7564 38.2441 95.5102 38.288 94.4027 37.8838ZM97.8953 34.2071C97.8998 33.6913 97.6937 33.1947 97.3223 32.8266C96.951 32.4586 96.4447 32.2492 95.915 32.2446C95.6528 32.2423 95.3926 32.2903 95.1495 32.386C94.9063 32.4816 94.6849 32.623 94.4978 32.802C94.3108 32.981 94.1618 33.1941 94.0594 33.4292C93.957 33.6644 93.9031 33.9168 93.9009 34.1723C93.8964 34.6882 94.1025 35.1848 94.4738 35.5528C94.8452 35.9208 95.3514 36.1302 95.8811 36.1348C96.1434 36.1371 96.4035 36.0891 96.6467 35.9934C96.8898 35.8978 97.1113 35.7565 97.2983 35.5775C97.4853 35.3984 97.6343 35.1853 97.7367 34.9502C97.8392 34.7151 97.893 34.4626 97.8953 34.2071Z" fill="#00CCBC"/>
<path d="M60.0081 30.3531H58.1882C58.1468 30.3531 58.1133 30.3866 58.1133 30.4279V37.9401C58.1133 37.9815 58.1468 38.015 58.1882 38.015H60.0081C60.0495 38.015 60.083 37.9815 60.083 37.9401V30.4279C60.083 30.3866 60.0495 30.3531 60.0081 30.3531Z" fill="#00CCBC"/>
<path d="M63.1874 37.988L61.1381 30.4009C61.1365 30.3953 61.1363 30.3895 61.1374 30.3838C61.1385 30.3782 61.1409 30.3728 61.1444 30.3682C61.1479 30.3637 61.1524 30.3599 61.1576 30.3574C61.1628 30.3548 61.1684 30.3535 61.1742 30.3535H63.2244C63.2328 30.3536 63.2408 30.3564 63.2474 30.3615C63.2539 30.3667 63.2586 30.3739 63.2606 30.3819L64.7284 36.4078C64.7304 36.4159 64.7351 36.4232 64.7417 36.4283C64.7483 36.4335 64.7564 36.4363 64.7648 36.4363C64.7732 36.4363 64.7813 36.4335 64.7879 36.4283C64.7945 36.4232 64.7992 36.4159 64.8012 36.4078L66.2707 30.3819C66.2727 30.3739 66.2774 30.3667 66.2839 30.3615C66.2905 30.3564 66.2986 30.3536 66.3069 30.3535H68.3769C68.3827 30.3535 68.3884 30.3548 68.3935 30.3574C68.3987 30.3599 68.4032 30.3637 68.4067 30.3682C68.4102 30.3728 68.4126 30.3782 68.4137 30.3838C68.4148 30.3895 68.4146 30.3953 68.4131 30.4009L66.3697 37.988C66.3676 37.9959 66.3628 38.0029 66.3563 38.0078C66.3498 38.0128 66.3418 38.0155 66.3336 38.0155H63.2236C63.2154 38.0155 63.2074 38.0128 63.2008 38.0078C63.1943 38.0029 63.1896 37.9959 63.1874 37.988Z" fill="#00CCBC"/>
<path d="M47.3833 33.4781C47.3443 33.4749 47.3294 33.4544 47.3386 33.4165C47.6326 32.1915 49.0315 31.9048 50.0607 32.3172C50.558 32.5163 50.8991 32.8753 51.0839 33.3941C51.0876 33.4044 51.0888 33.4154 51.0875 33.4263C51.0863 33.4372 51.0825 33.4476 51.0766 33.4567C51.0706 33.4659 51.0626 33.4736 51.0532 33.4791C51.0438 33.4847 51.0332 33.488 51.0223 33.4888C50.758 33.5082 50.4219 33.485 50.2269 33.4854C49.3175 33.4854 48.4081 33.49 47.4987 33.4992C47.4681 33.4996 47.4165 33.4802 47.3833 33.4781Z" fill="black"/>
<path d="M70.9688 33.4575C71.0166 31.7857 74.5346 31.6944 74.6788 33.4558C74.6791 33.4591 74.6787 33.4624 74.6776 33.4655C74.6766 33.4687 74.6748 33.4715 74.6726 33.474C74.6703 33.4764 74.6675 33.4783 74.6645 33.4797C74.6614 33.481 74.6581 33.4817 74.6547 33.4817L71.0032 33.4933C70.9986 33.4933 70.994 33.4924 70.9898 33.4907C70.9855 33.4889 70.9816 33.4862 70.9784 33.4829C70.9752 33.4796 70.9727 33.4756 70.971 33.4712C70.9694 33.4669 70.9686 33.4622 70.9688 33.4575Z" fill="black"/>
<path d="M40.1172 36.1361C41.2217 36.1438 42.1231 35.2792 42.1306 34.2049C42.1381 33.1306 41.2488 32.2535 40.1443 32.2458C39.0399 32.2381 38.1385 33.1027 38.131 34.177C38.1235 35.2513 39.0127 36.1284 40.1172 36.1361Z" fill="black"/>
<path d="M87.1885 36.132C88.2907 36.1127 89.169 35.227 89.1503 34.1535C89.1316 33.0801 88.2229 32.2255 87.1207 32.2448C86.0185 32.264 85.1402 33.1498 85.1589 34.2232C85.1777 35.2966 86.0864 36.1512 87.1885 36.132Z" fill="black"/>
<path d="M95.8812 36.1348C96.9842 36.1445 97.886 35.2814 97.8954 34.2071C97.9048 33.1329 97.0182 32.2542 95.9152 32.2446C94.8121 32.235 93.9104 33.098 93.901 34.1723C93.8916 35.2465 94.7782 36.1252 95.8812 36.1348Z" fill="black"/>
<path d="M18.71 34.2927C18.9786 33.1851 20.8588 33.666 20.6698 34.7593C20.5962 35.1841 20.2759 35.5556 19.8154 35.5737C18.9614 35.6064 18.5016 35.1519 18.71 34.2927Z" fill="black"/>
<path d="M24.431 34.3335L24.233 34.2606C23.7786 34.0934 23.2746 34.3263 23.1074 34.7808L23.0384 34.9682C22.8712 35.4227 23.1041 35.9266 23.5586 36.0939L23.7565 36.1667C24.211 36.3339 24.7149 36.101 24.8822 35.6466L24.9511 35.4591C25.1183 35.0046 24.8855 34.5007 24.431 34.3335Z" fill="black"/>
</g>
<defs>
<clipPath id="clip0_1214_9107">
<rect width="90.9968" height="24.4495" fill="white" transform="translate(9 19.7753)"/>
</clipPath>
</defs>
</svg>
