<svg width="109" height="64" viewBox="0 0 109 64" fill="none" xmlns="http://www.w3.org/2000/svg">
<g clip-path="url(#clip0_1214_9065)">
<path d="M23.3963 27.0224L18.6981 30.0195L23.3963 33.0166L18.6981 36.0137L14 33.0004L18.6981 30.0033L14 27.0224L18.6981 24.0253L23.3963 27.0224ZM18.6738 36.9776L23.372 33.9805L28.0701 36.9776L23.372 39.9747L18.6738 36.9776ZM23.3963 33.0004L28.0944 30.0033L23.3963 27.0224L28.0701 24.0253L32.7682 27.0224L28.0701 30.0195L32.7682 33.0166L28.0701 36.0137L23.3963 33.0004Z" fill="#0061FF"/>
<path d="M36.4531 27.0224H40.2521C42.6741 27.0224 44.6749 28.4237 44.6749 31.6233V32.2956C44.6749 35.5195 42.8037 36.9695 40.325 36.9695H36.4531V27.0224ZM38.5754 28.8287V35.155H40.2035C41.5806 35.155 42.504 34.2559 42.504 32.2551V31.7286C42.504 29.7279 41.532 28.8287 40.1306 28.8287H38.5754ZM45.8008 28.926H47.5018L47.7772 30.7971C48.1013 29.5254 48.9275 28.845 50.426 28.845H50.9525V30.9915H50.0777C48.3524 30.9915 47.9311 31.5909 47.9311 33.292V36.9938H45.8332V28.926H45.8008ZM51.3737 33.1219V32.8951C51.3737 30.1977 53.0991 28.7234 55.4482 28.7234C57.8458 28.7234 59.5226 30.1977 59.5226 32.8951V33.1219C59.5226 35.7706 57.8944 37.1963 55.4482 37.1963C52.848 37.172 51.3737 35.7787 51.3737 33.1219ZM57.376 33.0976V32.8951C57.376 31.3965 56.6227 30.4974 55.4239 30.4974C54.2493 30.4974 53.4717 31.3236 53.4717 32.8951V33.0976C53.4717 34.5475 54.225 35.3737 55.4239 35.3737C56.6227 35.3494 57.376 34.5475 57.376 33.0976ZM60.6242 28.926H62.3739L62.5764 30.4488C62.9976 29.4282 63.8967 28.7234 65.2251 28.7234C67.2745 28.7234 68.6272 30.1977 68.6272 32.9275V33.1543C68.6272 35.803 67.1287 37.2044 65.2251 37.2044C63.9534 37.2044 63.0786 36.6293 62.6493 35.7058V39.7803H60.5999L60.6242 28.926ZM66.4969 33.0976V32.9194C66.4969 31.3155 65.6706 30.5217 64.569 30.5217C63.3945 30.5217 62.6169 31.4208 62.6169 32.9194V33.0733C62.6169 34.4989 63.3702 35.398 64.5447 35.398C65.7516 35.3737 66.4969 34.6042 66.4969 33.0976ZM71.7296 35.5033L71.5514 36.9776H69.7532V26.2286H71.8025V30.3516C72.2561 29.2986 73.1553 28.7234 74.427 28.7234C76.3548 28.7477 77.7805 30.0762 77.7805 32.7493V33.0004C77.7805 35.6734 76.4278 37.2044 74.3784 37.2044C73.0257 37.172 72.1508 36.5483 71.7296 35.5033ZM75.6258 33.0004V32.7979C75.6258 31.3236 74.8239 30.4974 73.698 30.4974C72.5477 30.4974 71.7458 31.4208 71.7458 32.8222V33.0004C71.7458 34.4989 72.5234 35.3737 73.6737 35.3737C74.9049 35.3737 75.6258 34.6042 75.6258 33.0004ZM78.6796 33.1219V32.8951C78.6796 30.1977 80.405 28.7234 82.754 28.7234C85.1517 28.7234 86.8284 30.1977 86.8284 32.8951V33.1219C86.8284 35.7706 85.176 37.1963 82.754 37.1963C80.1539 37.172 78.6796 35.7787 78.6796 33.1219ZM84.6981 33.0976V32.8951C84.6981 31.3965 83.9448 30.4974 82.7459 30.4974C81.5714 30.4974 80.7938 31.3236 80.7938 32.8951V33.0976C80.7938 34.5475 81.5471 35.3737 82.7459 35.3737C83.9529 35.3494 84.6981 34.5475 84.6981 33.0976ZM89.5744 32.7979L86.7474 28.926H89.1694L90.7976 31.3479L92.45 28.926H94.8477L91.9802 32.7736L95.0016 36.9776H92.6282L90.7814 34.3045L88.9831 36.9776H86.5044L89.5744 32.7979Z" fill="white"/>
</g>
<defs>
<clipPath id="clip0_1214_9065">
<rect width="81.0023" height="15.9493" fill="white" transform="translate(14 24.0253)"/>
</clipPath>
</defs>
</svg>
