<svg width="109" height="64" viewBox="0 0 109 64" fill="none" xmlns="http://www.w3.org/2000/svg">
<g clip-path="url(#clip0_1214_9096)">
<path d="M58.8203 29.1401C58.8203 27.2552 58.8528 25.5003 58.9502 23.8753L53.9779 24.8178V25.2728L54.4654 25.3378C54.8229 25.3703 55.0504 25.5003 55.1804 25.6953C55.3104 25.9228 55.4079 26.2477 55.4729 26.7352C55.5379 27.6777 55.6029 29.8226 55.5704 33.2025C55.5704 36.5498 55.5379 38.6623 55.4729 39.4747C57.2603 39.8647 58.6578 40.0272 59.6977 40.0272C61.6476 40.0272 63.1751 39.4747 64.28 38.3373C65.385 37.2323 65.97 35.6724 65.97 33.7549C65.97 32.2275 65.5475 30.9601 64.7025 29.9526C63.8576 28.9451 62.7851 28.4577 61.5176 28.4577C60.6727 28.4577 59.7952 28.6852 58.8203 29.1401ZM58.9178 39.1497C58.8528 38.1098 58.7878 34.9899 58.7878 29.8876C59.0802 29.7901 59.4702 29.7251 59.9577 29.7251C60.7377 29.7251 61.3552 30.1151 61.8101 30.9276C62.2651 31.74 62.4926 32.715 62.4926 33.9499C62.4926 35.4774 62.2326 36.7123 61.7126 37.7523C61.1927 38.7597 60.5427 39.2797 59.7302 39.2797C59.4702 39.2147 59.2102 39.1822 58.9178 39.1497ZM35.3237 24.2003H22.3242V24.8503L23.0067 24.9153C23.5267 25.0128 23.8842 25.2078 24.1116 25.5003C24.3391 25.8253 24.4691 26.3452 24.5016 27.0602C24.7616 30.5701 24.7616 33.8524 24.5016 36.8748C24.4366 37.5898 24.3066 38.1098 24.1116 38.4348C23.8842 38.7597 23.5267 38.9547 23.0067 39.0197L22.3242 39.1172V39.7672H30.7089V39.1172L29.8314 39.0522C29.6173 39.0343 29.409 38.9733 29.2191 38.8727C29.0292 38.7722 28.8616 38.6343 28.7265 38.4673C28.499 38.1423 28.369 37.6223 28.3365 36.9073C28.239 35.6074 28.174 34.1124 28.174 32.455L29.9289 32.4875C30.8714 32.52 31.5213 33.235 31.8463 34.6649H32.4963V29.3676H31.8463C31.5213 30.7651 30.9039 31.48 29.9289 31.5125L28.174 31.545C28.174 28.6202 28.239 26.5402 28.3365 25.2728H30.9039C32.7238 25.2728 33.9588 26.4427 34.6737 28.7826L35.4537 28.5552L35.3237 24.2003ZM33.7963 34.2099C33.7963 35.8999 34.2837 37.2973 35.2262 38.4023C36.1687 39.5072 37.5661 40.0272 39.321 40.0272C41.076 40.0272 42.5059 39.4747 43.5459 38.3373C44.5858 37.2323 45.0733 35.8349 45.0733 34.1449C45.0733 32.455 44.5858 31.0576 43.6434 29.9526C42.7009 28.8476 41.3035 28.3277 39.5485 28.3277C37.7936 28.3277 36.3637 28.8801 35.3237 30.0176C34.2837 31.1226 33.7963 32.52 33.7963 34.2099ZM41.0435 30.5051C41.4335 31.4475 41.5959 32.6825 41.5959 34.1774C41.5959 37.6223 40.881 39.3122 39.4835 39.3122C38.7686 39.3122 38.2161 38.8247 37.8261 37.8498C37.4361 36.8748 37.2736 35.6399 37.2736 34.1774C37.2736 30.7651 37.9886 29.0751 39.386 29.0751C40.101 29.0426 40.6535 29.5301 41.0435 30.5051ZM68.5049 38.4023C69.5773 39.4747 70.9423 40.0272 72.5672 40.0272C73.5747 40.0272 74.4521 39.8322 75.2321 39.4097C76.0121 39.0197 76.6295 38.5323 77.052 37.9473L76.727 37.5573C76.0121 38.1098 75.1996 38.3698 74.2571 38.3698C72.9572 38.3698 71.9497 37.9473 71.2673 37.0698C70.5523 36.1924 70.2273 35.0874 70.2923 33.6575H77.247C77.247 32.0975 76.857 30.8301 76.0446 29.8226C75.2321 28.8476 74.0946 28.3602 72.6322 28.3602C70.8123 28.3602 69.4148 28.9451 68.4074 30.0826C67.3999 31.2201 66.9124 32.6175 66.9124 34.2749C66.9124 35.9649 67.4324 37.3298 68.5049 38.4023ZM70.9098 30.2451C71.2673 29.4651 71.7222 29.0751 72.3397 29.0751C73.3147 29.0751 73.8022 30.3101 73.8022 32.8125L70.3573 32.8775C70.3898 31.9025 70.5523 31.0251 70.9098 30.2451ZM85.9892 28.9451C85.1117 28.5552 84.0067 28.3277 82.6743 28.3277C81.3094 28.3277 80.2369 28.6852 79.4244 29.3676C78.612 30.0501 78.1895 30.8951 78.1895 31.9025C78.1895 32.78 78.4495 33.4625 78.9369 33.9499C79.4244 34.4374 80.2044 34.8599 81.2119 35.2174C82.1218 35.5424 82.7718 35.8674 83.0968 36.1599C83.4218 36.4848 83.6168 36.8423 83.6168 37.3298C83.6168 37.7848 83.4543 38.2073 83.0968 38.5323C82.7718 38.8897 82.3168 39.0522 81.7318 39.0522C80.3019 39.0522 79.2294 38.0123 78.482 35.9324L77.9295 36.0949L78.0595 39.3447C79.2294 39.7997 80.5294 40.0272 81.9593 40.0272C83.4543 40.0272 84.5917 39.7022 85.4367 39.0197C86.2817 38.3698 86.7041 37.4273 86.7041 36.2573C86.7041 35.4774 86.5091 34.8274 86.0867 34.3399C85.6642 33.8524 84.9817 33.43 84.0067 33.04C82.9343 32.65 82.1868 32.2925 81.7968 31.9675C81.4068 31.6425 81.2119 31.2525 81.2119 30.7651C81.2119 30.2776 81.3419 29.8876 81.6343 29.5626C81.9268 29.2376 82.2843 29.1076 82.7393 29.1076C84.0392 29.1076 84.9817 30.0501 85.5667 31.9025L86.1192 31.74L85.9892 28.9451ZM54.7254 28.6527C54.2704 28.4252 53.783 28.3277 53.2305 28.3277C52.678 28.3277 52.1255 28.5552 51.508 29.0101C50.8906 29.4651 50.4356 30.0826 50.0781 30.9276L50.1106 28.3277L45.1708 29.3026V29.7576L45.6583 29.7901C46.2758 29.8551 46.6332 30.3426 46.6982 31.2201C46.8932 33.235 46.8932 35.3799 46.6982 37.6548C46.6332 38.5323 46.2758 38.9872 45.6583 39.0847L45.1708 39.1497V39.7672H52.0605V39.1497L51.1831 39.0847C50.5656 39.0197 50.2081 38.5323 50.1431 37.6548C49.9481 35.7699 49.9156 33.7549 50.0781 31.675C50.2731 31.35 50.6956 31.1551 51.3456 31.0901C51.9955 31.0251 52.743 31.2201 53.523 31.675L54.7254 28.6527Z" fill="white"/>
</g>
<defs>
<clipPath id="clip0_1214_9096">
<rect width="64.9974" height="17.5493" fill="white" transform="translate(22 23.2253)"/>
</clipPath>
</defs>
</svg>
