<svg width="109" height="64" viewBox="0 0 109 64" fill="none" xmlns="http://www.w3.org/2000/svg">
<g clip-path="url(#clip0_1214_9081)">
<path d="M18.5862 31.2448H21.393V35.2952C21.393 37.3401 20.3723 38.509 18.4029 38.509C16.4336 38.509 15.4141 37.3401 15.4141 35.2952V28.6492C15.4141 26.6042 16.4347 25.4354 18.4029 25.4354C20.3712 25.4354 21.393 26.6042 21.393 28.6492V29.8901H19.4967V28.5214C19.4967 27.6081 19.0954 27.2619 18.4528 27.2619C17.8103 27.2619 17.409 27.6104 17.409 28.5214V35.4276C17.409 36.3409 17.8091 36.6697 18.4528 36.6697C19.0965 36.6697 19.4967 36.3409 19.4967 35.4276V33.0678H18.5862V31.2448Z" fill="white"/>
<path d="M24.2909 34.1286L21.7578 25.5841H23.8536L25.3846 31.4087L26.9156 25.5841H28.8293L26.2962 34.1286V38.3649H24.2909V34.1286Z" fill="white"/>
<path d="M33.8702 34.6585L35.2376 25.5841H38.0259V38.3649H36.1307V29.1987L34.7458 38.3649H32.8496L31.3557 29.3265V38.3649H29.6055V25.5841H32.3949L33.8702 34.6585Z" fill="white"/>
<path d="M42.1825 25.4354C44.1334 25.4354 45.1354 26.6042 45.1354 28.6492V29.05H43.2438V28.5214C43.2438 27.6081 42.8796 27.2607 42.2417 27.2607C41.6038 27.2607 41.2396 27.6093 41.2396 28.5214C41.2396 31.1507 45.1587 31.6434 45.1587 35.2952C45.1587 37.3401 44.1381 38.509 42.1687 38.509C40.1993 38.509 39.1797 37.3401 39.1797 35.2952V34.5097H41.0748V35.4276C41.0748 36.3409 41.4761 36.6697 42.1187 36.6697C42.7613 36.6697 43.1626 36.3409 43.1626 35.4276C43.1626 32.7983 39.2435 32.3056 39.2435 28.6538C39.2296 26.6042 40.2282 25.4354 42.1825 25.4354Z" fill="#0086EC"/>
<path d="M48.31 38.3649H46.3047V25.5841H48.31V31.0613H50.5891V25.5841H52.6303V38.3649H50.5891V32.8877H48.31V38.3649Z" fill="#0086EC"/>
<path fill-rule="evenodd" clip-rule="evenodd" d="M58.5524 38.3649H60.5718L58.5304 25.5841H55.5961L53.5547 38.3649H55.3931L55.7411 36.0411H58.2044L58.5524 38.3649ZM57.9319 34.3111H56.0008L56.9658 27.8475L57.9319 34.3111Z" fill="#0086EC"/>
<path fill-rule="evenodd" clip-rule="evenodd" d="M65.6959 38.3513L65.7005 38.3649L67.7418 38.3672C67.5411 37.8932 67.5226 37.4366 67.5226 36.8161V34.8409C67.5226 33.5082 67.1943 32.5403 66.1923 32.1209C67.0854 31.7003 67.5052 30.8428 67.5052 29.5276V28.5237C67.5052 26.5508 66.6121 25.5841 64.5338 25.5841H61.5078V38.3637H63.5097V33.1596H64.2055C65.1172 33.1596 65.5185 33.6 65.5185 34.7863V36.7952C65.5185 37.8218 65.5883 38.0304 65.6959 38.3513ZM63.5131 31.3355V27.4129L64.4793 27.4094C65.1902 27.4094 65.4999 27.8115 65.4999 28.7247V29.9842C65.4999 31.0067 65.0441 31.3355 64.2971 31.3355H63.5131Z" fill="#0086EC"/>
<path d="M71.4608 33.2712L70.8402 34.4389V38.3649H68.8359V25.5841H70.8402V31.1531L73.4649 25.5841H75.4702L72.6819 31.2809L75.4702 38.3649H73.4104L71.4608 33.2712Z" fill="#0086EC"/>
<path d="M93.5644 25.5789H76.8594L88.9251 27.6227L84.0144 35.1564H83.5968L82.9126 35.8349L82.1923 35.1564H82.001L81.3074 35.8466L80.6172 35.1564H80.3841L79.6941 35.8477L78.982 35.1564H76.8594L79.6627 36.2486L80.4167 35.8895L80.84 36.711L81.0522 36.7923L81.9175 36.3648L82.371 37.3198L82.5495 37.3802L81.9151 38.369L93.5644 25.5789Z" fill="#0086EC"/>
<path d="M78.8359 28.4789L83.7478 29.6454L81.6358 29.8777L78.8359 28.4789Z" fill="#0086EC"/>
</g>
<defs>
<clipPath id="clip0_1214_9081">
<rect width="78.1725" height="13.1294" fill="white" transform="translate(15.4141 25.4353)"/>
</clipPath>
</defs>
</svg>
