<svg width="109" height="64" viewBox="0 0 109 64" fill="none" xmlns="http://www.w3.org/2000/svg">
<g clip-path="url(#clip0_1214_9043)">
<path d="M88.5153 26.8428H88.434C87.2747 26.8428 83.4715 27.2102 83.4511 31.9867C83.4511 36.9673 87.6205 37.2123 88.4543 37.2123H88.495C89.0238 37.2123 90.8339 37.1102 92.1355 35.8242C93.0507 34.9261 93.4982 33.6197 93.4982 31.9867C93.4778 27.2102 89.6746 26.8428 88.5153 26.8428ZM90 35.1914C89.7153 35.4364 89.2475 35.7222 88.5357 35.7222H88.3933C87.6815 35.7222 87.2137 35.4364 86.929 35.1914C86.2171 34.5587 85.851 33.4156 85.851 31.803C85.8714 28.6391 87.4374 28.1696 88.373 28.1696H88.5153C89.4509 28.1696 91.0169 28.6391 91.0373 31.803C91.0779 33.4156 90.7119 34.5587 90 35.1914ZM28.4161 38.7636C27.5009 38.4166 26.1585 37.4164 25.3653 36.4774C24.3891 35.3547 22.0299 32.2112 22.0096 32.1908L20.9316 30.762C19.8944 29.3331 18.7148 27.7409 17.5352 26.7815V37.1919H18.9588V31.803L18.9792 31.8438C19.3656 32.3337 19.7724 32.8644 20.1791 33.3952C20.8503 34.2525 21.5214 35.1506 22.0909 35.8038C22.4773 36.2529 23.4942 37.3347 23.779 37.5797C25.0806 38.8248 27.1958 39.6209 29.2906 39.6209C30.2058 39.6209 31.0804 39.478 31.8939 39.2127V39.1514C31.5685 39.2127 31.2024 39.2535 30.8363 39.2535C30.0431 39.2127 29.2093 39.0698 28.4161 38.7636Z" fill="white"/>
<path d="M19.4472 27.598C20.4234 28.7003 22.864 31.8438 22.9047 31.8846L23.9826 33.3135C25.0199 34.7424 26.1995 36.3345 27.3587 37.2939V26.8428H25.9554V32.2521L25.9147 32.2112C25.5283 31.7213 25.1215 31.1906 24.7148 30.6599C24.0436 29.8026 23.3725 28.9044 22.803 28.2512C22.4166 27.8022 21.3183 26.7203 21.0336 26.4754C19.7319 25.2302 17.6168 24.4545 15.5219 24.4545C14.6067 24.4545 13.8135 24.5974 13 24.8832V24.9444C13.3254 24.8628 13.6915 24.8424 14.0779 24.8424C14.8711 24.8424 15.644 25.0057 16.4168 25.3118C17.332 25.6384 18.6743 26.6387 19.4472 27.598ZM74.4416 32.15C73.2823 31.1498 72.001 30.9048 71.0248 30.2312C70.3536 29.6801 70.374 28.9453 70.74 28.5778C71.5739 27.6593 73.2416 28.0267 73.6687 28.1288C74.1772 28.2512 74.4416 28.3941 74.9094 28.6187V27.4551C72.8755 26.8428 69.6214 26.2712 68.3605 28.3533C67.8927 29.2106 67.7707 30.762 69.1333 31.6805C70.496 32.7624 72.8552 33.2727 73.1196 34.1708C73.3026 34.6607 73.0993 35.1302 72.7739 35.4568C71.5739 36.5999 69.4994 35.9059 68.2588 35.3343V36.5795C69.6214 37.1919 71.3298 37.3552 72.8552 37.0286C73.8925 36.7632 75.0721 35.8446 75.2348 34.6811C75.4178 33.5176 75.1941 32.7828 74.4416 32.15ZM81.9667 32.15C80.8074 31.1498 79.5261 30.9048 78.5499 30.2312C77.8787 29.6801 77.8991 28.9453 78.2652 28.5778C79.099 27.6593 80.7668 28.0267 81.1939 28.1288C81.7023 28.2512 81.9667 28.3941 82.4345 28.6187V27.4551C80.4007 26.8428 77.1466 26.2712 75.8856 28.3533C75.4178 29.2106 75.2958 30.762 76.6584 31.6805C78.0211 32.7624 80.3803 33.2727 80.6447 34.1708C80.8278 34.6607 80.6244 35.1302 80.299 35.4568C79.0787 36.5999 77.0245 35.9059 75.7839 35.3343V36.5795C77.1466 37.1919 78.855 37.3552 80.3803 37.0286C81.4176 36.7632 82.5972 35.8446 82.7802 34.6811C82.9226 33.5176 82.6989 32.7828 81.9667 32.15ZM60.9574 36.9265H67.4859V35.7426H63.2149V32.4766H66.6317V31.3335H63.2149V28.3125H67.4859V27.1286H60.9574V36.9265ZM42.2056 32.15C41.0463 31.1498 39.765 30.9048 38.7888 30.2312C38.1176 29.6801 38.138 28.9453 38.5041 28.5778C39.3379 27.6593 41.0056 28.0267 41.4328 28.1288C41.9412 28.2512 42.2056 28.3941 42.6734 28.6187V27.4551C40.6396 26.8428 37.3855 26.2712 36.1245 28.3533C35.6567 29.2106 35.5347 30.762 36.8973 31.6805C38.26 32.7624 40.6192 33.2727 40.8836 34.1708C41.0667 34.6607 40.8633 35.1302 40.5379 35.4568C39.3379 36.5999 37.2634 35.9059 36.0228 35.3343V36.5795C37.3855 37.1919 39.0939 37.3552 40.6192 37.0286C41.6565 36.7632 42.8361 35.8446 43.0191 34.6811C43.1615 33.5176 42.9378 32.7828 42.2056 32.15ZM28.7417 36.9265H35.2906V35.7426H30.9993V32.4766H34.4161V31.3335H30.9993V28.3125H35.2906V27.1286H28.7417V36.9265ZM48.307 27.0265H44.0157V37.049H46.2936V36.4366L46.2529 33.3747C46.2529 33.3747 49.6697 33.5993 50.7069 32.2112C51.4595 31.3335 51.5205 29.9659 51.1951 28.8636C50.768 27.6184 49.568 27.0469 48.307 27.0265ZM48.7952 31.5376C48.185 32.2112 47.1478 32.1092 46.2529 32.0479V28.3125C46.2529 28.3125 48.0833 27.9042 48.8562 28.9248C49.2833 29.476 49.3036 30.8436 48.7952 31.5376ZM58.7609 32.1908C59.493 31.3335 59.554 29.9863 59.249 28.9044C58.8422 27.7001 57.6626 27.1286 56.422 27.1081H52.212V36.9265H54.4492L54.4288 33.3135C54.4288 33.3135 54.8356 33.3543 55.5068 33.3135L57.6626 36.9469H60.1235L57.6423 32.9053C58.049 32.742 58.5168 32.5174 58.7609 32.1908ZM56.9508 31.5376C56.3406 32.1908 55.3237 32.1092 54.4695 32.0479V28.3737C54.4695 28.3737 56.2593 27.9655 57.0118 28.9657C57.4389 29.5168 57.4592 30.864 56.9508 31.5376ZM94.7594 34.7424C94.0476 34.7424 93.4781 35.2935 93.4781 35.9875C93.4781 36.6815 94.0476 37.2327 94.7594 37.2327C95.4306 37.2327 96 36.702 96 35.9875C96 35.2935 95.4306 34.7424 94.7594 34.7424ZM94.7594 37.0898C94.1289 37.0898 93.6001 36.6203 93.6001 35.9875C93.6001 35.3752 94.1086 34.8853 94.7594 34.8853C95.3696 34.8853 95.878 35.3956 95.878 35.9875C95.878 36.6203 95.3696 37.0898 94.7594 37.0898Z" fill="white"/>
<path d="M95.1058 35.9875C95.1465 35.9467 95.3295 35.8855 95.3295 35.6405C95.3295 35.3956 95.1668 35.2527 94.8821 35.2527H94.2109V36.6407H94.4347V36.0896H94.8211C95.0448 36.0896 95.1058 36.1917 95.1058 36.4366C95.1058 36.5387 95.1058 36.5999 95.1465 36.6611H95.4109C95.3499 36.5999 95.3499 36.4366 95.3499 36.2733C95.3295 36.0488 95.2075 35.9875 95.1058 35.9875ZM94.8618 35.8855H94.455V35.4364H94.8618C94.9838 35.4364 95.1262 35.4568 95.1262 35.6609C95.1058 35.8038 95.0245 35.8855 94.8618 35.8855Z" fill="white"/>
</g>
<defs>
<clipPath id="clip0_1214_9043">
<rect width="83" height="15.0909" fill="white" transform="translate(13 24.4545)"/>
</clipPath>
</defs>
</svg>
