<svg width="109" height="64" viewBox="0 0 109 64" fill="none" xmlns="http://www.w3.org/2000/svg">
<mask id="mask0_1214_9128" style="mask-type:luminance" maskUnits="userSpaceOnUse" x="-11" y="-5" width="131" height="74">
<path d="M119.674 -4.65219H-10.6758V68.652H119.674V-4.65219Z" fill="white"/>
</mask>
<g mask="url(#mask0_1214_9128)">
<mask id="mask1_1214_9128" style="mask-type:luminance" maskUnits="userSpaceOnUse" x="23" y="21" width="63" height="22">
<path d="M85.5588 21.7641H23.4414V42.2355H85.5588V21.7641Z" fill="white"/>
</mask>
<g mask="url(#mask1_1214_9128)">
<path d="M79.7314 35.2241C77.9963 35.2241 76.7734 33.8707 76.7734 32.0907C76.7734 30.3109 77.9963 28.9575 79.7314 28.9575C81.4657 28.9575 82.6545 30.3109 82.6545 32.0907C82.6545 33.8707 81.4489 35.2241 79.7314 35.2241ZM79.452 37.0892C80.8518 37.0892 82.0405 36.5433 82.7911 35.4003C82.9331 36.5092 83.735 36.9129 84.748 36.9129H85.5553V35.1558H85.2085C84.6344 35.1558 84.4917 34.8772 84.4917 34.2232V27.2743H82.6376V28.7017C82.006 27.7008 80.8173 27.0981 79.452 27.0981C77.018 27.0981 74.7827 29.1395 74.7827 32.0907C74.7827 35.0421 77.0237 37.0835 79.452 37.0835V37.0892ZM69.9025 34.6781C69.9025 36.259 70.8808 36.9129 72.0525 36.9129H74.3105V35.1558H72.6668C71.9842 35.1558 71.8421 34.8942 71.8421 34.2232V29.0314H74.3105V27.2743H71.8421V24.0387H69.9025V34.6781ZM61.0692 36.9129H63.0087V32.7788H63.6571L66.9618 36.9129H69.4133L65.1986 31.67L68.435 27.2743H66.2509L63.6059 30.9876H63.0087V24.0387H61.0692V36.9129ZM54.7727 27.0981C52.0596 27.0981 49.8242 29.1395 49.8242 32.0907C49.8242 35.0421 52.0652 37.0835 54.7727 37.0835C57.4801 37.0835 59.7211 35.0421 59.7211 32.0907C59.7211 29.1395 57.4801 27.0981 54.7727 27.0981ZM54.7727 35.2241C53.0379 35.2241 51.815 33.8707 51.815 32.0907C51.815 30.3109 53.0379 28.9575 54.7727 28.9575C56.5075 28.9575 57.7304 30.3109 57.7304 32.0907C57.7304 33.8707 56.5075 35.2241 54.7727 35.2241Z" fill="white"/>
<path fill-rule="evenodd" clip-rule="evenodd" d="M34.7032 21.9119L34.2823 27.098C34.0833 27.0753 33.8841 27.0639 33.6794 27.0639C33.4234 27.0639 33.1732 27.0809 32.9286 27.1208L32.6897 24.6073C32.684 24.5277 32.7466 24.4595 32.8262 24.4595H33.2528L33.048 21.9176C33.0423 21.838 33.1049 21.7698 33.1789 21.7698H34.5724C34.652 21.7698 34.7146 21.838 34.7032 21.9176V21.9119ZM31.1881 22.1678C31.1654 22.0939 31.0857 22.0484 31.0117 22.0768L29.7036 22.5545C29.6296 22.5829 29.5955 22.6682 29.6296 22.7365L30.6933 25.0565L30.2894 25.2044C30.2155 25.2328 30.1813 25.3181 30.2155 25.3864L31.3018 27.6666C31.6943 27.4506 32.1209 27.2856 32.5702 27.1833L31.1938 22.1678H31.1881ZM27.9801 23.6122L30.989 27.8543C30.6079 28.1045 30.261 28.4002 29.9652 28.7414L28.1622 26.9672C28.1053 26.9103 28.111 26.8194 28.1678 26.7682L28.4977 26.4952L26.706 24.6813C26.6492 24.6243 26.6549 24.5334 26.7174 24.4822L27.781 23.5894C27.8436 23.5382 27.9289 23.5496 27.9744 23.6122H27.9801ZM25.4547 26.0687C25.3921 26.0232 25.3011 26.046 25.2613 26.1142L24.5674 27.3198C24.5276 27.388 24.556 27.4733 24.6243 27.5074L26.9336 28.5992L26.7174 28.9689C26.6776 29.0371 26.706 29.1281 26.7799 29.1565L29.0779 30.2085C29.2428 29.782 29.4647 29.3839 29.7377 29.0257L25.4547 26.0687ZM23.754 29.3441C23.7654 29.2646 23.845 29.2191 23.919 29.2361L28.9527 30.5497C28.8219 30.9762 28.748 31.4254 28.7366 31.8917L26.2169 31.687C26.1372 31.6813 26.0804 31.6074 26.0974 31.5277L26.1714 31.107L23.6289 30.8682C23.5493 30.8625 23.4981 30.7885 23.5094 30.7089L23.7483 29.3384L23.754 29.3441ZM23.5663 32.7447C23.4867 32.7503 23.4355 32.8243 23.4469 32.9039L23.6915 34.2744C23.7028 34.3539 23.7825 34.3994 23.8564 34.3824L26.3249 33.7398L26.3989 34.1606C26.4103 34.2402 26.4899 34.2857 26.5638 34.2687L28.9983 33.5977C28.8561 33.1768 28.765 32.7276 28.7423 32.2671L23.5606 32.7447H23.5663ZM24.374 36.3499C24.3342 36.2817 24.3626 36.1964 24.4309 36.1623L29.1291 33.9332C29.3054 34.3539 29.5443 34.7464 29.8287 35.0989L27.7697 36.566C27.7071 36.6115 27.6161 36.5944 27.5763 36.5262L27.3601 36.1509L25.2613 37.6009C25.1988 37.6464 25.1077 37.6237 25.0679 37.5554L24.3683 36.3499H24.374ZM30.0676 35.3718L26.4103 39.0737C26.3534 39.1306 26.3591 39.2216 26.4216 39.2728L27.491 40.1656C27.5535 40.2167 27.6388 40.2054 27.6844 40.1428L29.1632 38.0616L29.4931 38.3402C29.5557 38.3913 29.6466 38.38 29.6922 38.3118L31.1255 36.2305C30.7388 35.9917 30.3804 35.7016 30.0733 35.3718H30.0676ZM29.3452 41.3143C29.2713 41.2858 29.2372 41.2005 29.2713 41.1323L31.4383 36.4011C31.8365 36.6058 32.2688 36.7594 32.7182 36.8447L32.0811 39.2898C32.064 39.3637 31.9787 39.4092 31.9048 39.3808L31.501 39.233L30.8241 41.6952C30.8013 41.7692 30.7217 41.8146 30.6477 41.7862L29.3395 41.3085L29.3452 41.3143ZM33.0765 36.9072L32.6556 42.0933C32.6499 42.1729 32.7124 42.2412 32.7864 42.2412H34.18C34.2595 42.2412 34.3221 42.1729 34.3107 42.0933L34.106 39.5514H34.5326C34.6122 39.5514 34.6748 39.4832 34.6691 39.4035L34.4302 36.8902C34.1856 36.9299 33.9354 36.947 33.6794 36.947C33.4746 36.947 33.2756 36.9356 33.0765 36.9072ZM38.0932 22.8672C38.1273 22.7933 38.0932 22.7137 38.0192 22.6853L36.7111 22.2076C36.6371 22.1792 36.5574 22.2247 36.5347 22.2986L35.8578 24.7608L35.454 24.613C35.3801 24.5846 35.3005 24.6301 35.2777 24.704L34.6406 27.1491C35.0956 27.2401 35.5223 27.3937 35.9204 27.5927L38.0932 22.8672ZM40.9485 24.9315L37.2912 28.6334C36.984 28.3035 36.6314 28.0135 36.2389 27.7747L37.6723 25.6934C37.7178 25.6309 37.8088 25.6138 37.8713 25.665L38.2012 25.9437L39.6801 23.8624C39.7256 23.7998 39.8166 23.7884 39.8735 23.8396L40.9429 24.7324C41.0054 24.7836 41.0054 24.8746 40.9542 24.9315H40.9485ZM42.9279 27.843C43.0018 27.8088 43.0246 27.7235 42.9848 27.6553L42.2851 26.4497C42.2453 26.3815 42.1543 26.3644 42.0918 26.4042L39.9929 27.8543L39.7768 27.4847C39.737 27.4165 39.646 27.3937 39.5834 27.4448L37.5244 28.912C37.8088 29.2646 38.042 29.6569 38.224 30.0778L42.9222 27.8486L42.9279 27.843ZM43.6674 29.7308L43.9062 31.1013C43.9176 31.1809 43.8664 31.2492 43.7868 31.2605L38.6051 31.7439C38.5823 31.2776 38.4913 30.834 38.3491 30.4132L40.7835 29.7422C40.8575 29.7195 40.9371 29.7706 40.9485 29.8503L41.0224 30.2711L43.491 29.6285C43.5649 29.6114 43.6446 29.6569 43.6559 29.7366L43.6674 29.7308ZM43.4341 34.7634C43.508 34.7804 43.5877 34.7349 43.599 34.6554L43.8379 33.2849C43.8493 33.2053 43.7981 33.137 43.7185 33.1257L41.176 32.8868L41.25 32.4661C41.2613 32.3864 41.2101 32.3182 41.1305 32.3068L38.6108 32.1021C38.5994 32.5684 38.5255 33.0176 38.3946 33.4441L43.4285 34.7577L43.4341 34.7634ZM42.0918 37.8909C42.0519 37.9592 41.9609 37.9763 41.8984 37.9364L37.6154 34.9794C37.8884 34.6212 38.1102 34.2232 38.2752 33.7967L40.5731 34.8487C40.647 34.8828 40.6755 34.9681 40.6357 35.0363L40.4195 35.406L42.7288 36.4977C42.7971 36.5319 42.8255 36.6172 42.7857 36.6854L42.0918 37.8909ZM36.364 36.1452L39.3729 40.3873C39.4184 40.4499 39.5095 40.4613 39.5663 40.4101L40.63 39.5173C40.6925 39.4661 40.6925 39.3752 40.6413 39.3182L38.8497 37.5043L39.1796 37.2314C39.2422 37.1802 39.2422 37.0892 39.1852 37.0323L37.3822 35.2581C37.0807 35.5993 36.7395 35.9007 36.3584 36.1452H36.364ZM36.3356 41.9227C36.2617 41.9511 36.1821 41.9056 36.1593 41.8317L34.7828 36.8162C35.2322 36.7139 35.6588 36.549 36.0512 36.3328L37.1376 38.6131C37.1717 38.687 37.1376 38.7723 37.0637 38.7951L36.6599 38.943L37.7234 41.263C37.7576 41.337 37.7234 41.4166 37.6495 41.445L36.3413 41.9227H36.3356Z" fill="white"/>
</g>
</g>
</svg>
