<svg width="109" height="64" viewBox="0 0 109 64" fill="none" xmlns="http://www.w3.org/2000/svg">
<mask id="mask0_1214_9121" style="mask-type:luminance" maskUnits="userSpaceOnUse" x="20" y="22" width="69" height="20">
<path d="M88.7093 22.8779H20.293V41.1222H88.7093V22.8779Z" fill="white"/>
</mask>
<g mask="url(#mask0_1214_9121)">
<path d="M25.0256 29.0327C23.3995 29.0327 22.5986 30.4679 22.5986 32.3896V37.2061H20.293V27.0623H22.5501V29.6895H22.5986C23.084 28.0596 24.0305 26.7704 25.5109 26.7704C26.5545 26.7704 26.9914 27.1352 26.9914 27.1352L25.9478 29.2273C25.9478 29.2273 25.6323 29.0327 25.0256 29.0327ZM52.7658 30.4436V37.2305H50.5331V31.2706C50.5331 29.5678 49.9991 28.6678 48.64 28.6678C47.2323 28.6678 46.5528 29.8111 46.5528 32.0004V37.2305H44.32V31.2706C44.32 29.6408 43.786 28.6678 42.4512 28.6678C40.898 28.6678 40.3154 30.03 40.3154 32.0004V37.2305H38.0584V27.0623H40.3154V29.3732H40.3398C40.6795 27.792 41.6503 26.7947 43.2764 26.7947C44.8782 26.7947 45.9218 27.6704 46.3343 29.2029C46.7227 27.7191 47.7177 26.7947 49.271 26.7947C51.3825 26.7947 52.7658 28.1326 52.7658 30.4436ZM31.5056 26.7704C29.4184 26.7704 28.0836 27.7434 27.4526 29.5192L29.3699 30.2246C29.7097 29.1543 30.4377 28.5461 31.5541 28.5461C32.7919 28.5461 33.5442 29.1056 33.5442 29.9327C33.5442 30.7841 32.9618 30.9787 31.6512 31.1977C30.195 31.4409 26.7002 31.5139 26.7002 34.4573C26.7002 36.1844 28.132 37.4737 30.2921 37.4737C31.9182 37.4737 33.0346 36.8169 33.5442 35.5763H33.5685V37.2305H35.8013V30.9787C35.777 28.2299 34.4179 26.7704 31.5056 26.7704ZM33.5928 32.4383C33.5928 34.5789 32.5492 35.9412 30.8503 35.9412C29.6611 35.9412 28.9573 35.2844 28.9573 34.3114C28.9573 33.4113 29.6853 32.7788 31.093 32.5112C32.5249 32.2437 33.253 31.9274 33.5928 31.1247V32.4383ZM60.7263 26.7947C59.0274 26.7947 57.8867 27.7434 57.4014 29.1543V27.0623H55.0229V41.1226H57.3771V35.1384H57.4014C57.9353 36.671 59.0274 37.5224 60.7263 37.5224C63.4445 37.5224 65.386 35.2844 65.386 32.122C65.386 28.9597 63.4445 26.7947 60.7263 26.7947ZM60.1438 35.6249C58.2751 35.6249 57.2314 34.2627 57.2314 32.1464C57.2314 30.03 58.3964 28.6678 60.1438 28.6678C61.8912 28.6678 63.0561 30.103 63.0561 32.1464C63.0561 34.1897 61.8912 35.6249 60.1438 35.6249Z" fill="#E4F22D"/>
<path d="M88.7081 37.1571V37.2301H79.51V37.1571C80.8447 36.403 81.7427 35.6489 82.5679 34.8462H86.354L88.7081 37.1571ZM86.4268 25.1645L84.0969 22.8779H84.0241C84.0241 22.8779 84.0726 27.1349 80.1409 31.027C76.3063 34.8218 71.8164 34.8462 71.8164 34.8462V34.9191L74.1949 37.2544C74.1949 37.2544 78.6362 37.3031 82.5436 33.4353C86.4511 29.5918 86.4268 25.1645 86.4268 25.1645Z" fill="#E4F22D"/>
</g>
</svg>
