<svg width="109" height="64" viewBox="0 0 109 64" fill="none" xmlns="http://www.w3.org/2000/svg">
<path d="M21.534 23.0732C19.587 22.2121 18.426 21.878 17.273 21.878C16.063 21.878 15.2881 22.3097 15.2881 22.9768C15.2881 24.99 22.143 24.4234 22.143 29.0801C22.143 31.6479 19.9806 33.1399 16.9763 33.1399C14.6197 33.1399 13.4593 32.5325 12.1225 31.8448V28.9642C14.0504 30.2369 15.2305 30.6863 16.7176 30.6863C18.0071 30.6863 18.7026 30.2369 18.7026 29.4533C18.7026 27.2609 11.8477 28.0641 11.8477 23.269C11.8477 20.9567 13.8534 19.4256 16.9763 19.4256C18.4836 19.4256 19.8434 19.7408 21.534 20.4653V23.0732Z" fill="#009E4D"/>
<path d="M31.1302 32.5279C29.9876 32.9406 29.0213 33.1375 28.0573 33.1375C24.8647 33.1375 22.8008 31.2851 22.8008 28.4664C22.8008 25.6995 24.9448 23.7448 27.9387 23.7448C28.8634 23.7448 30.0458 23.9808 30.9913 24.3315V26.4498C30.2428 26.0537 29.3763 25.8367 28.667 25.8367C26.9534 25.8367 25.8511 26.8625 25.8511 28.4458C25.8511 30.0514 26.9349 31.1083 28.5679 31.1083C29.257 31.1083 29.8695 30.951 31.1302 30.4808V32.5279Z" fill="#009E4D"/>
<path d="M56.0243 27.4285C56.1413 26.1714 56.8742 25.4446 57.9966 25.4446C59.1 25.4446 59.8479 26.192 59.966 27.4285H56.0243ZM57.7995 23.7477C54.9981 23.7477 53.0039 25.719 53.0039 28.4928C53.0039 31.2874 55.0776 33.1375 58.2737 33.1375C58.9819 33.1375 60.6943 33.1375 62.3255 31.9349V30.1662C60.9893 31.1146 60.1054 31.4412 58.9646 31.4412C57.164 31.4412 56.0629 30.513 55.9632 28.9286H62.4863C62.6217 25.6214 60.4425 23.7477 57.7995 23.7477Z" fill="#009E4D"/>
<path d="M63.5898 32.9728H66.4421V23.9147H63.5898V32.9728Z" fill="#009E4D"/>
<path d="M74.3757 30.4969C73.7816 31.0297 73.2878 31.2432 72.6788 31.2432C71.3357 31.2432 70.4859 30.1422 70.4859 28.4918C70.4859 26.6835 71.3357 25.641 72.7733 25.641C73.2878 25.641 73.9597 25.8769 74.3757 26.1726V30.4969ZM74.3757 19.5927V24.312C73.6053 23.9406 72.8373 23.7449 72.007 23.7449C69.4055 23.7449 67.6055 25.6605 67.6055 28.4326C67.6055 31.145 69.4055 33.1399 71.8462 33.1399C72.8142 33.1399 73.5621 32.8873 74.3757 32.2409V32.97H77.2273V19.5927H74.3757Z" fill="#009E4D"/>
<path d="M81.4517 27.4285C81.5704 26.1714 82.2992 25.4446 83.4199 25.4446C84.5251 25.4446 85.2805 26.192 85.3986 27.4285H81.4517ZM83.2252 23.7477C80.4243 23.7477 78.4336 25.719 78.4336 28.4928C78.4336 31.2874 80.5073 33.1375 83.7 33.1375C84.407 33.1375 86.1228 33.1375 87.7581 31.9349V30.1662C86.4201 31.1146 85.5345 31.4412 84.3885 31.4412C82.5977 31.4412 81.492 30.513 81.3923 28.9286H87.9125C88.0479 25.6214 85.867 23.7477 83.2252 23.7477Z" fill="#009E4D"/>
<mask id="mask0_1214_9139" style="mask-type:luminance" maskUnits="userSpaceOnUse" x="11" y="19" width="87" height="26">
<path d="M11.8477 19.4257V44.4718H97.0061V19.4257" fill="white"/>
</mask>
<g mask="url(#mask0_1214_9139)">
<path d="M92.1837 26.5084H92.2258C93.0722 24.6232 94.02 23.7391 95.12 23.7391C95.6898 23.7391 96.1813 23.9555 97.0087 24.5652L96.224 27.0767C95.4749 26.606 94.9828 26.4091 94.5305 26.4091C93.4842 26.4091 92.8146 27.3918 92.1837 29.0532V32.9608H89.3281V23.905H92.1837V26.5084Z" fill="#009E4D"/>
<path d="M66.5754 20.1042C66.8434 20.808 66.3611 21.7896 65.502 22.2948C64.6395 22.7994 63.7279 22.6392 63.4623 21.9354C63.1915 21.2305 63.6715 20.2477 64.5329 19.7454C65.3931 19.2379 66.3052 19.3987 66.5754 20.1042Z" fill="#009E4D"/>
</g>
<path d="M41.4071 27.2075C41.4071 24.7529 39.7327 23.7477 38.0801 23.7477C36.9566 23.7477 36.0329 24.2201 35.2067 25.2621H35.1675V19.5927H32.3125V32.9464H35.1675V27.2075C35.8353 26.2448 36.4057 25.8332 37.0747 25.8332C37.9626 25.8332 38.5526 26.4624 38.5526 27.8155V30.9975C39.5103 30.5072 40.4834 30.2064 41.4071 30.0945V27.2075Z" fill="#009E4D"/>
<path d="M48.5671 23.7449C47.4043 23.7449 46.5164 24.1754 45.6078 25.211V23.9148H42.7539V30.0704C43.7426 30.1686 45.0039 30.6203 45.6078 31.3666V27.1364C46.358 26.0147 46.8904 25.641 47.6002 25.641C48.4086 25.641 49.0229 26.1726 49.0229 27.4498V32.9493H51.8773V27.2145C51.8773 24.5468 49.9862 23.7449 48.5671 23.7449Z" fill="#009E4D"/>
<path d="M53.452 35.5504H50.1355V37.8983H53.3351V38.9057H50.1355V41.3277H53.5511V42.334H49.0234V34.5452H53.452V35.5504Z" fill="#009E4D"/>
<path d="M56.1602 42.3385H57.176V34.5428H56.1602V42.3385Z" fill="#009E4D"/>
<path d="M62.208 37.9722C62.9283 37.9722 63.3748 38.4665 63.4082 39.2432H60.8211C60.9612 38.432 61.4296 37.9722 62.208 37.9722ZM60.8027 39.9189H64.4218C64.4218 38.0182 63.55 37.1008 62.185 37.1008C60.7687 37.1008 59.7852 38.1439 59.7852 39.6996C59.7852 41.1215 60.6736 42.4344 62.2731 42.4344C63.1449 42.4344 63.7084 42.2415 64.3324 41.8287V40.8437C63.7297 41.2369 63.1449 41.4636 62.5295 41.4636C61.5454 41.4636 60.9612 40.9378 60.8027 39.9189Z" fill="#009E4D"/>
<path d="M71.0526 38.5474C70.4683 38.149 70.0783 38.0319 69.6334 38.0319C68.7035 38.0319 68.0593 38.7426 68.0593 39.7834C68.0593 40.8437 68.745 41.4826 69.8034 41.4826C70.239 41.4826 70.6539 41.3701 71.1661 41.1416V42.1399C70.8239 42.3006 70.1716 42.4344 69.6334 42.4344C68.095 42.4344 67.0273 41.3804 67.0273 39.8741C67.0273 38.1743 68.0028 37.1008 69.5637 37.1008C70.1601 37.1008 70.5611 37.2392 71.0526 37.4544V38.5474Z" fill="#009E4D"/>
<path d="M75.6818 37.199H77.3124V38.1112H75.6818V40.7472C75.6818 41.3506 76.1202 41.5251 76.4164 41.5251C76.784 41.5251 77.1632 41.3971 77.5746 41.1439V42.0934C77.2179 42.2891 76.6705 42.4344 76.3352 42.4344C75.2289 42.4344 74.6694 41.7501 74.6694 40.8236V38.1112H73.7734V37.9981L75.6818 36.1375V37.199Z" fill="#009E4D"/>
<path d="M81.1983 37.199V38.3879H81.219C81.737 37.478 82.2296 37.1008 82.709 37.1008C83.1227 37.1008 83.5099 37.2943 83.9358 37.6955L83.3976 38.5876C83.0882 38.2828 82.6883 38.0727 82.4469 38.0727C81.7474 38.0727 81.1983 38.7811 81.1983 39.6588V42.3385H80.1836V37.199H81.1983Z" fill="#009E4D"/>
<path d="M94.3452 38.5474C93.7581 38.149 93.3686 38.0319 92.9209 38.0319C91.9932 38.0319 91.3542 38.7426 91.3542 39.7834C91.3542 40.8437 92.0405 41.4826 93.0926 41.4826C93.5288 41.4826 93.9413 41.3701 94.4605 41.1416V42.1399C94.1107 42.3006 93.4579 42.4344 92.9209 42.4344C91.3848 42.4344 90.3125 41.3804 90.3125 39.8741C90.3125 38.1743 91.2926 37.1008 92.8535 37.1008C93.451 37.1008 93.848 37.2392 94.3452 37.4544V38.5474Z" fill="#009E4D"/>
<path d="M86.6289 42.3385H87.6446V37.1992H86.6289V42.3385Z" fill="#009E4D"/>
<mask id="mask1_1214_9139" style="mask-type:luminance" maskUnits="userSpaceOnUse" x="11" y="19" width="87" height="26">
<path d="M11.8477 19.4257V44.4718H97.0061V19.4257" fill="white"/>
</mask>
<g mask="url(#mask1_1214_9139)">
<path d="M87.678 35.3528C87.7771 35.6008 87.6037 35.9515 87.2983 36.1301C86.9906 36.3092 86.6651 36.2518 86.5723 36.0032C86.4796 35.7523 86.6478 35.4045 86.9566 35.2253C87.2614 35.0439 87.5853 35.1019 87.678 35.3528Z" fill="#009E4D"/>
<path d="M42.2092 35.7684C42.03 35.7684 41.9545 35.7977 41.8814 35.8792C41.8525 35.9108 41.841 35.9429 41.8306 36.0072L40.9197 39.4493C40.7059 40.6565 39.2176 41.862 37.2776 41.862H34.5805L35.0483 40.0934H36.7809C36.9578 40.0934 37.0961 40.0279 37.2119 39.8993C37.2546 39.8494 37.3099 39.7713 37.3174 39.691L38.0364 36.6835C38.2485 35.4757 39.5294 34.1416 41.4688 34.1416H44.2311L43.8779 35.7684H42.2092ZM42.8315 37.866L43.1398 36.7524H45.9458C46.2921 35.1375 46.0196 33.6415 45.036 32.6616C43.0453 30.6783 38.8806 31.3522 35.7778 34.3097C35.2932 34.769 34.8841 35.2656 34.5113 35.773H36.2007L35.8077 36.889H33.7894C33.5963 37.2409 33.4154 37.5899 33.2771 37.9441H35.6706L35.2874 39.0601H32.9354C32.5333 40.765 32.7897 42.3552 33.8014 43.3649C35.7674 45.323 39.9194 44.6347 43.0205 41.6778C43.5632 41.1634 44.0115 40.6083 44.4166 40.0383H42.2461L42.5768 38.9246H45.1144C45.3005 38.5704 45.4716 38.2202 45.6053 37.866H42.8315Z" fill="#009E4D"/>
</g>
</svg>
