<svg width="109" height="64" viewBox="0 0 109 64" fill="none" xmlns="http://www.w3.org/2000/svg">
<g clip-path="url(#clip0_1214_9051)">
<path d="M76.4896 41.6545L69.2295 21.7072L69.2245 21.694H69.0812L67.5861 25.7931L64.8644 33.2556L64.858 33.2497C63.9147 32.4191 62.5838 31.8999 60.9077 31.7065L60.3965 31.6538L60.9036 31.5889C63.6677 31.0933 65.5257 29.3512 65.5257 27.2524C65.5257 24.3743 62.813 22.3653 58.9273 22.3653H50.8426V22.511H53.1918V37.3829L47.4863 21.7072L47.4813 21.694H47.338L45.843 25.7931L40.0765 41.6032L40.041 41.6073C39.9425 41.6194 39.845 41.6291 39.7486 41.6364C39.6035 41.6477 39.4593 41.6545 39.3147 41.6545H33.4882L44.5635 22.511L44.6458 22.3671H31.1003V28.2891H31.244C31.2695 25.4046 32.9528 22.511 36.672 22.511H41.159L30 41.798H45.0334V36.1243H44.8896C44.8701 38.6384 43.4419 41.0263 40.3362 41.5656L40.2375 41.5824L42.6027 35.0948H49.2283L51.6158 41.6545H49.2606V41.798H58.5043V41.6545H56.1392V31.7596H58.8682C61.6455 31.7596 63.2383 32.9978 63.2383 35.1556V36.9109C63.2383 37.1042 63.2515 37.387 63.2661 37.6235V37.6321L61.7992 41.6536H59.883V41.7971H63.8496V41.6536H61.9539L63.2897 37.9916C63.2924 38.027 63.2938 38.0483 63.2938 38.0483L63.3307 38.3783L63.3661 38.5966C63.589 39.947 64.1066 40.9396 64.9039 41.547L65.0186 41.63C65.6244 42.0503 66.3772 42.2632 67.2573 42.2632C68.423 42.2632 69.2004 41.9732 69.8421 41.2905L69.758 41.2115C69.1667 41.7562 68.6705 41.9768 68.0487 41.9768C66.9894 41.9768 66.4349 40.6945 66.4349 39.43V36.9708C66.4406 36.3606 66.3448 35.7537 66.1516 35.1747L66.1252 35.0985V35.0957H70.9715L73.359 41.6554H71.0038V41.7989H79.0031V41.6554L76.4896 41.6545ZM42.6555 34.9514L45.9194 26.0028L49.176 34.9514H42.6555ZM56.1405 31.6157V22.511H58.2237C61.0064 22.511 62.4756 24.1618 62.4756 27.2833C62.4756 30.6031 61.6323 31.6157 58.8682 31.6157H56.1405ZM66.0688 34.9514L66.0547 34.916C65.8393 34.3926 65.5258 33.915 65.1309 33.5089L64.9945 33.3727L64.9799 33.3591L67.6607 26.0028L70.9174 34.9514H66.0688Z" fill="white"/>
</g>
<defs>
<clipPath id="clip0_1214_9051">
<rect width="49.0031" height="20.612" fill="white" transform="translate(30 21.694)"/>
</clipPath>
</defs>
</svg>
