<svg width="1512" height="2940" viewBox="0 0 1512 2940" fill="none" xmlns="http://www.w3.org/2000/svg">
<g opacity="0.6">
<rect width="1512" height="970" transform="matrix(-1 0 0 1 1522 1660.13)" fill="black"/>
<g filter="url(#filter0_f_600_14693)">
<mask id="mask0_600_14693" style="mask-type:alpha" maskUnits="userSpaceOnUse" x="-1145" y="1677" width="2502" height="1315">
<ellipse cx="1251" cy="657" rx="1251" ry="657" transform="matrix(-1 0 0 1 1357 1677.13)" fill="#005080"/>
</mask>
<g mask="url(#mask0_600_14693)">
<g filter="url(#filter1_f_600_14693)">
<path d="M-760.547 1803.57C-922.265 1512.41 -1001.78 963.262 -26.0746 1096C1193.55 1261.92 597.427 3060 -760.547 1803.57Z" fill="#D4AB42"/>
</g>
<g filter="url(#filter2_f_600_14693)">
<path d="M-845.398 395.989C-642.05 110.354 -124.687 -233.077 317.984 678.274C871.322 1817.46 -1331.06 2200.24 -845.398 395.989Z" fill="#B730D5"/>
</g>
<g filter="url(#filter3_f_600_14693)">
<path d="M-99.7262 2083.17C176.742 2109.41 617.144 2328 167.011 2992.48C-395.655 3823.08 -1529.93 2465.01 -99.7262 2083.17Z" fill="#02BF46"/>
</g>
</g>
</g>
<g filter="url(#filter4_f_600_14693)">
<mask id="mask1_600_14693" style="mask-type:alpha" maskUnits="userSpaceOnUse" x="306" y="1773" width="2502" height="1315">
<ellipse cx="1251" cy="657" rx="1251" ry="657" transform="matrix(-1 0 0 1 2808 1773.13)" fill="#005080"/>
</mask>
<g mask="url(#mask1_600_14693)">
<g filter="url(#filter5_f_600_14693)">
<path d="M1136.62 3793.57C751.845 3441.85 112.341 2572.51 632.531 1908.91C1282.77 1079.42 1461.12 1160.01 1136.62 3793.57Z" fill="#3482FF"/>
</g>
<path d="M2254.49 170.127C2416.21 461.292 2495.72 1010.44 1520.02 877.7C300.394 711.78 896.52 -1086.3 2254.49 170.127Z" fill="#D4AB42"/>
<g filter="url(#filter7_f_600_14693)">
<path d="M2339.34 1577.71C2135.99 1863.34 1618.63 2206.78 1175.96 1295.43C622.617 156.236 2825 -226.542 2339.34 1577.71Z" fill="#B730D5"/>
</g>
</g>
<mask id="mask2_600_14693" style="mask-type:alpha" maskUnits="userSpaceOnUse" x="306" y="1773" width="2502" height="1315">
<ellipse cx="1251" cy="657" rx="1251" ry="657" transform="matrix(-1 0 0 1 2808 1773.13)" fill="#005080"/>
</mask>
<g mask="url(#mask2_600_14693)">
<g filter="url(#filter8_f_600_14693)">
<path d="M1136.62 3793.57C751.843 3441.85 112.339 2572.51 632.529 1908.91C1282.77 1079.42 1461.12 1160.01 1136.62 3793.57Z" fill="#3482FF"/>
</g>
<path d="M2254.49 170.128C2416.21 461.293 2495.72 1010.44 1520.02 877.701C300.392 711.78 896.518 -1086.3 2254.49 170.128Z" fill="#D4AB42"/>
<g filter="url(#filter10_f_600_14693)">
<path d="M2339.34 1577.71C2135.99 1863.34 1618.62 2206.78 1175.95 1295.43C622.615 156.236 2824.99 -226.542 2339.34 1577.71Z" fill="#B730D5"/>
</g>
</g>
<mask id="mask3_600_14693" style="mask-type:alpha" maskUnits="userSpaceOnUse" x="306" y="1773" width="2502" height="1315">
<ellipse cx="1251" cy="657" rx="1251" ry="657" transform="matrix(-1 0 0 1 2808 1773.13)" fill="#005080"/>
</mask>
<g mask="url(#mask3_600_14693)">
<g filter="url(#filter11_f_600_14693)">
<path d="M1136.62 3793.57C751.845 3441.85 112.341 2572.51 632.531 1908.91C1282.77 1079.42 1461.12 1160.01 1136.62 3793.57Z" fill="#3482FF"/>
</g>
<path d="M2254.49 170.122C2416.21 461.286 2495.72 1010.43 1520.02 877.694C300.394 711.774 896.52 -1086.3 2254.49 170.122Z" fill="#D4AB42"/>
<g filter="url(#filter13_f_600_14693)">
<path d="M2339.34 1577.71C2135.99 1863.35 1618.63 2206.78 1175.96 1295.43C622.617 156.237 2825 -226.541 2339.34 1577.71Z" fill="#B730D5"/>
</g>
</g>
</g>
<g filter="url(#filter14_f_600_14693)">
<ellipse cx="1200" cy="800" rx="1200" ry="800" transform="matrix(-1 0 0 1 1966 2110.13)" fill="black"/>
</g>
<g filter="url(#filter15_f_600_14693)">
<ellipse cx="1200" cy="800" rx="1200" ry="800" transform="matrix(-1 0 0 1 1966 480.129)" fill="black"/>
</g>
</g>
<defs>
<filter id="filter0_f_600_14693" x="-1155.9" y="1437.13" width="2452.89" height="1794" filterUnits="userSpaceOnUse" color-interpolation-filters="sRGB">
<feFlood flood-opacity="0" result="BackgroundImageFix"/>
<feBlend mode="normal" in="SourceGraphic" in2="BackgroundImageFix" result="shape"/>
<feGaussianBlur stdDeviation="120" result="effect1_foregroundBlur_600_14693"/>
</filter>
<filter id="filter1_f_600_14693" x="-1498.83" y="435.652" width="2774.41" height="2450.94" filterUnits="userSpaceOnUse" color-interpolation-filters="sRGB">
<feFlood flood-opacity="0" result="BackgroundImageFix"/>
<feBlend mode="normal" in="SourceGraphic" in2="BackgroundImageFix" result="shape"/>
<feGaussianBlur stdDeviation="320" result="effect1_foregroundBlur_600_14693"/>
</filter>
<filter id="filter2_f_600_14693" x="-1395.9" y="-392.028" width="2283.76" height="2513.27" filterUnits="userSpaceOnUse" color-interpolation-filters="sRGB">
<feFlood flood-opacity="0" result="BackgroundImageFix"/>
<feBlend mode="normal" in="SourceGraphic" in2="BackgroundImageFix" result="shape"/>
<feGaussianBlur stdDeviation="240" result="effect1_foregroundBlur_600_14693"/>
</filter>
<filter id="filter3_f_600_14693" x="-1273.64" y="1603.17" width="2113.95" height="2133.63" filterUnits="userSpaceOnUse" color-interpolation-filters="sRGB">
<feFlood flood-opacity="0" result="BackgroundImageFix"/>
<feBlend mode="normal" in="SourceGraphic" in2="BackgroundImageFix" result="shape"/>
<feGaussianBlur stdDeviation="240" result="effect1_foregroundBlur_600_14693"/>
</filter>
<filter id="filter4_f_600_14693" x="196.951" y="1533.13" width="2452.89" height="1794" filterUnits="userSpaceOnUse" color-interpolation-filters="sRGB">
<feFlood flood-opacity="0" result="BackgroundImageFix"/>
<feBlend mode="normal" in="SourceGraphic" in2="BackgroundImageFix" result="shape"/>
<feGaussianBlur stdDeviation="120" result="effect1_foregroundBlur_600_14693"/>
</filter>
<filter id="filter5_f_600_14693" x="-43.0469" y="962.799" width="1817.78" height="3310.77" filterUnits="userSpaceOnUse" color-interpolation-filters="sRGB">
<feFlood flood-opacity="0" result="BackgroundImageFix"/>
<feBlend mode="normal" in="SourceGraphic" in2="BackgroundImageFix" result="shape"/>
<feGaussianBlur stdDeviation="240" result="effect1_foregroundBlur_600_14693"/>
</filter>
<filter id="filter7_f_600_14693" x="606.082" y="-147.543" width="2283.76" height="2513.27" filterUnits="userSpaceOnUse" color-interpolation-filters="sRGB">
<feFlood flood-opacity="0" result="BackgroundImageFix"/>
<feBlend mode="normal" in="SourceGraphic" in2="BackgroundImageFix" result="shape"/>
<feGaussianBlur stdDeviation="240" result="effect1_foregroundBlur_600_14693"/>
</filter>
<filter id="filter8_f_600_14693" x="-43.0488" y="962.799" width="1817.78" height="3310.77" filterUnits="userSpaceOnUse" color-interpolation-filters="sRGB">
<feFlood flood-opacity="0" result="BackgroundImageFix"/>
<feBlend mode="normal" in="SourceGraphic" in2="BackgroundImageFix" result="shape"/>
<feGaussianBlur stdDeviation="240" result="effect1_foregroundBlur_600_14693"/>
</filter>
<filter id="filter10_f_600_14693" x="606.08" y="-147.543" width="2283.76" height="2513.27" filterUnits="userSpaceOnUse" color-interpolation-filters="sRGB">
<feFlood flood-opacity="0" result="BackgroundImageFix"/>
<feBlend mode="normal" in="SourceGraphic" in2="BackgroundImageFix" result="shape"/>
<feGaussianBlur stdDeviation="240" result="effect1_foregroundBlur_600_14693"/>
</filter>
<filter id="filter11_f_600_14693" x="-43.0469" y="962.8" width="1817.78" height="3310.77" filterUnits="userSpaceOnUse" color-interpolation-filters="sRGB">
<feFlood flood-opacity="0" result="BackgroundImageFix"/>
<feBlend mode="normal" in="SourceGraphic" in2="BackgroundImageFix" result="shape"/>
<feGaussianBlur stdDeviation="240" result="effect1_foregroundBlur_600_14693"/>
</filter>
<filter id="filter13_f_600_14693" x="606.082" y="-147.542" width="2283.76" height="2513.27" filterUnits="userSpaceOnUse" color-interpolation-filters="sRGB">
<feFlood flood-opacity="0" result="BackgroundImageFix"/>
<feBlend mode="normal" in="SourceGraphic" in2="BackgroundImageFix" result="shape"/>
<feGaussianBlur stdDeviation="240" result="effect1_foregroundBlur_600_14693"/>
</filter>
<filter id="filter14_f_600_14693" x="-914" y="1630.13" width="3360" height="2560" filterUnits="userSpaceOnUse" color-interpolation-filters="sRGB">
<feFlood flood-opacity="0" result="BackgroundImageFix"/>
<feBlend mode="normal" in="SourceGraphic" in2="BackgroundImageFix" result="shape"/>
<feGaussianBlur stdDeviation="240" result="effect1_foregroundBlur_600_14693"/>
</filter>
<filter id="filter15_f_600_14693" x="-914" y="0.128906" width="3360" height="2560" filterUnits="userSpaceOnUse" color-interpolation-filters="sRGB">
<feFlood flood-opacity="0" result="BackgroundImageFix"/>
<feBlend mode="normal" in="SourceGraphic" in2="BackgroundImageFix" result="shape"/>
<feGaussianBlur stdDeviation="240" result="effect1_foregroundBlur_600_14693"/>
</filter>
</defs>
</svg>
