<svg width="623" height="228" viewBox="0 0 623 228" fill="none" xmlns="http://www.w3.org/2000/svg">
<path d="M23.5409 52.0356L20.0977 51.0495C18.5471 50.6114 17.1347 49.7818 15.9956 48.6402C14.8564 47.4986 14.0286 46.0831 13.5915 44.5292L12.6075 41.0785C12.5581 40.9578 12.4739 40.8545 12.3657 40.7819C12.2575 40.7092 12.1302 40.6704 12 40.6704C11.8698 40.6704 11.7425 40.7092 11.6343 40.7819C11.5261 40.8545 11.4419 40.9578 11.3925 41.0785L10.4085 44.5292C9.97135 46.0831 9.1436 47.4986 8.00445 48.6402C6.8653 49.7818 5.45286 50.6114 3.9023 51.0495L0.459103 52.0356C0.326896 52.0732 0.210538 52.153 0.127683 52.2628C0.0448281 52.3727 0 52.5067 0 52.6444C0 52.7822 0.0448281 52.9161 0.127683 53.026C0.210538 53.1359 0.326896 53.2157 0.459103 53.2533L3.9023 54.2394C5.45286 54.6775 6.8653 55.507 8.00445 56.6486C9.1436 57.7902 9.97135 59.2057 10.4085 60.7597L11.3925 64.2103C11.43 64.3428 11.5096 64.4594 11.6192 64.5424C11.7289 64.6255 11.8626 64.6704 12 64.6704C12.1374 64.6704 12.2711 64.6255 12.3808 64.5424C12.4904 64.4594 12.57 64.3428 12.6075 64.2103L13.5915 60.7597C14.0286 59.2057 14.8564 57.7902 15.9956 56.6486C17.1347 55.507 18.5471 54.6775 20.0977 54.2394L23.5409 53.2533C23.6731 53.2157 23.7895 53.1359 23.8723 53.026C23.9552 52.9161 24 52.7822 24 52.6444C24 52.5067 23.9552 52.3727 23.8723 52.2628C23.7895 52.153 23.6731 52.0732 23.5409 52.0356Z" fill="white"/>
<path d="M622.579 79.4791L619.423 78.5752C618.002 78.1736 616.707 77.4132 615.663 76.3667C614.618 75.3202 613.86 74.0227 613.459 72.5982L612.557 69.4351C612.512 69.3245 612.434 69.2298 612.335 69.1632C612.236 69.0966 612.119 69.061 612 69.061C611.881 69.061 611.764 69.0966 611.665 69.1632C611.566 69.2298 611.488 69.3245 611.443 69.4351L610.541 72.5982C610.14 74.0227 609.382 75.3202 608.337 76.3667C607.293 77.4132 605.998 78.1736 604.577 78.5752L601.421 79.4791C601.3 79.5136 601.193 79.5867 601.117 79.6874C601.041 79.7882 601 79.911 601 80.0372C601 80.1635 601.041 80.2863 601.117 80.387C601.193 80.4877 601.3 80.5609 601.421 80.5953L604.577 81.4992C605.998 81.9008 607.293 82.6612 608.337 83.7077C609.382 84.7542 610.14 86.0518 610.541 87.4762L611.443 90.6393C611.477 90.7607 611.55 90.8676 611.651 90.9437C611.751 91.0199 611.874 91.061 612 91.061C612.126 91.061 612.249 91.0199 612.349 90.9437C612.45 90.8676 612.523 90.7607 612.557 90.6393L613.459 87.4762C613.86 86.0518 614.618 84.7542 615.663 83.7077C616.707 82.6612 618.002 81.9008 619.423 81.4992L622.579 80.5953C622.7 80.5609 622.807 80.4877 622.883 80.387C622.959 80.2863 623 80.1635 623 80.0372C623 79.911 622.959 79.7882 622.883 79.6874C622.807 79.5867 622.7 79.5136 622.579 79.4791Z" fill="white"/>
<path d="M257.088 7.16425L254.936 6.54795C253.967 6.27414 253.084 5.75568 252.372 5.04217C251.66 4.32865 251.143 3.44397 250.87 2.47277L250.255 0.316113C250.224 0.240659 250.171 0.176122 250.104 0.130704C250.036 0.0852851 249.956 0.0610352 249.875 0.0610352C249.794 0.0610352 249.714 0.0852851 249.646 0.130704C249.579 0.176122 249.526 0.240659 249.495 0.316113L248.88 2.47277C248.607 3.44397 248.09 4.32865 247.378 5.04217C246.666 5.75568 245.783 6.27414 244.814 6.54795L242.662 7.16425C242.579 7.18776 242.507 7.23763 242.455 7.30631C242.403 7.37498 242.375 7.45871 242.375 7.54479C242.375 7.63087 242.403 7.7146 242.455 7.78328C242.507 7.85196 242.579 7.90183 242.662 7.92533L244.814 8.54163C245.783 8.81544 246.666 9.33391 247.378 10.0474C248.09 10.7609 248.607 11.6456 248.88 12.6168L249.495 14.7735C249.519 14.8563 249.569 14.9292 249.637 14.9811C249.706 15.033 249.789 15.061 249.875 15.061C249.961 15.061 250.044 15.033 250.113 14.9811C250.181 14.9292 250.231 14.8563 250.255 14.7735L250.87 12.6168C251.143 11.6456 251.66 10.7609 252.372 10.0474C253.084 9.33391 253.967 8.81544 254.936 8.54163L257.088 7.92533C257.171 7.90183 257.243 7.85196 257.295 7.78328C257.347 7.7146 257.375 7.63087 257.375 7.54479C257.375 7.45871 257.347 7.37498 257.295 7.30631C257.243 7.23763 257.171 7.18776 257.088 7.16425Z" fill="white"/>
<path d="M481.736 40.5135L479.765 39.9489C478.877 39.6981 478.068 39.2231 477.416 38.5695C476.764 37.9158 476.29 37.1054 476.04 36.2157L475.476 34.24C475.448 34.1709 475.4 34.1118 475.338 34.0702C475.276 34.0286 475.203 34.0063 475.128 34.0063C475.054 34.0063 474.981 34.0286 474.919 34.0702C474.857 34.1118 474.809 34.1709 474.781 34.24L474.217 36.2157C473.967 37.1054 473.493 37.9158 472.841 38.5695C472.189 39.2231 471.38 39.6981 470.492 39.9489L468.521 40.5135C468.445 40.535 468.378 40.5807 468.331 40.6436C468.283 40.7065 468.258 40.7832 468.258 40.8621C468.258 40.9409 468.283 41.0176 468.331 41.0805C468.378 41.1435 468.445 41.1891 468.521 41.2107L470.492 41.7753C471.38 42.0261 472.189 42.501 472.841 43.1547C473.493 43.8083 473.967 44.6188 474.217 45.5085L474.781 47.4841C474.802 47.56 474.848 47.6268 474.91 47.6743C474.973 47.7218 475.05 47.7476 475.128 47.7476C475.207 47.7476 475.284 47.7218 475.346 47.6743C475.409 47.6268 475.455 47.56 475.476 47.4841L476.04 45.5085C476.29 44.6188 476.764 43.8083 477.416 43.1547C478.068 42.501 478.877 42.0261 479.765 41.7753L481.736 41.2107C481.812 41.1891 481.878 41.1435 481.926 41.0805C481.973 41.0176 481.999 40.9409 481.999 40.8621C481.999 40.7832 481.973 40.7065 481.926 40.6436C481.878 40.5807 481.812 40.535 481.736 40.5135Z" fill="white"/>
<path d="M582.751 32.2172L580.886 31.683C580.046 31.4457 579.281 30.9964 578.664 30.378C578.047 29.7596 577.599 28.9929 577.362 28.1512L576.829 26.2821C576.802 26.2167 576.757 26.1608 576.698 26.1214C576.639 26.0821 576.571 26.061 576.5 26.061C576.429 26.061 576.361 26.0821 576.302 26.1214C576.243 26.1608 576.198 26.2167 576.171 26.2821L575.638 28.1512C575.401 28.9929 574.953 29.7596 574.336 30.378C573.719 30.9964 572.954 31.4457 572.114 31.683L570.249 32.2172C570.177 32.2375 570.114 32.2808 570.069 32.3403C570.024 32.3998 570 32.4724 570 32.547C570 32.6216 570.024 32.6941 570.069 32.7536C570.114 32.8132 570.177 32.8564 570.249 32.8768L572.114 33.4109C572.954 33.6482 573.719 34.0975 574.336 34.7159C574.953 35.3343 575.401 36.101 575.638 36.9427L576.171 38.8118C576.191 38.8836 576.234 38.9467 576.294 38.9917C576.353 39.0367 576.426 39.061 576.5 39.061C576.574 39.061 576.647 39.0367 576.706 38.9917C576.766 38.9467 576.809 38.8836 576.829 38.8118L577.362 36.9427C577.599 36.101 578.047 35.3343 578.664 34.7159C579.281 34.0975 580.046 33.6482 580.886 33.4109L582.751 32.8768C582.823 32.8564 582.886 32.8132 582.931 32.7536C582.976 32.6941 583 32.6216 583 32.547C583 32.4724 582.976 32.3998 582.931 32.3403C582.886 32.2808 582.823 32.2375 582.751 32.2172Z" fill="white"/>
<path d="M552.579 215.479L549.423 214.575C548.002 214.174 546.707 213.413 545.663 212.367C544.618 211.32 543.86 210.023 543.459 208.598L542.557 205.435C542.512 205.324 542.434 205.23 542.335 205.163C542.236 205.097 542.119 205.061 542 205.061C541.881 205.061 541.764 205.097 541.665 205.163C541.566 205.23 541.488 205.324 541.443 205.435L540.541 208.598C540.14 210.023 539.382 211.32 538.337 212.367C537.293 213.413 535.998 214.174 534.577 214.575L531.421 215.479C531.3 215.514 531.193 215.587 531.117 215.687C531.041 215.788 531 215.911 531 216.037C531 216.163 531.041 216.286 531.117 216.387C531.193 216.488 531.3 216.561 531.421 216.595L534.577 217.499C535.998 217.901 537.293 218.661 538.337 219.708C539.382 220.754 540.14 222.052 540.541 223.476L541.443 226.639C541.477 226.761 541.55 226.868 541.651 226.944C541.751 227.02 541.874 227.061 542 227.061C542.126 227.061 542.249 227.02 542.349 226.944C542.45 226.868 542.523 226.761 542.557 226.639L543.459 223.476C543.86 222.052 544.618 220.754 545.663 219.708C546.707 218.661 548.002 217.901 549.423 217.499L552.579 216.595C552.7 216.561 552.807 216.488 552.883 216.387C552.959 216.286 553 216.163 553 216.037C553 215.911 552.959 215.788 552.883 215.687C552.807 215.587 552.7 215.514 552.579 215.479Z" fill="white"/>
<path d="M502.751 202.217L500.886 201.683C500.046 201.446 499.281 200.996 498.664 200.378C498.047 199.76 497.599 198.993 497.362 198.151L496.829 196.282C496.802 196.217 496.757 196.161 496.698 196.121C496.639 196.082 496.571 196.061 496.5 196.061C496.429 196.061 496.361 196.082 496.302 196.121C496.243 196.161 496.198 196.217 496.171 196.282L495.638 198.151C495.401 198.993 494.953 199.76 494.336 200.378C493.719 200.996 492.954 201.446 492.114 201.683L490.249 202.217C490.177 202.238 490.114 202.281 490.069 202.34C490.024 202.4 490 202.472 490 202.547C490 202.622 490.024 202.694 490.069 202.754C490.114 202.813 490.177 202.856 490.249 202.877L492.114 203.411C492.954 203.648 493.719 204.098 494.336 204.716C494.953 205.334 495.401 206.101 495.638 206.943L496.171 208.812C496.191 208.884 496.234 208.947 496.294 208.992C496.353 209.037 496.426 209.061 496.5 209.061C496.574 209.061 496.647 209.037 496.706 208.992C496.766 208.947 496.809 208.884 496.829 208.812L497.362 206.943C497.599 206.101 498.047 205.334 498.664 204.716C499.281 204.098 500.046 203.648 500.886 203.411L502.751 202.877C502.823 202.856 502.886 202.813 502.931 202.754C502.976 202.694 503 202.622 503 202.547C503 202.472 502.976 202.4 502.931 202.34C502.886 202.281 502.823 202.238 502.751 202.217Z" fill="white"/>
<path d="M63.1483 204.423L60.3476 203.621C59.0864 203.264 57.9375 202.59 57.0109 201.661C56.0843 200.732 55.411 199.581 55.0554 198.317L54.2551 195.51C54.2148 195.412 54.1464 195.328 54.0584 195.269C53.9704 195.21 53.8668 195.178 53.7609 195.178C53.655 195.178 53.5514 195.21 53.4634 195.269C53.3754 195.328 53.307 195.412 53.2667 195.51L52.4664 198.317C52.1108 199.581 51.4375 200.732 50.5109 201.661C49.5843 202.59 48.4354 203.264 47.1742 203.621L44.3734 204.423C44.2659 204.453 44.1713 204.518 44.1039 204.608C44.0365 204.697 44 204.806 44 204.918C44 205.03 44.0365 205.139 44.1039 205.228C44.1713 205.318 44.2659 205.383 44.3734 205.413L47.1742 206.215C48.4354 206.572 49.5843 207.246 50.5109 208.175C51.4375 209.104 52.1108 210.255 52.4664 211.519L53.2667 214.326C53.2972 214.434 53.362 214.528 53.4512 214.596C53.5404 214.663 53.6491 214.7 53.7609 214.7C53.8727 214.7 53.9814 214.663 54.0706 214.596C54.1598 214.528 54.2246 214.434 54.2551 214.326L55.0554 211.519C55.411 210.255 56.0843 209.104 57.0109 208.175C57.9375 207.246 59.0864 206.572 60.3476 206.215L63.1483 205.413C63.2559 205.383 63.3505 205.318 63.4179 205.228C63.4853 205.139 63.5218 205.03 63.5218 204.918C63.5218 204.806 63.4853 204.697 63.4179 204.608C63.3505 204.518 63.2559 204.453 63.1483 204.423Z" fill="white"/>
<path opacity="0.6" d="M75.5531 50.0126L74.053 49.583C73.3775 49.3921 72.7621 49.0307 72.2658 48.5333C71.7695 48.0359 71.4088 47.4192 71.2184 46.7422L70.7897 45.2388C70.7681 45.1862 70.7315 45.1413 70.6843 45.1096C70.6372 45.0779 70.5818 45.061 70.525 45.061C70.4683 45.061 70.4128 45.0779 70.3657 45.1096C70.3186 45.1413 70.2819 45.1862 70.2603 45.2388L69.8316 46.7422C69.6412 47.4192 69.2805 48.0359 68.7842 48.5333C68.2879 49.0307 67.6726 49.3921 66.997 49.583L65.4969 50.0126C65.4393 50.029 65.3886 50.0637 65.3525 50.1116C65.3164 50.1595 65.2969 50.2178 65.2969 50.2779C65.2969 50.3379 65.3164 50.3962 65.3525 50.4441C65.3886 50.492 65.4393 50.5267 65.4969 50.5431L66.997 50.9727C67.6726 51.1636 68.2879 51.525 68.7842 52.0224C69.2805 52.5198 69.6412 53.1365 69.8316 53.8135L70.2603 55.3169C70.2767 55.3746 70.3114 55.4254 70.3591 55.4616C70.4069 55.4977 70.4651 55.5173 70.525 55.5173C70.5849 55.5173 70.6431 55.4977 70.6909 55.4616C70.7387 55.4254 70.7734 55.3746 70.7897 55.3169L71.2184 53.8135C71.4088 53.1365 71.7695 52.5198 72.2658 52.0224C72.7621 51.525 73.3775 51.1636 74.053 50.9727L75.5531 50.5431C75.6107 50.5267 75.6614 50.492 75.6975 50.4441C75.7336 50.3962 75.7532 50.3379 75.7532 50.2779C75.7532 50.2178 75.7336 50.1595 75.6975 50.1116C75.6614 50.0637 75.6107 50.029 75.5531 50.0126Z" fill="white"/>
<path opacity="0.4" d="M328.365 43.0838L326.774 42.628C326.057 42.4255 325.404 42.0421 324.878 41.5144C324.351 40.9867 323.969 40.3324 323.767 39.6142L323.312 38.0192C323.289 37.9634 323.25 37.9157 323.2 37.8821C323.15 37.8485 323.091 37.8306 323.031 37.8306C322.971 37.8306 322.912 37.8485 322.862 37.8821C322.812 37.9157 322.773 37.9634 322.75 38.0192L322.295 39.6142C322.093 40.3324 321.711 40.9867 321.184 41.5144C320.658 42.0421 320.005 42.4255 319.288 42.628L317.697 43.0838C317.635 43.1012 317.582 43.138 317.543 43.1888C317.505 43.2396 317.484 43.3015 317.484 43.3652C317.484 43.4289 317.505 43.4908 317.543 43.5416C317.582 43.5924 317.635 43.6292 317.697 43.6466L319.288 44.1024C320.005 44.3049 320.658 44.6883 321.184 45.216C321.711 45.7437 322.093 46.398 322.295 47.1162L322.75 48.7112C322.768 48.7724 322.804 48.8263 322.855 48.8647C322.906 48.9031 322.967 48.9239 323.031 48.9239C323.095 48.9239 323.156 48.9031 323.207 48.8647C323.258 48.8263 323.294 48.7724 323.312 48.7112L323.767 47.1162C323.969 46.398 324.351 45.7437 324.878 45.216C325.404 44.6883 326.057 44.3049 326.774 44.1024L328.365 43.6466C328.427 43.6292 328.48 43.5924 328.519 43.5416C328.557 43.4908 328.578 43.4289 328.578 43.3652C328.578 43.3015 328.557 43.2396 328.519 43.1888C328.48 43.138 328.427 43.1012 328.365 43.0838Z" fill="white"/>
<path opacity="0.4" d="M160.846 42.1551L159.254 41.6993C158.538 41.4968 157.885 41.1133 157.358 40.5857C156.832 40.058 156.449 39.4037 156.247 38.6855L155.792 37.0905C155.769 37.0347 155.731 36.987 155.681 36.9534C155.631 36.9198 155.572 36.9019 155.511 36.9019C155.451 36.9019 155.392 36.9198 155.342 36.9534C155.292 36.987 155.254 37.0347 155.231 37.0905L154.776 38.6855C154.574 39.4037 154.191 40.058 153.665 40.5857C153.138 41.1133 152.485 41.4968 151.769 41.6993L150.177 42.1551C150.116 42.1724 150.062 42.2093 150.024 42.2601C149.986 42.3109 149.965 42.3728 149.965 42.4365C149.965 42.5001 149.986 42.5621 150.024 42.6129C150.062 42.6637 150.116 42.7005 150.177 42.7179L151.769 43.1737C152.485 43.3762 153.138 43.7596 153.665 44.2873C154.191 44.815 154.574 45.4693 154.776 46.1875L155.231 47.7825C155.248 47.8437 155.285 47.8976 155.335 47.936C155.386 47.9744 155.448 47.9951 155.511 47.9951C155.575 47.9951 155.637 47.9744 155.687 47.936C155.738 47.8976 155.775 47.8437 155.792 47.7825L156.247 46.1875C156.449 45.4693 156.832 44.815 157.358 44.2873C157.885 43.7596 158.538 43.3762 159.254 43.1737L160.846 42.7179C160.907 42.7005 160.961 42.6637 160.999 42.6129C161.037 42.5621 161.058 42.5001 161.058 42.4365C161.058 42.3728 161.037 42.3109 160.999 42.2601C160.961 42.2093 160.907 42.1724 160.846 42.1551Z" fill="white"/>
<path opacity="0.4" d="M435.787 20.3142L434.196 19.8585C433.479 19.656 432.826 19.2725 432.3 18.7448C431.773 18.2172 431.391 17.5629 431.189 16.8446L430.734 15.2497C430.711 15.1939 430.672 15.1461 430.622 15.1126C430.572 15.079 430.513 15.061 430.453 15.061C430.393 15.061 430.334 15.079 430.284 15.1126C430.234 15.1461 430.195 15.1939 430.172 15.2497L429.717 16.8446C429.515 17.5629 429.133 18.2172 428.606 18.7448C428.08 19.2725 427.427 19.656 426.71 19.8585L425.118 20.3142C425.057 20.3316 425.004 20.3685 424.965 20.4193C424.927 20.4701 424.906 20.532 424.906 20.5957C424.906 20.6593 424.927 20.7213 424.965 20.772C425.004 20.8228 425.057 20.8597 425.118 20.8771L426.71 21.3329C427.427 21.5354 428.08 21.9188 428.606 22.4465C429.133 22.9742 429.515 23.6284 429.717 24.3467L430.172 25.9417C430.189 26.0029 430.226 26.0568 430.277 26.0952C430.328 26.1336 430.389 26.1543 430.453 26.1543C430.516 26.1543 430.578 26.1336 430.629 26.0952C430.68 26.0568 430.716 26.0029 430.734 25.9417L431.189 24.3467C431.391 23.6284 431.773 22.9742 432.3 22.4465C432.826 21.9188 433.479 21.5354 434.196 21.3329L435.787 20.8771C435.848 20.8597 435.902 20.8228 435.941 20.772C435.979 20.7213 436 20.6593 436 20.5957C436 20.532 435.979 20.4701 435.941 20.4193C435.902 20.3685 435.848 20.3316 435.787 20.3142Z" fill="white"/>
<path d="M41.2601 178.4L39.6132 177.928C38.8715 177.718 38.1959 177.322 37.651 176.776C37.1061 176.229 36.7102 175.552 36.5011 174.809L36.0305 173.159C36.0068 173.101 35.9665 173.051 35.9148 173.017C35.863 172.982 35.8022 172.963 35.7399 172.963C35.6776 172.963 35.6167 172.982 35.5649 173.017C35.5132 173.051 35.4729 173.101 35.4493 173.159L34.9786 174.809C34.7695 175.552 34.3736 176.229 33.8287 176.776C33.2838 177.322 32.6082 177.718 31.8666 177.928L30.2196 178.4C30.1564 178.418 30.1007 178.456 30.0611 178.508C30.0214 178.561 30 178.625 30 178.691C30 178.757 30.0214 178.821 30.0611 178.873C30.1007 178.926 30.1564 178.964 30.2196 178.982L31.8666 179.454C32.6082 179.663 33.2838 180.06 33.8287 180.606C34.3736 181.152 34.7695 181.829 34.9786 182.572L35.4493 184.223C35.4672 184.286 35.5053 184.342 35.5577 184.382C35.6102 184.422 35.6741 184.443 35.7399 184.443C35.8056 184.443 35.8695 184.422 35.922 184.382C35.9744 184.342 36.0125 184.286 36.0305 184.223L36.5011 182.572C36.7102 181.829 37.1061 181.152 37.651 180.606C38.1959 180.06 38.8715 179.663 39.6132 179.454L41.2601 178.982C41.3234 178.964 41.379 178.926 41.4186 178.873C41.4583 178.821 41.4797 178.757 41.4797 178.691C41.4797 178.625 41.4583 178.561 41.4186 178.508C41.379 178.456 41.3234 178.418 41.2601 178.4Z" fill="white"/>
</svg>
