<svg width="123" height="25" viewBox="0 0 123 25" fill="none" xmlns="http://www.w3.org/2000/svg">
<g clip-path="url(#clip0_222_3044)">
<path fill-rule="evenodd" clip-rule="evenodd" d="M118.994 19.1798C119.068 20.0155 119.741 21.079 120.906 21.079H121.588C121.852 21.079 122.069 20.8637 122.069 20.6009V5.70056H122.066C122.052 5.44954 121.844 5.24849 121.588 5.24849H119.475C119.22 5.24849 119.011 5.44954 118.997 5.70056H118.994V6.91131C117.7 5.32581 115.659 4.66772 113.612 4.66772C108.959 4.66772 105.188 8.41783 105.188 13.0441C105.188 17.6706 108.959 21.4208 113.612 21.4208V21.4213C115.659 21.4213 117.889 20.6317 118.994 19.1779L118.994 19.1798ZM113.62 18.4892C110.661 18.4892 108.262 16.0516 108.262 13.0441C108.262 10.0372 110.661 7.59942 113.62 7.59942C116.579 7.59942 118.977 10.0372 118.977 13.0441C118.977 16.0516 116.579 18.4892 113.62 18.4892Z" fill="white"/>
<path fill-rule="evenodd" clip-rule="evenodd" d="M102.514 19.6954L102.513 11.9851H102.514C102.514 7.63884 99.756 4.70679 95.3586 4.70679C93.2595 4.70679 91.5387 5.91372 90.931 6.9505C90.7996 6.13982 90.3667 5.28768 89.0244 5.28768H88.3402C88.0756 5.28768 87.8594 5.5031 87.8594 5.76595V19.2203C87.8594 19.2206 87.8594 19.2217 87.8594 19.2223V20.6675H87.8621C87.876 20.9182 88.085 21.1195 88.3404 21.1195H90.4535C90.4858 21.1195 90.5175 21.1156 90.5481 21.1097C90.5622 21.107 90.5752 21.1016 90.5888 21.0977C90.6045 21.093 90.6208 21.0892 90.6357 21.0832C90.6546 21.0754 90.6716 21.065 90.6892 21.0553C90.6977 21.0501 90.7066 21.0464 90.7149 21.0409C90.736 21.0274 90.7554 21.0112 90.7741 20.9946C90.7771 20.9914 90.7808 20.9895 90.7838 20.9867C90.8048 20.9664 90.824 20.9441 90.8411 20.921C90.8412 20.9206 90.8412 20.9206 90.8412 20.9206C90.8941 20.8484 90.9262 20.7615 90.9315 20.6675H90.9341V11.8656C90.9341 9.53131 92.8375 7.63884 95.1854 7.63884C97.533 7.63884 99.4363 9.53131 99.4363 11.8656L99.4383 19.2228L99.4388 19.2203C99.4388 19.2268 99.4399 19.2335 99.4399 19.2405V20.6675H99.4427C99.4566 20.9182 99.6653 21.1195 99.9208 21.1195H102.034C102.066 21.1195 102.098 21.1156 102.129 21.1097C102.141 21.1074 102.153 21.1024 102.165 21.099C102.182 21.0941 102.2 21.0897 102.217 21.0832C102.234 21.076 102.25 21.0661 102.266 21.057C102.276 21.0514 102.286 21.0473 102.296 21.0409C102.315 21.0283 102.333 21.0129 102.351 20.9976C102.355 20.9935 102.36 20.9904 102.365 20.9862C102.385 20.967 102.402 20.9463 102.419 20.9246C102.42 20.9229 102.421 20.9216 102.422 20.92C102.474 20.8484 102.506 20.7621 102.512 20.6689C102.512 20.6683 102.512 20.6675 102.512 20.6675H102.515V19.6956L102.514 19.6954Z" fill="white"/>
<path fill-rule="evenodd" clip-rule="evenodd" d="M80.5099 19.1798C80.5838 20.0155 81.2565 21.079 82.4218 21.079H83.1038C83.3682 21.079 83.5845 20.8637 83.5845 20.6009V5.70056H83.5818C83.568 5.44954 83.359 5.24849 83.1038 5.24849H80.9908C80.7353 5.24849 80.5266 5.44954 80.5123 5.70056H80.5099V6.91131C79.2151 5.32581 77.174 4.66772 75.1271 4.66772C70.4746 4.66772 66.7031 8.41783 66.7031 13.0441C66.7031 17.6706 70.4746 21.4208 75.1271 21.4208V21.4213C77.174 21.4213 79.4048 20.6317 80.5096 19.1779L80.5099 19.1798ZM75.1353 18.4892C72.1765 18.4892 69.7776 16.0516 69.7776 13.0441C69.7776 10.0372 72.1765 7.59942 75.1353 7.59942C78.0944 7.59942 80.4928 10.0372 80.4928 13.0441C80.4928 16.0516 78.0944 18.4892 75.1353 18.4892Z" fill="white"/>
<path fill-rule="evenodd" clip-rule="evenodd" d="M54.202 17.046C55.6126 18.0177 57.1523 18.4895 58.6319 18.4895C60.0415 18.4895 61.4988 17.763 61.4988 16.4983C61.4988 14.8098 58.3234 14.5471 56.3282 13.8728C54.3328 13.1986 52.6142 11.8049 52.6142 9.54782C52.6142 6.09414 55.7091 4.66772 58.5976 4.66772C60.4279 4.66772 62.3163 5.26782 63.5406 6.12746C63.9622 6.44512 63.7054 6.80982 63.7054 6.80982L62.5368 8.46946C62.4054 8.65639 62.1758 8.81789 61.846 8.61557C61.5164 8.41337 60.3599 7.59952 58.5976 7.59952C56.8352 7.59952 55.7736 8.4088 55.7736 9.41188C55.7736 10.6147 57.1534 10.9931 58.7695 11.403C61.5859 12.1579 64.6582 13.0652 64.6582 16.4983C64.6582 19.5413 61.7956 21.4218 58.6319 21.4218C56.2344 21.4218 54.1932 20.7421 52.4812 19.493C52.1246 19.1381 52.3737 18.8087 52.3737 18.8087L53.5366 17.1574C53.7732 16.8487 54.0716 16.9563 54.202 17.046Z" fill="white"/>
<path fill-rule="evenodd" clip-rule="evenodd" d="M46.0801 19.1798C46.154 20.0155 46.8267 21.079 47.9922 21.079H48.6741C48.9384 21.079 49.1551 20.8637 49.1551 20.6009V5.70056H49.1521C49.1384 5.44954 48.9296 5.24849 48.6741 5.24849H46.5611C46.3056 5.24849 46.0969 5.44954 46.0826 5.70056H46.0801V6.91131C44.7855 5.32581 42.7443 4.66772 40.6975 4.66772C36.0451 4.66772 32.2734 8.41783 32.2734 13.0441C32.2734 17.6706 36.0451 21.4208 40.6975 21.4208V21.4213C42.7443 21.4213 44.975 20.6317 46.0798 19.1779L46.0801 19.1798ZM40.7058 18.4892C37.7468 18.4892 35.348 16.0516 35.348 13.0441C35.348 10.0372 37.7468 7.59942 40.7058 7.59942C43.6647 7.59942 46.0632 10.0372 46.0632 13.0441C46.0632 16.0516 43.6647 18.4892 40.7058 18.4892Z" fill="white"/>
<path fill-rule="evenodd" clip-rule="evenodd" d="M20.4683 13.6144C17.3373 13.6144 14.7993 16.1362 14.7993 19.2471C14.7993 22.3579 17.3373 24.8797 20.4683 24.8797C23.5994 24.8797 26.1374 22.3579 26.1374 19.2471C26.1374 16.1362 23.5994 13.6144 20.4683 13.6144ZM5.73945 13.6149C2.6085 13.6149 0.0703125 16.1362 0.0703125 19.2471C0.0703125 22.3579 2.6085 24.8797 5.73945 24.8797C8.87053 24.8797 11.4088 22.3579 11.4088 19.2471C11.4088 16.1362 8.87053 13.6149 5.73945 13.6149ZM18.7729 6.57356C18.7729 9.68454 16.2348 12.2066 13.1039 12.2066C9.97282 12.2066 7.43476 9.68454 7.43476 6.57356C7.43476 3.4632 9.97282 0.941162 13.1039 0.941162C16.2348 0.941162 18.7729 3.4632 18.7729 6.57356Z" fill="#F06A6A"/>
</g>
<defs>
<clipPath id="clip0_222_3044">
<rect width="122" height="24" fill="white" transform="translate(0.0703125 0.941162)"/>
</clipPath>
</defs>
</svg>
