<svg width="75" height="18" viewBox="0 0 75 18" fill="none" xmlns="http://www.w3.org/2000/svg">
<g clip-path="url(#clip0_1085_7875)">
<path fill-rule="evenodd" clip-rule="evenodd" d="M51.6495 13.1383C50.5395 14.1339 49.114 14.6396 47.4133 14.6396C45.712 14.6396 44.2865 14.1339 43.1771 13.1383C42.1176 12.1899 41.5088 10.6734 41.5088 8.97919C41.5088 7.32544 42.1243 5.82975 43.1953 4.87463C44.3161 3.879 45.7349 3.37106 47.412 3.36713C49.0918 3.37106 50.5105 3.879 51.6306 4.87463C52.703 5.82975 53.3172 7.32544 53.3172 8.97919C53.3172 10.6734 52.709 12.1899 51.6495 13.1383ZM36.7553 8.97919C36.7553 9.05569 36.7593 9.13106 36.762 9.20644C35.06 7.911 32.5992 7.42894 31.0956 7.1775C28.3139 6.687 26.1888 6.23812 26.1888 4.58212C26.1888 3.41381 27.44 2.56387 29.8437 2.70956C32.0401 2.84287 32.9651 3.96562 33.2188 5.049C33.2551 5.22675 33.3533 5.35612 33.5955 5.35781L37.5457 5.38594C37.5646 5.38594 37.5807 5.38425 37.5975 5.38312C37.0405 6.46931 36.7553 7.67869 36.7553 8.97919ZM30.0368 15.0553C28.1262 15.0553 26.0213 14.4877 25.5362 12.2917C25.4952 12.0819 25.3768 11.9953 25.1844 11.9908L21.3653 11.9481V6.30338C21.8672 7.95769 23.5295 9.10294 27.1245 9.77962C29.5309 10.2611 33.7051 10.5671 33.7051 12.6326C33.7051 14.0726 32.4371 15.0891 30.0368 15.0553ZM11.0147 14.6419C7.93364 14.6419 5.11087 12.6141 5.11087 8.98144C5.11087 6.13125 7.22727 3.36937 11.0349 3.36937C12.6844 3.36937 16.8668 3.84187 16.8668 8.98144C16.8668 14.1345 12.5001 14.6419 11.0141 14.6419H11.0147ZM57.957 7.59487C58.8335 8.5725 60.4158 9.29644 62.9863 9.78019C65.3919 10.2617 69.5669 10.5677 69.5669 12.6332C69.5669 14.0732 68.2981 15.0896 65.8985 15.0559C63.9886 15.0559 61.8823 14.4883 61.398 12.2923C61.3576 12.0825 61.2392 11.9959 61.0461 11.9914L57.5076 11.952C57.8809 11.0312 58.0713 10.0339 58.0713 8.97975C58.0711 8.51648 58.0329 8.05377 57.957 7.59487ZM65.6375 17.9302C69.875 17.9302 74.8693 16.6112 74.4785 12.3328C74.0466 8.53481 69.32 7.57294 66.9574 7.17806C64.175 6.68756 62.0498 6.23869 62.0498 4.58269C62.0498 3.41438 63.3011 2.56444 65.7054 2.71012C67.9019 2.84344 68.8269 3.96619 69.0805 5.04956C69.1168 5.22731 69.2157 5.35669 69.4572 5.35838L73.4075 5.3865C73.7082 5.38819 73.8017 5.25769 73.764 5.07881C72.9904 1.11994 69.0348 0 65.3946 0C61.7599 0 57.3804 0.853875 57.0696 4.63444C57.0589 4.78069 57.0548 4.92469 57.0548 5.06587C56.4763 4.06012 55.6421 3.1365 54.5671 2.31863C52.5825 0.822375 50.1083 0.0208125 47.4099 0.001125H47.3205C46.0315 0.001125 44.7702 0.199687 43.5707 0.593437C42.3515 0.996666 41.2297 1.58116 40.2595 2.31863C39.2417 3.09263 38.4378 3.96112 37.8633 4.90444C37.0076 1.089 33.1179 0 29.5322 0C26.1955 0 22.2304 0.721687 21.3653 3.76875V0.744187C21.3651 0.666709 21.3282 0.592455 21.2626 0.537722C21.197 0.482989 21.1082 0.45225 21.0155 0.45225H17.2953C17.2026 0.452399 17.1138 0.483282 17.0484 0.53812C16.9829 0.592958 16.9462 0.667272 16.9462 0.74475V1.56037C16.9462 1.69762 16.8365 1.74544 16.7026 1.66556C15.3794 0.862875 13.4217 0.0016875 11.0659 0.0016875C9.74193 0.0016875 8.47787 0.196313 7.308 0.579938C6.13745 0.964688 5.02476 1.55025 4.00356 2.32087C2.84109 3.20512 1.95578 4.21312 1.37522 5.31675C0.794655 6.42037 0.5 7.65337 0.5 8.98087C0.5 10.2201 0.761018 11.3822 1.27498 12.4324C1.78895 13.4826 2.57133 14.454 3.60127 15.3203C4.63055 16.1865 5.78225 16.8446 7.02209 17.2777C8.26193 17.7092 9.62824 17.928 11.0854 17.928C13.5893 17.928 15.4682 17.0364 16.6993 16.2259C16.8352 16.1393 16.9462 16.1859 16.9462 16.3277V17.1844C16.9462 17.3452 17.1036 17.4769 17.296 17.4769H21.0162C21.1088 17.4766 21.1975 17.4456 21.2629 17.3908C21.3283 17.336 21.3651 17.2618 21.3653 17.1844V14.2988C23.1191 17.7469 27.588 17.9297 29.7757 17.9297C33.4327 17.9297 37.65 16.9453 38.4869 13.9258C38.8892 14.4256 39.3481 14.8918 39.8572 15.318C41.8512 16.9959 44.4641 17.8982 47.4167 17.9252H47.5378C48.9397 17.9252 50.2926 17.7002 51.5587 17.2553C52.8369 16.8033 53.9959 16.145 54.9694 15.318C55.6976 14.711 56.3195 14.0209 56.8167 13.2682C58.1426 17.7137 63.25 17.9302 65.6375 17.9302Z" fill="white"/>
</g>
<defs>
<clipPath id="clip0_1085_7875">
<rect width="74" height="18" fill="white" transform="translate(0.5)"/>
</clipPath>
</defs>
</svg>
