<svg width="75" height="19" viewBox="0 0 75 19" fill="none" xmlns="http://www.w3.org/2000/svg">
<g clip-path="url(#clip0_222_3018)">
<path fill-rule="evenodd" clip-rule="evenodd" d="M51.2198 14.0795C50.1098 15.0751 48.6843 15.5808 46.9836 15.5808C45.2823 15.5808 43.8568 15.0751 42.7475 14.0795C41.6879 13.1311 41.0791 11.6146 41.0791 9.92035C41.0791 8.2666 41.6946 6.77091 42.7656 5.81579C43.8864 4.82016 45.3052 4.31222 46.9823 4.30829C48.6621 4.31222 50.0809 4.82016 51.2009 5.81579C52.2733 6.77091 52.8875 8.2666 52.8875 9.92035C52.8875 11.6146 52.2793 13.1311 51.2198 14.0795ZM36.3256 9.92035C36.3256 9.99685 36.3296 10.0722 36.3323 10.1476C34.6303 8.85216 32.1695 8.3701 30.6659 8.11866C27.8842 7.62816 25.7591 7.17929 25.7591 5.52329C25.7591 4.35497 27.0103 3.50504 29.414 3.65072C31.6105 3.78404 32.5355 4.90679 32.7891 5.99016C32.8254 6.16791 32.9236 6.29729 33.1658 6.29897L37.1161 6.3271C37.1349 6.3271 37.151 6.32541 37.1679 6.32429C36.6108 7.41047 36.3256 8.61985 36.3256 9.92035ZM29.6071 15.9965C27.6965 15.9965 25.5916 15.4289 25.1065 13.2329C25.0655 13.0231 24.9471 12.9365 24.7547 12.932L20.9356 12.8892V7.24454C21.4375 8.89885 23.0998 10.0441 26.6948 10.7208C29.1012 11.2023 33.2755 11.5083 33.2755 13.5738C33.2755 15.0138 32.0074 16.0302 29.6071 15.9965ZM10.585 15.583C7.50395 15.583 4.68119 13.5552 4.68119 9.9226C4.68119 7.07241 6.79759 4.31054 10.6052 4.31054C12.2547 4.31054 16.4371 4.78304 16.4371 9.9226C16.4371 15.0757 12.0704 15.583 10.5844 15.583H10.585ZM57.5273 8.53604C58.4038 9.51366 59.9861 10.2376 62.5566 10.7213C64.9623 11.2028 69.1372 11.5088 69.1372 13.5743C69.1372 15.0143 67.8684 16.0308 65.4688 15.997C63.5589 15.997 61.4526 15.4295 60.9683 13.2335C60.9279 13.0237 60.8095 12.937 60.6164 12.9325L57.0779 12.8932C57.4513 11.9723 57.6416 10.975 57.6416 9.92091C57.6415 9.45764 57.6032 8.99493 57.5273 8.53604ZM65.2078 18.8714C69.4453 18.8714 74.4396 17.5523 74.0488 13.274C73.6169 9.47597 68.8903 8.5141 66.5277 8.11922C63.7453 7.62872 61.6201 7.17985 61.6201 5.52385C61.6201 4.35554 62.8714 3.5056 65.2757 3.65129C67.4722 3.7846 68.3972 4.90735 68.6508 5.99072C68.6871 6.16847 68.786 6.29785 69.0275 6.29954L72.9778 6.32766C73.2785 6.32935 73.372 6.19885 73.3344 6.01997C72.5607 2.0611 68.6051 0.941162 64.965 0.941162C61.3302 0.941162 56.9507 1.79504 56.6399 5.5756C56.6292 5.72185 56.6251 5.86585 56.6251 6.00704C56.0466 5.00129 55.2124 4.07766 54.1374 3.25979C52.1529 1.76354 49.6786 0.961975 46.9803 0.942287H46.8908C45.6018 0.942287 44.3405 1.14085 43.141 1.5346C41.9218 1.93783 40.8 2.52232 39.8298 3.25979C38.812 4.03379 38.0081 4.90229 37.4336 5.8456C36.5779 2.03016 32.6882 0.941162 29.1025 0.941162C25.7658 0.941162 21.8008 1.66285 20.9356 4.70991V1.68535C20.9354 1.60787 20.8985 1.53362 20.8329 1.47888C20.7673 1.42415 20.6785 1.39341 20.5858 1.39341H16.8656C16.773 1.39356 16.6842 1.42444 16.6187 1.47928C16.5532 1.53412 16.5165 1.60843 16.5165 1.68591V2.50154C16.5165 2.63879 16.4068 2.6866 16.2729 2.60672C14.9497 1.80404 12.9921 0.94285 10.6362 0.94285C9.31224 0.94285 8.04819 1.13747 6.87831 1.5211C5.70777 1.90585 4.59508 2.49141 3.57388 3.26204C2.4114 4.14629 1.52609 5.15429 0.945531 6.25791C0.364967 7.36154 0.0703125 8.59454 0.0703125 9.92204C0.0703125 11.1612 0.331331 12.3233 0.845294 13.3735C1.35926 14.4237 2.14164 15.3952 3.17159 16.2614C4.20086 17.1277 5.35257 17.7858 6.5924 18.2189C7.83224 18.6503 9.19855 18.8692 10.6557 18.8692C13.1596 18.8692 15.0385 17.9776 16.2696 17.167C16.4055 17.0804 16.5165 17.1271 16.5165 17.2689V18.1255C16.5165 18.2864 16.6739 18.418 16.8663 18.418H20.5865C20.6791 18.4177 20.7678 18.3868 20.8332 18.332C20.8986 18.2772 20.9354 18.203 20.9356 18.1255V15.2399C22.6894 18.688 27.1583 18.8708 29.3461 18.8708C33.003 18.8708 37.2203 17.8865 38.0572 14.867C38.4595 15.3667 38.9184 15.8329 39.4276 16.2592C41.4215 17.9371 44.0344 18.8393 46.987 18.8664H47.1081C48.51 18.8664 49.8629 18.6413 51.129 18.1964C52.4072 17.7445 53.5662 17.0862 54.5397 16.2592C55.2679 15.6521 55.8899 14.9621 56.387 14.2094C57.7129 18.6549 62.8203 18.8714 65.2078 18.8714Z" fill="white"/>
</g>
<defs>
<clipPath id="clip0_222_3018">
<rect width="74" height="18" fill="white" transform="translate(0.0703125 0.941162)"/>
</clipPath>
</defs>
</svg>
