<svg width="115" height="29" viewBox="0 0 115 29" fill="none" xmlns="http://www.w3.org/2000/svg">
<path d="M0.0703125 7.32115L12.4393 0.941162L24.9413 7.32115L12.4393 13.739L0.0703125 7.32115ZM74.3793 10.426V10.2745C74.3793 8.17307 75.6143 7.49153 77.7233 7.64299V3.79985C72.7073 3.49694 70.3323 5.99593 70.3323 10.2745V10.426H68.0713V14.2691H70.3323V25.9121H74.3983V14.2691H76.7923H77.7233H79.0533V25.9121H83.1193V14.2691H86.4633V10.426H83.1193V10.2745C83.1193 8.17307 84.3353 7.49153 86.4633 7.64299V3.79985C81.4473 3.49694 79.0723 5.99593 79.0723 10.2745V10.426H77.7423H76.8113H74.3793ZM46.0123 14.6477C47.3043 13.6254 48.0833 12.1677 48.0833 10.2934C48.0833 6.65854 45.1193 4.19741 41.3763 4.19741H32.7123V25.8742H42.0793C45.8983 25.8742 48.9573 23.3184 48.9573 19.5889C48.9003 17.355 47.7793 15.6322 46.0123 14.6477ZM41.3953 8.21094C42.8013 8.21094 43.7513 9.23325 43.7513 10.5963C43.7513 11.9594 42.7443 12.9817 41.3953 12.9817H37.0443V8.21094H41.3953ZM42.0603 21.8986H37.0633V16.787H42.0603C43.5423 16.787 44.6063 17.8661 44.6063 19.3239C44.6063 20.8195 43.5423 21.8986 42.0603 21.8986ZM61.6113 10.407V18.7748C61.6113 21.4631 60.1293 22.618 58.1343 22.618C56.3103 22.618 55.0183 21.5389 55.0183 19.4185V10.407H50.9523V19.9297C50.9523 24.0568 53.5553 26.3475 56.9183 26.3475C59.0273 26.3475 60.6803 25.5713 61.5923 24.1704V25.9121H65.6583V10.426H61.6113V10.407ZM103.259 19.7971H91.3843C91.9733 21.8418 93.6833 22.7126 95.7923 22.7126C97.3883 22.7126 98.6423 22.069 99.3263 21.1792L102.594 23.0345C101.131 25.1359 98.7753 26.3664 95.7353 26.3664C90.4533 26.3664 87.1093 22.8073 87.1093 18.169C87.1093 13.5497 90.4723 9.97158 95.4313 9.97158C100.086 9.97158 103.392 13.6065 103.392 18.169C103.411 18.7559 103.354 19.2671 103.259 19.7971ZM95.4503 13.5686C93.2653 13.5686 91.7833 14.7234 91.3273 16.6923H99.3643C98.8513 14.4584 97.1603 13.5686 95.4503 13.5686ZM109.282 13.0764V10.407H105.216V25.8932H109.282V18.4909C109.282 15.2346 111.942 14.3069 114.07 14.5531V10.1041C112.075 10.1041 110.099 10.975 109.282 13.0764ZM12.4393 24.7005L4.00331 20.1379L0.0703125 22.2583L12.4393 28.9412L24.9413 22.2583L20.9893 20.1379L12.4393 24.7005ZM4.00331 12.9249L12.4393 17.071L20.9703 12.9249L24.9413 14.856L12.4393 20.933L0.0703125 14.856L4.00331 12.9249Z" fill="#B1EC9C"/>
</svg>
