<svg width="97" height="24" viewBox="0 0 97 24" fill="none" xmlns="http://www.w3.org/2000/svg">
<g clip-path="url(#clip0_1085_7973)">
<path d="M0 5.46856L10.5245 0L21.1622 5.46856L10.5245 10.9696L0 5.46856ZM63.2278 8.12982V8C63.2278 6.19878 64.2787 5.6146 66.0732 5.74442V2.45031C61.8052 2.19067 59.7843 4.33266 59.7843 8V8.12982H57.8605V11.4239H59.7843V21.4037H63.244V11.4239H65.281H66.0732H67.2048V21.4037H70.6645V11.4239H73.5098V8.12982H70.6645V8C70.6645 6.19878 71.6992 5.6146 73.5098 5.74442V2.45031C69.2418 2.19067 67.221 4.33266 67.221 8V8.12982H66.0893H65.2972H63.2278ZM39.091 11.7485C40.1903 10.8722 40.8532 9.62272 40.8532 8.01623C40.8532 4.90061 38.3312 2.79107 35.1463 2.79107H27.7743V21.3712H35.7445C38.994 21.3712 41.5968 19.1805 41.5968 15.9838C41.5483 14.069 40.5945 12.5923 39.091 11.7485ZM35.1625 6.23124C36.3588 6.23124 37.1672 7.10751 37.1672 8.27586C37.1672 9.44422 36.3103 10.3205 35.1625 10.3205H31.4603V6.23124H35.1625ZM35.7283 17.9635H31.4765V13.5821H35.7283C36.9893 13.5821 37.8947 14.5071 37.8947 15.7566C37.8947 17.0385 36.9893 17.9635 35.7283 17.9635ZM52.3638 8.11359V15.286C52.3638 17.5903 51.1028 18.5801 49.4053 18.5801C47.8533 18.5801 46.754 17.6552 46.754 15.8377V8.11359H43.2943V16.2759C43.2943 19.8134 45.5092 21.7769 48.3707 21.7769C50.1652 21.7769 51.5717 21.1116 52.3477 19.9107V21.4037H55.8073V8.12982H52.3638V8.11359ZM87.8012 16.1623H77.697C78.1982 17.9148 79.6532 18.6613 81.4477 18.6613C82.8057 18.6613 83.8727 18.1095 84.4547 17.3469L87.2353 18.9371C85.9905 20.7383 83.9858 21.7931 81.3992 21.7931C76.9048 21.7931 74.0595 18.7424 74.0595 14.7667C74.0595 10.8073 76.921 7.74036 81.1405 7.74036C85.1013 7.74036 87.9143 10.856 87.9143 14.7667C87.9305 15.2698 87.882 15.7079 87.8012 16.1623ZM81.1567 10.8235C79.2975 10.8235 78.0365 11.8134 77.6485 13.501H84.487C84.0505 11.5862 82.6117 10.8235 81.1567 10.8235ZM92.926 10.4016V8.11359H89.4663V21.3874H92.926V15.0426C92.926 12.2515 95.1893 11.4564 97 11.6673V7.85395C95.3025 7.85395 93.6212 8.60041 92.926 10.4016ZM10.5245 20.3651L3.3465 16.4544L0 18.2718L10.5245 24L21.1622 18.2718L17.7995 16.4544L10.5245 20.3651ZM3.3465 10.2718L10.5245 13.8256L17.7833 10.2718L21.1622 11.927L10.5245 17.1359L0 11.927L3.3465 10.2718Z" fill="#B1EC9C"/>
</g>
<defs>
<clipPath id="clip0_1085_7973">
<rect width="97" height="24" fill="white"/>
</clipPath>
</defs>
</svg>
