<svg width="127" height="34" viewBox="0 0 127 34" fill="none" xmlns="http://www.w3.org/2000/svg">
<g clip-path="url(#clip0_1085_7888)">
<path d="M12.7068 16.8219L0.745768 19.3114C0.731877 19.3143 0.718699 19.32 0.706991 19.328C0.695283 19.336 0.685276 19.3463 0.677544 19.3582C0.669813 19.3701 0.664509 19.3834 0.661938 19.3973C0.659367 19.4113 0.65958 19.4256 0.662564 19.4395L2.76721 29.2474C2.77077 29.264 2.77901 29.2792 2.79091 29.2911C2.80281 29.303 2.81787 29.3111 2.83425 29.3145L23.9771 33.7291C24.0069 33.7352 24.0379 33.731 24.0651 33.7172C24.0922 33.7034 24.114 33.6808 24.1268 33.6531C25.6615 30.3069 27.185 26.9508 28.697 23.5848C28.8858 23.1649 29.0043 22.726 29.0526 22.2679C29.7936 15.2727 30.5347 8.28516 31.2757 1.30518C31.2773 1.29017 31.2759 1.27499 31.2716 1.26051C31.2673 1.24604 31.2602 1.23255 31.2507 1.22082C31.2412 1.20909 31.2295 1.19935 31.2162 1.19216C31.2029 1.18496 31.1884 1.18045 31.1734 1.17888L22.8697 0.307927C22.8214 0.303138 22.7811 0.319899 22.7488 0.358209C22.7292 0.381354 22.7155 0.42984 22.7075 0.503666C22.2039 5.27324 21.6969 10.0422 21.1865 14.8106C21.1833 14.8401 21.1781 14.8659 21.1709 14.8878C21.1697 14.8913 21.1674 14.8942 21.1644 14.8963C21.1613 14.8984 21.1578 14.8995 21.1541 14.8993C21.1505 14.8992 21.1471 14.8979 21.1444 14.8956C21.1417 14.8933 21.1399 14.8901 21.1392 14.8866L18.5347 2.84236C18.504 2.6999 18.4172 2.64363 18.2743 2.67356L10.1838 4.3586C10.1696 4.3615 10.1562 4.36719 10.1443 4.37533C10.1324 4.38348 10.1223 4.39393 10.1144 4.40607C10.1066 4.4182 10.1012 4.43179 10.0986 4.44604C10.096 4.4603 10.0963 4.47493 10.0994 4.48909L12.7433 16.7662C12.7458 16.7784 12.7434 16.7911 12.7365 16.8015C12.7297 16.812 12.719 16.8193 12.7068 16.8219Z" stroke="#80E6DE" stroke-width="0.119718"/>
<path d="M71.5999 11.5183C71.5999 11.0606 71.4181 10.6217 71.0945 10.2981C70.7708 9.97442 70.3319 9.7926 69.8742 9.7926C69.4165 9.7926 68.9775 9.97442 68.6539 10.2981C68.3303 10.6217 68.1484 11.0606 68.1484 11.5183C68.1484 11.976 68.3303 12.415 68.6539 12.7386C68.9775 13.0623 69.4165 13.2441 69.8742 13.2441C70.3319 13.2441 70.7708 13.0623 71.0945 12.7386C71.4181 12.415 71.5999 11.976 71.5999 11.5183Z" stroke="#80E6DE" stroke-width="0.119718"/>
<path d="M42.451 14.5186C36.8272 15.0705 36.562 24.3756 42.0948 25.4878C43.6924 25.8092 45.1362 25.1771 46.2502 24.0853C46.2585 24.0773 46.2687 24.0717 46.2798 24.0691C46.2909 24.0664 46.3026 24.0668 46.3135 24.0701C46.3244 24.0735 46.3343 24.0797 46.342 24.0882C46.3497 24.0966 46.355 24.107 46.3574 24.1182L46.589 25.2495C46.5958 25.2822 46.6136 25.3115 46.6394 25.3325C46.6653 25.3536 46.6976 25.3651 46.7309 25.3651H49.2965C49.4234 25.3651 49.4724 25.3032 49.4437 25.1795C49.2216 24.2211 48.9984 23.2263 48.9984 22.2524C48.998 18.1792 48.9978 14.1133 48.9978 10.0549C48.9978 10.0393 48.9916 10.0244 48.9806 10.0134C48.9696 10.0024 48.9547 9.99622 48.9391 9.99622H46.3191C46.3032 9.99622 46.288 10.0025 46.2767 10.0137C46.2655 10.025 46.2592 10.0402 46.2592 10.0561V15.8582C46.2593 15.869 46.2561 15.8796 46.2502 15.8886C46.2442 15.8975 46.2356 15.9045 46.2256 15.9086C46.2156 15.9126 46.2046 15.9136 46.1941 15.9114C46.1835 15.9091 46.1739 15.9037 46.1664 15.8959C45.1333 14.836 43.8948 14.3769 42.451 14.5186Z" stroke="#80E6DE" stroke-width="0.119718"/>
<path d="M66.0583 10.0807C66.0583 10.0582 66.0493 10.0366 66.0334 10.0206C66.0174 10.0047 65.9958 9.99573 65.9733 9.99573H63.4053C63.3828 9.99573 63.3611 10.0047 63.3452 10.0206C63.3293 10.0366 63.3203 10.0582 63.3203 10.0807V25.279C63.3203 25.3015 63.3293 25.3231 63.3452 25.3391C63.3611 25.355 63.3828 25.364 63.4053 25.364H65.9733C65.9958 25.364 66.0174 25.355 66.0334 25.3391C66.0493 25.3231 66.0583 25.3015 66.0583 25.279V10.0807Z" stroke="#80E6DE" stroke-width="0.119718"/>
<path d="M50.8362 20.1394C51.0416 25.6992 56.7599 26.6599 60.7651 24.3715C60.791 24.3567 60.8104 24.3328 60.8197 24.3045C60.829 24.2762 60.8274 24.2455 60.8154 24.2182L59.8588 22.0777C59.8522 22.0629 59.8427 22.0497 59.8308 22.0388C59.8189 22.0278 59.805 22.0194 59.7897 22.014C59.7745 22.0086 59.7583 22.0064 59.7422 22.0075C59.7261 22.0086 59.7104 22.0129 59.696 22.0202C57.8709 22.9522 55.176 23.3718 53.7975 21.415C53.7854 21.398 53.7783 21.3781 53.7769 21.3573C53.7755 21.3365 53.7798 21.3157 53.7895 21.2972C53.7991 21.2786 53.8137 21.2631 53.8315 21.2522C53.8494 21.2413 53.8699 21.2355 53.8909 21.2355L61.3565 21.2337C61.3729 21.2337 61.3889 21.2279 61.4016 21.2174C61.4142 21.207 61.4229 21.1924 61.4259 21.1762C62.1257 17.5649 59.8816 14.5217 56.1344 14.4582C52.9457 14.4043 50.7219 17.0423 50.8362 20.1394Z" stroke="#80E6DE" stroke-width="0.119718"/>
<path d="M84.0898 22.3895C85.6115 26.2409 90.5798 26.1289 93.5464 24.4074C93.6086 24.3715 93.625 24.3206 93.5955 24.2547L92.6419 22.1321C92.6362 22.1194 92.6279 22.108 92.6177 22.0986C92.6075 22.0891 92.5955 22.0818 92.5825 22.077C92.5694 22.0723 92.5555 22.0702 92.5417 22.0709C92.5278 22.0717 92.5143 22.0752 92.5018 22.0813C90.6414 22.9785 88.0657 23.4137 86.6123 21.512C86.5824 21.4725 86.5616 21.437 86.55 21.4054C86.5449 21.3912 86.5432 21.3759 86.5452 21.3608C86.5471 21.3458 86.5527 21.3314 86.5614 21.319C86.5701 21.3065 86.5816 21.2964 86.5951 21.2893C86.6085 21.2823 86.6235 21.2786 86.6386 21.2785L94.1264 21.2642C94.1863 21.2642 94.2212 21.2346 94.2312 21.1756C94.734 18.1784 93.2507 15.2046 90.0883 14.603C85.3595 13.7034 82.4287 18.185 84.0898 22.3895Z" stroke="#80E6DE" stroke-width="0.119718"/>
<path d="M96.2164 25.3643H98.7825C98.8071 25.3643 98.8307 25.3545 98.8481 25.3371C98.8655 25.3197 98.8753 25.2961 98.8753 25.2715C98.8737 23.3113 98.8741 21.3418 98.8765 19.3628C98.8769 18.937 98.9066 18.6445 98.9657 18.4853C99.4386 17.2163 101.379 17.4216 102.304 17.855C102.319 17.8619 102.335 17.8658 102.351 17.8665C102.367 17.8672 102.383 17.8646 102.398 17.859C102.414 17.8534 102.428 17.8448 102.439 17.8337C102.451 17.8226 102.461 17.8093 102.467 17.7945L103.686 15.0572C103.691 15.0451 103.691 15.0315 103.687 15.0192C103.682 15.0069 103.673 14.9969 103.661 14.9913C101.876 14.1299 100.134 14.3885 98.8358 15.9479C98.8316 15.9529 98.826 15.9567 98.8197 15.9588C98.8135 15.9609 98.8067 15.9612 98.8003 15.9596C98.7939 15.9581 98.788 15.9547 98.7834 15.95C98.7788 15.9453 98.7756 15.9393 98.7741 15.9329L98.5335 14.798C98.5211 14.7393 98.4848 14.71 98.4246 14.71H95.7926C95.781 14.71 95.7695 14.7126 95.7591 14.7176C95.7486 14.7225 95.7394 14.7298 95.7322 14.7387C95.7249 14.7477 95.7197 14.7581 95.717 14.7693C95.7143 14.7805 95.7141 14.7921 95.7165 14.8034C95.9141 15.739 96.1308 16.6596 96.132 17.5982C96.1352 20.1701 96.1366 22.7321 96.1362 25.2841C96.1362 25.3054 96.1446 25.3258 96.1596 25.3408C96.1747 25.3559 96.1951 25.3643 96.2164 25.3643Z" stroke="#80E6DE" stroke-width="0.119718"/>
<path d="M104.065 22.6157C105.32 25.2998 108.465 26.2145 111.088 25.116C113.036 24.3002 114.208 22.5822 114.317 20.4752C114.481 17.3182 112.481 14.6533 109.172 14.5036C104.734 14.3025 102.266 18.771 104.065 22.6157Z" stroke="#80E6DE" stroke-width="0.119718"/>
<path d="M116.919 16.3521C114.587 19.0314 115.514 23.9123 118.99 25.1819C120.531 25.744 122.263 25.683 123.715 24.9162C126.882 23.2443 127.328 18.7968 125.095 16.2318C122.994 13.8177 118.98 13.9835 116.919 16.3521Z" stroke="#80E6DE" stroke-width="0.119718"/>
<path d="M71.2665 14.8136C71.2665 14.786 71.2555 14.7595 71.236 14.74C71.2165 14.7204 71.19 14.7095 71.1623 14.7095H68.6315C68.6039 14.7095 68.5774 14.7204 68.5579 14.74C68.5383 14.7595 68.5273 14.786 68.5273 14.8136V25.2602C68.5273 25.2879 68.5383 25.3144 68.5579 25.3339C68.5774 25.3534 68.6039 25.3644 68.6315 25.3644H71.1623C71.19 25.3644 71.2165 25.3534 71.236 25.3339C71.2555 25.3144 71.2665 25.2879 71.2665 25.2602V14.8136Z" stroke="#80E6DE" stroke-width="0.119718"/>
<path d="M75.5822 25.3266C75.5852 25.3376 75.5918 25.3473 75.6009 25.3542C75.61 25.3612 75.6211 25.3649 75.6325 25.3649H79.9573C79.9687 25.3649 79.9799 25.3612 79.9889 25.3542C79.998 25.3473 80.0046 25.3376 80.0076 25.3266L82.8491 14.7758C82.8512 14.7681 82.8515 14.76 82.85 14.7521C82.8485 14.7442 82.8451 14.7368 82.8403 14.7304C82.8354 14.7241 82.8291 14.7189 82.822 14.7153C82.8148 14.7118 82.8069 14.71 82.7988 14.71H79.9202C79.9086 14.71 79.8974 14.7139 79.8883 14.7211C79.8792 14.7282 79.8727 14.7382 79.8699 14.7495L77.8263 23.1292C77.8236 23.1405 77.8171 23.1505 77.8079 23.1577C77.7987 23.1649 77.7874 23.1688 77.7758 23.1688C77.7641 23.1688 77.7528 23.1649 77.7436 23.1577C77.7344 23.1505 77.7279 23.1405 77.7252 23.1292L75.684 14.7495C75.6812 14.7382 75.6747 14.7282 75.6656 14.7211C75.6565 14.7139 75.6453 14.71 75.6337 14.71H72.7826C72.7746 14.71 72.7667 14.7118 72.7595 14.7153C72.7523 14.7189 72.746 14.7241 72.7412 14.7304C72.7363 14.7368 72.733 14.7442 72.7314 14.7521C72.7299 14.76 72.7302 14.7681 72.7323 14.7758L75.5822 25.3266Z" stroke="#80E6DE" stroke-width="0.119718"/>
<path d="M16.4548 20.8369C16.7176 19.3164 14.103 18.6478 13.7294 20.188C13.4397 21.3828 14.079 22.0149 15.2666 21.9694C15.9071 21.9443 16.3525 21.4277 16.4548 20.8369Z" stroke="#80E6DE" stroke-width="0.119718"/>
<path d="M22.4067 21.8101C22.5184 21.5066 22.5049 21.1712 22.3693 20.8776C22.2336 20.5841 21.9869 20.3564 21.6834 20.2448L21.4081 20.1435C21.1046 20.0318 20.7692 20.0453 20.4757 20.1809C20.1821 20.3166 19.9544 20.5633 19.8428 20.8668L19.7469 21.1274C19.6352 21.4309 19.6487 21.7664 19.7843 22.0599C19.92 22.3535 20.1667 22.5811 20.4702 22.6928L20.7454 22.7941C21.0489 22.9058 21.3844 22.8923 21.6779 22.7566C21.9715 22.621 22.1991 22.3743 22.3108 22.0708L22.4067 21.8101Z" stroke="#80E6DE" stroke-width="0.119718"/>
<path d="M46.2964 20.0661C46.3014 19.3487 46.0132 18.6587 45.4952 18.1477C44.9772 17.6368 44.2719 17.3469 43.5343 17.3417C43.1691 17.3392 42.807 17.4066 42.4686 17.5402C42.1303 17.6738 41.8223 17.8709 41.5623 18.1203C41.3023 18.3697 41.0954 18.6664 40.9534 18.9936C40.8113 19.3208 40.7369 19.6721 40.7344 20.0273C40.7294 20.7447 41.0176 21.4348 41.5356 21.9457C42.0536 22.4566 42.759 22.7465 43.4965 22.7517C43.8618 22.7542 44.2239 22.6868 44.5622 22.5532C44.9006 22.4196 45.2085 22.2225 45.4685 21.9731C45.7285 21.7238 45.9355 21.427 46.0775 21.0998C46.2196 20.7726 46.2939 20.4213 46.2964 20.0661Z" stroke="#80E6DE" stroke-width="0.119718"/>
<path d="M53.605 19.0552C53.6511 19.0582 53.7229 19.0852 53.7654 19.0846C55.03 19.0718 56.2946 19.0654 57.5593 19.0654C57.8304 19.0648 58.2979 19.0971 58.6655 19.0702C58.6806 19.0691 58.6953 19.0644 58.7084 19.0567C58.7215 19.0489 58.7326 19.0383 58.7408 19.0255C58.7491 19.0128 58.7544 18.9983 58.7561 18.9832C58.7579 18.9681 58.7562 18.9528 58.7511 18.9385C58.4941 18.217 58.0198 17.7178 57.3282 17.4408C55.897 16.8674 53.9515 17.266 53.5427 18.9696C53.5299 19.0223 53.5507 19.0508 53.605 19.0552Z" stroke="#80E6DE" stroke-width="0.119718"/>
<path d="M91.5655 19.0243C91.365 16.5748 86.4727 16.7017 86.4063 19.0267C86.406 19.0331 86.4071 19.0396 86.4094 19.0457C86.4117 19.0517 86.4152 19.0573 86.4197 19.0619C86.4242 19.0666 86.4295 19.0702 86.4355 19.0727C86.4414 19.0752 86.4478 19.0764 86.4542 19.0763L91.532 19.0602C91.5367 19.0602 91.5413 19.0592 91.5456 19.0574C91.5499 19.0556 91.5537 19.0529 91.5569 19.0495C91.56 19.0461 91.5624 19.0421 91.5639 19.0378C91.5654 19.0334 91.566 19.0288 91.5655 19.0243Z" stroke="#80E6DE" stroke-width="0.119718"/>
<path d="M111.688 19.9947C111.675 19.2778 111.371 18.5955 110.841 18.0977C110.312 17.5999 109.601 17.3274 108.865 17.3403C108.129 17.3531 107.428 17.6502 106.917 18.1662C106.405 18.6821 106.125 19.3747 106.137 20.0915C106.15 20.8084 106.454 21.4908 106.983 21.9885C107.513 22.4863 108.224 22.7588 108.96 22.7459C109.696 22.7331 110.397 22.436 110.908 21.92C111.42 21.4041 111.7 20.7115 111.688 19.9947Z" stroke="#80E6DE" stroke-width="0.119718"/>
<path d="M123.848 20.0691C123.854 19.3517 123.567 18.6612 123.051 18.1493C122.535 17.6375 121.831 17.3464 121.094 17.34C120.729 17.3368 120.368 17.4036 120.029 17.5366C119.691 17.6696 119.383 17.8661 119.123 18.1151C118.863 18.364 118.656 18.6604 118.514 18.9874C118.371 19.3143 118.296 19.6654 118.293 20.0206C118.287 20.738 118.573 21.4286 119.09 21.9404C119.606 22.4522 120.31 22.7434 121.047 22.7498C121.412 22.753 121.773 22.6862 122.111 22.5532C122.45 22.4202 122.758 22.2236 123.018 21.9747C123.278 21.7258 123.485 21.4294 123.627 21.1024C123.77 20.7755 123.845 20.4243 123.848 20.0691Z" stroke="#80E6DE" stroke-width="0.119718"/>
<path d="M12.7068 16.8221C12.719 16.8195 12.7297 16.8122 12.7365 16.8018C12.7434 16.7914 12.7458 16.7787 12.7433 16.7664L10.0994 4.48933C10.0963 4.47517 10.096 4.46054 10.0986 4.44629C10.1012 4.43204 10.1066 4.41845 10.1144 4.40631C10.1223 4.39417 10.1324 4.38373 10.1443 4.37558C10.1562 4.36743 10.1696 4.36174 10.1838 4.35884L18.2743 2.6738C18.4172 2.64388 18.504 2.70014 18.5347 2.84261L21.1392 14.8869C21.1399 14.8904 21.1417 14.8935 21.1444 14.8958C21.1471 14.8981 21.1505 14.8994 21.1541 14.8996C21.1578 14.8997 21.1613 14.8986 21.1644 14.8966C21.1674 14.8945 21.1697 14.8915 21.1709 14.8881C21.1781 14.8661 21.1833 14.8404 21.1865 14.8108C21.6969 10.0425 22.2039 5.27349 22.7075 0.503911C22.7155 0.430084 22.7292 0.381598 22.7488 0.358453C22.7811 0.320143 22.8214 0.303382 22.8697 0.308171L31.1734 1.17912C31.1884 1.18069 31.2029 1.1852 31.2162 1.1924C31.2295 1.1996 31.2412 1.20934 31.2507 1.22107C31.2602 1.2328 31.2673 1.24628 31.2716 1.26076C31.2759 1.27523 31.2773 1.29041 31.2757 1.30542C30.5347 8.2854 29.7936 15.273 29.0526 22.2681C29.0043 22.7262 28.8858 23.1652 28.697 23.585C27.185 26.9511 25.6615 30.3072 24.1268 33.6533C24.114 33.6811 24.0922 33.7037 24.0651 33.7175C24.0379 33.7313 24.0069 33.7355 23.9771 33.7293L2.83425 29.3147C2.81787 29.3113 2.80281 29.3032 2.79091 29.2913C2.77901 29.2794 2.77077 29.2642 2.76721 29.2477L0.662564 19.4398C0.65958 19.4259 0.659367 19.4116 0.661938 19.3976C0.664509 19.3836 0.669813 19.3703 0.677544 19.3584C0.685276 19.3465 0.695283 19.3363 0.706991 19.3282C0.718699 19.3202 0.731877 19.3146 0.745768 19.3117L12.7068 16.8221ZM16.4564 20.8369C16.7192 19.3164 14.1045 18.6478 13.731 20.188C13.4413 21.3828 14.0806 22.0149 15.2682 21.9694C15.9087 21.9443 16.354 21.4277 16.4564 20.8369ZM22.4098 21.8103C22.5215 21.5068 22.508 21.1714 22.3724 20.8778C22.2367 20.5843 21.99 20.3566 21.6865 20.245L21.4113 20.1437C21.1078 20.032 20.7724 20.0455 20.4788 20.1811C20.1852 20.3168 19.9576 20.5635 19.8459 20.867L19.75 21.1276C19.6383 21.4311 19.6518 21.7666 19.7875 22.0601C19.9231 22.3537 20.1698 22.5813 20.4733 22.693L20.7486 22.7943C21.0521 22.906 21.3875 22.8925 21.6811 22.7568C21.9746 22.6212 22.2023 22.3745 22.3139 22.071L22.4098 21.8103Z" fill="#00CCBC"/>
<path d="M69.8742 13.2443C70.8273 13.2443 71.5999 12.4717 71.5999 11.5186C71.5999 10.5655 70.8273 9.79285 69.8742 9.79285C68.9211 9.79285 68.1484 10.5655 68.1484 11.5186C68.1484 12.4717 68.9211 13.2443 69.8742 13.2443Z" fill="#00CCBC"/>
<path d="M42.0948 25.488C36.562 24.3758 36.8272 15.0707 42.451 14.5188C43.8948 14.3772 45.1333 14.8363 46.1664 15.8962C46.1739 15.904 46.1835 15.9093 46.1941 15.9116C46.2046 15.9139 46.2156 15.9129 46.2256 15.9088C46.2356 15.9048 46.2442 15.8978 46.2502 15.8888C46.2561 15.8798 46.2593 15.8693 46.2592 15.8585V10.0563C46.2592 10.0404 46.2655 10.0252 46.2767 10.014C46.288 10.0028 46.3032 9.99646 46.3191 9.99646H48.9391C48.9547 9.99646 48.9696 10.0026 48.9806 10.0136C48.9916 10.0246 48.9978 10.0396 48.9978 10.0551C48.9978 14.1136 48.998 18.1794 48.9984 22.2526C48.9984 23.2265 49.2216 24.2214 49.4437 25.1797C49.4724 25.3034 49.4234 25.3653 49.2965 25.3653H46.7309C46.6976 25.3653 46.6653 25.3538 46.6394 25.3328C46.6136 25.3117 46.5958 25.2824 46.589 25.2498L46.3574 24.1184C46.355 24.1072 46.3497 24.0969 46.342 24.0884C46.3343 24.08 46.3244 24.0737 46.3135 24.0704C46.3026 24.067 46.2909 24.0667 46.2798 24.0693C46.2687 24.072 46.2585 24.0776 46.2502 24.0855C45.1362 25.1773 43.6924 25.8095 42.0948 25.488ZM46.2981 20.0662C46.3031 19.3488 46.0149 18.6588 45.4969 18.1478C44.9789 17.6369 44.2735 17.347 43.5359 17.3418C43.1707 17.3393 42.8086 17.4067 42.4703 17.5403C42.1319 17.6739 41.8239 17.871 41.564 18.1204C41.304 18.3698 41.097 18.6665 40.955 18.9937C40.8129 19.3209 40.7385 19.6722 40.7361 20.0274C40.7311 20.7448 41.0193 21.4349 41.5372 21.9458C42.0552 22.4567 42.7606 22.7466 43.4982 22.7518C43.8634 22.7543 44.2255 22.6869 44.5638 22.5533C44.9022 22.4197 45.2102 22.2226 45.4702 21.9732C45.7302 21.7239 45.9371 21.4271 46.0791 21.0999C46.2212 20.7727 46.2956 20.4214 46.2981 20.0662Z" fill="#00CCBC"/>
<path d="M65.9733 9.99597H63.4053C63.3584 9.99597 63.3203 10.034 63.3203 10.081V25.2792C63.3203 25.3262 63.3584 25.3642 63.4053 25.3642H65.9733C66.0202 25.3642 66.0583 25.3262 66.0583 25.2792V10.081C66.0583 10.034 66.0202 9.99597 65.9733 9.99597Z" fill="#00CCBC"/>
<path d="M60.7651 24.3717C56.7599 26.6601 51.0416 25.6994 50.8362 20.1397C50.7219 17.0426 52.9457 14.4046 56.1344 14.4585C59.8816 14.5219 62.1257 17.5651 61.4259 21.1764C61.4229 21.1926 61.4142 21.2072 61.4016 21.2177C61.3889 21.2282 61.3729 21.2339 61.3565 21.2339L53.8909 21.2357C53.8699 21.2358 53.8494 21.2416 53.8315 21.2525C53.8137 21.2633 53.7991 21.2789 53.7895 21.2974C53.7798 21.3159 53.7755 21.3367 53.7769 21.3575C53.7783 21.3783 53.7854 21.3983 53.7975 21.4153C55.176 23.3721 57.8709 22.9525 59.696 22.0205C59.7104 22.0131 59.7261 22.0088 59.7422 22.0077C59.7583 22.0067 59.7745 22.0089 59.7897 22.0143C59.805 22.0196 59.8189 22.0281 59.8308 22.039C59.8427 22.0499 59.8522 22.0632 59.8588 22.0779L60.8154 24.2185C60.8274 24.2457 60.829 24.2765 60.8197 24.3048C60.8104 24.3331 60.791 24.3569 60.7651 24.3717ZM53.6071 19.0556C53.6532 19.0586 53.725 19.0856 53.7675 19.085C55.0322 19.0722 56.2968 19.0658 57.5614 19.0658C57.8326 19.0652 58.3001 19.0975 58.6676 19.0706C58.6828 19.0695 58.6975 19.0648 58.7105 19.0571C58.7236 19.0493 58.7347 19.0387 58.743 19.0259C58.7513 19.0132 58.7565 18.9987 58.7583 18.9836C58.7601 18.9685 58.7583 18.9532 58.7532 18.9389C58.4962 18.2174 58.0219 17.7182 57.3304 17.4412C55.8991 16.8678 53.9537 17.2664 53.5449 18.97C53.5321 19.0227 53.5529 19.0512 53.6071 19.0556Z" fill="#00CCBC"/>
<path d="M93.5464 24.4076C90.5798 26.1292 85.6115 26.2411 84.0898 22.3898C82.4287 18.1853 85.3595 13.7036 90.0883 14.6033C93.2507 15.2049 94.734 18.1787 94.2312 21.1758C94.2212 21.2349 94.1863 21.2644 94.1264 21.2644L86.6386 21.2788C86.6235 21.2788 86.6085 21.2825 86.5951 21.2896C86.5816 21.2966 86.5701 21.3068 86.5614 21.3192C86.5527 21.3317 86.5471 21.346 86.5452 21.3611C86.5432 21.3761 86.5449 21.3914 86.55 21.4057C86.5616 21.4372 86.5824 21.4727 86.6123 21.5122C88.0657 23.414 90.6414 22.9788 92.5018 22.0815C92.5143 22.0754 92.5278 22.0719 92.5417 22.0712C92.5555 22.0704 92.5694 22.0725 92.5825 22.0773C92.5955 22.082 92.6075 22.0893 92.6177 22.0988C92.6279 22.1083 92.6362 22.1197 92.6419 22.1324L93.5955 24.255C93.625 24.3208 93.6086 24.3717 93.5464 24.4076ZM91.5621 19.0245C91.3615 16.5751 86.4692 16.702 86.4028 19.0269C86.4026 19.0334 86.4036 19.0398 86.4059 19.0459C86.4082 19.052 86.4117 19.0575 86.4162 19.0621C86.4207 19.0668 86.4261 19.0705 86.432 19.0729C86.4379 19.0754 86.4443 19.0767 86.4507 19.0766L91.5285 19.0604C91.5332 19.0604 91.5378 19.0595 91.5421 19.0576C91.5464 19.0558 91.5502 19.0531 91.5534 19.0497C91.5565 19.0463 91.5589 19.0423 91.5604 19.038C91.5619 19.0337 91.5625 19.0291 91.5621 19.0245Z" fill="#00CCBC"/>
<path d="M96.2203 25.3647C96.199 25.3647 96.1786 25.3562 96.1636 25.3412C96.1485 25.3261 96.1401 25.3057 96.1401 25.2845C96.1405 22.7325 96.1391 20.1705 96.1359 17.5985C96.1347 16.66 95.918 15.7393 95.7204 14.8037C95.718 14.7925 95.7182 14.7808 95.7209 14.7697C95.7236 14.7585 95.7288 14.748 95.7361 14.7391C95.7434 14.7301 95.7526 14.7229 95.763 14.7179C95.7735 14.713 95.7849 14.7104 95.7965 14.7103H98.4285C98.4887 14.7103 98.525 14.7397 98.5374 14.7983L98.778 15.9333C98.7795 15.9397 98.7827 15.9456 98.7873 15.9504C98.7919 15.9551 98.7978 15.9584 98.8042 15.96C98.8106 15.9615 98.8174 15.9613 98.8236 15.9592C98.8299 15.9571 98.8355 15.9533 98.8397 15.9482C100.137 14.3889 101.88 14.1303 103.665 14.9917C103.677 14.9973 103.686 15.0073 103.691 15.0196C103.695 15.0319 103.695 15.0455 103.689 15.0575L102.471 17.7949C102.465 17.8097 102.455 17.823 102.443 17.8341C102.431 17.8452 102.418 17.8538 102.402 17.8594C102.387 17.865 102.371 17.8676 102.355 17.8669C102.339 17.8662 102.323 17.8622 102.308 17.8553C101.383 17.422 99.4425 17.2166 98.9696 18.4857C98.9105 18.6449 98.8808 18.9374 98.8804 19.3632C98.878 21.3421 98.8776 23.3117 98.8792 25.2719C98.8792 25.2965 98.8694 25.3201 98.852 25.3375C98.8346 25.3549 98.811 25.3647 98.7864 25.3647H96.2203Z" fill="#00CCBC"/>
<path d="M111.088 25.1163C108.465 26.2147 105.32 25.3001 104.065 22.616C102.266 18.7712 104.734 14.3027 109.172 14.5039C112.481 14.6535 114.481 17.3184 114.317 20.4754C114.208 22.5825 113.036 24.3004 111.088 25.1163ZM111.691 19.9948C111.679 19.278 111.375 18.5956 110.845 18.0978C110.316 17.6 109.605 17.3276 108.869 17.3404C108.133 17.3533 107.432 17.6503 106.92 18.1663C106.409 18.6823 106.128 19.3748 106.141 20.0917C106.154 20.8085 106.458 21.4909 106.987 21.9887C107.517 22.4865 108.227 22.7589 108.963 22.7461C109.699 22.7332 110.4 22.4361 110.912 21.9202C111.424 21.4042 111.704 20.7116 111.691 19.9948Z" fill="#00CCBC"/>
<path d="M118.994 25.1822C115.518 23.9126 114.591 19.0317 116.923 16.3524C118.983 13.9837 122.998 13.8179 125.099 16.232C127.331 18.797 126.886 23.2445 123.719 24.9164C122.267 25.6832 120.534 25.7443 118.994 25.1822ZM123.851 20.0693C123.857 19.3519 123.571 18.6614 123.054 18.1495C122.538 17.6377 121.834 17.3466 121.097 17.3401C120.733 17.337 120.371 17.4038 120.033 17.5368C119.695 17.6698 119.387 17.8663 119.127 18.1153C118.866 18.3642 118.659 18.6606 118.517 18.9875C118.374 19.3145 118.3 19.6656 118.296 20.0208C118.29 20.7382 118.577 21.4288 119.093 21.9406C119.61 22.4524 120.314 22.7436 121.05 22.75C121.415 22.7532 121.777 22.6864 122.115 22.5534C122.453 22.4204 122.761 22.2238 123.021 21.9749C123.281 21.726 123.488 21.4296 123.631 21.1026C123.773 20.7756 123.848 20.4245 123.851 20.0693Z" fill="#00CCBC"/>
<path d="M71.1623 14.7097H68.6315C68.574 14.7097 68.5273 14.7563 68.5273 14.8139V25.2605C68.5273 25.318 68.574 25.3646 68.6315 25.3646H71.1623C71.2199 25.3646 71.2665 25.318 71.2665 25.2605V14.8139C71.2665 14.7563 71.2199 14.7097 71.1623 14.7097Z" fill="#00CCBC"/>
<path d="M75.5861 25.3269L72.7362 14.7762C72.7341 14.7684 72.7338 14.7603 72.7353 14.7525C72.7369 14.7446 72.7402 14.7372 72.7451 14.7308C72.7499 14.7244 72.7562 14.7193 72.7634 14.7157C72.7706 14.7122 72.7785 14.7103 72.7865 14.7103H75.6376C75.6492 14.7104 75.6604 14.7143 75.6695 14.7215C75.6786 14.7286 75.6851 14.7386 75.6879 14.7498L77.7291 23.1295C77.7319 23.1408 77.7383 23.1509 77.7475 23.1581C77.7567 23.1653 77.768 23.1692 77.7797 23.1692C77.7913 23.1692 77.8026 23.1653 77.8118 23.1581C77.821 23.1509 77.8275 23.1408 77.8302 23.1295L79.8738 14.7498C79.8766 14.7386 79.8831 14.7286 79.8922 14.7215C79.9013 14.7143 79.9125 14.7104 79.9241 14.7103H82.8027C82.8108 14.7103 82.8187 14.7122 82.8259 14.7157C82.8331 14.7193 82.8393 14.7244 82.8442 14.7308C82.8491 14.7372 82.8524 14.7446 82.8539 14.7525C82.8555 14.7603 82.8551 14.7684 82.853 14.7762L80.0115 25.3269C80.0085 25.338 80.0019 25.3477 79.9928 25.3546C79.9838 25.3615 79.9727 25.3653 79.9612 25.3653H75.6364C75.625 25.3653 75.6139 25.3615 75.6048 25.3546C75.5957 25.3477 75.5891 25.338 75.5861 25.3269Z" fill="#00CCBC"/>
<path d="M53.6089 19.0555C53.5546 19.0511 53.5338 19.0225 53.5466 18.9699C53.9555 17.2663 55.9009 16.8676 57.3321 17.4411C58.0237 17.718 58.498 18.2172 58.755 18.9387C58.7601 18.9531 58.7618 18.9684 58.76 18.9835C58.7583 18.9986 58.753 19.013 58.7448 19.0258C58.7365 19.0385 58.7254 19.0492 58.7123 19.0569C58.6992 19.0647 58.6845 19.0693 58.6694 19.0704C58.3018 19.0974 57.8343 19.0651 57.5632 19.0656C56.2985 19.0656 55.0339 19.072 53.7693 19.0848C53.7268 19.0854 53.655 19.0585 53.6089 19.0555Z" fill="black"/>
<path d="M86.4063 19.0269C86.4727 16.702 91.365 16.5751 91.5655 19.0245C91.566 19.0291 91.5654 19.0337 91.5639 19.038C91.5624 19.0424 91.56 19.0463 91.5569 19.0497C91.5537 19.0531 91.5499 19.0558 91.5456 19.0576C91.5413 19.0595 91.5367 19.0604 91.532 19.0604L86.4542 19.0766C86.4478 19.0767 86.4414 19.0754 86.4355 19.073C86.4295 19.0705 86.4242 19.0668 86.4197 19.0622C86.4152 19.0575 86.4117 19.052 86.4094 19.0459C86.4071 19.0399 86.406 19.0334 86.4063 19.0269Z" fill="black"/>
<path d="M43.501 22.7517C45.0369 22.7625 46.2905 21.5601 46.3009 20.0662C46.3113 18.5723 45.0747 17.3525 43.5388 17.3418C42.0029 17.3311 40.7494 18.5334 40.7389 20.0274C40.7285 21.5213 41.9651 22.741 43.501 22.7517Z" fill="black"/>
<path d="M108.963 22.746C110.496 22.7193 111.717 21.4875 111.691 19.9947C111.665 18.502 110.402 17.3136 108.869 17.3404C107.336 17.3671 106.115 18.5989 106.141 20.0916C106.167 21.5844 107.431 22.7728 108.963 22.746Z" fill="black"/>
<path d="M121.05 22.75C122.584 22.7634 123.838 21.5632 123.851 20.0693C123.864 18.5754 122.632 17.3535 121.098 17.3402C119.564 17.3268 118.31 18.527 118.297 20.0209C118.284 21.5147 119.517 22.7366 121.05 22.75Z" fill="black"/>
<path d="M13.7333 20.1882C14.1069 18.6481 16.7215 19.3167 16.4587 20.8371C16.3564 21.4279 15.911 21.9445 15.2705 21.9696C14.0829 22.0151 13.4436 21.383 13.7333 20.1882Z" fill="black"/>
<path d="M21.6891 20.245L21.4139 20.1437C20.7819 19.9112 20.081 20.235 19.8485 20.867L19.7526 21.1277C19.5201 21.7597 19.8439 22.4605 20.4759 22.693L20.7512 22.7943C21.3832 23.0268 22.084 22.703 22.3165 22.071L22.4124 21.8103C22.645 21.1783 22.3211 20.4775 21.6891 20.245Z" fill="black"/>
</g>
<defs>
<clipPath id="clip0_1085_7888">
<rect width="126.542" height="34" fill="white" transform="translate(0.230469)"/>
</clipPath>
</defs>
</svg>
