<svg width="133" height="27" viewBox="0 0 133 27" fill="none" xmlns="http://www.w3.org/2000/svg">
<g clip-path="url(#clip0_385_9240)">
<path d="M15.3823 5.82689L7.72631 10.7126L15.3823 15.5983L7.72631 20.4841L0.0703125 15.5719L7.72631 10.6862L0.0703125 5.82689L7.72631 0.941162L15.3823 5.82689ZM7.68671 22.0554L15.3427 17.1697L22.9987 22.0554L15.3427 26.9412L7.68671 22.0554ZM15.3823 15.5719L23.0383 10.6862L15.3823 5.82689L22.9987 0.941162L30.6547 5.82689L22.9987 10.7126L30.6547 15.5983L22.9987 20.4841L15.3823 15.5719Z" fill="#0061FF"/>
<path d="M36.6602 5.82689H42.851C46.7978 5.82689 50.0582 8.1113 50.0582 13.3272V14.4231C50.0582 19.6786 47.009 22.0422 42.9698 22.0422H36.6602V5.82689ZM40.1186 8.77154V19.0844H42.7718C45.0158 19.0844 46.5206 17.6187 46.5206 14.3571V13.4988C46.5206 10.2373 44.9366 8.77154 42.653 8.77154H40.1186ZM51.893 8.92999H54.665L55.1138 11.9803C55.6418 9.90714 56.9882 8.79795 59.4302 8.79795H60.2882V12.2972H58.8626C56.051 12.2972 55.3646 13.2743 55.3646 16.0473V22.0818H51.9458V8.92999H51.893ZM60.9746 15.77V15.4003C60.9746 11.0031 63.7862 8.59988 67.6142 8.59988C71.5214 8.59988 74.2538 11.0031 74.2538 15.4003V15.77C74.2538 20.0879 71.6006 22.412 67.6142 22.412C63.377 22.3724 60.9746 20.1011 60.9746 15.77ZM70.7558 15.7304V15.4003C70.7558 12.9574 69.5282 11.4917 67.5746 11.4917C65.6606 11.4917 64.3934 12.8386 64.3934 15.4003V15.7304C64.3934 18.094 65.621 19.4409 67.5746 19.4409C69.5282 19.4013 70.7558 18.094 70.7558 15.7304ZM76.049 8.92999H78.9002L79.2302 11.4125C79.9166 9.74868 81.3818 8.59988 83.5466 8.59988C86.8862 8.59988 89.0906 11.0031 89.0906 15.4531V15.8228C89.0906 20.1408 86.6486 22.4252 83.5466 22.4252C81.4742 22.4252 80.0485 21.4876 79.3489 19.9823V26.6243H76.0094L76.049 8.92999ZM85.6189 15.7304V15.4399C85.6189 12.8254 84.2726 11.5313 82.4774 11.5313C80.5634 11.5313 79.2962 12.997 79.2962 15.4399V15.6908C79.2962 18.0148 80.5238 19.4805 82.4378 19.4805C84.4046 19.4409 85.6189 18.1865 85.6189 15.7304ZM94.1462 19.6522L93.8558 22.0554H90.9254V4.53284H94.2649V11.254C95.0042 9.53741 96.4694 8.59988 98.5418 8.59988C101.683 8.63949 104.007 10.8051 104.007 15.1626V15.5719C104.007 19.9295 101.802 22.4252 98.4626 22.4252C96.2582 22.3724 94.8326 21.3556 94.1462 19.6522ZM100.495 15.5719V15.2418C100.495 12.8386 99.1886 11.4917 97.3538 11.4917C95.4794 11.4917 94.1726 12.997 94.1726 15.2814V15.5719C94.1726 18.0148 95.4398 19.4409 97.3142 19.4409C99.3206 19.4409 100.495 18.1865 100.495 15.5719ZM105.472 15.77V15.4003C105.472 11.0031 108.283 8.59988 112.111 8.59988C116.019 8.59988 118.751 11.0031 118.751 15.4003V15.77C118.751 20.0879 116.058 22.412 112.111 22.412C107.874 22.3724 105.472 20.1011 105.472 15.77ZM115.279 15.7304V15.4003C115.279 12.9574 114.052 11.4917 112.098 11.4917C110.184 11.4917 108.917 12.8386 108.917 15.4003V15.7304C108.917 18.094 110.145 19.4409 112.098 19.4409C114.065 19.4013 115.279 18.094 115.279 15.7304ZM123.226 15.2418L118.619 8.92999H122.566L125.219 12.8782L127.912 8.92999H131.819L127.146 15.2022L132.07 22.0554H128.202L125.193 17.6979L122.262 22.0554H118.223L123.226 15.2418Z" fill="white"/>
</g>
<defs>
<clipPath id="clip0_385_9240">
<rect width="132" height="26" fill="white" transform="translate(0.0703125 0.941162)"/>
</clipPath>
</defs>
</svg>
