<svg width="133" height="26" viewBox="0 0 133 26" fill="none" xmlns="http://www.w3.org/2000/svg">
<g clip-path="url(#clip0_1085_7927)">
<path d="M15.812 4.88573L8.156 9.77146L15.812 14.6572L8.156 19.5429L0.5 14.6308L8.156 9.74505L0.5 4.88573L8.156 0L15.812 4.88573ZM8.1164 21.1143L15.7724 16.2285L23.4284 21.1143L15.7724 26L8.1164 21.1143ZM15.812 14.6308L23.468 9.74505L15.812 4.88573L23.4284 0L31.0844 4.88573L23.4284 9.77146L31.0844 14.6572L23.4284 19.5429L15.812 14.6308Z" fill="#0061FF"/>
<path d="M37.0898 4.88573H43.2806C47.2274 4.88573 50.4878 7.17014 50.4878 12.386V13.482C50.4878 18.7374 47.4386 21.1011 43.3994 21.1011H37.0898V4.88573ZM40.5482 7.83037V18.1432H43.2014C45.4454 18.1432 46.9502 16.6775 46.9502 13.416V12.5576C46.9502 9.29609 45.3662 7.83037 43.0826 7.83037H40.5482ZM52.3226 7.98883H55.0946L55.5434 11.0391C56.0714 8.96598 57.4178 7.85678 59.8598 7.85678H60.7178V11.356H59.2922C56.4806 11.356 55.7942 12.3332 55.7942 15.1061V21.1407H52.3754V7.98883H52.3226ZM61.4042 14.8289V14.4591C61.4042 10.062 64.2158 7.65871 68.0438 7.65871C71.951 7.65871 74.6834 10.062 74.6834 14.4591V14.8289C74.6834 19.1468 72.0302 21.4708 68.0438 21.4708C63.8066 21.4312 61.4042 19.16 61.4042 14.8289ZM71.1854 14.7892V14.4591C71.1854 12.0163 69.9578 10.5505 68.0042 10.5505C66.0902 10.5505 64.823 11.8974 64.823 14.4591V14.7892C64.823 17.1529 66.0506 18.4998 68.0042 18.4998C69.9578 18.4601 71.1854 17.1529 71.1854 14.7892ZM76.4786 7.98883H79.3298L79.6598 10.4713C80.3462 8.80752 81.8114 7.65871 83.9762 7.65871C87.3158 7.65871 89.5202 10.062 89.5202 14.5119V14.8817C89.5202 19.1996 87.0782 21.484 83.9762 21.484C81.9038 21.484 80.4782 20.5465 79.7786 19.0411V25.6831H76.439L76.4786 7.98883ZM86.0486 14.7892V14.4987C86.0486 11.8842 84.7022 10.5902 82.907 10.5902C80.993 10.5902 79.7258 12.0559 79.7258 14.4987V14.7496C79.7258 17.0736 80.9534 18.5394 82.8674 18.5394C84.8342 18.4998 86.0486 17.2453 86.0486 14.7892ZM94.5758 18.711L94.2854 21.1143H91.355V3.59167H94.6946V10.3129C95.4338 8.59625 96.899 7.65871 98.9714 7.65871C102.113 7.69833 104.436 9.86389 104.436 14.2214V14.6308C104.436 18.9883 102.232 21.484 98.8922 21.484C96.6878 21.4312 95.2622 20.4144 94.5758 18.711ZM100.925 14.6308V14.3007C100.925 11.8974 99.6182 10.5505 97.7834 10.5505C95.909 10.5505 94.6022 12.0559 94.6022 14.3403V14.6308C94.6022 17.0736 95.8694 18.4998 97.7438 18.4998C99.7502 18.4998 100.925 17.2453 100.925 14.6308ZM105.901 14.8289V14.4591C105.901 10.062 108.713 7.65871 112.541 7.65871C116.448 7.65871 119.181 10.062 119.181 14.4591V14.8289C119.181 19.1468 116.488 21.4708 112.541 21.4708C108.304 21.4312 105.901 19.16 105.901 14.8289ZM115.709 14.7892V14.4591C115.709 12.0163 114.481 10.5505 112.528 10.5505C110.614 10.5505 109.347 11.8974 109.347 14.4591V14.7892C109.347 17.1529 110.574 18.4998 112.528 18.4998C114.495 18.4601 115.709 17.1529 115.709 14.7892ZM123.655 14.3007L119.049 7.98883H122.995L125.649 11.937L128.341 7.98883H132.249L127.576 14.2611L132.499 21.1143H128.632L125.622 16.7567L122.692 21.1143H118.653L123.655 14.3007Z" fill="white"/>
</g>
<defs>
<clipPath id="clip0_1085_7927">
<rect width="132" height="26" fill="white" transform="translate(0.5)"/>
</clipPath>
</defs>
</svg>
