<svg width="97" height="26" viewBox="0 0 97 26" fill="none" xmlns="http://www.w3.org/2000/svg">
<path d="M54.8383 8.67537C54.8383 5.9107 54.8859 3.3367 55.0289 0.953369L47.7359 2.3357V3.00304L48.4509 3.09837C48.9753 3.14604 49.3089 3.3367 49.4996 3.6227C49.6903 3.95637 49.8333 4.43304 49.9286 5.14804C50.0239 6.53037 50.1193 9.67637 50.0716 14.6337C50.0716 19.5434 50.0239 22.6417 49.9286 23.8334C52.5503 24.4054 54.5999 24.6437 56.1253 24.6437C58.9853 24.6437 61.2256 23.8334 62.8463 22.165C64.4669 20.5444 65.3249 18.2564 65.3249 15.444C65.3249 13.2037 64.7053 11.3447 63.4659 9.86704C62.2266 8.38937 60.6536 7.67437 58.7946 7.67437C57.5553 7.67437 56.2683 8.00804 54.8383 8.67537ZM54.9813 23.3567C54.8859 21.8314 54.7906 17.2554 54.7906 9.7717C55.2196 9.6287 55.7916 9.53337 56.5066 9.53337C57.6506 9.53337 58.5563 10.1054 59.2236 11.297C59.8909 12.4887 60.2246 13.9187 60.2246 15.73C60.2246 17.9704 59.8433 19.7817 59.0806 21.307C58.3179 22.7847 57.3646 23.5474 56.1729 23.5474C55.7916 23.452 55.4103 23.4044 54.9813 23.3567ZM20.3753 1.43004H1.30859V2.38337L2.30959 2.4787C3.07226 2.6217 3.59659 2.9077 3.93026 3.3367C4.26393 3.81337 4.45459 4.57604 4.50226 5.6247C4.88359 10.7727 4.88359 15.587 4.50226 20.02C4.40693 21.0687 4.21626 21.8314 3.93026 22.308C3.59659 22.7847 3.07226 23.0707 2.30959 23.166L1.30859 23.309V24.2624H13.6066V23.309L12.3196 23.2137C12.0055 23.1874 11.7001 23.0979 11.4215 22.9504C11.143 22.803 10.8972 22.6007 10.6989 22.3557C10.3653 21.879 10.1746 21.1164 10.1269 20.0677C9.98393 18.161 9.88859 15.9684 9.88859 13.5374L12.4626 13.585C13.8449 13.6327 14.7983 14.6814 15.2749 16.7787H16.2283V9.00904H15.2749C14.7983 11.0587 13.8926 12.1074 12.4626 12.155L9.88859 12.2027C9.88859 7.9127 9.98393 4.86204 10.1269 3.00304H13.8926C16.5619 3.00304 18.3733 4.71904 19.4219 8.15104L20.5659 7.81737L20.3753 1.43004ZM18.1349 16.1114C18.1349 18.59 18.8499 20.6397 20.2323 22.2604C21.6146 23.881 23.6643 24.6437 26.2383 24.6437C28.8123 24.6437 30.9096 23.8334 32.4349 22.165C33.9603 20.5444 34.6753 18.4947 34.6753 16.016C34.6753 13.5374 33.9603 11.4877 32.5779 9.86704C31.1956 8.24637 29.1459 7.4837 26.5719 7.4837C23.9979 7.4837 21.9006 8.29404 20.3753 9.96237C18.8499 11.583 18.1349 13.6327 18.1349 16.1114ZM28.7646 10.6774C29.3366 12.0597 29.5749 13.871 29.5749 16.0637C29.5749 21.1164 28.5263 23.595 26.4766 23.595C25.4279 23.595 24.6176 22.88 24.0456 21.45C23.4736 20.02 23.2353 18.2087 23.2353 16.0637C23.2353 11.0587 24.2839 8.58004 26.3336 8.58004C27.3823 8.53237 28.1926 9.24737 28.7646 10.6774ZM69.0429 22.2604C70.6159 23.8334 72.6179 24.6437 75.0013 24.6437C76.4789 24.6437 77.7659 24.3577 78.9099 23.738C80.0539 23.166 80.9596 22.451 81.5793 21.593L81.1026 21.021C80.0539 21.8314 78.8623 22.2127 77.4799 22.2127C75.5733 22.2127 74.0956 21.593 73.0946 20.306C72.0459 19.019 71.5693 17.3984 71.6646 15.301H81.8653C81.8653 13.013 81.2933 11.154 80.1016 9.67637C78.9099 8.24637 77.2416 7.53137 75.0966 7.53137C72.4273 7.53137 70.3776 8.38937 68.8999 10.0577C67.4223 11.726 66.7073 13.7757 66.7073 16.2067C66.7073 18.6854 67.4699 20.6874 69.0429 22.2604ZM72.5703 10.296C73.0946 9.15204 73.7619 8.58004 74.6676 8.58004C76.0976 8.58004 76.8126 10.3914 76.8126 14.0617L71.7599 14.157C71.8076 12.727 72.0459 11.44 72.5703 10.296ZM94.6876 8.38937C93.4006 7.81737 91.7799 7.4837 89.8256 7.4837C87.8236 7.4837 86.2506 8.00804 85.0589 9.00904C83.8673 10.01 83.2476 11.2494 83.2476 12.727C83.2476 14.014 83.6289 15.015 84.3439 15.73C85.0589 16.445 86.2029 17.0647 87.6806 17.589C89.0153 18.0657 89.9686 18.5424 90.4453 18.9714C90.9219 19.448 91.2079 19.9724 91.2079 20.6874C91.2079 21.3547 90.9696 21.9744 90.4453 22.451C89.9686 22.9754 89.3013 23.2137 88.4433 23.2137C86.3459 23.2137 84.7729 21.6884 83.6766 18.6377L82.8663 18.876L83.0569 23.6427C84.7729 24.31 86.6796 24.6437 88.7769 24.6437C90.9696 24.6437 92.6379 24.167 93.8773 23.166C95.1166 22.2127 95.7363 20.8304 95.7363 19.1144C95.7363 17.9704 95.4503 17.017 94.8306 16.302C94.2109 15.587 93.2099 14.9674 91.7799 14.3954C90.2069 13.8234 89.1106 13.299 88.5386 12.8224C87.9666 12.3457 87.6806 11.7737 87.6806 11.0587C87.6806 10.3437 87.8713 9.7717 88.3003 9.29504C88.7293 8.81837 89.2536 8.6277 89.9209 8.6277C91.8276 8.6277 93.2099 10.01 94.0679 12.727L94.8783 12.4887L94.6876 8.38937ZM48.8323 7.96037C48.1649 7.6267 47.4499 7.4837 46.6396 7.4837C45.8293 7.4837 45.0189 7.81737 44.1133 8.4847C43.2076 9.15204 42.5403 10.0577 42.0159 11.297L42.0636 7.4837L34.8183 8.9137V9.58104L35.5333 9.6287C36.4389 9.72404 36.9633 10.439 37.0586 11.726C37.3446 14.6814 37.3446 17.8274 37.0586 21.164C36.9633 22.451 36.4389 23.1184 35.5333 23.2614L34.8183 23.3567V24.2624H44.9236V23.3567L43.6366 23.2614C42.7309 23.166 42.2066 22.451 42.1113 21.164C41.8253 18.3994 41.7776 15.444 42.0159 12.3934C42.3019 11.9167 42.9216 11.6307 43.8749 11.5354C44.8283 11.44 45.9246 11.726 47.0686 12.3934L48.8323 7.96037Z" fill="white"/>
</svg>
