<svg width="121" height="20" viewBox="0 0 121 20" fill="none" xmlns="http://www.w3.org/2000/svg">
<g clip-path="url(#clip0_1085_7864)">
<path d="M5.78566 8.85034H10.0616V15.0208C10.0616 18.1361 8.50673 19.9168 5.50649 19.9168C2.50625 19.9168 0.953125 18.1361 0.953125 15.0208V4.89602C0.953125 1.78069 2.50802 0 5.50649 0C8.50498 0 10.0616 1.78069 10.0616 4.89602V6.78643H7.17271V4.70129C7.17271 3.31001 6.56136 2.78254 5.58247 2.78254C4.60361 2.78254 3.99224 3.31355 3.99224 4.70129V15.2226C3.99224 16.6138 4.60184 17.1148 5.58247 17.1148C6.56311 17.1148 7.17271 16.6138 7.17271 15.2226V11.6276H5.78566V8.85034Z" fill="white"/>
<path d="M14.4762 13.2436L10.6172 0.226562H13.81L16.1424 9.09992L18.4747 0.226562H21.3902L17.5312 13.2436V19.6973H14.4762V13.2436Z" fill="white"/>
<path d="M29.0752 14.0508L31.1583 0.226562H35.4061V19.6973H32.5189V5.73323L30.4091 19.6973H27.5203L25.2445 5.92794V19.6973H22.5781V0.226562H26.8276L29.0752 14.0508Z" fill="white"/>
<path d="M41.7387 0C44.7107 0 46.2373 1.78069 46.2373 4.89602V5.50667H43.3554V4.70129C43.3554 3.31001 42.8007 2.78077 41.8288 2.78077C40.857 2.78077 40.3023 3.31178 40.3023 4.70129C40.3023 8.70695 46.2727 9.45747 46.2727 15.0208C46.2727 18.1361 44.7178 19.9168 41.7176 19.9168C38.7173 19.9168 37.1641 18.1361 37.1641 15.0208V13.8242H40.0512V15.2226C40.0512 16.6138 40.6625 17.1148 41.6415 17.1148C42.6204 17.1148 43.2317 16.6138 43.2317 15.2226C43.2317 11.2169 37.2613 10.4664 37.2613 4.90307C37.2402 1.78069 38.7614 0 41.7387 0Z" fill="#0086EC"/>
<path d="M51.0706 19.6973H48.0156V0.226562H51.0706V8.57065H54.5426V0.226562H57.6523V19.6973H54.5426V11.3532H51.0706V19.6973Z" fill="#0086EC"/>
<path fill-rule="evenodd" clip-rule="evenodd" d="M66.6763 19.6973H69.7526L66.6427 0.226562H62.1724L59.0625 19.6973H61.8632L62.3934 16.1572H66.1461L66.6763 19.6973ZM65.7309 13.5215H62.789L64.259 3.67466L65.7309 13.5215Z" fill="#0086EC"/>
<path fill-rule="evenodd" clip-rule="evenodd" d="M77.5522 19.6766L77.5591 19.6973L80.669 19.7008C80.3633 18.9786 80.335 18.283 80.335 17.3378V14.3287C80.335 12.2984 79.8349 10.824 78.3084 10.185C79.6689 9.54419 80.3085 8.23789 80.3085 6.23417V4.70484C80.3085 1.69926 78.948 0.226562 75.7817 0.226562H71.1719V19.6955H74.2216V11.7674H75.2817C76.6705 11.7674 77.2818 12.4383 77.2818 14.2455V17.306C77.2818 18.87 77.3883 19.1877 77.5522 19.6766ZM74.2269 8.98839V3.01265L75.6987 3.00734C76.7818 3.00734 77.2536 3.61978 77.2536 5.01105V6.9298C77.2536 8.48747 76.5592 8.98839 75.4212 8.98839H74.2269Z" fill="#0086EC"/>
<path d="M86.3347 11.9373L85.3893 13.7163V19.6973H82.3359V0.226562H85.3893V8.71051L89.3878 0.226562H92.4428L88.1951 8.90521L92.4428 19.6973H89.3048L86.3347 11.9373Z" fill="#0086EC"/>
<path d="M120.012 0.21875H94.5625L112.944 3.3323L105.463 14.8094H104.827L103.784 15.8431L102.687 14.8094H102.395L101.339 15.8608L100.287 14.8094H99.9322L98.881 15.8626L97.7961 14.8094H94.5625L98.8332 16.4733L99.9818 15.9263L100.627 17.1778L100.95 17.3017L102.268 16.6503L102.959 18.1053L103.231 18.1973L102.265 19.7036L120.012 0.21875Z" fill="#0086EC"/>
<path d="M97.5781 4.63672L105.061 6.41371L101.844 6.76771L97.5781 4.63672Z" fill="#0086EC"/>
</g>
<defs>
<clipPath id="clip0_1085_7864">
<rect width="119.091" height="20.0018" fill="white" transform="translate(0.953125)"/>
</clipPath>
</defs>
</svg>
