<svg width="120" height="21" viewBox="0 0 120 21" fill="none" xmlns="http://www.w3.org/2000/svg">
<g clip-path="url(#clip0_222_3052)">
<path d="M5.35598 9.79065H9.63194V15.9611C9.63194 19.0764 8.07704 20.8571 5.0768 20.8571C2.07657 20.8571 0.523438 19.0764 0.523438 15.9611V5.83632C0.523438 2.72099 2.07833 0.940308 5.0768 0.940308C8.0753 0.940308 9.63194 2.72099 9.63194 5.83632V7.72674H6.74302V5.64159C6.74302 4.25032 6.13168 3.72285 5.15279 3.72285C4.17392 3.72285 3.56255 4.25386 3.56255 5.64159V16.1629C3.56255 17.5542 4.17215 18.0551 5.15279 18.0551C6.13342 18.0551 6.74302 17.5542 6.74302 16.1629V12.5679H5.35598V9.79065Z" fill="white"/>
<path d="M14.0465 14.1839L10.1875 1.16687H13.3804L15.7127 10.0402L18.045 1.16687H20.9605L17.1015 14.1839V20.6376H14.0465V14.1839Z" fill="white"/>
<path d="M28.6455 14.9911L30.7286 1.16687H34.9764V20.6376H32.0892V6.67354L29.9794 20.6376H27.0906L24.8148 6.86825V20.6376H22.1484V1.16687H26.3979L28.6455 14.9911Z" fill="white"/>
<path d="M41.309 0.940308C44.281 0.940308 45.8076 2.72099 45.8076 5.83632V6.44697H42.9257V5.64159C42.9257 4.25032 42.371 3.72108 41.3992 3.72108C40.4273 3.72108 39.8726 4.25209 39.8726 5.64159C39.8726 9.64725 45.843 10.3978 45.843 15.9611C45.843 19.0764 44.2881 20.8571 41.2879 20.8571C38.2876 20.8571 36.7344 19.0764 36.7344 15.9611V14.7645H39.6215V16.1629C39.6215 17.5542 40.2328 18.0551 41.2118 18.0551C42.1907 18.0551 42.802 17.5542 42.802 16.1629C42.802 12.1572 36.8316 11.4067 36.8316 5.84338C36.8105 2.72099 38.3318 0.940308 41.309 0.940308Z" fill="#0086EC"/>
<path d="M50.6409 20.6376H47.5859V1.16687H50.6409V9.51096H54.1129V1.16687H57.2226V20.6376H54.1129V12.2935H50.6409V20.6376Z" fill="#0086EC"/>
<path fill-rule="evenodd" clip-rule="evenodd" d="M66.2466 20.6376H69.3229L66.213 1.16687H61.7427L58.6328 20.6376H61.4335L61.9637 17.0975H65.7164L66.2466 20.6376ZM65.3012 14.4618H62.3593L63.8294 4.61497L65.3012 14.4618Z" fill="#0086EC"/>
<path fill-rule="evenodd" clip-rule="evenodd" d="M77.1225 20.6169L77.1294 20.6376L80.2393 20.6412C79.9336 19.919 79.9053 19.2233 79.9053 18.2781V15.269C79.9053 13.2387 79.4052 11.7643 77.8787 11.1253C79.2393 10.4845 79.8789 9.1782 79.8789 7.17448V5.64515C79.8789 2.63957 78.5183 1.16687 75.352 1.16687H70.7422V20.6358H73.7919V12.7077H74.852C76.2408 12.7077 76.8521 13.3786 76.8521 15.1858V18.2463C76.8521 19.8103 76.9586 20.128 77.1225 20.6169ZM73.7972 9.9287V3.95296L75.269 3.94764C76.3521 3.94764 76.8239 4.56009 76.8239 5.95136V7.8701C76.8239 9.42778 76.1296 9.9287 74.9915 9.9287H73.7972Z" fill="#0086EC"/>
<path d="M85.905 12.8776L84.9596 14.6566V20.6376H81.9062V1.16687H84.9596V9.65081L88.9581 1.16687H92.0131L87.7654 9.84552L92.0131 20.6376H88.8751L85.905 12.8776Z" fill="#0086EC"/>
<path d="M119.582 1.15906H94.1328L112.514 4.27261L105.033 15.7497H104.397L103.355 16.7834L102.257 15.7497H101.966L100.909 16.8011L99.8577 15.7497H99.5025L98.4514 16.8029L97.3664 15.7497H94.1328L98.4035 17.4136L99.5521 16.8666L100.197 18.1181L100.52 18.242L101.839 17.5906L102.529 19.0456L102.801 19.1376L101.835 20.644L119.582 1.15906Z" fill="#0086EC"/>
<path d="M97.1484 5.57703L104.631 7.35401L101.414 7.70801L97.1484 5.57703Z" fill="#0086EC"/>
</g>
<defs>
<clipPath id="clip0_222_3052">
<rect width="119.091" height="20.0018" fill="white" transform="translate(0.523438 0.940308)"/>
</clipPath>
</defs>
</svg>
