<svg width="97" height="29" viewBox="0 0 97 29" fill="none" xmlns="http://www.w3.org/2000/svg">
<g clip-path="url(#clip0_385_9228)">
<path d="M10.4673 5.43378V13.0886H3.41582V5.43378H0.0703125V23.7069H3.41673V16.3005H10.4664V23.7069H13.8137V5.43378H10.4673ZM24.525 17.8007C24.525 18.5332 24.2332 19.2356 23.7139 19.7535C23.1946 20.2714 22.4903 20.5624 21.7559 20.5624C21.0215 20.5624 20.3172 20.2714 19.7979 19.7535C19.2786 19.2356 18.9868 18.5332 18.9868 17.8007V9.97339H15.8125V17.8007C15.8125 19.3712 16.4381 20.8774 17.5516 21.9879C18.6651 23.0984 20.1753 23.7223 21.75 23.7223C23.3247 23.7223 24.835 23.0984 25.9485 21.9879C27.062 20.8774 27.6875 19.3712 27.6875 17.8007V9.97339H24.525V17.8007ZM48.0459 10.78C48.0459 9.17494 49.11 8.66642 50.2756 8.66642C51.2157 8.66642 52.4564 9.37997 53.2688 10.2453L55.3473 7.80113C54.3094 6.40113 52.2047 5.43378 50.4812 5.43378C47.037 5.43378 44.5464 7.44526 44.5464 10.78C44.5464 16.9671 52.1286 15.0035 52.1286 18.4664C52.1286 19.534 51.0889 20.477 49.8988 20.477C48.0214 20.477 47.4128 19.562 46.5506 18.5938L44.243 20.9864C45.7192 22.7929 47.5396 23.7106 49.7195 23.7106C52.9917 23.7106 55.6235 21.6747 55.6235 18.4917C55.6235 11.6236 48.0404 13.7579 48.0404 10.78M94.9536 20.7877C93.078 20.7877 92.5446 19.9784 92.5446 18.7392V13.2521H95.4608V10.472H92.5446V6.80397L89.3259 8.24462V19.4211C89.3259 22.2798 91.3038 23.7205 94.0154 23.7205C94.441 23.7277 94.8667 23.6934 95.2851 23.6193L96.0703 20.7362C95.7162 20.7606 95.3096 20.785 94.9536 20.785M36.6083 10.0646C35.036 10.0646 33.9384 10.5198 32.877 11.5576V5.54307H29.6981V16.6916C29.6981 20.8645 32.723 23.7241 36.1228 23.7241C39.894 23.7241 43.2114 20.8139 43.2114 16.8957C43.2114 13.0263 40.1585 10.0673 36.6083 10.0673M36.5883 20.533C36.1146 20.533 35.6455 20.4399 35.2077 20.2591C34.77 20.0783 34.3723 19.8133 34.0373 19.4792C33.7023 19.1451 33.4366 18.7484 33.2553 18.3119C33.074 17.8754 32.9807 17.4075 32.9807 16.935C32.9807 16.4625 33.074 15.9946 33.2553 15.5581C33.4366 15.1216 33.7023 14.7249 34.0373 14.3908C34.3723 14.0567 34.77 13.7917 35.2077 13.6109C35.6455 13.4301 36.1146 13.337 36.5883 13.337C37.5452 13.337 38.4628 13.7161 39.1394 14.3908C39.816 15.0656 40.196 15.9808 40.196 16.935C40.196 17.8893 39.816 18.8044 39.1394 19.4792C38.4628 20.1539 37.5452 20.533 36.5883 20.533ZM71.132 16.7295C71.132 12.8041 67.8219 9.90113 64.0434 9.90113C60.6445 9.90113 57.6187 12.7598 57.6187 16.9336V28.0885H60.7976V22.0658C61.8572 23.1018 62.9566 23.5588 64.5271 23.5588C68.0773 23.5588 71.132 20.5998 71.132 16.7295ZM68.1216 16.6898C68.1216 17.644 67.7415 18.5592 67.065 19.2339C66.3884 19.9087 65.4708 20.2878 64.5139 20.2878C63.5571 20.2878 62.6395 19.9087 61.9629 19.2339C61.2863 18.5592 60.9062 17.644 60.9062 16.6898C60.9062 15.7355 61.2863 14.8204 61.9629 14.1456C62.6395 13.4709 63.5571 13.0918 64.5139 13.0918C65.4708 13.0918 66.3884 13.4709 67.065 14.1456C67.7415 14.8204 68.1216 15.7355 68.1216 16.6898Z" fill="white"/>
<path d="M81.4032 9.74759V6.56191C81.8253 6.36516 82.1827 6.05289 82.4338 5.66145C82.6849 5.27001 82.8193 4.81549 82.8215 4.35081V4.27765C82.8215 2.92281 81.7202 1.82449 80.3617 1.82449H80.2884C79.636 1.82449 79.0103 2.08295 78.549 2.54301C78.0877 3.00306 77.8286 3.62703 77.8286 4.27765V4.35081C77.8307 4.81549 77.9652 5.27001 78.2163 5.66145C78.4673 6.05289 78.8247 6.36516 79.2468 6.56191V9.74759C78.0337 9.93285 76.8911 10.4345 75.9348 11.2018L67.1744 4.39688C67.2369 4.17198 67.2695 3.94075 67.2731 3.70862C67.2742 3.1619 67.1127 2.62715 66.8089 2.172C66.5052 1.71685 66.073 1.36175 65.5669 1.15162C65.0608 0.941497 64.5036 0.885779 63.9658 0.991518C63.428 1.09726 62.9336 1.3597 62.5454 1.74566C62.1571 2.13162 61.8923 2.62374 61.7846 3.15979C61.6768 3.69584 61.7308 4.25172 61.9399 4.75713C62.1489 5.26254 62.5035 5.69477 62.9589 5.99914C63.4143 6.30351 63.95 6.46636 64.4982 6.46707C64.9778 6.46482 65.4484 6.33713 65.863 6.09675L74.4894 12.7915C73.7145 13.959 73.3102 15.3323 73.3292 16.7324C73.3483 18.1325 73.7898 19.4943 74.5963 20.6405L71.9726 23.258C71.7605 23.1904 71.5395 23.1545 71.3169 23.1515C70.8669 23.1518 70.4271 23.2852 70.0531 23.5347C69.6791 23.7843 69.3877 24.1388 69.2157 24.5535C69.0436 24.9682 68.9987 25.4244 69.0866 25.8645C69.1745 26.3047 69.3912 26.7089 69.7094 27.0263C70.0276 27.3436 70.4329 27.5597 70.8742 27.6474C71.3156 27.735 71.773 27.6902 72.1888 27.5186C72.6046 27.3471 72.9601 27.0564 73.2103 26.6834C73.4605 26.3104 73.5943 25.8718 73.5946 25.4231C73.5917 25.201 73.5557 24.9806 73.4878 24.7691L76.0834 22.1796C76.9298 22.8295 77.9141 23.2775 78.961 23.4894C80.0078 23.7012 81.0894 23.6713 82.1229 23.4019C83.1564 23.1325 84.1143 22.6307 84.9233 21.9351C85.7323 21.2394 86.3709 20.3683 86.7902 19.3885C87.2095 18.4087 87.3983 17.3461 87.3422 16.2823C87.2861 15.2184 86.9867 14.1815 86.4667 13.2509C85.9467 12.3203 85.2201 11.5208 84.3424 10.9135C83.4647 10.3063 82.4593 9.90746 81.4032 9.74759ZM80.3273 20.225C79.8476 20.2382 79.3701 20.1553 78.9231 19.9813C78.476 19.8073 78.0685 19.5457 77.7245 19.212C77.3806 18.8783 77.1071 18.4792 76.9205 18.0383C76.7338 17.5974 76.6376 17.1237 76.6376 16.6451C76.6376 16.1665 76.7338 15.6927 76.9205 15.2519C77.1071 14.811 77.3806 14.4119 77.7245 14.0781C78.0685 13.7444 78.476 13.4828 78.9231 13.3088C79.3701 13.1348 79.8476 13.052 80.3273 13.0651C81.257 13.0976 82.1378 13.4887 82.7842 14.1559C83.4306 14.8232 83.7921 15.7146 83.7926 16.6424C83.793 17.5702 83.4324 18.462 82.7867 19.1299C82.141 19.7979 81.2606 20.1898 80.3309 20.2232" fill="#FF7A59"/>
</g>
<defs>
<clipPath id="clip0_385_9228">
<rect width="96" height="28" fill="white" transform="translate(0.0703125 0.941162)"/>
</clipPath>
</defs>
</svg>
