<svg width="152" height="36" viewBox="0 0 152 36" fill="none" xmlns="http://www.w3.org/2000/svg">
<mask id="mask0_650_6321" style="mask-type:luminance" maskUnits="userSpaceOnUse" x="0" y="0" width="152" height="36">
<path d="M151.308 0.735229H0.832031V35.147H151.308V0.735229Z" fill="white"/>
</mask>
<g mask="url(#mask0_650_6321)">
<path d="M52.6148 12.6511C52.6148 11.9332 52.061 11.3441 51.286 11.3441C50.5108 11.3441 49.957 11.9332 49.957 12.6511V23.2538C49.957 23.9718 50.5108 24.5608 51.286 24.5608C52.0796 24.5608 52.6148 23.9718 52.6148 23.2538V12.6511Z" fill="white"/>
<path d="M65.7022 11.3441C64.927 11.3441 64.3916 11.9332 64.3916 12.6511V17.1793L64.4655 21.229L62.8596 17.437L60.7556 13.1297C60.1096 11.7859 59.3715 11.3441 58.3193 11.3441C56.769 11.3441 56.0859 12.3197 56.0859 13.7187V23.2538C56.0859 23.9718 56.6212 24.5607 57.3965 24.5607C58.1717 24.5607 58.7069 23.9718 58.7069 23.2538L58.6885 18.7809L58.6331 14.1972L60.3496 18.3942L62.4721 22.7752C63.1366 24.1741 63.838 24.5793 64.9084 24.5793C66.2927 24.5793 67.0125 23.7323 67.0125 22.1678V12.6511C67.0125 11.9332 66.4772 11.3441 65.7022 11.3441Z" fill="white"/>
<path d="M76.8137 14.0498L79.8222 14.1234C80.5235 14.1418 81.0773 13.608 81.0773 12.8348C81.0773 12.0618 80.5235 11.528 79.8222 11.528L71.1104 11.5096C70.4276 11.5096 69.8555 12.0434 69.8555 12.8164C69.8555 13.5896 70.4276 14.1234 71.1104 14.105L74.1375 14.0498V23.2535C74.1375 23.9714 74.6911 24.5605 75.4664 24.5605C76.26 24.5605 76.8137 23.9714 76.8137 23.2535V14.0498Z" fill="white"/>
<path d="M85.7296 24.3926H92.208C92.891 24.3926 93.4447 23.8773 93.4447 23.1592C93.4447 22.423 92.891 21.9076 92.208 21.9076L86.5787 21.926V18.852H91.4512C92.1158 18.852 92.651 18.3548 92.651 17.6739C92.651 16.9744 92.1158 16.4773 91.4512 16.4773L86.5787 16.5142V13.9739H92.208C92.891 13.9739 93.4447 13.4586 93.4447 12.7223C93.4447 11.986 92.891 11.4889 92.208 11.4889L85.7481 11.5073C84.5668 11.5073 83.9023 12.17 83.9023 13.3481V22.5519C83.9023 23.7299 84.5668 24.3926 85.7296 24.3926Z" fill="white"/>
<path d="M103.997 19.1487C105.75 18.6885 106.784 17.3264 106.784 15.5224C106.784 13.5159 105.474 11.5096 102.336 11.5096H98.2753C97.0942 11.5096 96.4297 12.1721 96.4297 13.3503V23.2535C96.4297 23.9714 96.9834 24.5605 97.7956 24.5605C98.5892 24.5605 99.1613 23.9714 99.1613 23.2535L99.1429 19.7929H101.376L103.646 23.8794C104.015 24.5053 104.791 24.7629 105.511 24.3948C106.23 24.0083 106.433 23.2351 106.046 22.6094L103.997 19.1487ZM99.1429 13.9577H102.354C103.443 13.9577 104.126 14.6388 104.126 15.6512C104.126 16.6453 103.48 17.3816 102.391 17.3816H99.1429V13.9577Z" fill="white"/>
<path d="M114.939 24.632C117.634 24.632 119.369 23.4172 119.959 21.4475C120.273 20.3246 119.609 19.5147 118.612 19.5147C118.003 19.5147 117.597 19.8276 117.357 20.5087C116.988 21.5396 116.083 22.1839 114.791 22.1839C112.743 22.1839 111.857 20.8032 111.857 17.9317C111.857 15.1153 112.761 13.7717 114.791 13.7717C116.065 13.7717 116.803 14.3055 117.265 15.5387C117.523 16.2382 117.948 16.5511 118.575 16.5511C119.535 16.5511 120.236 15.778 119.941 14.7105C119.35 12.5383 117.634 11.3234 114.865 11.3234C111.063 11.3234 109.125 13.6428 109.125 17.9317C109.125 22.2575 111.063 24.632 114.939 24.632Z" fill="white"/>
<path d="M128.059 24.5966C131.972 24.5966 133.909 22.2035 133.909 17.933C133.909 13.6257 131.916 11.251 128.059 11.251C124.183 11.251 122.245 13.6625 122.227 17.933C122.227 22.2219 124.201 24.5966 128.059 24.5966ZM128.059 22.1301C125.881 22.1301 124.94 20.7495 124.94 17.933C124.94 15.0799 125.9 13.6993 128.04 13.6993C130.2 13.6993 131.215 15.0799 131.196 17.933C131.196 20.7677 130.237 22.1301 128.059 22.1301Z" fill="white"/>
<path d="M151.09 13.6428C151.09 12.1886 150.186 11.3234 148.783 11.3234C147.639 11.3234 146.771 11.9493 146.346 13.3851L144.926 18.0054L143.984 21.3371L143.08 18.0054L141.567 13.3851C141.142 12.0413 140.403 11.3234 139.112 11.3234C137.69 11.3234 136.805 12.1702 136.805 13.6428V23.2515C136.805 23.9695 137.321 24.5585 138.078 24.5585C138.835 24.5585 139.351 23.9695 139.351 23.2515L139.333 18.6128L139.204 13.6428L140.661 18.7233L142.213 23.2147C142.545 24.2086 143.172 24.5401 143.984 24.5401C144.741 24.5401 145.349 24.2638 145.663 23.2515L147.14 18.7233L148.709 13.606L148.562 18.6128V23.2515C148.562 23.9695 149.096 24.5585 149.835 24.5585C150.592 24.5585 151.108 23.9695 151.108 23.2515L151.09 13.6428Z" fill="white"/>
<path d="M30.7078 19.6712C30.7078 19.978 30.5868 20.2722 30.3716 20.489C30.1564 20.7059 29.8646 20.8278 29.5602 20.8278C29.2558 20.8278 28.9638 20.7059 28.7486 20.489C28.5334 20.2722 28.4124 19.978 28.4124 19.6712V9.33814C28.4124 9.03148 28.5334 8.73725 28.7486 8.52033C28.9638 8.3034 29.2558 8.18151 29.5602 8.18151C29.8646 8.18151 30.1564 8.3034 30.3716 8.52033C30.5868 8.73725 30.7078 9.03148 30.7078 9.33814V19.6712ZM30.3093 26.8308C30.1576 26.9837 25.8896 30.5682 18.065 30.5682C10.2405 30.5682 6.001 27.0029 5.8208 26.8498C5.70724 26.7534 5.61369 26.6352 5.54553 26.5022C5.47737 26.369 5.43593 26.2239 5.42359 26.0747C5.41127 25.9255 5.42827 25.7753 5.47365 25.6328C5.51902 25.4902 5.59187 25.358 5.68801 25.2439C5.88609 25.013 6.16674 24.8704 6.46878 24.847C6.77081 24.8237 7.06973 24.9219 7.30036 25.1198C7.36675 25.1675 11.1794 28.2837 18.0555 28.2837C24.9318 28.2837 28.7729 25.1484 28.8109 25.1198C29.0441 24.9235 29.344 24.8267 29.6467 24.85C29.9497 24.8732 30.2316 25.0145 30.4326 25.2439C30.6261 25.4716 30.7228 25.7668 30.7014 26.0657C30.6801 26.3645 30.5426 26.643 30.3188 26.8404L30.3093 26.8308ZM5.41298 9.33814C5.43012 9.03042 5.56745 8.74215 5.79492 8.53608C6.02241 8.33014 6.32155 8.22333 6.62697 8.23895C6.9101 8.25509 7.17726 8.37646 7.3769 8.57936C7.57657 8.78239 7.69459 9.05265 7.70818 9.33814V19.6521C7.70818 19.9588 7.58727 20.253 7.37205 20.4699C7.15683 20.6869 6.86494 20.8088 6.56057 20.8088C6.25621 20.8088 5.96432 20.6869 5.74909 20.4699C5.53388 20.253 5.41298 19.9588 5.41298 19.6521V9.33814ZM11.17 7.04406C11.1871 6.73634 11.3244 6.44795 11.552 6.242C11.7793 6.03606 12.0786 5.92912 12.3839 5.94487C12.667 5.96102 12.9343 6.08225 13.1338 6.28528C13.3336 6.48831 13.4516 6.75858 13.4651 7.04406V22.3381C13.4651 22.6449 13.3443 22.9391 13.1291 23.1559C12.9139 23.3728 12.6219 23.4946 12.3176 23.4946C12.0132 23.4946 11.7214 23.3728 11.506 23.1559C11.2908 22.9391 11.17 22.6449 11.17 22.3381V7.04406ZM16.9554 6.47058C16.9554 6.16379 17.0764 5.86956 17.2916 5.65277C17.5068 5.43584 17.7988 5.31395 18.1029 5.31395C18.4074 5.31395 18.6993 5.43584 18.9145 5.65277C19.1297 5.86956 19.2507 6.16379 19.2507 6.47058V23.1028C19.2507 23.4095 19.1297 23.7037 18.9145 23.9208C18.6993 24.1376 18.4074 24.2595 18.1029 24.2595C17.7988 24.2595 17.5068 24.1376 17.2916 23.9208C17.0764 23.7037 16.9554 23.4095 16.9554 23.1028V6.47058ZM22.646 7.04406C22.646 6.73727 22.767 6.44318 22.9822 6.22625C23.1974 6.00933 23.4893 5.88743 23.7935 5.88743C24.098 5.88743 24.3899 6.00933 24.6051 6.22625C24.8203 6.44318 24.9412 6.73727 24.9412 7.04406V22.3381C24.9412 22.6449 24.8203 22.9391 24.6051 23.1559C24.3899 23.3728 24.098 23.4946 23.7935 23.4946C23.4893 23.4946 23.1974 23.3728 22.9822 23.1559C22.767 22.9391 22.646 22.6449 22.646 22.3381V7.04406ZM31.0207 0.735328H5.1474C4.58363 0.73149 4.02468 0.839888 3.50252 1.05403C2.98034 1.26831 2.50524 1.58424 2.10439 1.98381C1.70355 2.38339 1.38483 2.85867 1.1665 3.38252C0.948171 3.90637 0.834506 4.46847 0.832031 5.0368V30.8455C0.834506 31.4135 0.948171 31.9758 1.1665 32.4996C1.38483 33.0234 1.70355 33.4988 2.10439 33.8983C2.50524 34.2978 2.98034 34.6138 3.50252 34.828C4.02468 35.0424 4.58363 35.1505 5.1474 35.1468H31.0207C31.5836 35.1505 32.1418 35.0427 32.6633 34.8289C33.1849 34.6154 33.6597 34.3003 34.0603 33.9017C34.4611 33.5031 34.78 33.0289 34.9988 32.5061C35.2179 31.9835 35.3323 31.4223 35.336 30.855V5.0368C35.3335 4.4694 35.2202 3.90796 35.0025 3.38477C34.7848 2.86158 34.467 2.3867 34.067 1.98725C33.6672 1.58781 33.1933 1.27162 32.6722 1.05681C32.1511 0.842006 31.5931 0.732813 31.0302 0.735328" fill="white"/>
</g>
</svg>
