<svg width="137" height="25" viewBox="0 0 137 25" fill="none" xmlns="http://www.w3.org/2000/svg">
<g clip-path="url(#clip0_1085_7854)">
<path d="M124.644 3.94202H124.51C122.597 3.94202 116.319 4.54849 116.285 12.4326C116.285 20.6536 123.167 21.0579 124.544 21.0579H124.611C125.484 21.0579 128.471 20.8895 130.62 18.7668C132.131 17.2843 132.869 15.128 132.869 12.4326C132.836 4.54849 126.558 3.94202 124.644 3.94202ZM127.095 17.7223C126.625 18.1267 125.853 18.5984 124.678 18.5984H124.443C123.268 18.5984 122.496 18.1267 122.026 17.7223C120.851 16.6779 120.247 14.7911 120.247 12.1294C120.28 6.90698 122.865 6.13205 124.409 6.13205H124.644C126.189 6.13205 128.774 6.90698 128.807 12.1294C128.874 14.7911 128.27 16.6779 127.095 17.7223ZM25.4444 23.6186C23.9338 23.0458 21.7181 21.3948 20.4089 19.845C18.7975 17.9919 14.9034 12.8032 14.8698 12.7695L13.0906 10.411C11.3785 8.05253 9.43145 5.4245 7.48438 3.84094V21.0242H9.83429V12.1294L9.86786 12.1967C10.5057 13.0054 11.1771 13.8814 11.8485 14.7574C12.9563 16.1725 14.0641 17.655 15.0041 18.7331C15.6419 19.4744 17.3204 21.2601 17.7904 21.6644C19.9389 23.7196 23.4302 25.0337 26.888 25.0337C28.3986 25.0337 29.8421 24.7978 31.1849 24.3598V24.2587C30.6478 24.3598 30.0435 24.4272 29.4393 24.4272C28.13 24.3598 26.7537 24.124 25.4444 23.6186Z" fill="white"/>
<path d="M10.6418 5.18868C12.2531 7.00809 16.2815 12.1968 16.3487 12.2642L18.1279 14.6226C19.84 16.9811 21.7871 19.6092 23.7006 21.1927V3.94205H21.3842V12.8706L21.3171 12.8032C20.6792 11.9946 20.0078 11.1186 19.3364 10.2426C18.2286 8.82749 17.1208 7.34501 16.1808 6.26685C15.543 5.52561 13.7302 3.73989 13.2602 3.33558C11.1117 1.28032 7.62044 0 4.16271 0C2.65205 0 1.34281 0.235849 0 0.707547V0.808625C0.537123 0.673854 1.14139 0.640162 1.77922 0.640162C3.08846 0.640162 4.36413 0.909703 5.63979 1.41509C7.15045 1.95418 9.36609 3.60512 10.6418 5.18868ZM101.416 12.7022C99.5021 11.0512 97.3872 10.6469 95.7758 9.53504C94.668 8.62534 94.7015 7.4124 95.3058 6.80593C96.6822 5.28976 99.4349 5.89623 100.14 6.06469C100.979 6.26685 101.416 6.50269 102.188 6.87331V4.95283C98.8307 3.94205 93.4594 2.99865 91.3781 6.43531C90.606 7.8504 90.4046 10.4111 92.6538 11.9272C94.903 13.7129 98.7971 14.5553 99.2335 16.0377C99.5357 16.8464 99.1999 17.6213 98.6628 18.1604C96.6822 20.0472 93.258 18.9016 91.2102 17.9582V20.0135C93.4594 21.0243 96.2793 21.2938 98.7971 20.7547C100.509 20.3167 102.456 18.8005 102.725 16.8801C103.027 14.9596 102.658 13.7466 101.416 12.7022ZM113.837 12.7022C111.923 11.0512 109.808 10.6469 108.197 9.53504C107.089 8.62534 107.123 7.4124 107.727 6.80593C109.103 5.28976 111.856 5.89623 112.561 6.06469C113.4 6.26685 113.837 6.50269 114.609 6.87331V4.95283C111.252 3.94205 105.88 2.99865 103.799 6.43531C103.027 7.8504 102.826 10.4111 105.075 11.9272C107.324 13.7129 111.218 14.5553 111.654 16.0377C111.957 16.8464 111.621 17.6213 111.084 18.1604C109.07 20.0472 105.679 18.9016 103.631 17.9582V20.0135C105.88 21.0243 108.7 21.2938 111.218 20.7547C112.93 20.3167 114.877 18.8005 115.179 16.8801C115.414 14.9596 115.045 13.7466 113.837 12.7022ZM79.1585 20.5863H89.9346V18.6321H82.8848V13.2412H88.5246V11.3544H82.8848V6.36792H89.9346V4.41375H79.1585V20.5863ZM48.2068 12.7022C46.2933 11.0512 44.1784 10.6469 42.567 9.53504C41.4592 8.62534 41.4928 7.4124 42.097 6.80593C43.4734 5.28976 46.2262 5.89623 46.9311 6.06469C47.7704 6.26685 48.2068 6.50269 48.9789 6.87331V4.95283C45.6219 3.94205 40.2507 2.99865 38.1693 6.43531C37.3972 7.8504 37.1958 10.4111 39.445 11.9272C41.6942 13.7129 45.5883 14.5553 46.0248 16.0377C46.3269 16.8464 45.9912 17.6213 45.4541 18.1604C43.4734 20.0472 40.0493 18.9016 38.0015 17.9582V20.0135C40.2507 21.0243 43.0706 21.2938 45.5883 20.7547C47.3004 20.3167 49.2475 18.8005 49.5496 16.8801C49.7846 14.9596 49.4153 13.7466 48.2068 12.7022ZM25.9833 20.5863H36.7929V18.6321H29.7096V13.2412H35.3494V11.3544H29.7096V6.36792H36.7929V4.41375H25.9833V20.5863ZM58.2779 4.24528H51.1946V20.7884H54.9544V19.7776L54.8873 14.7237C54.8873 14.7237 60.5271 15.0943 62.2392 12.8032C63.4813 11.3544 63.582 9.09703 63.0448 7.27763C62.3399 5.22237 60.3592 4.27898 58.2779 4.24528ZM59.0836 11.6914C58.0765 12.8032 56.3644 12.6348 54.8873 12.5337V6.36792C54.8873 6.36792 57.9086 5.69407 59.1843 7.37871C59.8892 8.28841 59.9228 10.5458 59.0836 11.6914ZM75.533 12.7695C76.7415 11.3544 76.8422 9.13073 76.3386 7.34501C75.6672 5.35714 73.7202 4.41375 71.6724 4.38005H64.7234V20.5863H68.4161L68.3825 14.6226C68.3825 14.6226 69.0539 14.69 70.1617 14.6226L73.7202 20.6199H77.7822L73.6866 13.9488C74.358 13.6792 75.1301 13.3086 75.533 12.7695ZM72.5452 11.6914C71.5381 12.7695 69.8596 12.6348 68.4496 12.5337V6.469C68.4496 6.469 71.4038 5.79515 72.6459 7.44609C73.3509 8.35579 73.3845 10.5795 72.5452 11.6914ZM134.952 16.9811C133.777 16.9811 132.837 17.8908 132.837 19.0364C132.837 20.1819 133.777 21.0916 134.952 21.0916C136.06 21.0916 137 20.2156 137 19.0364C137 17.8908 136.06 16.9811 134.952 16.9811ZM134.952 20.8558C133.912 20.8558 133.039 20.0809 133.039 19.0364C133.039 18.0256 133.878 17.217 134.952 17.217C135.959 17.217 136.799 18.0593 136.799 19.0364C136.799 20.0809 135.959 20.8558 134.952 20.8558Z" fill="white"/>
<path d="M135.524 19.0364C135.591 18.969 135.893 18.868 135.893 18.4636C135.893 18.0593 135.625 17.8235 135.155 17.8235H134.047V20.1146H134.416V19.2049H135.054C135.423 19.2049 135.524 19.3734 135.524 19.7777C135.524 19.9461 135.524 20.0472 135.591 20.1483H136.028C135.927 20.0472 135.927 19.7777 135.927 19.5081C135.893 19.1375 135.692 19.0364 135.524 19.0364ZM135.121 18.868H134.45V18.1267H135.121C135.323 18.1267 135.558 18.1604 135.558 18.4973C135.524 18.7332 135.39 18.868 135.121 18.868Z" fill="white"/>
</g>
<defs>
<clipPath id="clip0_1085_7854">
<rect width="137" height="25" fill="white"/>
</clipPath>
</defs>
</svg>
