<svg width="99" height="32" viewBox="0 0 99 32" fill="none" xmlns="http://www.w3.org/2000/svg">
<g clip-path="url(#clip0_1085_7885)">
<path d="M89.3118 21.0401C86.5748 21.0401 84.6455 18.9246 84.6455 16.1423C84.6455 13.3601 86.5748 11.2446 89.3118 11.2446C92.0487 11.2446 93.9242 13.3601 93.9242 16.1423C93.9242 18.9246 92.0218 21.0401 89.3118 21.0401ZM88.8721 23.9557C91.0796 23.9557 92.955 23.1023 94.1395 21.3157C94.3639 23.049 95.6291 23.6801 97.2264 23.6801H98.5007V20.9334H97.9533C97.047 20.9334 96.8226 20.4979 96.8226 19.4757V8.61344H93.8972V10.8446C92.9012 9.28011 91.0257 8.33789 88.8721 8.33789C85.0314 8.33789 81.5048 11.529 81.5048 16.1423C81.5048 20.7557 85.0404 23.9468 88.8721 23.9468V23.9557ZM73.8055 20.1868C73.8055 22.6579 75.3489 23.6801 77.1975 23.6801H80.76V20.9334H78.1666C77.0898 20.9334 76.8655 20.5246 76.8655 19.4757V11.3601H80.76V8.61344H76.8655V3.55566H73.8055V20.1868ZM59.8696 23.6801H62.9296V17.2179H63.9525L69.1662 23.6801H73.0338L66.3844 15.4846L71.4903 8.61344H68.0445L63.8718 14.4179H62.9296V3.55566H59.8696V23.6801ZM49.9359 8.33789C45.6555 8.33789 42.1289 11.529 42.1289 16.1423C42.1289 20.7557 45.6645 23.9468 49.9359 23.9468C54.2073 23.9468 57.7429 20.7557 57.7429 16.1423C57.7429 11.529 54.2073 8.33789 49.9359 8.33789ZM49.9359 21.0401C47.199 21.0401 45.2696 18.9246 45.2696 16.1423C45.2696 13.3601 47.199 11.2446 49.9359 11.2446C52.6728 11.2446 54.6021 13.3601 54.6021 16.1423C54.6021 18.9246 52.6728 21.0401 49.9359 21.0401Z" fill="white"/>
<path fill-rule="evenodd" clip-rule="evenodd" d="M18.2689 0.231011L17.6049 8.33768C17.2908 8.30212 16.9767 8.28434 16.6537 8.28434C16.2499 8.28434 15.8551 8.31101 15.4692 8.37323L15.0923 4.44434C15.0833 4.3199 15.182 4.21323 15.3077 4.21323H15.9807L15.6576 0.2399C15.6487 0.115456 15.7474 0.00878906 15.864 0.00878906H18.0625C18.1882 0.00878906 18.2869 0.115456 18.2689 0.2399V0.231011ZM12.7233 0.631011C12.6874 0.515456 12.5618 0.444345 12.4451 0.488789L10.3812 1.23546C10.2645 1.2799 10.2107 1.41323 10.2645 1.5199L11.9426 5.14657L11.3055 5.37768C11.1888 5.42212 11.135 5.55546 11.1888 5.66212L12.9028 9.22657C13.5219 8.88879 14.1949 8.63101 14.9039 8.47101L12.7323 0.631011H12.7233ZM7.66221 2.88879L12.4092 9.5199C11.808 9.91101 11.2606 10.3732 10.794 10.9066L7.94936 8.13323C7.85963 8.04434 7.8686 7.90212 7.95834 7.82212L8.4788 7.39546L5.65214 4.5599C5.5624 4.47101 5.57138 4.32879 5.67009 4.24879L7.34814 2.85323C7.44685 2.77323 7.58145 2.79101 7.65324 2.88879H7.66221ZM3.67796 6.72879C3.57925 6.65768 3.43567 6.69323 3.37286 6.7999L2.27809 8.68434C2.21527 8.79101 2.26014 8.92434 2.36782 8.97768L6.01108 10.6843L5.67009 11.2621C5.60727 11.3688 5.65214 11.511 5.76879 11.5555L9.3941 13.1999C9.65434 12.5332 10.0043 11.911 10.435 11.351L3.67796 6.72879ZM0.994873 11.8488C1.01282 11.7243 1.13845 11.6532 1.25511 11.6799L9.19669 13.7332C8.99029 14.3999 8.87364 15.1021 8.85569 15.831L4.88041 15.511C4.75478 15.5021 4.66505 15.3866 4.69197 15.2621L4.80863 14.6043L0.797455 14.231C0.671826 14.2221 0.591064 14.1066 0.609011 13.9821L0.985899 11.8399L0.994873 11.8488ZM0.698746 17.1643C0.573117 17.1732 0.492355 17.2888 0.510302 17.4132L0.896164 19.5555C0.914111 19.6799 1.03974 19.751 1.1564 19.7243L5.05091 18.7199L5.16757 19.3777C5.18551 19.5021 5.31114 19.5732 5.4278 19.5466L9.26847 18.4977C9.04414 17.8399 8.90056 17.1377 8.86466 16.4177L0.689773 17.1643H0.698746ZM1.97299 22.7999C1.91017 22.6932 1.95504 22.5599 2.06272 22.5066L9.47487 19.0221C9.75304 19.6799 10.1299 20.2932 10.5786 20.8443L7.33019 23.1377C7.23148 23.2088 7.0879 23.1821 7.02509 23.0755L6.6841 22.4888L3.37286 24.7555C3.27415 24.8266 3.13057 24.791 3.06776 24.6843L1.96401 22.7999H1.97299ZM10.9555 21.271L5.18551 27.0577C5.09578 27.1466 5.10475 27.2888 5.20346 27.3688L6.89049 28.7643C6.9892 28.8443 7.1238 28.8266 7.19559 28.7288L9.52871 25.4755L10.0492 25.911C10.1479 25.991 10.2915 25.9732 10.3632 25.8666L12.6246 22.6132C12.0144 22.2399 11.449 21.7866 10.9645 21.271H10.9555ZM9.81586 30.5599C9.6992 30.5155 9.64536 30.3821 9.6992 30.2755L13.1181 22.8799C13.7463 23.1999 14.4283 23.4399 15.1372 23.5732L14.1321 27.3955C14.1052 27.511 13.9706 27.5821 13.854 27.5377L13.2168 27.3066L12.149 31.1555C12.1131 31.271 11.9875 31.3421 11.8708 31.2977L9.80689 30.551L9.81586 30.5599ZM15.7025 23.671L15.0385 31.7777C15.0295 31.9021 15.1282 32.0088 15.2449 32.0088H17.4434C17.569 32.0088 17.6677 31.9021 17.6498 31.7777L17.3267 27.8043H17.9997C18.1254 27.8043 18.2241 27.6977 18.2151 27.5732L17.8382 23.6443C17.4523 23.7066 17.0575 23.7332 16.6537 23.7332C16.3306 23.7332 16.0166 23.7155 15.7025 23.671ZM23.6172 1.72434C23.671 1.60879 23.6172 1.48434 23.5005 1.4399L21.4366 0.693233C21.3199 0.648789 21.1943 0.7199 21.1584 0.835456L20.0906 4.68434L19.4534 4.45323C19.3368 4.40879 19.2112 4.4799 19.1753 4.59546L18.1702 8.41768C18.8881 8.5599 19.5611 8.7999 20.1893 9.11101L23.6172 1.72434ZM28.1219 4.95101L22.3519 10.7377C21.8673 10.2221 21.311 9.76879 20.6918 9.39546L22.9531 6.14212C23.0249 6.04434 23.1685 6.01768 23.2672 6.09768L23.7877 6.53323L26.1208 3.2799C26.1926 3.18212 26.3361 3.16434 26.4259 3.24434L28.1129 4.6399C28.2116 4.7199 28.2116 4.86212 28.1309 4.95101H28.1219ZM31.2447 9.50212C31.3613 9.44879 31.3972 9.31546 31.3344 9.20879L30.2307 7.32434C30.1678 7.21768 30.0243 7.19101 29.9256 7.25323L26.6143 9.5199L26.2733 8.94212C26.2105 8.83546 26.0669 8.7999 25.9682 8.8799L22.7198 11.1732C23.1685 11.7243 23.5364 12.3377 23.8236 12.9955L31.2357 9.51101L31.2447 9.50212ZM32.4112 12.4532L32.7881 14.5955C32.8061 14.7199 32.7253 14.8266 32.5997 14.8443L24.4248 15.5999C24.3889 14.871 24.2453 14.1777 24.021 13.5199L27.8616 12.471C27.9783 12.4355 28.1039 12.5155 28.1219 12.6399L28.2385 13.2977L32.133 12.2932C32.2497 12.2666 32.3753 12.3377 32.3933 12.4621L32.4112 12.4532ZM32.0433 20.3199C32.16 20.3466 32.2856 20.2755 32.3035 20.151L32.6804 18.0088C32.6984 17.8843 32.6176 17.7777 32.492 17.7599L28.4808 17.3866L28.5975 16.7288C28.6154 16.6043 28.5347 16.4977 28.409 16.4799L24.4338 16.1599C24.4158 16.8888 24.2992 17.591 24.0928 18.2577L32.0343 20.311L32.0433 20.3199ZM29.9256 25.2088C29.8627 25.3155 29.7192 25.3421 29.6205 25.2799L22.8634 20.6577C23.2941 20.0977 23.6441 19.4755 23.9043 18.8088L27.5296 20.4532C27.6463 20.5066 27.6911 20.6399 27.6283 20.7466L27.2873 21.3243L30.9306 23.031C31.0383 23.0843 31.0831 23.2177 31.0203 23.3243L29.9256 25.2088ZM20.8892 22.4799L25.6362 29.111C25.708 29.2088 25.8516 29.2266 25.9413 29.1466L27.6194 27.751C27.7181 27.671 27.7181 27.5288 27.6373 27.4399L24.8106 24.6043L25.3311 24.1777C25.4298 24.0977 25.4298 23.9555 25.3401 23.8666L22.4955 21.0932C22.0199 21.6266 21.4815 22.0977 20.8802 22.4799H20.8892ZM20.8443 31.511C20.7277 31.5555 20.6021 31.4843 20.5662 31.3688L18.3946 23.5288C19.1035 23.3688 19.7765 23.111 20.3957 22.7732L22.1096 26.3377C22.1634 26.4532 22.1096 26.5866 21.993 26.6221L21.3558 26.8532L23.0339 30.4799C23.0877 30.5955 23.0339 30.7199 22.9172 30.7643L20.8533 31.511H20.8443Z" fill="white"/>
</g>
<defs>
<clipPath id="clip0_1085_7885">
<rect width="98" height="32" fill="white" transform="translate(0.5)"/>
</clipPath>
</defs>
</svg>
