<svg width="96" height="32" viewBox="0 0 96 32" fill="none" xmlns="http://www.w3.org/2000/svg">
<mask id="mask0_650_6325" style="mask-type:luminance" maskUnits="userSpaceOnUse" x="0" y="0" width="96" height="32">
<path d="M95.3859 0.347778H0.753906V31.5347H95.3859V0.347778Z" fill="white"/>
</mask>
<g mask="url(#mask0_650_6325)">
<path d="M86.5109 20.8531C83.8676 20.8531 82.0047 18.7913 82.0047 16.0797C82.0047 13.3682 83.8676 11.3064 86.5109 11.3064C89.1531 11.3064 90.9641 13.3682 90.9641 16.0797C90.9641 18.7913 89.1274 20.8531 86.5109 20.8531ZM86.0853 23.6945C88.2178 23.6945 90.0288 22.8629 91.1722 21.1216C91.3885 22.8109 92.6102 23.4259 94.1534 23.4259H95.3833V20.7491H94.8549C93.9804 20.7491 93.7629 20.3247 93.7629 19.3283V8.74212H90.9384V10.9166C89.9762 9.39187 88.1652 8.47364 86.0853 8.47364C82.3773 8.47364 78.9719 11.5837 78.9719 16.0797C78.9719 20.5758 82.3859 23.6859 86.0853 23.6859V23.6945ZM71.5372 20.0213C71.5372 22.4297 73.0276 23.4259 74.8126 23.4259H78.2526V20.7491H75.7485C74.7085 20.7491 74.492 20.3506 74.492 19.3283V11.419H78.2526V8.74212H74.492V3.81293H71.5372V20.0213ZM58.0802 23.4259H61.035V17.1279H62.0228L67.0573 23.4259H70.792L64.3711 15.4387L69.3016 8.74212H65.9742L61.9448 14.3992H61.035V3.81293H58.0802V23.4259ZM48.4879 8.47364C44.3546 8.47364 40.9492 11.5837 40.9492 16.0797C40.9492 20.5758 44.3633 23.6859 48.4879 23.6859C52.6125 23.6859 56.0265 20.5758 56.0265 16.0797C56.0265 11.5837 52.6125 8.47364 48.4879 8.47364ZM48.4879 20.8531C45.845 20.8531 43.982 18.7913 43.982 16.0797C43.982 13.3682 45.845 11.3064 48.4879 11.3064C51.1307 11.3064 52.9938 13.3682 52.9938 16.0797C52.9938 18.7913 51.1307 20.8531 48.4879 20.8531Z" fill="white"/>
<path fill-rule="evenodd" clip-rule="evenodd" d="M17.9085 0.572784L17.2673 8.47338C16.9641 8.43879 16.6607 8.42149 16.3488 8.42149C15.9589 8.42149 15.5776 8.44743 15.205 8.5081L14.8411 4.67901C14.8324 4.55768 14.9277 4.45377 15.049 4.45377H15.699L15.3869 0.581434C15.3783 0.46011 15.4736 0.356201 15.5863 0.356201H17.7093C17.8305 0.356201 17.9259 0.46011 17.9085 0.581434V0.572784ZM12.5535 0.962589C12.5188 0.849914 12.3975 0.780604 12.2848 0.823967L10.2919 1.55168C10.1792 1.59493 10.1272 1.7249 10.1792 1.82893L11.7996 5.36336L11.1844 5.58859C11.0717 5.63196 11.0197 5.76193 11.0717 5.86584L12.7267 9.33972C13.3246 9.01058 13.9745 8.75928 14.659 8.60336L12.5621 0.962589H12.5535ZM7.6663 3.16303L12.2502 9.62562C11.6696 10.0068 11.141 10.4572 10.6905 10.977L7.94362 8.27421C7.85699 8.18749 7.86564 8.04898 7.95227 7.97102L8.45487 7.55515L5.72534 4.79168C5.6387 4.70495 5.64736 4.56645 5.74264 4.48849L7.36303 3.12832C7.45832 3.05036 7.58833 3.06766 7.65766 3.16303H7.6663ZM3.81897 6.9054C3.72369 6.83608 3.58503 6.8708 3.52435 6.97471L2.46724 8.81129C2.40656 8.9152 2.44994 9.04517 2.55387 9.09719L6.07198 10.7604L5.74264 11.3236C5.68196 11.4275 5.72534 11.5661 5.83792 11.6095L9.33873 13.2121C9.58997 12.5623 9.92797 11.9559 10.3438 11.4102L3.81897 6.9054ZM1.22809 11.8953C1.24551 11.774 1.36675 11.7047 1.47945 11.7307L9.14805 13.7318C8.94871 14.3816 8.83612 15.0659 8.81882 15.7764L4.98014 15.4645C4.85879 15.4557 4.77215 15.3432 4.79811 15.2219L4.91081 14.5809L1.03752 14.217C0.91617 14.2084 0.838191 14.0957 0.855494 13.9744L1.21944 11.8866L1.22809 11.8953ZM0.942124 17.0757C0.820886 17.0844 0.742907 17.1971 0.76021 17.3184L1.13281 19.4062C1.15011 19.5274 1.27146 19.5967 1.38405 19.5707L5.14475 18.5918L5.25746 19.2328C5.27476 19.3541 5.39611 19.4235 5.5087 19.3975L9.21737 18.3753C9.00074 17.7341 8.86208 17.0498 8.82747 16.3482L0.933474 17.0757H0.942124ZM2.17262 22.5681C2.11194 22.4642 2.15532 22.3342 2.25925 22.2823L9.41671 18.8864C9.68525 19.5274 10.0492 20.1252 10.4825 20.6623L7.34573 22.8973C7.25045 22.9667 7.11179 22.9406 7.05111 22.8367L6.72177 22.2649L3.52435 24.474C3.42907 24.5433 3.29042 24.5087 3.22974 24.4047L2.16397 22.5681H2.17262ZM10.8464 21.0781L5.27476 26.7177C5.18813 26.8044 5.19678 26.943 5.29206 27.021L6.92111 28.381C7.01639 28.459 7.1464 28.4417 7.21573 28.3463L9.46862 25.1757L9.97122 25.6002C10.0666 25.6781 10.2052 25.6608 10.2745 25.5569L12.4582 22.3862C11.8689 22.0224 11.323 21.5805 10.8551 21.0781H10.8464ZM9.74593 30.131C9.63334 30.0876 9.58132 29.9577 9.63335 29.8538L12.9347 22.6462C13.5412 22.958 14.1998 23.1919 14.8844 23.3219L13.9138 27.0469C13.8879 27.1595 13.7579 27.2288 13.6453 27.1856L13.0301 26.9603L11.9989 30.7113C11.9642 30.824 11.8429 30.8933 11.7303 30.85L9.73728 30.1222L9.74593 30.131ZM15.4303 23.4171L14.789 31.3178C14.7804 31.439 14.8757 31.5431 14.9884 31.5431H17.1114C17.2326 31.5431 17.3279 31.439 17.3106 31.3178L16.9987 27.4454H17.6486C17.7698 27.4454 17.8652 27.3415 17.8566 27.2201L17.4926 23.3912C17.12 23.4517 16.7388 23.4778 16.3488 23.4778C16.0368 23.4778 15.7336 23.4604 15.4303 23.4171ZM23.0729 2.0281C23.125 1.91554 23.0729 1.79421 22.9602 1.75097L20.9674 1.02325C20.8547 0.979889 20.7333 1.0492 20.6987 1.16188L19.6675 4.91289L19.0523 4.68765C18.9396 4.64441 18.8184 4.71372 18.7837 4.82628L17.8132 8.55134C18.5064 8.68997 19.1563 8.92385 19.7628 9.22704L23.0729 2.0281ZM27.4229 5.17284L21.8512 10.8124C21.3832 10.31 20.846 9.86815 20.2481 9.50429L22.4317 6.3336C22.501 6.23834 22.6397 6.2124 22.7349 6.29036L23.2376 6.71488L25.4906 3.54419C25.5599 3.44881 25.6984 3.43151 25.7852 3.50947L27.4142 4.86964C27.5095 4.9476 27.5095 5.08623 27.4315 5.17284H27.4229ZM30.4383 9.60832C30.551 9.55631 30.5856 9.42633 30.525 9.32242L29.4591 7.48584C29.3984 7.38193 29.2598 7.35586 29.1645 7.41653L25.9671 9.62562L25.6379 9.06247C25.5772 8.95856 25.4385 8.92385 25.3432 9.00181L22.2064 11.237C22.6397 11.774 22.995 12.3718 23.2723 13.0129L30.4296 9.61697L30.4383 9.60832ZM31.5648 12.4843L31.9287 14.5722C31.9461 14.6934 31.8681 14.7975 31.7467 14.8148L23.8527 15.5511C23.8181 14.8407 23.6795 14.165 23.4628 13.5239L27.1715 12.5018C27.2842 12.467 27.4055 12.545 27.4229 12.6663L27.5355 13.3074L31.2962 12.3284C31.4087 12.3025 31.5301 12.3718 31.5474 12.4931L31.5648 12.4843ZM31.2095 20.1512C31.3221 20.1771 31.4435 20.1078 31.4608 19.9866L31.8247 17.8987C31.842 17.7775 31.764 17.6735 31.6428 17.6562L27.7694 17.2923L27.8821 16.6513C27.8994 16.53 27.8214 16.4261 27.7001 16.4087L23.8615 16.0969C23.8441 16.8073 23.7315 17.4916 23.5322 18.1414L31.2009 20.1425L31.2095 20.1512ZM29.1645 24.9158C29.1038 25.0198 28.9652 25.0458 28.8699 24.9851L22.345 20.4803C22.761 19.9346 23.0989 19.3282 23.3503 18.6784L26.8509 20.2812C26.9635 20.333 27.0069 20.463 26.9462 20.5669L26.617 21.1301L30.135 22.7933C30.239 22.8453 30.2823 22.9753 30.2216 23.0792L29.1645 24.9158ZM20.4387 22.2562L25.0226 28.7188C25.0919 28.8142 25.2305 28.8315 25.3172 28.7535L26.9376 27.3935C27.0329 27.3155 27.0329 27.1769 26.9549 27.0902L24.2255 24.3267L24.7279 23.911C24.8233 23.833 24.8233 23.6944 24.7366 23.6076L21.9898 20.9048C21.5305 21.4246 21.0106 21.8837 20.43 22.2562H20.4387ZM20.3954 31.0579C20.2827 31.1013 20.1615 31.0319 20.1268 30.9193L18.0298 23.2785C18.7144 23.1226 19.3643 22.8714 19.9621 22.5421L21.6172 26.016C21.6692 26.1286 21.6172 26.2586 21.5046 26.2933L20.8894 26.5185L22.5097 30.0529C22.5617 30.1656 22.5097 30.2869 22.3971 30.3302L20.4041 31.0579H20.3954Z" fill="white"/>
</g>
</svg>
