<svg width="106" height="28" viewBox="0 0 106 28" fill="none" xmlns="http://www.w3.org/2000/svg">
<mask id="mask0_650_6322" style="mask-type:luminance" maskUnits="userSpaceOnUse" x="0" y="0" width="106" height="28">
<path d="M105.185 0.0439453H0.957031V27.8381H105.185V0.0439453Z" fill="white"/>
</mask>
<g mask="url(#mask0_650_6322)">
<path d="M8.16682 9.42047C5.68957 9.42047 4.46955 11.6069 4.46955 14.5346V21.8722H0.957031V6.41871H4.39556V10.4211H4.46955C5.209 7.93812 6.65099 5.974 8.90628 5.974C10.4961 5.974 11.1617 6.52988 11.1617 6.52988L9.57189 9.71694C9.57189 9.71694 9.09118 9.42047 8.16682 9.42047ZM50.4274 11.5699V21.9093H47.0259V12.8299C47.0259 10.2358 46.2125 8.86459 44.1419 8.86459C41.9974 8.86459 40.9622 10.6064 40.9622 13.9416V21.9093H37.5607V12.8299C37.5607 10.3469 36.7473 8.86459 34.7138 8.86459C32.3474 8.86459 31.46 10.9399 31.46 13.9416V21.9093H28.0215V6.41871H31.46V9.93929H31.4971C32.0147 7.53047 33.4936 6.01106 35.9709 6.01106C38.4111 6.01106 40.0009 7.34518 40.6294 9.67988C41.2211 7.41929 42.7369 6.01106 45.1032 6.01106C48.3199 6.01106 50.4274 8.04929 50.4274 11.5699ZM18.0388 5.974C14.859 5.974 12.8255 7.45635 11.8642 10.1616L14.7851 11.2364C15.3028 9.60576 16.4119 8.67929 18.1126 8.67929C19.9984 8.67929 21.1444 9.53165 21.1444 10.7916C21.1444 12.0887 20.2571 12.3852 18.2606 12.7187C16.0422 13.0893 10.7181 13.2005 10.7181 17.6846C10.7181 20.3158 12.8994 22.2799 16.1901 22.2799C18.6673 22.2799 20.368 21.2793 21.1444 19.3893H21.1815V21.9093H24.583V12.3852C24.546 8.19753 22.4755 5.974 18.0388 5.974ZM21.2184 14.6087C21.2184 17.8699 19.6286 19.9452 17.0404 19.9452C15.2288 19.9452 14.1566 18.9446 14.1566 17.4622C14.1566 16.0911 15.2657 15.1275 17.4102 14.7199C19.5917 14.3122 20.7008 13.8305 21.2184 12.6075V14.6087ZM62.5546 6.01106C59.9666 6.01106 58.2288 7.45635 57.4893 9.60577V6.41871H53.8659V27.8387H57.4524V18.7222H57.4893C58.3028 21.0569 59.9666 22.354 62.5546 22.354C66.6957 22.354 69.6535 18.9446 69.6535 14.1269C69.6535 9.30929 66.6957 6.01106 62.5546 6.01106ZM61.6673 19.4634C58.8204 19.4634 57.2305 17.3881 57.2305 14.164C57.2305 10.9399 59.0052 8.86459 61.6673 8.86459C64.3293 8.86459 66.1041 11.0511 66.1041 14.164C66.1041 17.2769 64.3293 19.4634 61.6673 19.4634Z" fill="#E4F22D"/>
<path d="M105.183 21.7975V21.9087H91.1699V21.7975C93.2033 20.6487 94.5713 19.4998 95.8284 18.2769H101.596L105.183 21.7975ZM101.707 3.52747L98.1578 0.0439453H98.0469C98.0469 0.0439453 98.1208 6.52924 92.1311 12.4587C86.2893 18.2398 79.4492 18.2769 79.4492 18.2769V18.3881L83.0726 21.9457C83.0726 21.9457 89.8388 22.0198 95.7915 16.1275C101.744 10.2722 101.707 3.52747 101.707 3.52747Z" fill="#E4F22D"/>
</g>
</svg>
