<svg width="105" height="28" viewBox="0 0 105 28" fill="none" xmlns="http://www.w3.org/2000/svg">
<g clip-path="url(#clip0_1085_7967)">
<mask id="mask0_1085_7967" style="mask-type:luminance" maskUnits="userSpaceOnUse" x="0" y="0" width="105" height="28">
<path d="M104.615 0.102905H0.386719V27.897H104.615V0.102905Z" fill="white"/>
</mask>
<g mask="url(#mask0_1085_7967)">
<path d="M7.59651 9.47943C5.11926 9.47943 3.89923 11.6659 3.89923 14.5935V21.9312H0.386719V6.47767H3.82525V10.48H3.89923C4.63869 7.99708 6.08067 6.03296 8.33597 6.03296C9.92579 6.03296 10.5914 6.58884 10.5914 6.58884L9.00157 9.7759C9.00157 9.7759 8.52087 9.47943 7.59651 9.47943ZM49.8571 11.6288V21.9683H46.4556V12.8888C46.4556 10.2947 45.6422 8.92355 43.5716 8.92355C41.4271 8.92355 40.3919 10.6653 40.3919 14.0006V21.9683H36.9904V12.8888C36.9904 10.4059 36.1769 8.92355 34.1435 8.92355C31.7771 8.92355 30.8897 10.9988 30.8897 14.0006V21.9683H27.4512V6.47767H30.8897V9.99825H30.9268C31.4444 7.58943 32.9233 6.07002 35.4006 6.07002C37.8407 6.07002 39.4306 7.40414 40.0591 9.73884C40.6507 7.47825 42.1666 6.07002 44.5329 6.07002C47.7496 6.07002 49.8571 8.10825 49.8571 11.6288ZM17.4685 6.03296C14.2887 6.03296 12.2552 7.51531 11.2939 10.2206L14.2148 11.2953C14.7325 9.66472 15.8416 8.73825 17.5423 8.73825C19.4281 8.73825 20.5741 9.59061 20.5741 10.8506C20.5741 12.1477 19.6868 12.4441 17.6903 12.7777C15.4719 13.1483 10.1477 13.2594 10.1477 17.7435C10.1477 20.3747 12.3291 22.3388 15.6197 22.3388C18.097 22.3388 19.7977 21.3383 20.5741 19.4483H20.6112V21.9683H24.0126V12.4441C23.9757 8.25649 21.9052 6.03296 17.4685 6.03296ZM20.6481 14.6677C20.6481 17.9288 19.0583 20.0041 16.4701 20.0041C14.6585 20.0041 13.5863 19.0035 13.5863 17.5212C13.5863 16.15 14.6954 15.1865 16.8399 14.7788C19.0214 14.3712 20.1305 13.8894 20.6481 12.6665V14.6677ZM61.9843 6.07002C59.3963 6.07002 57.6585 7.51531 56.919 9.66473V6.47767H53.2956V27.8977H56.8821V18.7812H56.919C57.7325 21.1159 59.3963 22.413 61.9843 22.413C66.1254 22.413 69.0832 19.0035 69.0832 14.1859C69.0832 9.36825 66.1254 6.07002 61.9843 6.07002ZM61.097 19.5224C58.2501 19.5224 56.6601 17.4471 56.6601 14.223C56.6601 10.9988 58.4349 8.92355 61.097 8.92355C63.759 8.92355 65.5337 11.11 65.5337 14.223C65.5337 17.3359 63.759 19.5224 61.097 19.5224Z" fill="#E4F22D"/>
<path d="M104.612 21.8564V21.9676H90.5996V21.8564C92.633 20.7076 94.001 19.5588 95.2581 18.3358H101.026L104.612 21.8564ZM101.137 3.58643L97.5875 0.102905H97.4766C97.4766 0.102905 97.5505 6.5882 91.5608 12.5176C85.719 18.2988 78.8789 18.3358 78.8789 18.3358V18.447L82.5023 22.0047C82.5023 22.0047 89.2685 22.0788 95.2212 16.1864C101.174 10.3311 101.137 3.58643 101.137 3.58643Z" fill="#E4F22D"/>
</g>
</g>
<defs>
<clipPath id="clip0_1085_7967">
<rect width="104.228" height="27.7941" fill="white" transform="translate(0.386719 0.102905)"/>
</clipPath>
</defs>
</svg>
