<svg width="113" height="34" viewBox="0 0 113 34" fill="none" xmlns="http://www.w3.org/2000/svg">
<path d="M13.6826 5.46861C11.1539 4.35019 9.64585 3.91624 8.14833 3.91624C6.57673 3.91624 5.57015 4.47694 5.57015 5.34335C5.57015 7.95822 14.4737 7.2223 14.4737 13.2707C14.4737 16.6059 11.665 18.5437 7.76293 18.5437C4.70204 18.5437 3.19478 17.7548 1.45853 16.8616V13.1201C3.96263 14.7731 5.49532 15.3569 7.4269 15.3569C9.10178 15.3569 10.0051 14.7731 10.0051 13.7554C10.0051 10.9079 1.10156 11.951 1.10156 5.72287C1.10156 2.71953 3.70669 0.730982 7.76293 0.730982C9.7207 0.730982 11.4869 1.14032 13.6826 2.08129V5.46861Z" fill="#009E4D"/>
<path d="M26.1468 17.7488C24.6627 18.2849 23.4077 18.5406 22.1556 18.5406C18.0088 18.5406 15.3281 16.1346 15.3281 12.4736C15.3281 8.87973 18.1129 6.34091 22.0015 6.34091C23.2026 6.34091 24.7383 6.64736 25.9664 7.10293V9.85424C24.9942 9.33977 23.8687 9.05793 22.9474 9.05793C20.7217 9.05793 19.2901 10.3903 19.2901 12.4467C19.2901 14.5322 20.6978 15.9049 22.8187 15.9049C23.7138 15.9049 24.5093 15.7006 26.1468 15.0899V17.7488Z" fill="#009E4D"/>
<path d="M58.4777 11.1255C58.6296 9.49262 59.5816 8.54867 61.0394 8.54867C62.4726 8.54867 63.444 9.51947 63.5974 11.1255H58.4777ZM60.7835 6.34464C57.1448 6.34464 54.5547 8.90508 54.5547 12.5079C54.5547 16.1375 57.2481 18.5406 61.3994 18.5406C62.3192 18.5406 64.5434 18.5406 66.6621 16.9786V14.6813C64.9265 15.9131 63.7785 16.3374 62.2967 16.3374C59.958 16.3374 58.5278 15.1317 58.3984 13.0738H66.8708C67.0467 8.77832 64.2163 6.34464 60.7835 6.34464Z" fill="#009E4D"/>
<path d="M68.3047 18.3267H72.0093V6.56162H68.3047V18.3267Z" fill="#009E4D"/>
<path d="M82.3169 15.1109C81.5454 15.8028 80.904 16.0802 80.113 16.0802C78.3685 16.0802 77.2646 14.6501 77.2646 12.5065C77.2646 10.1578 78.3685 8.80374 80.2357 8.80374C80.904 8.80374 81.7766 9.11019 82.3169 9.49418V15.1109ZM82.3169 0.947956V7.07765C81.3164 6.59524 80.3188 6.34098 79.2404 6.34098C75.8614 6.34098 73.5234 8.8291 73.5234 12.4297C73.5234 15.9527 75.8614 18.5437 79.0315 18.5437C80.2888 18.5437 81.2602 18.2156 82.3169 17.3761V18.323H86.0207V0.947956H82.3169Z" fill="#009E4D"/>
<path d="M91.506 11.1255C91.6601 9.49262 92.6068 8.54867 94.0624 8.54867C95.4978 8.54867 96.479 9.51947 96.6324 11.1255H91.506ZM93.8095 6.34464C90.1716 6.34464 87.5859 8.90508 87.5859 12.5079C87.5859 16.1375 90.2794 18.5406 94.4262 18.5406C95.3444 18.5406 97.5731 18.5406 99.697 16.9786V14.6813C97.9593 15.9131 96.809 16.3374 95.3205 16.3374C92.9945 16.3374 91.5584 15.1317 91.4289 13.0738H99.8976C100.073 8.77832 97.2408 6.34464 93.8095 6.34464Z" fill="#009E4D"/>
<mask id="mask0_1085_7934" style="mask-type:luminance" maskUnits="userSpaceOnUse" x="1" y="0" width="111" height="34">
<path d="M1.10156 0.730949V33.2621H111.71V0.730949" fill="white"/>
</mask>
<g mask="url(#mask0_1085_7934)">
<path d="M105.443 9.93034H105.498C106.597 7.48174 107.828 6.3335 109.257 6.3335C109.997 6.3335 110.636 6.61459 111.71 7.40643L110.691 10.6685C109.718 10.0571 109.079 9.80135 108.492 9.80135C107.132 9.80135 106.263 11.0778 105.443 13.2356V18.311H101.734V6.54898H105.443V9.93034Z" fill="#009E4D"/>
<path d="M72.1847 1.61226C72.5327 2.52638 71.9063 3.80138 70.7904 4.45752C69.6701 5.11292 68.4861 4.90489 68.1411 3.99077C67.7894 3.07516 68.4128 1.79866 69.5316 1.14625C70.649 0.487128 71.8337 0.6959 72.1847 1.61226Z" fill="#009E4D"/>
</g>
<path d="M39.4922 10.8385C39.4922 7.65021 37.3174 6.34464 35.171 6.34464C33.7116 6.34464 32.512 6.95828 31.4388 8.31157H31.3879V0.947884H27.6797V18.2924H31.3879V10.8385C32.2553 9.58806 32.9962 9.05346 33.8651 9.05346C35.0183 9.05346 35.7847 9.87064 35.7847 11.6281V15.761C37.0285 15.1242 38.2925 14.7335 39.4922 14.5881V10.8385Z" fill="#009E4D"/>
<path d="M48.7926 6.34097C47.2824 6.34097 46.1291 6.90018 44.9489 8.24526V6.56167H41.2422V14.5569C42.5264 14.6844 44.1646 15.2712 44.9489 16.2405V10.7461C45.9233 9.28913 46.6148 8.80373 47.5369 8.80373C48.5868 8.80373 49.3846 9.49417 49.3846 11.1532V18.2961H53.0921V10.8475C53.0921 7.38259 50.6359 6.34097 48.7926 6.34097Z" fill="#009E4D"/>
<path d="M55.1388 21.6746H50.8311V24.7241H54.9869V26.0327H50.8311V29.1784H55.2675V30.4855H49.3867V20.369H55.1388V21.6746Z" fill="#009E4D"/>
<path d="M58.6562 30.4913H59.9757V20.3659H58.6562V30.4913Z" fill="#009E4D"/>
<path d="M66.5102 24.8202C67.4457 24.8202 68.0257 25.4622 68.0691 26.471H64.7089C64.8907 25.4174 65.4992 24.8202 66.5102 24.8202ZM64.6849 27.3486H69.3855C69.3855 24.8798 68.2532 23.6883 66.4803 23.6883C64.6408 23.6883 63.3633 25.0431 63.3633 27.0637C63.3633 28.9106 64.5173 30.6158 66.5948 30.6158C67.7271 30.6158 68.459 30.3653 69.2695 29.8292V28.5497C68.4867 29.0605 67.7271 29.355 66.9278 29.355C65.6496 29.355 64.8907 28.672 64.6849 27.3486Z" fill="#009E4D"/>
<path d="M78.0016 25.5673C77.2428 25.0498 76.7361 24.8977 76.1584 24.8977C74.9505 24.8977 74.1138 25.8208 74.1138 27.1726C74.1138 28.5497 75.0044 29.3796 76.3791 29.3796C76.9449 29.3796 77.4838 29.2335 78.1491 28.9367V30.2333C77.7046 30.4421 76.8574 30.6158 76.1584 30.6158C74.1602 30.6158 72.7734 29.2469 72.7734 27.2904C72.7734 25.0826 74.0404 23.6883 76.0678 23.6883C76.8424 23.6883 77.3633 23.868 78.0016 24.1476V25.5673Z" fill="#009E4D"/>
<path d="M84.0138 23.8158H86.1317V25.0006H84.0138V28.4245C84.0138 29.2081 84.5833 29.4348 84.968 29.4348C85.4454 29.4348 85.9379 29.2685 86.4722 28.9397V30.1729C86.009 30.4272 85.298 30.6158 84.8625 30.6158C83.4256 30.6158 82.6989 29.7271 82.6989 28.5237V25.0006H81.5352V24.8537L84.0138 22.4372V23.8158Z" fill="#009E4D"/>
<path d="M91.1773 23.8158V25.36H91.2042C91.877 24.1782 92.5169 23.6883 93.1395 23.6883C93.6769 23.6883 94.1798 23.9396 94.7329 24.4608L94.0339 25.6195C93.632 25.2236 93.1126 24.9507 92.799 24.9507C91.8905 24.9507 91.1773 25.8708 91.1773 27.0108V30.4913H89.8594V23.8158H91.1773Z" fill="#009E4D"/>
<path d="M108.254 25.5673C107.491 25.0498 106.985 24.8977 106.404 24.8977C105.199 24.8977 104.369 25.8208 104.369 27.1726C104.369 28.5497 105.26 29.3796 106.627 29.3796C107.193 29.3796 107.729 29.2335 108.403 28.9367V30.2333C107.949 30.4421 107.101 30.6158 106.404 30.6158C104.408 30.6158 103.016 29.2469 103.016 27.2904C103.016 25.0826 104.289 23.6883 106.316 23.6883C107.092 23.6883 107.608 23.868 108.254 24.1476V25.5673Z" fill="#009E4D"/>
<path d="M98.2305 30.4913H99.5497V23.8161H98.2305V30.4913Z" fill="#009E4D"/>
<mask id="mask1_1085_7934" style="mask-type:luminance" maskUnits="userSpaceOnUse" x="1" y="0" width="111" height="34">
<path d="M1.10156 0.730949V33.2621H111.71V0.730949" fill="white"/>
</mask>
<g mask="url(#mask1_1085_7934)">
<path d="M99.5942 21.4179C99.7229 21.74 99.4977 22.1956 99.101 22.4275C98.7014 22.6601 98.2785 22.5855 98.1581 22.2627C98.0376 21.9369 98.2561 21.485 98.6572 21.2524C99.0531 21.0168 99.4737 21.0921 99.5942 21.4179Z" fill="#009E4D"/>
<path d="M40.5349 21.9578C40.3022 21.9578 40.2041 21.9958 40.1091 22.1017C40.0717 22.1427 40.0567 22.1844 40.0432 22.2679L38.86 26.7386C38.5824 28.3067 36.6493 29.8725 34.1295 29.8725H30.6263L31.234 27.5752H33.4844C33.7142 27.5752 33.8938 27.4902 34.0442 27.3232C34.0996 27.2583 34.1714 27.1569 34.1812 27.0526L35.1151 23.1463C35.3905 21.5775 37.0542 19.8447 39.5733 19.8447H43.161L42.7023 21.9578H40.5349ZM41.3432 24.6822L41.7436 23.2358H45.3882C45.838 21.1383 45.484 19.1953 44.2065 17.9225C41.6208 15.3464 36.2115 16.2218 32.1815 20.0632C31.5521 20.6597 31.0207 21.3046 30.5365 21.9637H32.7308L32.2204 23.4132H29.5988C29.3481 23.8703 29.1131 24.3236 28.9335 24.7836H32.0423L31.5446 26.2331H28.4897C27.9673 28.4476 28.3003 30.5129 29.6145 31.8245C32.168 34.3678 37.5608 33.4738 41.5887 29.6331C42.2936 28.965 42.8759 28.244 43.402 27.5036H40.5828L41.0124 26.0572H44.3083C44.55 25.5971 44.7723 25.1423 44.9459 24.6822H41.3432Z" fill="#009E4D"/>
</g>
</svg>
