<svg width="100" height="39" viewBox="0 0 100 39" fill="none" xmlns="http://www.w3.org/2000/svg">
<mask id="mask0_650_6320" style="mask-type:luminance" maskUnits="userSpaceOnUse" x="0" y="0" width="100" height="39">
<path d="M99.2796 0.941223H0.863281V38.9412H99.2796V0.941223Z" fill="white"/>
</mask>
<g mask="url(#mask0_650_6320)">
<path d="M16.5543 19.1986C16.972 18.9778 17.5519 19.0939 17.8223 19.4789C17.864 19.5385 17.8986 19.6072 17.9037 19.6798C17.9085 19.7524 17.8773 19.8313 17.8132 19.8666C17.7121 19.9219 17.5913 19.8524 17.4811 19.8167C17.2594 19.7445 17.0073 19.8187 16.8245 19.9626C16.6993 20.0615 16.6025 20.1915 16.5246 20.3311C16.4401 20.4839 16.4238 20.6855 16.2416 20.6855C16.0916 20.6853 16.0163 20.4788 15.9999 20.3938C15.912 19.9326 16.1368 19.4198 16.5543 19.1986Z" fill="#AF59FE"/>
<path fill-rule="evenodd" clip-rule="evenodd" d="M4.00666 0.942078C4.46585 0.942078 4.90085 1.4263 5.05101 2.24474C5.06736 2.33231 5.07643 2.42128 5.08462 2.50963C5.39054 5.89758 6.41539 11.5362 7.55331 11.5362C7.94124 11.5358 8.16931 11.1558 8.26936 10.7479C8.41314 10.0387 8.07524 9.55702 8.32494 9.49899C8.61145 9.48225 9.13604 9.92227 9.49854 10.8695C10.3493 10.1251 10.594 8.30853 10.8634 6.61597C11.0532 5.42851 11.1822 2.6524 11.6984 1.62412C11.8551 1.29409 12.0779 1.05598 12.3782 0.970229C12.4819 0.940696 12.5915 0.938188 12.6988 0.947196C14.2596 1.07847 14.8979 3.06375 15.1494 3.76239C15.6866 5.63312 16.2286 9.17835 14.9167 9.80098C14.6553 9.90089 14.4787 9.97731 14.3622 10.0326C14.3069 10.0586 14.3246 10.1397 14.3855 10.1426C14.7488 10.1593 15.4449 10.2816 15.7943 10.9373C15.9448 11.2076 16.1865 11.0512 16.4781 11.0512C17.4329 11.0516 18.0639 11.9512 18.0808 12.5445C18.8531 12.7311 19.474 13.4169 19.7145 14.3027C19.76 14.4236 19.8824 14.5125 19.9872 14.5791C20.7503 15.0685 21.5461 15.5228 22.2104 16.1364C22.3695 16.2806 22.521 16.4366 22.6369 16.6163C22.8645 16.9706 22.9422 17.4023 22.9406 17.8217C22.9455 18.0666 23 18.1132 23.0699 18.2082C23.7612 19.0736 24.144 20.2473 23.574 21.2742C23.2574 21.8424 22.7362 22.1631 22.2646 22.5513C22.1913 22.636 22.1907 22.7161 22.1703 22.8059C22.0875 23.1862 21.896 23.5767 21.6468 23.8795C21.8514 24.2952 22.0778 24.8461 21.8045 25.6812C22.8031 26.8607 22.4816 28.1374 22.4017 28.3019C23.7315 28.6891 24.1114 32.6207 24.1181 32.6911C24.2305 33.6341 25.233 34.4515 26.5752 34.0116C26.7197 33.9645 26.8499 34.1183 26.782 34.2535C25.5916 36.6009 21.649 38.9421 14.0249 38.9421C10.9893 38.9421 6.61401 38.7094 4.28197 35.7622C4.08661 35.5152 3.92643 35.2406 3.82442 34.9432C3.59768 34.2832 3.54707 33.5026 3.84639 32.1114C4.32761 30.0793 4.67183 28.4369 4.85843 26.6141C4.22597 27.2338 3.13312 26.9231 2.96878 26.3428C3.57807 26.1533 4.04802 25.7192 4.04802 24.655C4.04801 24.1955 4.03782 23.4672 4.4668 22.5513C4.2713 22.1009 4.18737 21.3726 4.21476 20.9671C4.258 20.3303 4.44338 19.7491 4.58442 19.5326C4.55164 19.5018 3.592 18.5837 3.9136 16.9733C4.23541 15.284 4.00879 14.3266 2.30831 11.5554C1.89207 10.8044 0.864075 9.27702 0.863281 6.99474C0.903989 4.73015 1.32189 3.51301 1.98001 2.34967C2.93693 0.858876 3.77338 0.942014 4.00666 0.942078ZM9.56187 31.4178C9.5936 31.189 9.2644 31.1087 9.18704 31.3283C8.70398 33.011 10.2924 34.2852 11.8212 33.7839C12.3947 34.4122 13.181 34.8283 14.021 34.9637C16.2049 35.3104 18.3021 33.6111 18.2256 31.391C18.2157 31.1647 17.8771 31.1432 17.8391 31.3666C17.7863 31.6826 17.6954 31.9884 17.556 32.2765C16.6051 34.3394 13.7697 34.6849 12.4028 32.8472C12.2462 32.5975 11.9124 32.5204 11.6816 32.7218C11.0575 33.2606 10.0392 33.0526 9.69758 32.279C9.56933 32.0181 9.51438 31.714 9.56187 31.4178ZM20.1346 15.489C19.1936 14.8942 17.5197 13.8999 16.5815 15.036C16.2456 15.482 16.1 15.9961 15.9947 16.4218C15.8 17.2011 15.3905 17.5027 15.1003 17.9778C14.639 18.7326 14.3219 19.5912 14.2976 20.4731C14.2936 21.7466 15.0889 22.9937 16.3566 23.7733C17.4087 24.3205 17.9488 24.3214 18.3703 24.2097C18.4476 24.1834 18.6155 24.066 18.4996 23.8731C18.4784 23.8318 18.4199 23.742 18.3845 23.6837C18.2648 23.4649 18.4295 23.2641 18.6728 23.4508C18.833 23.5752 18.9972 23.6999 19.1859 23.7759C19.3445 23.8396 19.5248 23.865 19.6887 23.8219C19.8805 23.7598 19.9789 23.6344 19.9898 23.4751C20.0006 23.2855 19.9136 23.1376 19.7701 23.0593C19.5511 22.9537 19.0663 22.6905 18.8615 22.541C18.6309 22.3809 18.3839 22.1414 18.2979 22.0509C18.0189 21.7567 17.938 21.4687 17.7641 21.4687C17.7355 21.4704 17.7073 21.4867 17.6879 21.5083C17.579 21.6236 17.5781 21.8144 17.5728 21.923C17.5691 22.003 17.5813 22.1251 17.4681 22.1251C17.1879 22.1249 17.1886 21.5457 17.189 21.3881C17.1891 21.1725 17.2687 20.6146 17.6039 20.6139C17.7075 20.6139 17.8494 20.7516 17.905 20.8058C18.645 21.6198 19.505 22.2529 20.5947 22.2531C21.4289 22.2531 22.1261 21.7862 22.5645 21.3484C22.9076 21.007 23.1348 20.5783 23.15 20.1366C23.159 19.8558 23.0227 19.1097 22.5955 19.109C22.4497 19.109 22.292 19.3107 22.2517 19.6247C22.1648 20.0681 22.1945 20.889 21.7955 20.889C21.5197 20.8887 21.4952 20.3383 21.0316 19.832C20.5506 19.3407 19.8596 19.2912 19.4173 18.9376C19.1715 18.7685 19.0252 18.5601 19.0411 18.2031C19.043 18.1852 19.1065 17.6352 19.8683 17.7373C20.2369 17.7754 20.8349 17.8657 21.2048 17.9075C21.8647 17.9814 22.0264 17.4949 22.0462 17.3291C22.0882 16.9414 21.6731 16.6196 21.4103 16.3937C21.0782 16.1072 20.7165 15.849 20.3414 15.6182C20.2733 15.5764 20.2039 15.5328 20.1346 15.489ZM12.0499 14.0353C11.2128 14.0353 10.5932 14.6196 10.3736 15.3226C10.2747 15.6704 10.2897 16.1426 10.5442 16.5946C10.6074 16.6949 10.7647 16.6526 10.7704 16.5344C10.7361 15.7302 11.0886 15.2076 11.2473 15.0462C11.5293 14.7594 11.9173 14.5899 12.3162 14.5843C12.8584 14.5844 13.1384 14.8936 13.3205 15.0616C13.3904 15.1264 13.5051 15.0593 13.4795 14.9681C13.4242 14.747 13.1476 14.0354 12.0499 14.0353ZM12.3265 15.2842C12.0642 15.3074 11.8915 15.5179 11.9142 15.773C11.9377 16.0327 12.1442 16.2006 12.4067 16.1774C12.6685 16.1542 12.8486 15.9535 12.8255 15.6937C12.8026 15.4383 12.589 15.261 12.3265 15.2842ZM3.09157 3.72144C2.48287 3.72206 2.14804 5.10184 2.14804 6.3946C2.14813 9.27447 3.41596 11.3141 3.80374 11.3161C3.86488 11.3161 3.94479 11.2758 3.9136 11.1446C3.44375 8.90273 3.76571 7.22128 3.5685 4.74643C3.55126 4.51158 3.46626 3.72144 3.09157 3.72144Z" fill="#AF59FE"/>
<path d="M74.4755 29.7359C74.0592 29.2281 73.8321 28.5939 73.8321 27.9399V23.2167C73.8321 19.8645 72.2382 17.945 69.4193 17.945C65.6661 17.945 64.9393 19.9718 63.9401 21.6963C63.8916 21.7796 63.7847 21.8092 63.6989 21.7637L63.4902 21.6528C63.4009 21.6052 63.3684 21.4942 63.4189 21.4068L63.7038 20.9129C63.8838 20.6064 63.9803 20.2584 63.9803 19.9036V19.1909C63.9803 18.7312 63.6042 18.3584 63.1404 18.3584H59.0533C58.4378 18.3584 58.1061 19.0747 58.5075 19.5372L59.1028 20.2238C59.7032 20.9162 60.0333 21.7987 60.0333 22.7118V27.6147C60.0333 28.1586 59.916 28.6964 59.6893 29.1916L59.2161 30.2257C59 30.6981 59.3481 31.2343 59.8718 31.2343H64.978C65.586 31.2343 65.9203 30.5335 65.5344 30.0675L65.121 29.5688C64.6995 29.0595 64.4687 28.4212 64.4687 27.7622V25.0569C64.4687 24.1125 64.6966 23.1751 65.1744 22.3581C65.7542 21.3662 66.5112 20.8592 67.4588 20.8592C68.7342 20.8592 69.4193 21.7597 69.4193 23.3861V27.7806C69.4193 28.3114 69.3079 28.8362 69.0914 29.3221L68.6857 30.2322C68.4758 30.7042 68.824 31.2343 69.3443 31.2343H74.1909C74.7974 31.2343 75.1321 30.5366 74.7495 30.0704L74.4755 29.7359Z" fill="#AF59FE"/>
<path d="M83.5781 29.3468C83.4149 29.3789 83.2549 29.4013 83.1143 29.4044C81.7972 29.4044 81.1632 28.5824 81.1632 26.8918V20.1734H83.5617C83.8392 20.1734 84.0644 19.9502 84.0644 19.675V18.8611C84.0644 18.586 83.8392 18.3628 83.5617 18.3628H80.4923C80.4061 18.3628 80.3365 18.2936 80.3365 18.2083V17.9803C80.3365 17.8953 80.4053 17.8262 80.4911 17.8258H80.8027C81.0016 17.8262 81.1632 17.6664 81.1632 17.4693V15.6919C81.1632 15.3529 80.8859 15.0786 80.5444 15.0786H78.779C78.4575 15.0786 78.1729 15.2851 78.0774 15.5896C77.8736 16.2563 77.3832 18.3632 75.7879 18.3632H75.3136C75.0371 18.3632 74.8125 18.586 74.8125 18.8615V19.6754C74.8125 19.9511 75.0371 20.1738 75.3136 20.1738H76.7762V27.0622C76.7762 29.8646 78.2148 31.4111 80.822 31.4111C82.1232 31.4111 83.3029 30.9399 84.0176 30.0906C84.2957 29.759 84.0061 29.2634 83.5781 29.3468Z" fill="#AF59FE"/>
<path d="M57.9506 28.8415C57.1735 28.9805 56.6478 28.3769 56.6478 27.4297V22.8711C56.6478 19.6198 54.5692 17.8734 50.5316 17.8734C46.9156 17.8734 44.4462 19.2514 44.4397 21.3328C44.438 21.7064 44.5795 22.0727 44.7878 22.4251C45.1229 22.9349 45.7282 23.2768 46.4216 23.2768C47.4771 23.2768 48.3329 22.4873 48.3329 21.5137C48.3296 20.5153 47.4791 20.0092 47.2212 19.9141C47.4044 19.7592 48.1963 19.1543 49.3655 19.1543C51.2238 19.1543 52.2191 20.5506 52.2191 22.7248V23.5889C50.824 23.5889 49.2596 23.7276 48.1589 23.9938C45.4661 24.5772 44.0469 26.0963 44.0469 27.9887C44.0469 30.1228 45.7601 31.4563 48.4755 31.4563C50.3602 31.4563 51.9262 30.8025 52.6603 29.7098C53.124 30.6326 54.1522 31.2144 55.4742 31.2144C57.1842 31.2144 58.0797 30.3297 58.3627 29.2786C58.4358 28.9793 58.2077 28.7919 57.9506 28.8415ZM52.2191 27.8191C52.0735 28.8366 51.3641 29.444 50.336 29.444C49.2096 29.444 48.4513 28.6923 48.4513 27.5037C48.4513 26.5822 48.8668 25.7764 49.7734 25.3886C50.3845 25.1211 51.3378 24.9752 52.2191 24.9512V27.8191Z" fill="#AF59FE"/>
<path d="M98.8569 28.8415C98.0799 28.9805 97.5542 28.3769 97.5542 27.4297V22.8711C97.5542 19.6198 95.4754 17.8734 91.4379 17.8734C87.822 17.8734 85.3526 19.2514 85.3459 21.3328C85.3444 21.7064 85.4858 22.0727 85.6942 22.4251C86.0292 22.9349 86.6344 23.2768 87.3278 23.2768C88.3833 23.2768 89.2391 22.4873 89.2391 21.5137C89.2359 20.5153 88.3854 20.0092 88.1275 19.9141C88.3108 19.7592 89.1027 19.1543 90.2717 19.1543C92.1301 19.1543 93.1254 20.5506 93.1254 22.7248V23.5889C91.7304 23.5889 90.166 23.7276 89.0653 23.9938C86.3723 24.5772 84.9531 26.0963 84.9531 27.9887C84.9531 30.1228 86.6664 31.4563 89.3819 31.4563C91.2665 31.4563 92.8326 30.8025 93.5667 29.7098C94.0304 30.6326 95.0584 31.2144 96.3805 31.2144C98.0905 31.2144 98.9861 30.3297 99.2691 29.2786C99.342 28.9793 99.114 28.7919 98.8569 28.8415ZM93.1254 27.8191C92.9798 28.8366 92.2704 29.444 91.2424 29.444C90.1159 29.444 89.3577 28.6923 89.3577 27.5037C89.3577 26.5822 89.773 25.7764 90.6798 25.3886C91.2907 25.1211 92.2442 24.9752 93.1254 24.9512V27.8191Z" fill="#AF59FE"/>
<path d="M44.7437 14.0651H42.5244C42.0467 14.0651 41.7609 14.5916 42.0233 14.9866L42.4034 15.5595C42.7282 16.0489 42.7918 16.6644 42.5736 17.2087L38.5923 27.1361C38.409 27.6142 38.2232 27.9419 38.1391 28.0223C38.094 28.0654 38.0186 28.0784 37.9599 28.0349L37.75 27.8695C37.6832 27.8199 37.6873 27.7479 37.7483 27.6801C37.8652 27.5264 37.9378 27.341 37.9783 27.1723C38.0272 26.9699 38.0108 26.7573 37.9361 26.5626L34.5646 17.727C34.3419 17.1441 34.3505 16.4989 34.5888 15.9217L34.9488 15.0493C35.1428 14.5798 34.7942 14.0651 34.2824 14.0651H28.8494C28.1175 14.0651 27.7357 14.9286 28.2319 15.4619L28.5776 15.8339C29.2127 16.5172 29.7148 17.3107 30.0583 18.175L34.8992 30.7167C35.0259 31.0349 35.3355 31.2439 35.6808 31.2439H38.3614C38.7059 31.2439 39.0155 31.0353 39.1421 30.7184L45.4129 15.0423C45.6003 14.5736 45.2522 14.0651 44.7437 14.0651Z" fill="#AF59FE"/>
</g>
</svg>
