<svg width="146" height="28" viewBox="0 0 146 28" fill="none" xmlns="http://www.w3.org/2000/svg">
<mask id="mask0_650_6323" style="mask-type:luminance" maskUnits="userSpaceOnUse" x="0" y="0" width="146" height="28">
<path d="M145.334 0.0439453H0.804688V27.8381H145.334V0.0439453Z" fill="white"/>
</mask>
<g mask="url(#mask0_650_6323)">
<path fill-rule="evenodd" clip-rule="evenodd" d="M13.1484 18.7219L30.3477 1.48252C30.7182 1.11113 31.3159 1.11113 31.6863 1.48252L37.296 7.10288C37.6664 7.47427 37.6664 8.07687 37.296 8.44481L20.7677 25.0116C20.3971 25.3829 19.796 25.3829 19.4255 25.0116L13.1484 18.7219Z" fill="white"/>
<path fill-rule="evenodd" clip-rule="evenodd" d="M2.89896 8.44494C2.52847 8.07356 2.52847 7.47083 2.89896 7.10288L8.50863 1.48252C8.87908 1.11113 9.48023 1.11113 9.85069 1.48252L18.5464 10.1969L11.5947 17.1592L2.89896 8.44494Z" fill="white"/>
<path d="M49.5898 4.36804H53.022L58.4359 18.7939L63.8498 4.36804H67.282L60.2848 22.8969H56.5869L49.5898 4.36804Z" fill="white"/>
<path d="M78.0842 20.9165C78.0842 20.9165 76.3681 23.166 72.6703 23.166C68.4448 23.166 65.1874 19.4624 65.9039 15.2506C66.4597 11.9989 69.3919 9.59878 72.6844 9.66879C76.3053 9.74238 78.8777 12.6261 78.8777 16.1512C78.8777 16.9465 78.7448 17.6088 78.7448 17.6088H69.1088C69.4269 19.0664 70.6922 20.3874 72.8066 20.3874C75.0506 20.3874 76.3717 18.772 76.3717 18.772L78.0842 20.9165ZM75.5748 15.0929C75.1799 13.6353 74.1208 12.5771 72.4047 12.5771C70.5559 12.5771 69.5003 13.6353 69.1054 15.0929H75.5748Z" fill="white"/>
<path d="M81.3281 9.93002H84.3654V11.7836H84.4981C84.4981 11.7836 85.8193 9.6673 88.1959 9.6673H88.7237V12.9751C88.7237 12.9751 88.3288 12.8419 87.6682 12.8419C85.8193 12.8419 84.3688 14.2995 84.3688 16.549V22.9017H81.3316V9.93002H81.3281Z" fill="white"/>
<path d="M90.6323 4.36804H93.6696V15.6192L98.8179 9.92885H102.516L97.6296 15.3529L102.778 22.8969H99.3457L95.6479 17.4694L93.6661 19.7189V22.8969H90.6289V4.36804H90.6323Z" fill="white"/>
<path d="M111.764 21.1796H111.631C111.631 21.1796 110.442 23.1663 107.804 23.1663C105.294 23.1663 103.578 21.4459 103.578 19.4591C103.578 17.3427 105.161 15.7519 107.405 15.3559L111.764 14.5606C111.764 13.6356 110.708 12.5739 109.254 12.5739C107.325 12.5739 106.084 14.1612 106.084 14.1612L104.235 12.3076C104.235 12.3076 106.084 9.66211 109.383 9.66211C112.554 9.66211 114.797 11.9922 114.797 14.8233V22.8965H111.76V21.1796H111.764ZM111.764 16.9432L108.726 17.4724C107.143 17.7632 106.615 18.2678 106.615 19.0597C106.615 19.8516 107.409 20.647 108.597 20.647C110.313 20.647 111.767 19.1893 111.767 17.3392V16.9432H111.764Z" fill="white"/>
<path d="M127.027 21.0433H126.893C126.893 21.0433 125.705 23.1598 122.668 23.1598C119.631 23.1598 116.859 20.3812 116.859 16.4111C116.859 12.4412 119.631 9.66256 122.668 9.66256C125.705 9.66256 126.893 11.7789 126.893 11.7789H127.027V4.36804H130.064V22.8969H127.027V21.0433ZM127.027 16.4111C127.027 14.2948 125.443 12.7039 123.462 12.7039C121.48 12.7039 119.897 14.2912 119.897 16.4111C119.897 18.5276 121.48 20.1183 123.462 20.1183C125.443 20.1183 127.027 18.531 127.027 16.4111Z" fill="white"/>
<path d="M140.362 21.1796H140.228C140.228 21.1796 139.041 23.1663 136.402 23.1663C133.892 23.1663 132.176 21.4459 132.176 19.4591C132.176 17.3427 133.759 15.7519 136.003 15.3559L140.362 14.5606C140.362 13.6356 139.306 12.5739 137.852 12.5739C135.927 12.5739 134.683 14.1612 134.683 14.1612L132.834 12.3076C132.834 12.3076 134.683 9.66211 137.981 9.66211C141.152 9.66211 143.395 11.9922 143.395 14.8233V22.8965H140.358V21.1796H140.362ZM140.362 16.9432L137.324 17.4724C135.741 17.7632 135.213 18.2678 135.213 19.0597C135.213 19.8516 136.006 20.647 137.195 20.647C138.911 20.647 140.364 19.1893 140.364 17.3392V16.9432H140.362Z" fill="white"/>
</g>
</svg>
