<svg width="81" height="34" viewBox="0 0 81 34" fill="none" xmlns="http://www.w3.org/2000/svg">
<g clip-path="url(#clip0_1085_7862)">
<path d="M76.8454 32.9939L64.8447 0.0217575L64.8364 0H64.5996L62.1283 6.77569L57.6293 19.1109L57.6188 19.1011C56.0595 17.7281 53.8597 16.8698 51.0892 16.5502L50.2441 16.4632L51.0824 16.3559C55.6513 15.5366 58.7225 12.6571 58.7225 9.18782C58.7225 4.43035 54.2386 1.10966 47.8157 1.10966H34.4519V1.35049H38.3351V25.9331L28.9041 0.0217575L28.8959 0H28.659L26.1878 6.77569L16.6561 32.9091L16.5974 32.9159C16.4345 32.9359 16.2734 32.9519 16.114 32.9639C15.8742 32.9826 15.6358 32.9939 15.3967 32.9939H5.76579L24.0729 1.35048L24.209 1.11265H1.81868V10.9014H2.05626C2.09836 6.13346 4.88089 1.35049 11.0286 1.35049H18.4454L0 33.231H24.8495V23.8526H24.6119C24.5796 28.0083 22.2189 31.9555 17.0854 32.8468L16.9222 32.8746L20.8317 22.151H31.7837L35.73 32.9939H31.837V33.231H47.1165V32.9939H43.207V16.638H47.718C52.3086 16.638 54.9415 18.6847 54.9415 22.2515V25.1528C54.9415 25.4724 54.9633 25.9398 54.9874 26.3307V26.345L52.5628 32.9924H49.3953V33.2295H55.952V32.9924H52.8184L55.0265 26.9392C55.031 26.9977 55.0333 27.033 55.0333 27.033L55.0942 27.5784L55.1528 27.9393C55.5212 30.1714 56.3768 31.8122 57.6947 32.8161L57.8842 32.9534C58.8856 33.6481 60.1299 34 61.5847 34C63.5117 34 64.7965 33.5206 65.8574 32.3922L65.7183 32.2616C64.7409 33.1619 63.9207 33.5266 62.8929 33.5266C61.1419 33.5266 60.2254 31.4071 60.2254 29.3168V25.2518C60.2347 24.2432 60.0765 23.24 59.757 22.283L59.7134 22.157V22.1525H67.7242L71.6705 32.9954H67.7776V33.2325H81V32.9954L76.8454 32.9939ZM20.9189 21.9139L26.3141 7.12232L31.6972 21.9139H20.9189ZM43.2092 16.4002V1.35049H46.6526C51.2523 1.35049 53.6807 4.07922 53.6807 9.23883C53.6807 14.7263 52.2868 16.4002 47.718 16.4002H43.2092ZM59.6202 21.9139L59.5969 21.8554C59.2409 20.9902 58.7226 20.2007 58.0699 19.5295L57.8444 19.3045L57.8203 19.2819L62.2516 7.12232L67.6347 21.9139H59.6202Z" fill="white"/>
</g>
<defs>
<clipPath id="clip0_1085_7862">
<rect width="81" height="34" fill="white"/>
</clipPath>
</defs>
</svg>
