<svg width="200" height="104" viewBox="0 0 200 104" fill="none" xmlns="http://www.w3.org/2000/svg">
<g clip-path="url(#clip0_1214_9033)">
<path fill-rule="evenodd" clip-rule="evenodd" d="M114.149 56.1383C113.039 57.1339 111.614 57.6396 109.913 57.6396C108.212 57.6396 106.786 57.1339 105.677 56.1383C104.618 55.1899 104.009 53.6734 104.009 51.9792C104.009 50.3254 104.624 48.8298 105.695 47.8746C106.816 46.879 108.235 46.3711 109.912 46.3671C111.592 46.3711 113.011 46.879 114.131 47.8746C115.203 48.8298 115.817 50.3254 115.817 51.9792C115.817 53.6734 115.209 55.1899 114.149 56.1383ZM99.2553 51.9792C99.2553 52.0557 99.2593 52.1311 99.262 52.2064C97.56 50.911 95.0992 50.4289 93.5956 50.1775C90.8139 49.687 88.6888 49.2381 88.6888 47.5821C88.6888 46.4138 89.94 45.5639 92.3437 45.7096C94.5401 45.8429 95.4651 46.9656 95.7188 48.049C95.7551 48.2267 95.8533 48.3561 96.0955 48.3578L100.046 48.3859C100.065 48.3859 100.081 48.3842 100.098 48.3831C99.5405 49.4693 99.2553 50.6787 99.2553 51.9792ZM92.5368 58.0553C90.6262 58.0553 88.5213 57.4877 88.0362 55.2917C87.9952 55.0819 87.8768 54.9953 87.6844 54.9908L83.8653 54.9481V49.3034C84.3672 50.9577 86.0295 52.1029 89.6245 52.7796C92.0309 53.2611 96.2051 53.5671 96.2051 55.6326C96.2051 57.0726 94.9371 58.0891 92.5368 58.0553ZM73.5147 57.6419C70.4336 57.6419 67.6109 55.6141 67.6109 51.9814C67.6109 49.1313 69.7273 46.3694 73.5349 46.3694C75.1844 46.3694 79.3668 46.8419 79.3668 51.9814C79.3668 57.1345 75.0001 57.6419 73.5141 57.6419H73.5147ZM120.457 50.5949C121.334 51.5725 122.916 52.2964 125.486 52.7802C127.892 53.2617 132.067 53.5677 132.067 55.6332C132.067 57.0732 130.798 58.0896 128.399 58.0559C126.489 58.0559 124.382 57.4883 123.898 55.2923C123.858 55.0825 123.739 54.9959 123.546 54.9914L120.008 54.952C120.381 54.0312 120.571 53.0339 120.571 51.9797C120.571 51.5165 120.533 51.0538 120.457 50.5949ZM128.137 60.9302C132.375 60.9302 137.369 59.6112 136.978 55.3328C136.547 51.5348 131.82 50.5729 129.457 50.1781C126.675 49.6876 124.55 49.2387 124.55 47.5827C124.55 46.4144 125.801 45.5644 128.205 45.7101C130.402 45.8434 131.327 46.9662 131.581 48.0496C131.617 48.2273 131.716 48.3567 131.957 48.3584L135.907 48.3865C136.208 48.3882 136.302 48.2577 136.264 48.0788C135.49 44.1199 131.535 43 127.895 43C124.26 43 119.88 43.8539 119.57 47.6344C119.559 47.7807 119.555 47.9247 119.555 48.0659C118.976 47.0601 118.142 46.1365 117.067 45.3186C115.083 43.8224 112.608 43.0208 109.91 43.0011H109.82C108.532 43.0011 107.27 43.1997 106.071 43.5934C104.851 43.9967 103.73 44.5812 102.76 45.3186C101.742 46.0926 100.938 46.9611 100.363 47.9044C99.5076 44.089 95.6179 43 92.0322 43C88.6955 43 84.7304 43.7217 83.8653 46.7687V43.7442C83.8651 43.6667 83.8282 43.5925 83.7626 43.5377C83.697 43.483 83.6082 43.4522 83.5155 43.4523H79.7953C79.7026 43.4524 79.6138 43.4833 79.5484 43.5381C79.4829 43.593 79.4462 43.6673 79.4462 43.7448V44.5604C79.4462 44.6976 79.3365 44.7454 79.2026 44.6656C77.8794 43.8629 75.9217 43.0017 73.5659 43.0017C72.2419 43.0017 70.9779 43.1963 69.808 43.5799C68.6375 43.9647 67.5248 44.5502 66.5036 45.3209C65.3411 46.2051 64.4558 47.2131 63.8752 48.3167C63.2947 49.4204 63 50.6534 63 51.9809C63 53.2201 63.261 54.3822 63.775 55.4324C64.2889 56.4826 65.0713 57.454 66.1013 58.3203C67.1305 59.1865 68.2823 59.8446 69.5221 60.2777C70.7619 60.7092 72.1282 60.928 73.5854 60.928C76.0893 60.928 77.9682 60.0364 79.1993 59.2259C79.3352 59.1393 79.4462 59.1859 79.4462 59.3277V60.1844C79.4462 60.3452 79.6036 60.4769 79.796 60.4769H83.5162C83.6088 60.4766 83.6975 60.4456 83.7629 60.3908C83.8283 60.336 83.8651 60.2618 83.8653 60.1844V57.2988C85.6191 60.7469 90.088 60.9297 92.2757 60.9297C95.9327 60.9297 100.15 59.9453 100.987 56.9258C101.389 57.4256 101.848 57.8918 102.357 58.318C104.351 59.9959 106.964 60.8982 109.917 60.9252H110.038C111.44 60.9252 112.793 60.7002 114.059 60.2553C115.337 59.8033 116.496 59.145 117.469 58.318C118.198 57.711 118.82 57.0209 119.317 56.2682C120.643 60.7137 125.75 60.9302 128.137 60.9302Z" fill="white"/>
</g>
<defs>
<clipPath id="clip0_1214_9033">
<rect width="74" height="18" fill="white" transform="translate(63 43)"/>
</clipPath>
</defs>
</svg>
