<svg width="200" height="104" viewBox="0 0 200 104" fill="none" xmlns="http://www.w3.org/2000/svg">
<path d="M51.5 45.4686L62.0245 40L72.6622 45.4686L62.0245 50.9696L51.5 45.4686ZM114.728 48.1298V48C114.728 46.1988 115.779 45.6146 117.573 45.7444V42.4503C113.305 42.1907 111.284 44.3327 111.284 48V48.1298H109.361V51.4239H111.284V61.4037H114.744V51.4239H116.781H117.573H118.705V61.4037H122.164V51.4239H125.01V48.1298H122.164V48C122.164 46.1988 123.199 45.6146 125.01 45.7444V42.4503C120.742 42.1907 118.721 44.3327 118.721 48V48.1298H117.589H116.797H114.728ZM90.591 51.7485C91.6903 50.8722 92.3532 49.6227 92.3532 48.0162C92.3532 44.9006 89.8312 42.7911 86.6463 42.7911H79.2743V61.3712H87.2445C90.494 61.3712 93.0968 59.1805 93.0968 55.9838C93.0483 54.069 92.0945 52.5923 90.591 51.7485ZM86.6625 46.2312C87.8588 46.2312 88.6672 47.1075 88.6672 48.2759C88.6672 49.4442 87.8103 50.3205 86.6625 50.3205H82.9603V46.2312H86.6625ZM87.2283 57.9635H82.9765V53.5821H87.2283C88.4893 53.5821 89.3947 54.5071 89.3947 55.7566C89.3947 57.0385 88.4893 57.9635 87.2283 57.9635ZM103.864 48.1136V55.286C103.864 57.5903 102.603 58.5801 100.905 58.5801C99.3533 58.5801 98.254 57.6552 98.254 55.8377V48.1136H94.7943V56.2759C94.7943 59.8134 97.0092 61.7769 99.8707 61.7769C101.665 61.7769 103.072 61.1116 103.848 59.9107V61.4037H107.307V48.1298H103.864V48.1136ZM139.301 56.1623H129.197C129.698 57.9148 131.153 58.6613 132.948 58.6613C134.306 58.6613 135.373 58.1095 135.955 57.3469L138.735 58.9371C137.491 60.7383 135.486 61.7931 132.899 61.7931C128.405 61.7931 125.559 58.7424 125.559 54.7667C125.559 50.8073 128.421 47.7404 132.641 47.7404C136.601 47.7404 139.414 50.856 139.414 54.7667C139.43 55.2698 139.382 55.7079 139.301 56.1623ZM132.657 50.8235C130.797 50.8235 129.537 51.8134 129.149 53.501H135.987C135.551 51.5862 134.112 50.8235 132.657 50.8235ZM144.426 50.4016V48.1136H140.966V61.3874H144.426V55.0426C144.426 52.2515 146.689 51.4564 148.5 51.6673V47.854C146.802 47.854 145.121 48.6004 144.426 50.4016ZM62.0245 60.3651L54.8465 56.4544L51.5 58.2718L62.0245 64L72.6622 58.2718L69.2995 56.4544L62.0245 60.3651ZM54.8465 50.2718L62.0245 53.8256L69.2833 50.2718L72.6622 51.927L62.0245 57.1359L51.5 51.927L54.8465 50.2718Z" fill="#B1EC9C"/>
</svg>
