<svg width="200" height="104" viewBox="0 0 200 104" fill="none" xmlns="http://www.w3.org/2000/svg">
<g clip-path="url(#clip0_1214_8908)">
<path d="M49.2068 51.8219L37.2458 54.3114C37.2319 54.3143 37.2187 54.32 37.207 54.328C37.1953 54.336 37.1853 54.3463 37.1775 54.3582C37.1698 54.3701 37.1645 54.3834 37.1619 54.3973C37.1594 54.4113 37.1596 54.4256 37.1626 54.4395L39.2672 64.2474C39.2708 64.264 39.279 64.2792 39.2909 64.2911C39.3028 64.303 39.3179 64.3111 39.3343 64.3145L60.4771 68.7291C60.5069 68.7352 60.5379 68.731 60.5651 68.7172C60.5922 68.7034 60.614 68.6808 60.6268 68.6531C62.1615 65.3069 63.685 61.9508 65.197 58.5848C65.3858 58.1649 65.5043 57.726 65.5526 57.2679C66.2936 50.2727 67.0347 43.2852 67.7757 36.3052C67.7773 36.2902 67.7759 36.275 67.7716 36.2605C67.7673 36.246 67.7602 36.2326 67.7507 36.2208C67.7412 36.2091 67.7295 36.1994 67.7162 36.1922C67.7029 36.185 67.6884 36.1804 67.6734 36.1789L59.3697 35.3079C59.3214 35.3031 59.2811 35.3199 59.2488 35.3582C59.2292 35.3814 59.2155 35.4298 59.2075 35.5037C58.7039 40.2732 58.1969 45.0422 57.6865 49.8106C57.6833 49.8401 57.6781 49.8659 57.6709 49.8878C57.6697 49.8913 57.6674 49.8942 57.6644 49.8963C57.6613 49.8984 57.6578 49.8995 57.6541 49.8993C57.6505 49.8992 57.6471 49.8979 57.6444 49.8956C57.6417 49.8933 57.6399 49.8901 57.6392 49.8866L55.0347 37.8424C55.004 37.6999 54.9172 37.6436 54.7743 37.6736L46.6838 39.3586C46.6696 39.3615 46.6562 39.3672 46.6443 39.3753C46.6324 39.3835 46.6223 39.3939 46.6144 39.4061C46.6066 39.4182 46.6012 39.4318 46.5986 39.446C46.596 39.4603 46.5963 39.4749 46.5994 39.4891L49.2433 51.7662C49.2458 51.7784 49.2434 51.7911 49.2365 51.8015C49.2297 51.812 49.219 51.8193 49.2068 51.8219Z" stroke="#80E6DE" stroke-width="0.119718"/>
<path d="M108.1 46.5183C108.1 46.0606 107.918 45.6217 107.594 45.2981C107.271 44.9744 106.832 44.7926 106.374 44.7926C105.916 44.7926 105.478 44.9744 105.154 45.2981C104.83 45.6217 104.648 46.0606 104.648 46.5183C104.648 46.976 104.83 47.415 105.154 47.7386C105.478 48.0623 105.916 48.2441 106.374 48.2441C106.832 48.2441 107.271 48.0623 107.594 47.7386C107.918 47.415 108.1 46.976 108.1 46.5183Z" stroke="#80E6DE" stroke-width="0.119718"/>
<path d="M78.951 49.5186C73.3272 50.0705 73.062 59.3756 78.5948 60.4878C80.1924 60.8092 81.6362 60.1771 82.7502 59.0853C82.7585 59.0773 82.7687 59.0717 82.7798 59.0691C82.7909 59.0664 82.8026 59.0668 82.8135 59.0701C82.8244 59.0735 82.8343 59.0797 82.842 59.0882C82.8497 59.0966 82.855 59.107 82.8574 59.1182L83.089 60.2495C83.0958 60.2822 83.1136 60.3115 83.1394 60.3325C83.1653 60.3536 83.1976 60.3651 83.2309 60.3651H85.7965C85.9234 60.3651 85.9724 60.3032 85.9437 60.1795C85.7216 59.2211 85.4984 58.2263 85.4984 57.2524C85.498 53.1792 85.4978 49.1133 85.4978 45.0549C85.4978 45.0393 85.4916 45.0244 85.4806 45.0134C85.4696 45.0024 85.4547 44.9962 85.4391 44.9962H82.8191C82.8032 44.9962 82.788 45.0025 82.7767 45.0137C82.7655 45.025 82.7592 45.0402 82.7592 45.0561V50.8582C82.7593 50.869 82.7561 50.8796 82.7502 50.8886C82.7442 50.8975 82.7356 50.9045 82.7256 50.9086C82.7156 50.9126 82.7046 50.9136 82.6941 50.9114C82.6835 50.9091 82.6739 50.9037 82.6664 50.8959C81.6333 49.836 80.3948 49.3769 78.951 49.5186Z" stroke="#80E6DE" stroke-width="0.119718"/>
<path d="M102.558 45.0807C102.558 45.0582 102.549 45.0366 102.533 45.0206C102.517 45.0047 102.496 44.9957 102.473 44.9957H99.9053C99.8828 44.9957 99.8611 45.0047 99.8452 45.0206C99.8293 45.0366 99.8203 45.0582 99.8203 45.0807V60.279C99.8203 60.3015 99.8293 60.3231 99.8452 60.3391C99.8611 60.355 99.8828 60.364 99.9053 60.364H102.473C102.496 60.364 102.517 60.355 102.533 60.3391C102.549 60.3231 102.558 60.3015 102.558 60.279V45.0807Z" stroke="#80E6DE" stroke-width="0.119718"/>
<path d="M87.3362 55.1394C87.5416 60.6992 93.2599 61.6599 97.2651 59.3715C97.291 59.3567 97.3104 59.3328 97.3197 59.3045C97.329 59.2762 97.3274 59.2455 97.3154 59.2182L96.3588 57.0777C96.3522 57.0629 96.3427 57.0497 96.3308 57.0388C96.3189 57.0278 96.305 57.0194 96.2897 57.014C96.2745 57.0086 96.2583 57.0064 96.2422 57.0075C96.2261 57.0086 96.2104 57.0129 96.196 57.0202C94.3709 57.9522 91.676 58.3718 90.2975 56.415C90.2854 56.398 90.2783 56.3781 90.2769 56.3573C90.2755 56.3365 90.2798 56.3157 90.2895 56.2972C90.2991 56.2786 90.3137 56.2631 90.3315 56.2522C90.3494 56.2413 90.3699 56.2355 90.3909 56.2355L97.8565 56.2337C97.8729 56.2337 97.8889 56.2279 97.9016 56.2174C97.9142 56.207 97.9229 56.1924 97.9259 56.1762C98.6257 52.5649 96.3816 49.5217 92.6344 49.4582C89.4457 49.4043 87.2219 52.0423 87.3362 55.1394Z" stroke="#80E6DE" stroke-width="0.119718"/>
<path d="M120.59 57.3895C122.111 61.2409 127.08 61.1289 130.046 59.4074C130.109 59.3715 130.125 59.3206 130.095 59.2547L129.142 57.1321C129.136 57.1194 129.128 57.108 129.118 57.0986C129.108 57.0891 129.096 57.0818 129.082 57.077C129.069 57.0723 129.056 57.0702 129.042 57.0709C129.028 57.0717 129.014 57.0752 129.002 57.0813C127.141 57.9785 124.566 58.4137 123.112 56.512C123.082 56.4725 123.062 56.437 123.05 56.4054C123.045 56.3912 123.043 56.3759 123.045 56.3608C123.047 56.3458 123.053 56.3314 123.061 56.319C123.07 56.3065 123.082 56.2964 123.095 56.2893C123.109 56.2823 123.123 56.2786 123.139 56.2785L130.626 56.2642C130.686 56.2642 130.721 56.2346 130.731 56.1756C131.234 53.1784 129.751 50.2046 126.588 49.603C121.859 48.7034 118.929 53.185 120.59 57.3895Z" stroke="#80E6DE" stroke-width="0.119718"/>
<path d="M132.716 60.3643H135.283C135.307 60.3643 135.331 60.3545 135.348 60.3371C135.366 60.3197 135.375 60.2961 135.375 60.2715C135.374 58.3113 135.374 56.3418 135.377 54.3628C135.377 53.937 135.407 53.6445 135.466 53.4853C135.939 52.2163 137.879 52.4216 138.804 52.855C138.819 52.8619 138.835 52.8658 138.851 52.8665C138.867 52.8672 138.883 52.8646 138.898 52.859C138.914 52.8534 138.928 52.8448 138.939 52.8337C138.951 52.8226 138.961 52.8093 138.967 52.7945L140.186 50.0572C140.191 50.0451 140.191 50.0315 140.187 50.0192C140.182 50.0069 140.173 49.9969 140.161 49.9913C138.376 49.1299 136.634 49.3885 135.336 50.9479C135.332 50.9529 135.326 50.9567 135.32 50.9588C135.313 50.9609 135.307 50.9612 135.3 50.9596C135.294 50.9581 135.288 50.9547 135.283 50.95C135.279 50.9453 135.276 50.9393 135.274 50.9329L135.034 49.798C135.021 49.7393 134.985 49.71 134.925 49.71H132.293C132.281 49.71 132.27 49.7126 132.259 49.7176C132.249 49.7225 132.239 49.7298 132.232 49.7387C132.225 49.7477 132.22 49.7581 132.217 49.7693C132.214 49.7805 132.214 49.7921 132.217 49.8034C132.414 50.739 132.631 51.6596 132.632 52.5982C132.635 55.1701 132.637 57.7321 132.636 60.2841C132.636 60.3054 132.645 60.3258 132.66 60.3408C132.675 60.3559 132.695 60.3643 132.716 60.3643Z" stroke="#80E6DE" stroke-width="0.119718"/>
<path d="M140.565 57.6157C141.82 60.2998 144.965 61.2145 147.588 60.116C149.536 59.3002 150.708 57.5822 150.817 55.4752C150.981 52.3182 148.981 49.6533 145.672 49.5036C141.234 49.3025 138.766 53.771 140.565 57.6157Z" stroke="#80E6DE" stroke-width="0.119718"/>
<path d="M153.419 51.3521C151.087 54.0314 152.014 58.9123 155.49 60.1819C157.031 60.744 158.763 60.683 160.215 59.9162C163.382 58.2443 163.828 53.7968 161.595 51.2318C159.494 48.8177 155.48 48.9835 153.419 51.3521Z" stroke="#80E6DE" stroke-width="0.119718"/>
<path d="M107.766 49.8136C107.766 49.786 107.756 49.7595 107.736 49.74C107.716 49.7204 107.69 49.7095 107.662 49.7095H105.131C105.104 49.7095 105.077 49.7204 105.058 49.74C105.038 49.7595 105.027 49.786 105.027 49.8136V60.2602C105.027 60.2879 105.038 60.3144 105.058 60.3339C105.077 60.3534 105.104 60.3644 105.131 60.3644H107.662C107.69 60.3644 107.716 60.3534 107.736 60.3339C107.756 60.3144 107.766 60.2879 107.766 60.2602V49.8136Z" stroke="#80E6DE" stroke-width="0.119718"/>
<path d="M112.082 60.3266C112.085 60.3376 112.092 60.3473 112.101 60.3542C112.11 60.3612 112.121 60.3649 112.133 60.3649H116.457C116.469 60.3649 116.48 60.3612 116.489 60.3542C116.498 60.3473 116.505 60.3376 116.508 60.3266L119.349 49.7758C119.351 49.7681 119.352 49.76 119.35 49.7521C119.348 49.7442 119.345 49.7368 119.34 49.7304C119.335 49.7241 119.329 49.7189 119.322 49.7153C119.315 49.7118 119.307 49.71 119.299 49.71H116.42C116.409 49.71 116.397 49.7139 116.388 49.7211C116.379 49.7282 116.373 49.7382 116.37 49.7495L114.326 58.1292C114.324 58.1405 114.317 58.1505 114.308 58.1577C114.299 58.1649 114.287 58.1688 114.276 58.1688C114.264 58.1688 114.253 58.1649 114.244 58.1577C114.234 58.1505 114.228 58.1405 114.225 58.1292L112.184 49.7495C112.181 49.7382 112.175 49.7282 112.166 49.7211C112.157 49.7139 112.145 49.71 112.134 49.71H109.283C109.275 49.71 109.267 49.7118 109.259 49.7153C109.252 49.7189 109.246 49.7241 109.241 49.7304C109.236 49.7368 109.233 49.7442 109.231 49.7521C109.23 49.76 109.23 49.7681 109.232 49.7758L112.082 60.3266Z" stroke="#80E6DE" stroke-width="0.119718"/>
<path d="M52.9548 55.8369C53.2176 54.3164 50.603 53.6478 50.2294 55.188C49.9397 56.3828 50.579 57.0149 51.7666 56.9694C52.4071 56.9443 52.8525 56.4277 52.9548 55.8369Z" stroke="#80E6DE" stroke-width="0.119718"/>
<path d="M58.9067 56.8101C59.0184 56.5066 59.0049 56.1712 58.8693 55.8776C58.7336 55.5841 58.4869 55.3564 58.1834 55.2448L57.9081 55.1435C57.6046 55.0318 57.2692 55.0453 56.9757 55.1809C56.6821 55.3166 56.4544 55.5633 56.3428 55.8668L56.2469 56.1274C56.1352 56.4309 56.1487 56.7664 56.2843 57.0599C56.42 57.3535 56.6667 57.5811 56.9702 57.6928L57.2454 57.7941C57.5489 57.9058 57.8844 57.8923 58.1779 57.7566C58.4715 57.621 58.6991 57.3743 58.8108 57.0708L58.9067 56.8101Z" stroke="#80E6DE" stroke-width="0.119718"/>
<path d="M82.7964 55.0661C82.8014 54.3487 82.5132 53.6587 81.9952 53.1477C81.4772 52.6368 80.7719 52.3469 80.0343 52.3417C79.6691 52.3392 79.307 52.4066 78.9686 52.5402C78.6303 52.6738 78.3223 52.8709 78.0623 53.1203C77.8023 53.3697 77.5954 53.6664 77.4534 53.9936C77.3113 54.3208 77.2369 54.6721 77.2344 55.0273C77.2294 55.7447 77.5176 56.4348 78.0356 56.9457C78.5536 57.4566 79.259 57.7465 79.9965 57.7517C80.3618 57.7542 80.7239 57.6868 81.0622 57.5532C81.4006 57.4196 81.7085 57.2225 81.9685 56.9731C82.2285 56.7238 82.4355 56.427 82.5775 56.0998C82.7196 55.7726 82.7939 55.4213 82.7964 55.0661Z" stroke="#80E6DE" stroke-width="0.119718"/>
<path d="M90.105 54.0552C90.1511 54.0582 90.2229 54.0852 90.2654 54.0846C91.53 54.0718 92.7946 54.0654 94.0593 54.0654C94.3304 54.0648 94.7979 54.0971 95.1655 54.0702C95.1806 54.0691 95.1953 54.0644 95.2084 54.0567C95.2215 54.0489 95.2326 54.0383 95.2408 54.0255C95.2491 54.0128 95.2544 53.9983 95.2561 53.9832C95.2579 53.9681 95.2562 53.9528 95.2511 53.9385C94.9941 53.217 94.5198 52.7178 93.8282 52.4408C92.397 51.8674 90.4515 52.266 90.0427 53.9696C90.0299 54.0223 90.0507 54.0508 90.105 54.0552Z" stroke="#80E6DE" stroke-width="0.119718"/>
<path d="M128.066 54.0243C127.865 51.5748 122.973 51.7017 122.906 54.0267C122.906 54.0331 122.907 54.0396 122.909 54.0457C122.912 54.0517 122.915 54.0573 122.92 54.0619C122.924 54.0666 122.93 54.0702 122.935 54.0727C122.941 54.0752 122.948 54.0764 122.954 54.0763L128.032 54.0602C128.037 54.0602 128.041 54.0592 128.046 54.0574C128.05 54.0556 128.054 54.0529 128.057 54.0495C128.06 54.0461 128.062 54.0421 128.064 54.0378C128.065 54.0334 128.066 54.0288 128.066 54.0243Z" stroke="#80E6DE" stroke-width="0.119718"/>
<path d="M148.188 54.9947C148.175 54.2778 147.871 53.5955 147.341 53.0977C146.812 52.5999 146.101 52.3274 145.365 52.3403C144.629 52.3531 143.928 52.6502 143.417 53.1662C142.905 53.6821 142.625 54.3747 142.637 55.0915C142.65 55.8084 142.954 56.4908 143.483 56.9885C144.013 57.4863 144.724 57.7588 145.46 57.7459C146.196 57.7331 146.897 57.436 147.408 56.92C147.92 56.4041 148.2 55.7115 148.188 54.9947Z" stroke="#80E6DE" stroke-width="0.119718"/>
<path d="M160.348 55.0691C160.354 54.3517 160.067 53.6612 159.551 53.1493C159.035 52.6375 158.331 52.3464 157.594 52.34C157.229 52.3368 156.868 52.4036 156.529 52.5366C156.191 52.6696 155.883 52.8661 155.623 53.1151C155.363 53.364 155.156 53.6604 155.014 53.9874C154.871 54.3143 154.796 54.6654 154.793 55.0206C154.787 55.738 155.073 56.4286 155.59 56.9404C156.106 57.4522 156.81 57.7434 157.547 57.7498C157.912 57.753 158.273 57.6862 158.611 57.5532C158.95 57.4202 159.258 57.2236 159.518 56.9747C159.778 56.7258 159.985 56.4294 160.127 56.1024C160.27 55.7755 160.345 55.4243 160.348 55.0691Z" stroke="#80E6DE" stroke-width="0.119718"/>
<path d="M49.2068 51.8221C49.219 51.8195 49.2297 51.8122 49.2365 51.8018C49.2434 51.7914 49.2458 51.7787 49.2433 51.7664L46.5994 39.4893C46.5963 39.4752 46.596 39.4605 46.5986 39.4463C46.6012 39.432 46.6066 39.4184 46.6144 39.4063C46.6223 39.3942 46.6324 39.3837 46.6443 39.3756C46.6562 39.3674 46.6696 39.3617 46.6838 39.3588L54.7743 37.6738C54.9172 37.6439 55.004 37.7001 55.0347 37.8426L57.6392 49.8869C57.6399 49.8904 57.6417 49.8935 57.6444 49.8958C57.6471 49.8981 57.6505 49.8994 57.6541 49.8996C57.6578 49.8997 57.6613 49.8986 57.6644 49.8966C57.6674 49.8945 57.6697 49.8915 57.6709 49.8881C57.6781 49.8661 57.6833 49.8404 57.6865 49.8108C58.1969 45.0425 58.7039 40.2735 59.2075 35.5039C59.2155 35.4301 59.2292 35.3816 59.2488 35.3585C59.2811 35.3201 59.3214 35.3034 59.3697 35.3082L67.6734 36.1791C67.6884 36.1807 67.7029 36.1852 67.7162 36.1924C67.7295 36.1996 67.7412 36.2093 67.7507 36.2211C67.7602 36.2328 67.7673 36.2463 67.7716 36.2608C67.7759 36.2752 67.7773 36.2904 67.7757 36.3054C67.0347 43.2854 66.2936 50.273 65.5526 57.2681C65.5043 57.7262 65.3858 58.1652 65.197 58.585C63.685 61.9511 62.1615 65.3072 60.6268 68.6533C60.614 68.6811 60.5922 68.7037 60.5651 68.7175C60.5379 68.7313 60.5069 68.7355 60.4771 68.7293L39.3343 64.3147C39.3179 64.3113 39.3028 64.3032 39.2909 64.2913C39.279 64.2794 39.2708 64.2642 39.2672 64.2477L37.1626 54.4398C37.1596 54.4259 37.1594 54.4116 37.1619 54.3976C37.1645 54.3836 37.1698 54.3703 37.1775 54.3584C37.1853 54.3465 37.1953 54.3363 37.207 54.3282C37.2187 54.3202 37.2319 54.3146 37.2458 54.3117L49.2068 51.8221ZM52.9564 55.8369C53.2192 54.3164 50.6045 53.6478 50.231 55.188C49.9413 56.3828 50.5806 57.0149 51.7682 56.9694C52.4087 56.9443 52.854 56.4277 52.9564 55.8369ZM58.9098 56.8103C59.0215 56.5068 59.008 56.1714 58.8724 55.8778C58.7367 55.5843 58.49 55.3566 58.1865 55.245L57.9113 55.1437C57.6078 55.032 57.2724 55.0455 56.9788 55.1811C56.6852 55.3168 56.4576 55.5635 56.3459 55.867L56.25 56.1276C56.1383 56.4311 56.1518 56.7666 56.2875 57.0601C56.4231 57.3537 56.6698 57.5813 56.9733 57.693L57.2486 57.7943C57.5521 57.906 57.8875 57.8925 58.1811 57.7568C58.4746 57.6212 58.7023 57.3745 58.8139 57.071L58.9098 56.8103Z" fill="#00CCBC"/>
<path d="M106.374 48.2443C107.327 48.2443 108.1 47.4717 108.1 46.5186C108.1 45.5655 107.327 44.7928 106.374 44.7928C105.421 44.7928 104.648 45.5655 104.648 46.5186C104.648 47.4717 105.421 48.2443 106.374 48.2443Z" fill="#00CCBC"/>
<path d="M78.5948 60.488C73.062 59.3758 73.3272 50.0707 78.951 49.5188C80.3948 49.3772 81.6333 49.8363 82.6664 50.8962C82.6739 50.904 82.6835 50.9093 82.6941 50.9116C82.7046 50.9139 82.7156 50.9129 82.7256 50.9088C82.7356 50.9048 82.7442 50.8978 82.7502 50.8888C82.7561 50.8798 82.7593 50.8693 82.7592 50.8585V45.0563C82.7592 45.0404 82.7655 45.0252 82.7767 45.014C82.788 45.0028 82.8032 44.9965 82.8191 44.9965H85.4391C85.4547 44.9965 85.4696 45.0026 85.4806 45.0136C85.4916 45.0246 85.4978 45.0396 85.4978 45.0551C85.4978 49.1136 85.498 53.1794 85.4984 57.2526C85.4984 58.2265 85.7216 59.2214 85.9437 60.1797C85.9724 60.3034 85.9234 60.3653 85.7965 60.3653H83.2309C83.1976 60.3653 83.1653 60.3538 83.1394 60.3328C83.1136 60.3117 83.0958 60.2824 83.089 60.2498L82.8574 59.1184C82.855 59.1072 82.8497 59.0969 82.842 59.0884C82.8343 59.08 82.8244 59.0737 82.8135 59.0704C82.8026 59.067 82.7909 59.0667 82.7798 59.0693C82.7687 59.072 82.7585 59.0776 82.7502 59.0855C81.6362 60.1773 80.1924 60.8095 78.5948 60.488ZM82.7981 55.0662C82.8031 54.3488 82.5149 53.6588 81.9969 53.1478C81.4789 52.6369 80.7735 52.347 80.0359 52.3418C79.6707 52.3393 79.3086 52.4067 78.9703 52.5403C78.6319 52.6739 78.3239 52.871 78.064 53.1204C77.804 53.3698 77.597 53.6665 77.455 53.9937C77.3129 54.3209 77.2385 54.6722 77.2361 55.0274C77.2311 55.7448 77.5193 56.4349 78.0372 56.9458C78.5552 57.4567 79.2606 57.7466 79.9982 57.7518C80.3634 57.7543 80.7255 57.6869 81.0638 57.5533C81.4022 57.4197 81.7102 57.2226 81.9702 56.9732C82.2302 56.7239 82.4371 56.4271 82.5791 56.0999C82.7212 55.7727 82.7956 55.4214 82.7981 55.0662Z" fill="#00CCBC"/>
<path d="M102.473 44.996H99.9053C99.8584 44.996 99.8203 45.034 99.8203 45.081V60.2792C99.8203 60.3262 99.8584 60.3642 99.9053 60.3642H102.473C102.52 60.3642 102.558 60.3262 102.558 60.2792V45.081C102.558 45.034 102.52 44.996 102.473 44.996Z" fill="#00CCBC"/>
<path d="M97.2651 59.3717C93.2599 61.6601 87.5416 60.6994 87.3362 55.1397C87.2219 52.0426 89.4457 49.4046 92.6344 49.4585C96.3816 49.5219 98.6257 52.5651 97.9259 56.1764C97.9229 56.1926 97.9142 56.2072 97.9016 56.2177C97.8889 56.2282 97.8729 56.2339 97.8565 56.2339L90.3909 56.2357C90.3699 56.2358 90.3494 56.2416 90.3315 56.2525C90.3137 56.2633 90.2991 56.2789 90.2895 56.2974C90.2798 56.3159 90.2755 56.3367 90.2769 56.3575C90.2783 56.3783 90.2854 56.3983 90.2975 56.4153C91.676 58.3721 94.3709 57.9525 96.196 57.0205C96.2104 57.0131 96.2261 57.0088 96.2422 57.0077C96.2583 57.0067 96.2745 57.0089 96.2897 57.0143C96.305 57.0196 96.3189 57.0281 96.3308 57.039C96.3427 57.0499 96.3522 57.0632 96.3588 57.0779L97.3154 59.2185C97.3274 59.2457 97.329 59.2765 97.3197 59.3048C97.3104 59.3331 97.291 59.3569 97.2651 59.3717ZM90.1071 54.0556C90.1532 54.0586 90.225 54.0856 90.2675 54.085C91.5322 54.0722 92.7968 54.0658 94.0614 54.0658C94.3326 54.0652 94.8001 54.0975 95.1676 54.0706C95.1828 54.0695 95.1975 54.0648 95.2105 54.0571C95.2236 54.0493 95.2347 54.0387 95.243 54.0259C95.2513 54.0132 95.2565 53.9987 95.2583 53.9836C95.2601 53.9685 95.2583 53.9532 95.2532 53.9389C94.9962 53.2174 94.5219 52.7182 93.8304 52.4412C92.3991 51.8678 90.4537 52.2664 90.0449 53.97C90.0321 54.0227 90.0529 54.0512 90.1071 54.0556Z" fill="#00CCBC"/>
<path d="M130.046 59.4076C127.08 61.1292 122.111 61.2411 120.59 57.3898C118.929 53.1853 121.859 48.7036 126.588 49.6033C129.751 50.2049 131.234 53.1787 130.731 56.1758C130.721 56.2349 130.686 56.2644 130.626 56.2644L123.139 56.2788C123.123 56.2788 123.109 56.2825 123.095 56.2896C123.082 56.2966 123.07 56.3068 123.061 56.3192C123.053 56.3317 123.047 56.346 123.045 56.3611C123.043 56.3761 123.045 56.3914 123.05 56.4057C123.062 56.4372 123.082 56.4727 123.112 56.5122C124.566 58.414 127.141 57.9788 129.002 57.0815C129.014 57.0754 129.028 57.0719 129.042 57.0712C129.056 57.0704 129.069 57.0725 129.082 57.0773C129.096 57.082 129.108 57.0893 129.118 57.0988C129.128 57.1083 129.136 57.1197 129.142 57.1324L130.095 59.255C130.125 59.3208 130.109 59.3717 130.046 59.4076ZM128.062 54.0245C127.862 51.5751 122.969 51.702 122.903 54.0269C122.903 54.0334 122.904 54.0398 122.906 54.0459C122.908 54.052 122.912 54.0575 122.916 54.0621C122.921 54.0668 122.926 54.0705 122.932 54.0729C122.938 54.0754 122.944 54.0767 122.951 54.0766L128.029 54.0604C128.033 54.0604 128.038 54.0595 128.042 54.0576C128.046 54.0558 128.05 54.0531 128.053 54.0497C128.057 54.0463 128.059 54.0423 128.06 54.038C128.062 54.0337 128.062 54.0291 128.062 54.0245Z" fill="#00CCBC"/>
<path d="M132.72 60.3647C132.699 60.3647 132.679 60.3562 132.664 60.3412C132.649 60.3261 132.64 60.3057 132.64 60.2845C132.64 57.7325 132.639 55.1705 132.636 52.5985C132.635 51.66 132.418 50.7393 132.22 49.8037C132.218 49.7925 132.218 49.7808 132.221 49.7697C132.224 49.7585 132.229 49.748 132.236 49.7391C132.243 49.7301 132.253 49.7229 132.263 49.7179C132.273 49.713 132.285 49.7104 132.296 49.7103H134.928C134.989 49.7103 135.025 49.7397 135.037 49.7983L135.278 50.9333C135.279 50.9397 135.283 50.9456 135.287 50.9504C135.292 50.9551 135.298 50.9584 135.304 50.96C135.311 50.9615 135.317 50.9613 135.324 50.9592C135.33 50.9571 135.335 50.9533 135.34 50.9482C136.637 49.3889 138.38 49.1303 140.165 49.9917C140.177 49.9973 140.186 50.0073 140.191 50.0196C140.195 50.0319 140.195 50.0455 140.189 50.0575L138.971 52.7949C138.965 52.8097 138.955 52.823 138.943 52.8341C138.931 52.8452 138.918 52.8538 138.902 52.8594C138.887 52.865 138.871 52.8676 138.855 52.8669C138.839 52.8662 138.823 52.8622 138.808 52.8553C137.883 52.422 135.942 52.2166 135.47 53.4857C135.411 53.6449 135.381 53.9374 135.38 54.3632C135.378 56.3421 135.378 58.3117 135.379 60.2719C135.379 60.2965 135.369 60.3201 135.352 60.3375C135.335 60.3549 135.311 60.3647 135.286 60.3647H132.72Z" fill="#00CCBC"/>
<path d="M147.588 60.1163C144.965 61.2147 141.82 60.3001 140.565 57.616C138.766 53.7712 141.234 49.3027 145.672 49.5039C148.981 49.6535 150.981 52.3184 150.817 55.4754C150.708 57.5825 149.536 59.3004 147.588 60.1163ZM148.191 54.9948C148.179 54.278 147.875 53.5956 147.345 53.0978C146.816 52.6 146.105 52.3276 145.369 52.3404C144.633 52.3533 143.932 52.6503 143.42 53.1663C142.909 53.6823 142.628 54.3748 142.641 55.0917C142.654 55.8085 142.958 56.4909 143.487 56.9887C144.017 57.4865 144.727 57.7589 145.463 57.7461C146.199 57.7332 146.9 57.4361 147.412 56.9202C147.924 56.4042 148.204 55.7116 148.191 54.9948Z" fill="#00CCBC"/>
<path d="M155.494 60.1822C152.018 58.9126 151.091 54.0317 153.423 51.3524C155.483 48.9837 159.498 48.8179 161.599 51.232C163.831 53.797 163.386 58.2445 160.219 59.9164C158.767 60.6832 157.034 60.7443 155.494 60.1822ZM160.351 55.0693C160.357 54.3519 160.071 53.6614 159.554 53.1495C159.038 52.6377 158.334 52.3466 157.597 52.3401C157.233 52.337 156.871 52.4038 156.533 52.5368C156.195 52.6698 155.887 52.8663 155.627 53.1153C155.366 53.3642 155.159 53.6606 155.017 53.9875C154.874 54.3145 154.8 54.6656 154.796 55.0208C154.79 55.7382 155.077 56.4288 155.593 56.9406C156.11 57.4524 156.814 57.7436 157.55 57.75C157.915 57.7532 158.277 57.6864 158.615 57.5534C158.953 57.4204 159.261 57.2238 159.521 56.9749C159.781 56.726 159.988 56.4296 160.131 56.1026C160.273 55.7756 160.348 55.4245 160.351 55.0693Z" fill="#00CCBC"/>
<path d="M107.662 49.7097H105.131C105.074 49.7097 105.027 49.7563 105.027 49.8139V60.2605C105.027 60.318 105.074 60.3646 105.131 60.3646H107.662C107.72 60.3646 107.766 60.318 107.766 60.2605V49.8139C107.766 49.7563 107.72 49.7097 107.662 49.7097Z" fill="#00CCBC"/>
<path d="M112.086 60.327L109.236 49.7762C109.234 49.7685 109.234 49.7604 109.235 49.7525C109.237 49.7446 109.24 49.7372 109.245 49.7308C109.25 49.7245 109.256 49.7193 109.263 49.7157C109.271 49.7122 109.278 49.7103 109.287 49.7104H112.138C112.149 49.7104 112.16 49.7143 112.17 49.7215C112.179 49.7286 112.185 49.7386 112.188 49.7499L114.229 58.1295C114.232 58.1409 114.238 58.1509 114.248 58.1581C114.257 58.1653 114.268 58.1692 114.28 58.1692C114.291 58.1692 114.303 58.1653 114.312 58.1581C114.321 58.1509 114.327 58.1409 114.33 58.1295L116.374 49.7499C116.377 49.7386 116.383 49.7286 116.392 49.7215C116.401 49.7143 116.413 49.7104 116.424 49.7104H119.303C119.311 49.7103 119.319 49.7122 119.326 49.7157C119.333 49.7193 119.339 49.7245 119.344 49.7308C119.349 49.7372 119.352 49.7446 119.354 49.7525C119.355 49.7604 119.355 49.7685 119.353 49.7762L116.512 60.327C116.508 60.338 116.502 60.3477 116.493 60.3546C116.484 60.3616 116.473 60.3653 116.461 60.3653H112.136C112.125 60.3653 112.114 60.3616 112.105 60.3546C112.096 60.3477 112.089 60.338 112.086 60.327Z" fill="#00CCBC"/>
<path d="M90.1089 54.0555C90.0546 54.0511 90.0338 54.0225 90.0466 53.9699C90.4555 52.2663 92.4009 51.8676 93.8321 52.4411C94.5237 52.718 94.998 53.2172 95.255 53.9387C95.2601 53.9531 95.2618 53.9684 95.26 53.9835C95.2583 53.9986 95.253 54.013 95.2448 54.0258C95.2365 54.0385 95.2254 54.0492 95.2123 54.0569C95.1992 54.0647 95.1845 54.0693 95.1694 54.0704C94.8018 54.0974 94.3343 54.0651 94.0632 54.0656C92.7985 54.0656 91.5339 54.072 90.2693 54.0848C90.2268 54.0854 90.155 54.0585 90.1089 54.0555Z" fill="black"/>
<path d="M122.906 54.0269C122.973 51.702 127.865 51.5751 128.066 54.0245C128.066 54.0291 128.065 54.0337 128.064 54.038C128.062 54.0424 128.06 54.0463 128.057 54.0497C128.054 54.0531 128.05 54.0558 128.046 54.0576C128.041 54.0595 128.037 54.0604 128.032 54.0604L122.954 54.0766C122.948 54.0767 122.941 54.0754 122.935 54.073C122.93 54.0705 122.924 54.0668 122.92 54.0622C122.915 54.0575 122.912 54.052 122.909 54.0459C122.907 54.0399 122.906 54.0334 122.906 54.0269Z" fill="black"/>
<path d="M80.001 57.7517C81.5369 57.7625 82.7905 56.5601 82.8009 55.0662C82.8113 53.5723 81.5747 52.3525 80.0388 52.3418C78.5029 52.3311 77.2494 53.5334 77.2389 55.0274C77.2285 56.5213 78.4651 57.741 80.001 57.7517Z" fill="black"/>
<path d="M145.463 57.746C146.996 57.7193 148.217 56.4875 148.191 54.9947C148.165 53.502 146.902 52.3136 145.369 52.3404C143.836 52.3671 142.615 53.5989 142.641 55.0916C142.667 56.5844 143.931 57.7728 145.463 57.746Z" fill="black"/>
<path d="M157.55 57.75C159.084 57.7634 160.338 56.5632 160.351 55.0693C160.364 53.5754 159.132 52.3535 157.598 52.3401C156.064 52.3267 154.81 53.5269 154.797 55.0208C154.784 56.5147 156.017 57.7366 157.55 57.75Z" fill="black"/>
<path d="M50.2333 55.1883C50.6069 53.6481 53.2215 54.3167 52.9587 55.8371C52.8564 56.4279 52.411 56.9445 51.7705 56.9697C50.5829 57.0152 49.9436 56.3831 50.2333 55.1883Z" fill="black"/>
<path d="M58.1891 55.245L57.9139 55.1437C57.2819 54.9112 56.581 55.235 56.3485 55.867L56.2526 56.1277C56.0201 56.7597 56.3439 57.4605 56.9759 57.693L57.2512 57.7943C57.8832 58.0268 58.584 57.703 58.8165 57.071L58.9124 56.8103C59.145 56.1783 58.8211 55.4775 58.1891 55.245Z" fill="black"/>
</g>
<defs>
<clipPath id="clip0_1214_8908">
<rect width="126.542" height="34" fill="white" transform="translate(36.7305 35)"/>
</clipPath>
</defs>
</svg>
