<svg width="200" height="104" viewBox="0 0 200 104" fill="none" xmlns="http://www.w3.org/2000/svg">
<g clip-path="url(#clip0_1214_8951)">
<path d="M49.312 43.8857L41.656 48.7715L49.312 53.6572L41.656 58.5429L34 53.6308L41.656 48.745L34 43.8857L41.656 39L49.312 43.8857ZM41.6164 60.1143L49.2724 55.2285L56.9284 60.1143L49.2724 65L41.6164 60.1143ZM49.312 53.6308L56.968 48.745L49.312 43.8857L56.9284 39L64.5844 43.8857L56.9284 48.7715L64.5844 53.6572L56.9284 58.5429L49.312 53.6308Z" fill="#0061FF"/>
<path d="M70.5898 43.8857H76.7806C80.7274 43.8857 83.9878 46.1701 83.9878 51.386V52.482C83.9878 57.7374 80.9386 60.1011 76.8994 60.1011H70.5898V43.8857ZM74.0482 46.8304V57.1432H76.7014C78.9454 57.1432 80.4502 55.6775 80.4502 52.416V51.5576C80.4502 48.2961 78.8662 46.8304 76.5826 46.8304H74.0482ZM85.8226 46.9888H88.5946L89.0434 50.0391C89.5714 47.966 90.9178 46.8568 93.3598 46.8568H94.2178V50.356H92.7922C89.9806 50.356 89.2942 51.3332 89.2942 54.1061V60.1407H85.8754V46.9888H85.8226ZM94.9042 53.8289V53.4591C94.9042 49.062 97.7158 46.6587 101.544 46.6587C105.451 46.6587 108.183 49.062 108.183 53.4591V53.8289C108.183 58.1468 105.53 60.4708 101.544 60.4708C97.3066 60.4312 94.9042 58.16 94.9042 53.8289ZM104.685 53.7892V53.4591C104.685 51.0163 103.458 49.5505 101.504 49.5505C99.5902 49.5505 98.323 50.8974 98.323 53.4591V53.7892C98.323 56.1529 99.5506 57.4998 101.504 57.4998C103.458 57.4601 104.685 56.1529 104.685 53.7892ZM109.979 46.9888H112.83L113.16 49.4713C113.846 47.8075 115.311 46.6587 117.476 46.6587C120.816 46.6587 123.02 49.062 123.02 53.5119V53.8817C123.02 58.1996 120.578 60.484 117.476 60.484C115.404 60.484 113.978 59.5465 113.279 58.0411V64.6831H109.939L109.979 46.9888ZM119.549 53.7892V53.4987C119.549 50.8842 118.202 49.5902 116.407 49.5902C114.493 49.5902 113.226 51.0559 113.226 53.4987V53.7496C113.226 56.0736 114.453 57.5394 116.367 57.5394C118.334 57.4998 119.549 56.2453 119.549 53.7892ZM128.076 57.711L127.785 60.1143H124.855V42.5917H128.195V49.3129C128.934 47.5962 130.399 46.6587 132.471 46.6587C135.613 46.6983 137.936 48.8639 137.936 53.2214V53.6308C137.936 57.9883 135.732 60.484 132.392 60.484C130.188 60.4312 128.762 59.4144 128.076 57.711ZM134.425 53.6308V53.3007C134.425 50.8974 133.118 49.5505 131.283 49.5505C129.409 49.5505 128.102 51.0559 128.102 53.3403V53.6308C128.102 56.0736 129.369 57.4998 131.244 57.4998C133.25 57.4998 134.425 56.2453 134.425 53.6308ZM139.401 53.8289V53.4591C139.401 49.062 142.213 46.6587 146.041 46.6587C149.948 46.6587 152.681 49.062 152.681 53.4591V53.8289C152.681 58.1468 149.988 60.4708 146.041 60.4708C141.804 60.4312 139.401 58.16 139.401 53.8289ZM149.209 53.7892V53.4591C149.209 51.0163 147.981 49.5505 146.028 49.5505C144.114 49.5505 142.847 50.8974 142.847 53.4591V53.7892C142.847 56.1529 144.074 57.4998 146.028 57.4998C147.995 57.4601 149.209 56.1529 149.209 53.7892ZM157.155 53.3007L152.549 46.9888H156.495L159.149 50.937L161.841 46.9888H165.749L161.076 53.2611L165.999 60.1143H162.132L159.122 55.7567L156.192 60.1143H152.153L157.155 53.3007Z" fill="white"/>
</g>
<defs>
<clipPath id="clip0_1214_8951">
<rect width="132" height="26" fill="white" transform="translate(34 39)"/>
</clipPath>
</defs>
</svg>
