<svg width="200" height="104" viewBox="0 0 200 104" fill="none" xmlns="http://www.w3.org/2000/svg">
<g clip-path="url(#clip0_1214_9036)">
<path d="M106.338 47.8054C106.338 45.0407 106.386 42.4667 106.529 40.0834L99.2359 41.4657V42.133L99.9509 42.2284C100.475 42.276 100.809 42.4667 101 42.7527C101.19 43.0864 101.333 43.563 101.429 44.278C101.524 45.6604 101.619 48.8064 101.572 53.7637C101.572 58.6734 101.524 61.7717 101.429 62.9634C104.05 63.5354 106.1 63.7737 107.625 63.7737C110.485 63.7737 112.726 62.9634 114.346 61.295C115.967 59.6744 116.825 57.3864 116.825 54.574C116.825 52.3337 116.205 50.4747 114.966 48.997C113.727 47.5194 112.154 46.8044 110.295 46.8044C109.055 46.8044 107.768 47.138 106.338 47.8054ZM106.481 62.4867C106.386 60.9614 106.291 56.3854 106.291 48.9017C106.72 48.7587 107.292 48.6634 108.007 48.6634C109.151 48.6634 110.056 49.2354 110.724 50.427C111.391 51.6187 111.725 53.0487 111.725 54.86C111.725 57.1004 111.343 58.9117 110.581 60.437C109.818 61.9147 108.865 62.6774 107.673 62.6774C107.292 62.582 106.91 62.5344 106.481 62.4867ZM71.8753 40.56H52.8086V41.5134L53.8096 41.6087C54.5723 41.7517 55.0966 42.0377 55.4303 42.4667C55.7639 42.9434 55.9546 43.706 56.0023 44.7547C56.3836 49.9027 56.3836 54.717 56.0023 59.15C55.9069 60.1987 55.7163 60.9614 55.4303 61.438C55.0966 61.9147 54.5723 62.2007 53.8096 62.296L52.8086 62.439V63.3924H65.1066V62.439L63.8196 62.3437C63.5055 62.3174 63.2001 62.2279 62.9215 62.0804C62.643 61.933 62.3972 61.7307 62.1989 61.4857C61.8653 61.009 61.6746 60.2464 61.6269 59.1977C61.4839 57.291 61.3886 55.0984 61.3886 52.6674L63.9626 52.715C65.3449 52.7627 66.2983 53.8114 66.7749 55.9087H67.7283V48.139H66.7749C66.2983 50.1887 65.3926 51.2374 63.9626 51.285L61.3886 51.3327C61.3886 47.0427 61.4839 43.992 61.6269 42.133H65.3926C68.0619 42.133 69.8733 43.849 70.9219 47.281L72.0659 46.9474L71.8753 40.56ZM69.6349 55.2414C69.6349 57.72 70.3499 59.7697 71.7323 61.3904C73.1146 63.011 75.1643 63.7737 77.7383 63.7737C80.3123 63.7737 82.4096 62.9634 83.9349 61.295C85.4603 59.6744 86.1753 57.6247 86.1753 55.146C86.1753 52.6674 85.4603 50.6177 84.0779 48.997C82.6956 47.3764 80.6459 46.6137 78.0719 46.6137C75.4979 46.6137 73.4006 47.424 71.8753 49.0924C70.3499 50.713 69.6349 52.7627 69.6349 55.2414ZM80.2646 49.8074C80.8366 51.1897 81.0749 53.001 81.0749 55.1937C81.0749 60.2464 80.0263 62.725 77.9766 62.725C76.9279 62.725 76.1176 62.01 75.5456 60.58C74.9736 59.15 74.7353 57.3387 74.7353 55.1937C74.7353 50.1887 75.7839 47.71 77.8336 47.71C78.8823 47.6624 79.6926 48.3774 80.2646 49.8074ZM120.543 61.3904C122.116 62.9634 124.118 63.7737 126.501 63.7737C127.979 63.7737 129.266 63.4877 130.41 62.868C131.554 62.296 132.46 61.581 133.079 60.723L132.603 60.151C131.554 60.9614 130.362 61.3427 128.98 61.3427C127.073 61.3427 125.596 60.723 124.595 59.436C123.546 58.149 123.069 56.5284 123.165 54.431H133.365C133.365 52.143 132.793 50.284 131.602 48.8064C130.41 47.3764 128.742 46.6614 126.597 46.6614C123.927 46.6614 121.878 47.5194 120.4 49.1877C118.922 50.856 118.207 52.9057 118.207 55.3367C118.207 57.8154 118.97 59.8174 120.543 61.3904ZM124.07 49.426C124.595 48.282 125.262 47.71 126.168 47.71C127.598 47.71 128.313 49.5214 128.313 53.1917L123.26 53.287C123.308 51.857 123.546 50.57 124.07 49.426ZM146.188 47.5194C144.901 46.9474 143.28 46.6137 141.326 46.6137C139.324 46.6137 137.751 47.138 136.559 48.139C135.367 49.14 134.748 50.3794 134.748 51.857C134.748 53.144 135.129 54.145 135.844 54.86C136.559 55.575 137.703 56.1947 139.181 56.719C140.515 57.1957 141.469 57.6724 141.945 58.1014C142.422 58.578 142.708 59.1024 142.708 59.8174C142.708 60.4847 142.47 61.1044 141.945 61.581C141.469 62.1054 140.801 62.3437 139.943 62.3437C137.846 62.3437 136.273 60.8184 135.177 57.7677L134.366 58.006L134.557 62.7727C136.273 63.44 138.18 63.7737 140.277 63.7737C142.47 63.7737 144.138 63.297 145.377 62.296C146.617 61.3427 147.236 59.9604 147.236 58.2444C147.236 57.1004 146.95 56.147 146.331 55.432C145.711 54.717 144.71 54.0974 143.28 53.5254C141.707 52.9534 140.611 52.429 140.039 51.9524C139.467 51.4757 139.181 50.9037 139.181 50.1887C139.181 49.4737 139.371 48.9017 139.8 48.425C140.229 47.9484 140.754 47.7577 141.421 47.7577C143.328 47.7577 144.71 49.14 145.568 51.857L146.378 51.6187L146.188 47.5194ZM100.332 47.0904C99.6649 46.7567 98.9499 46.6137 98.1396 46.6137C97.3293 46.6137 96.5189 46.9474 95.6133 47.6147C94.7076 48.282 94.0403 49.1877 93.5159 50.427L93.5636 46.6137L86.3183 48.0437V48.711L87.0333 48.7587C87.9389 48.854 88.4633 49.569 88.5586 50.856C88.8446 53.8114 88.8446 56.9574 88.5586 60.294C88.4633 61.581 87.9389 62.2484 87.0333 62.3914L86.3183 62.4867V63.3924H96.4236V62.4867L95.1366 62.3914C94.2309 62.296 93.7066 61.581 93.6113 60.294C93.3253 57.5294 93.2776 54.574 93.5159 51.5234C93.8019 51.0467 94.4216 50.7607 95.3749 50.6654C96.3283 50.57 97.4246 50.856 98.5686 51.5234L100.332 47.0904Z" fill="white"/>
</g>
<defs>
<clipPath id="clip0_1214_9036">
<rect width="95.3333" height="25.74" fill="white" transform="translate(52.332 39.13)"/>
</clipPath>
</defs>
</svg>
