<svg width="200" height="104" viewBox="0 0 200 104" fill="none" xmlns="http://www.w3.org/2000/svg">
<g clip-path="url(#clip0_1214_9019)">
<path d="M45.2857 50.8495H49.5616V57.0199C49.5616 60.1352 48.0067 61.9159 45.0065 61.9159C42.0063 61.9159 40.4531 60.1352 40.4531 57.0199V46.8952C40.4531 43.7798 42.008 41.9991 45.0065 41.9991C48.005 41.9991 49.5616 43.7798 49.5616 46.8952V48.7856H46.6727V46.7004C46.6727 45.3092 46.0614 44.7817 45.0825 44.7817C44.1036 44.7817 43.4922 45.3127 43.4922 46.7004V57.2217C43.4922 58.613 44.1018 59.1139 45.0825 59.1139C46.0631 59.1139 46.6727 58.613 46.6727 57.2217V53.6267H45.2857V50.8495Z" fill="white"/>
<path d="M53.9762 55.2428L50.1172 42.2257H53.31L55.6424 51.0991L57.9747 42.2257H60.8902L57.0312 55.2428V61.6965H53.9762V55.2428Z" fill="white"/>
<path d="M68.5752 56.0499L70.6583 42.2257H74.9061V61.6965H72.0189V47.7324L69.9091 61.6965H67.0203L64.7445 47.9271V61.6965H62.0781V42.2257H66.3276L68.5752 56.0499Z" fill="white"/>
<path d="M81.2387 41.9991C84.2107 41.9991 85.7373 43.7798 85.7373 46.8952V47.5058H82.8554V46.7004C82.8554 45.3092 82.3007 44.7799 81.3288 44.7799C80.357 44.7799 79.8023 45.3109 79.8023 46.7004C79.8023 50.7061 85.7727 51.4566 85.7727 57.0199C85.7727 60.1352 84.2178 61.9159 81.2176 61.9159C78.2173 61.9159 76.6641 60.1352 76.6641 57.0199V55.8234H79.5512V57.2217C79.5512 58.613 80.1625 59.1139 81.1415 59.1139C82.1204 59.1139 82.7317 58.613 82.7317 57.2217C82.7317 53.2161 76.7613 52.4656 76.7613 46.9022C76.7402 43.7798 78.2614 41.9991 81.2387 41.9991Z" fill="#0086EC"/>
<path d="M90.5706 61.6965H87.5156V42.2257H90.5706V50.5698H94.0426V42.2257H97.1523V61.6965H94.0426V53.3523H90.5706V61.6965Z" fill="#0086EC"/>
<path fill-rule="evenodd" clip-rule="evenodd" d="M106.176 61.6965H109.253L106.143 42.2257H101.672L98.5625 61.6965H101.363L101.893 58.1563H105.646L106.176 61.6965ZM105.231 55.5207H102.289L103.759 45.6738L105.231 55.5207Z" fill="#0086EC"/>
<path fill-rule="evenodd" clip-rule="evenodd" d="M117.052 61.6757L117.059 61.6965L120.169 61.7C119.863 60.9778 119.835 60.2822 119.835 59.3369V56.3278C119.835 54.2976 119.335 52.8231 117.808 52.1841C119.169 51.5433 119.809 50.237 119.809 48.2333V46.704C119.809 43.6984 118.448 42.2257 115.282 42.2257H110.672V61.6947H113.722V53.7665H114.782C116.171 53.7665 116.782 54.4374 116.782 56.2446V59.3051C116.782 60.8691 116.888 61.1868 117.052 61.6757ZM113.727 50.9875V45.0118L115.199 45.0065C116.282 45.0065 116.754 45.6189 116.754 47.0102V48.9289C116.754 50.4866 116.059 50.9875 114.921 50.9875H113.727Z" fill="#0086EC"/>
<path d="M125.835 53.9365L124.889 55.7154V61.6965H121.836V42.2257H124.889V50.7097L128.888 42.2257H131.943L127.695 50.9044L131.943 61.6965H128.805L125.835 53.9365Z" fill="#0086EC"/>
<path d="M159.512 42.2179H134.062L152.444 45.3314L144.963 56.8085H144.327L143.284 57.8423L142.187 56.8085H141.895L140.839 57.86L139.787 56.8085H139.432L138.381 57.8617L137.296 56.8085H134.062L138.333 58.4724L139.482 57.9255L140.127 59.1769L140.45 59.3008L141.768 58.6494L142.459 60.1044L142.731 60.1965L141.765 61.7028L159.512 42.2179Z" fill="#0086EC"/>
<path d="M137.078 46.6359L144.561 48.4129L141.344 48.7669L137.078 46.6359Z" fill="#0086EC"/>
</g>
<defs>
<clipPath id="clip0_1214_9019">
<rect width="119.091" height="20.0018" fill="white" transform="translate(40.4531 41.9991)"/>
</clipPath>
</defs>
</svg>
