<svg width="200" height="104" viewBox="0 0 200 104" fill="none" xmlns="http://www.w3.org/2000/svg">
<g clip-path="url(#clip0_1214_9002)">
<path d="M156.144 43.442H156.01C154.097 43.442 147.819 44.0485 147.785 51.9326C147.785 60.1536 154.667 60.5579 156.044 60.5579H156.111C156.984 60.5579 159.971 60.3895 162.12 58.2668C163.631 56.7843 164.369 54.628 164.369 51.9326C164.336 44.0485 158.058 43.442 156.144 43.442ZM158.595 57.2223C158.125 57.6267 157.353 58.0984 156.178 58.0984H155.943C154.768 58.0984 153.996 57.6267 153.526 57.2223C152.351 56.1779 151.747 54.2911 151.747 51.6294C151.78 46.407 154.365 45.632 155.909 45.632H156.144C157.689 45.632 160.274 46.407 160.307 51.6294C160.374 54.2911 159.77 56.1779 158.595 57.2223ZM56.9444 63.1186C55.4338 62.5458 53.2181 60.8948 51.9089 59.345C50.2975 57.4919 46.4034 52.3032 46.3698 52.2695L44.5906 49.911C42.8785 47.5525 40.9314 44.9245 38.9844 43.3409V60.5242H41.3343V51.6294L41.3679 51.6967C42.0057 52.5054 42.6771 53.3814 43.3485 54.2574C44.4563 55.6725 45.5641 57.155 46.5041 58.2331C47.1419 58.9744 48.8204 60.7601 49.2904 61.1644C51.4389 63.2196 54.9302 64.5337 58.388 64.5337C59.8986 64.5337 61.3421 64.2978 62.6849 63.8598V63.7587C62.1478 63.8598 61.5435 63.9272 60.9393 63.9272C59.63 63.8598 58.2537 63.624 56.9444 63.1186Z" fill="white"/>
<path d="M42.1418 44.6887C43.7531 46.5081 47.7815 51.6968 47.8487 51.7642L49.6279 54.1226C51.34 56.4811 53.2871 59.1092 55.2006 60.6927V43.442H52.8842V52.3706L52.8171 52.3032C52.1792 51.4946 51.5078 50.6186 50.8364 49.7426C49.7286 48.3275 48.6208 46.845 47.6808 45.7668C47.043 45.0256 45.2302 43.2399 44.7602 42.8356C42.6117 40.7803 39.1204 39.5 35.6627 39.5C34.152 39.5 32.8428 39.7358 31.5 40.2075V40.3086C32.0371 40.1739 32.6414 40.1402 33.2792 40.1402C34.5885 40.1402 35.8641 40.4097 37.1398 40.9151C38.6505 41.4542 40.8661 43.1051 42.1418 44.6887ZM132.916 52.2022C131.002 50.5512 128.887 50.1469 127.276 49.035C126.168 48.1253 126.202 46.9124 126.806 46.3059C128.182 44.7898 130.935 45.3962 131.64 45.5647C132.479 45.7668 132.916 46.0027 133.688 46.3733V44.4528C130.331 43.442 124.959 42.4987 122.878 45.9353C122.106 47.3504 121.905 49.9111 124.154 51.4272C126.403 53.2129 130.297 54.0553 130.734 55.5377C131.036 56.3464 130.7 57.1213 130.163 57.6604C128.182 59.5472 124.758 58.4016 122.71 57.4582V59.5135C124.959 60.5243 127.779 60.7938 130.297 60.2547C132.009 59.8167 133.956 58.3005 134.225 56.3801C134.527 54.4596 134.158 53.2466 132.916 52.2022ZM145.337 52.2022C143.423 50.5512 141.308 50.1469 139.697 49.035C138.589 48.1253 138.623 46.9124 139.227 46.3059C140.603 44.7898 143.356 45.3962 144.061 45.5647C144.9 45.7668 145.337 46.0027 146.109 46.3733V44.4528C142.752 43.442 137.38 42.4987 135.299 45.9353C134.527 47.3504 134.326 49.9111 136.575 51.4272C138.824 53.2129 142.718 54.0553 143.154 55.5377C143.457 56.3464 143.121 57.1213 142.584 57.6604C140.57 59.5472 137.179 58.4016 135.131 57.4582V59.5135C137.38 60.5243 140.2 60.7938 142.718 60.2547C144.43 59.8167 146.377 58.3005 146.679 56.3801C146.914 54.4596 146.545 53.2466 145.337 52.2022ZM110.659 60.0863H121.435V58.1321H114.385V52.7412H120.025V50.8544H114.385V45.8679H121.435V43.9137H110.659V60.0863ZM79.7068 52.2022C77.7933 50.5512 75.6784 50.1469 74.067 49.035C72.9592 48.1253 72.9928 46.9124 73.597 46.3059C74.9734 44.7898 77.7262 45.3962 78.4311 45.5647C79.2704 45.7668 79.7068 46.0027 80.4789 46.3733V44.4528C77.1219 43.442 71.7507 42.4987 69.6693 45.9353C68.8972 47.3504 68.6958 49.9111 70.945 51.4272C73.1942 53.2129 77.0883 54.0553 77.5248 55.5377C77.8269 56.3464 77.4912 57.1213 76.9541 57.6604C74.9734 59.5472 71.5493 58.4016 69.5015 57.4582V59.5135C71.7507 60.5243 74.5706 60.7938 77.0883 60.2547C78.8004 59.8167 80.7475 58.3005 81.0496 56.3801C81.2846 54.4596 80.9153 53.2466 79.7068 52.2022ZM57.4833 60.0863H68.2929V58.1321H61.2096V52.7412H66.8494V50.8544H61.2096V45.8679H68.2929V43.9137H57.4833V60.0863ZM89.7779 43.7453H82.6946V60.2884H86.4544V59.2776L86.3873 54.2237C86.3873 54.2237 92.0271 54.5943 93.7392 52.3032C94.9813 50.8544 95.082 48.597 94.5448 46.7776C93.8399 44.7224 91.8592 43.779 89.7779 43.7453ZM90.5836 51.1914C89.5765 52.3032 87.8644 52.1348 86.3873 52.0337V45.8679C86.3873 45.8679 89.4086 45.1941 90.6843 46.8787C91.3892 47.7884 91.4228 50.0458 90.5836 51.1914ZM107.033 52.2695C108.241 50.8544 108.342 48.6307 107.839 46.845C107.167 44.8571 105.22 43.9137 103.172 43.8801H96.2234V60.0863H99.9161L99.8825 54.1226C99.8825 54.1226 100.554 54.19 101.662 54.1226L105.22 60.1199H109.282L105.187 53.4488C105.858 53.1792 106.63 52.8086 107.033 52.2695ZM104.045 51.1914C103.038 52.2695 101.36 52.1348 99.9496 52.0337V45.969C99.9496 45.969 102.904 45.2951 104.146 46.9461C104.851 47.8558 104.884 50.0795 104.045 51.1914ZM166.452 56.4811C165.277 56.4811 164.337 57.3908 164.337 58.5364C164.337 59.6819 165.277 60.5916 166.452 60.5916C167.56 60.5916 168.5 59.7156 168.5 58.5364C168.5 57.3908 167.56 56.4811 166.452 56.4811ZM166.452 60.3558C165.412 60.3558 164.539 59.5809 164.539 58.5364C164.539 57.5256 165.378 56.717 166.452 56.717C167.459 56.717 168.299 57.5593 168.299 58.5364C168.299 59.5809 167.459 60.3558 166.452 60.3558Z" fill="white"/>
<path d="M167.024 58.5364C167.091 58.469 167.393 58.3679 167.393 57.9636C167.393 57.5593 167.125 57.3234 166.655 57.3234H165.547V59.6145H165.916V58.7048H166.554C166.923 58.7048 167.024 58.8733 167.024 59.2776C167.024 59.4461 167.024 59.5471 167.091 59.6482H167.528C167.427 59.5471 167.427 59.2776 167.427 59.0081C167.393 58.6374 167.192 58.5364 167.024 58.5364ZM166.621 58.3679H165.95V57.6267H166.621C166.823 57.6267 167.058 57.6604 167.058 57.9973C167.024 58.2331 166.89 58.3679 166.621 58.3679Z" fill="white"/>
</g>
<defs>
<clipPath id="clip0_1214_9002">
<rect width="137" height="25" fill="white" transform="translate(31.5 39.5)"/>
</clipPath>
</defs>
</svg>
