<svg width="200" height="104" viewBox="0 0 200 104" fill="none" xmlns="http://www.w3.org/2000/svg">
<g clip-path="url(#clip0_1214_8904)">
<path d="M139.812 57.0401C137.075 57.0401 135.146 54.9246 135.146 52.1423C135.146 49.3601 137.075 47.2446 139.812 47.2446C142.549 47.2446 144.424 49.3601 144.424 52.1423C144.424 54.9246 142.522 57.0401 139.812 57.0401ZM139.372 59.9557C141.58 59.9557 143.455 59.1023 144.64 57.3157C144.864 59.049 146.129 59.6801 147.726 59.6801H149.001V56.9334H148.453C147.547 56.9334 147.323 56.4979 147.323 55.4757V44.6134H144.397V46.8446C143.401 45.2801 141.526 44.3379 139.372 44.3379C135.531 44.3379 132.005 47.529 132.005 52.1423C132.005 56.7557 135.54 59.9468 139.372 59.9468V59.9557ZM124.305 56.1868C124.305 58.6579 125.849 59.6801 127.697 59.6801H131.26V56.9334H128.667C127.59 56.9334 127.365 56.5246 127.365 55.4757V47.3601H131.26V44.6134H127.365V39.5557H124.305V56.1868ZM110.37 59.6801H113.43V53.2179H114.453L119.666 59.6801H123.534L116.884 51.4846L121.99 44.6134H118.544L114.372 50.4179H113.43V39.5557H110.37V59.6801ZM100.436 44.3379C96.1555 44.3379 92.6289 47.529 92.6289 52.1423C92.6289 56.7557 96.1645 59.9468 100.436 59.9468C104.707 59.9468 108.243 56.7557 108.243 52.1423C108.243 47.529 104.707 44.3379 100.436 44.3379ZM100.436 57.0401C97.699 57.0401 95.7696 54.9246 95.7696 52.1423C95.7696 49.3601 97.699 47.2446 100.436 47.2446C103.173 47.2446 105.102 49.3601 105.102 52.1423C105.102 54.9246 103.173 57.0401 100.436 57.0401Z" fill="white"/>
<path fill-rule="evenodd" clip-rule="evenodd" d="M68.7689 36.231L68.1049 44.3377C67.7908 44.3021 67.4767 44.2843 67.1537 44.2843C66.7499 44.2843 66.3551 44.311 65.9692 44.3732L65.5923 40.4443C65.5833 40.3199 65.682 40.2132 65.8077 40.2132H66.4807L66.1576 36.2399C66.1487 36.1155 66.2474 36.0088 66.364 36.0088H68.5625C68.6882 36.0088 68.7869 36.1155 68.7689 36.2399V36.231ZM63.2233 36.631C63.1874 36.5155 63.0618 36.4443 62.9451 36.4888L60.8812 37.2355C60.7645 37.2799 60.7107 37.4132 60.7645 37.5199L62.4426 41.1466L61.8055 41.3777C61.6888 41.4221 61.635 41.5555 61.6888 41.6621L63.4028 45.2266C64.0219 44.8888 64.6949 44.631 65.4039 44.471L63.2323 36.631H63.2233ZM58.1622 38.8888L62.9092 45.5199C62.308 45.911 61.7606 46.3732 61.294 46.9066L58.4494 44.1332C58.3596 44.0443 58.3686 43.9021 58.4583 43.8221L58.9788 43.3955L56.1521 40.5599C56.0624 40.471 56.0714 40.3288 56.1701 40.2488L57.8481 38.8532C57.9468 38.7732 58.0814 38.791 58.1532 38.8888H58.1622ZM54.178 42.7288C54.0793 42.6577 53.9357 42.6932 53.8729 42.7999L52.7781 44.6843C52.7153 44.791 52.7601 44.9243 52.8678 44.9777L56.5111 46.6843L56.1701 47.2621C56.1073 47.3688 56.1521 47.511 56.2688 47.5555L59.8941 49.1999C60.1543 48.5332 60.5043 47.911 60.935 47.351L54.178 42.7288ZM51.4949 47.8488C51.5128 47.7243 51.6384 47.6532 51.7551 47.6799L59.6967 49.7332C59.4903 50.3999 59.3736 51.1021 59.3557 51.831L55.3804 51.511C55.2548 51.5021 55.165 51.3866 55.192 51.2621L55.3086 50.6043L51.2975 50.231C51.1718 50.2221 51.0911 50.1066 51.109 49.9821L51.4859 47.8399L51.4949 47.8488ZM51.1987 53.1643C51.0731 53.1732 50.9924 53.2888 51.0103 53.4132L51.3962 55.5555C51.4141 55.6799 51.5397 55.751 51.6564 55.7243L55.5509 54.7199L55.6676 55.3777C55.6855 55.5021 55.8111 55.5732 55.9278 55.5466L59.7685 54.4977C59.5441 53.8399 59.4006 53.1377 59.3647 52.4177L51.1898 53.1643H51.1987ZM52.473 58.7999C52.4102 58.6932 52.455 58.5599 52.5627 58.5066L59.9749 55.0221C60.253 55.6799 60.6299 56.2932 61.0786 56.8443L57.8302 59.1377C57.7315 59.2088 57.5879 59.1821 57.5251 59.0755L57.1841 58.4888L53.8729 60.7555C53.7742 60.8266 53.6306 60.791 53.5678 60.6843L52.464 58.7999H52.473ZM61.4555 57.271L55.6855 63.0577C55.5958 63.1466 55.6048 63.2888 55.7035 63.3688L57.3905 64.7643C57.4892 64.8443 57.6238 64.8266 57.6956 64.7288L60.0287 61.4755L60.5492 61.911C60.6479 61.991 60.7915 61.9732 60.8632 61.8666L63.1246 58.6132C62.5144 58.2399 61.949 57.7866 61.4645 57.271H61.4555ZM60.3159 66.5599C60.1992 66.5155 60.1454 66.3821 60.1992 66.2755L63.6181 58.8799C64.2463 59.1999 64.9283 59.4399 65.6372 59.5732L64.6321 63.3955C64.6052 63.511 64.4706 63.5821 64.354 63.5377L63.7168 63.3066L62.649 67.1555C62.6131 67.271 62.4875 67.3421 62.3708 67.2977L60.3069 66.551L60.3159 66.5599ZM66.2025 59.671L65.5385 67.7777C65.5295 67.9021 65.6282 68.0088 65.7449 68.0088H67.9434C68.069 68.0088 68.1677 67.9021 68.1498 67.7777L67.8267 63.8043H68.4997C68.6254 63.8043 68.7241 63.6977 68.7151 63.5732L68.3382 59.6443C67.9523 59.7066 67.5575 59.7332 67.1537 59.7332C66.8306 59.7332 66.5166 59.7155 66.2025 59.671ZM74.1172 37.7243C74.171 37.6088 74.1172 37.4843 74.0005 37.4399L71.9366 36.6932C71.8199 36.6488 71.6943 36.7199 71.6584 36.8355L70.5906 40.6843L69.9534 40.4532C69.8368 40.4088 69.7112 40.4799 69.6753 40.5955L68.6702 44.4177C69.3881 44.5599 70.0611 44.7999 70.6893 45.111L74.1172 37.7243ZM78.6219 40.951L72.8519 46.7377C72.3673 46.2221 71.811 45.7688 71.1918 45.3955L73.4531 42.1421C73.5249 42.0443 73.6685 42.0177 73.7672 42.0977L74.2877 42.5332L76.6208 39.2799C76.6926 39.1821 76.8361 39.1643 76.9259 39.2443L78.6129 40.6399C78.7116 40.7199 78.7116 40.8621 78.6309 40.951H78.6219ZM81.7447 45.5021C81.8613 45.4488 81.8972 45.3155 81.8344 45.2088L80.7307 43.3243C80.6678 43.2177 80.5243 43.191 80.4256 43.2532L77.1143 45.5199L76.7733 44.9421C76.7105 44.8355 76.5669 44.7999 76.4682 44.8799L73.2198 47.1732C73.6685 47.7243 74.0364 48.3377 74.3236 48.9955L81.7357 45.511L81.7447 45.5021ZM82.9112 48.4532L83.2881 50.5955C83.3061 50.7199 83.2253 50.8266 83.0997 50.8443L74.9248 51.5999C74.8889 50.871 74.7453 50.1777 74.521 49.5199L78.3616 48.471C78.4783 48.4355 78.6039 48.5155 78.6219 48.6399L78.7385 49.2977L82.633 48.2932C82.7497 48.2666 82.8753 48.3377 82.8933 48.4621L82.9112 48.4532ZM82.5433 56.3199C82.66 56.3466 82.7856 56.2755 82.8035 56.151L83.1804 54.0088C83.1984 53.8843 83.1176 53.7777 82.992 53.7599L78.9808 53.3866L79.0975 52.7288C79.1154 52.6043 79.0347 52.4977 78.909 52.4799L74.9338 52.1599C74.9158 52.8888 74.7992 53.591 74.5928 54.2577L82.5343 56.311L82.5433 56.3199ZM80.4256 61.2088C80.3627 61.3155 80.2192 61.3421 80.1205 61.2799L73.3634 56.6577C73.7941 56.0977 74.1441 55.4755 74.4043 54.8088L78.0296 56.4532C78.1463 56.5066 78.1911 56.6399 78.1283 56.7466L77.7873 57.3243L81.4306 59.031C81.5383 59.0843 81.5831 59.2177 81.5203 59.3243L80.4256 61.2088ZM71.3892 58.4799L76.1362 65.111C76.208 65.2088 76.3516 65.2266 76.4413 65.1466L78.1194 63.751C78.2181 63.671 78.2181 63.5288 78.1373 63.4399L75.3106 60.6043L75.8311 60.1777C75.9298 60.0977 75.9298 59.9555 75.8401 59.8666L72.9955 57.0932C72.5199 57.6266 71.9815 58.0977 71.3802 58.4799H71.3892ZM71.3443 67.511C71.2277 67.5555 71.1021 67.4843 71.0662 67.3688L68.8946 59.5288C69.6035 59.3688 70.2765 59.111 70.8957 58.7732L72.6096 62.3377C72.6634 62.4532 72.6096 62.5866 72.493 62.6221L71.8558 62.8532L73.5339 66.4799C73.5877 66.5955 73.5339 66.7199 73.4172 66.7643L71.3533 67.511H71.3443Z" fill="white"/>
</g>
<defs>
<clipPath id="clip0_1214_8904">
<rect width="98" height="32" fill="white" transform="translate(51 36)"/>
</clipPath>
</defs>
</svg>
