<svg width="200" height="104" viewBox="0 0 200 104" fill="none" xmlns="http://www.w3.org/2000/svg">
<mask id="mask0_1214_8995" style="mask-type:luminance" maskUnits="userSpaceOnUse" x="47" y="38" width="106" height="28">
<path d="M152.115 38.1029H47.8867V65.897H152.115V38.1029Z" fill="white"/>
</mask>
<g mask="url(#mask0_1214_8995)">
<path d="M55.0965 47.4794C52.6193 47.4794 51.3992 49.6658 51.3992 52.5935V59.9311H47.8867V44.4776H51.3252V48.48H51.3992C52.1387 45.997 53.5807 44.0329 55.836 44.0329C57.4258 44.0329 58.0914 44.5888 58.0914 44.5888L56.5016 47.7758C56.5016 47.7758 56.0209 47.4794 55.0965 47.4794ZM97.3571 49.6288V59.9682H93.9556V50.8888C93.9556 48.2947 93.1422 46.9235 91.0716 46.9235C88.9271 46.9235 87.8919 48.6653 87.8919 52.0005V59.9682H84.4904V50.8888C84.4904 48.4058 83.6769 46.9235 81.6435 46.9235C79.2771 46.9235 78.3897 48.9988 78.3897 52.0005V59.9682H74.9512V44.4776H78.3897V47.9982H78.4268C78.9444 45.5894 80.4233 44.07 82.9006 44.07C85.3407 44.07 86.9306 45.4041 87.5591 47.7388C88.1507 45.4782 89.6666 44.07 92.0329 44.07C95.2496 44.07 97.3571 46.1082 97.3571 49.6288ZM64.9685 44.0329C61.7887 44.0329 59.7552 45.5153 58.7939 48.2205L61.7148 49.2953C62.2325 47.6647 63.3416 46.7382 65.0423 46.7382C66.9281 46.7382 68.0741 47.5905 68.0741 48.8505C68.0741 50.1476 67.1868 50.4441 65.1903 50.7776C62.9719 51.1482 57.6477 51.2594 57.6477 55.7435C57.6477 58.3747 59.8291 60.3388 63.1197 60.3388C65.597 60.3388 67.2977 59.3382 68.0741 57.4482H68.1112V59.9682H71.5126V50.4441C71.4757 46.2564 69.4052 44.0329 64.9685 44.0329ZM68.1481 52.6676C68.1481 55.9288 66.5583 58.0041 63.9701 58.0041C62.1585 58.0041 61.0863 57.0035 61.0863 55.5211C61.0863 54.15 62.1954 53.1864 64.3399 52.7788C66.5214 52.3711 67.6305 51.8894 68.1481 50.6664V52.6676ZM109.484 44.07C106.896 44.07 105.158 45.5153 104.419 47.6647V44.4776H100.796V65.8976H104.382V56.7811H104.419C105.232 59.1158 106.896 60.4129 109.484 60.4129C113.625 60.4129 116.583 57.0035 116.583 52.1858C116.583 47.3682 113.625 44.07 109.484 44.07ZM108.597 57.5223C105.75 57.5223 104.16 55.447 104.16 52.2229C104.16 48.9988 105.935 46.9235 108.597 46.9235C111.259 46.9235 113.034 49.11 113.034 52.2229C113.034 55.3358 111.259 57.5223 108.597 57.5223Z" fill="#E4F22D"/>
<path d="M152.112 59.8564V59.9676H138.1V59.8564C140.133 58.7076 141.501 57.5588 142.758 56.3358H148.526L152.112 59.8564ZM148.637 41.5864L145.088 38.1029H144.977C144.977 38.1029 145.05 44.5882 139.061 50.5176C133.219 56.2988 126.379 56.3358 126.379 56.3358V56.447L130.002 60.0046C130.002 60.0046 136.768 60.0788 142.721 54.1864C148.674 48.3311 148.637 41.5864 148.637 41.5864Z" fill="#E4F22D"/>
</g>
</svg>
