<svg width="200" height="104" viewBox="0 0 200 104" fill="none" xmlns="http://www.w3.org/2000/svg">
<path d="M57.1826 40.4686C54.6539 39.3502 53.1459 38.9162 51.6483 38.9162C50.0767 38.9162 49.0701 39.4769 49.0701 40.3433C49.0701 42.9582 57.9737 42.2223 57.9737 48.2707C57.9737 51.6058 55.165 53.5437 51.2629 53.5437C48.202 53.5437 46.6948 52.7548 44.9585 51.8616V48.1201C47.4626 49.7731 48.9953 50.3569 50.9269 50.3569C52.6018 50.3569 53.5051 49.7731 53.5051 48.7553C53.5051 45.9078 44.6016 46.951 44.6016 40.7228C44.6016 37.7195 47.2067 35.731 51.2629 35.731C53.2207 35.731 54.9869 36.1403 57.1826 37.0813V40.4686Z" fill="#009E4D"/>
<path d="M69.6468 52.7488C68.1627 53.2849 66.9077 53.5406 65.6556 53.5406C61.5088 53.5406 58.8281 51.1346 58.8281 47.4736C58.8281 43.8797 61.6129 41.3409 65.5015 41.3409C66.7026 41.3409 68.2383 41.6474 69.4664 42.1029V44.8542C68.4942 44.3398 67.3687 44.0579 66.4474 44.0579C64.2217 44.0579 62.7901 45.3903 62.7901 47.4467C62.7901 49.5322 64.1978 50.9049 66.3187 50.9049C67.2138 50.9049 68.0093 50.7006 69.6468 50.0899V52.7488Z" fill="#009E4D"/>
<path d="M101.978 46.1255C102.13 44.4926 103.082 43.5487 104.539 43.5487C105.973 43.5487 106.944 44.5195 107.097 46.1255H101.978ZM104.283 41.3446C100.645 41.3446 98.0547 43.9051 98.0547 47.5079C98.0547 51.1375 100.748 53.5406 104.899 53.5406C105.819 53.5406 108.043 53.5406 110.162 51.9786V49.6813C108.427 50.9131 107.279 51.3374 105.797 51.3374C103.458 51.3374 102.028 50.1317 101.898 48.0738H110.371C110.547 43.7783 107.716 41.3446 104.283 41.3446Z" fill="#009E4D"/>
<path d="M111.805 53.3267H115.509V41.5616H111.805V53.3267Z" fill="#009E4D"/>
<path d="M125.817 50.1109C125.045 50.8028 124.404 51.0802 123.613 51.0802C121.868 51.0802 120.765 49.6501 120.765 47.5065C120.765 45.1578 121.868 43.8037 123.736 43.8037C124.404 43.8037 125.277 44.1102 125.817 44.4942V50.1109ZM125.817 35.948V42.0776C124.816 41.5952 123.819 41.341 122.74 41.341C119.361 41.341 117.023 43.8291 117.023 47.4297C117.023 50.9527 119.361 53.5437 122.532 53.5437C123.789 53.5437 124.76 53.2156 125.817 52.3761V53.323H129.521V35.948H125.817Z" fill="#009E4D"/>
<path d="M135.006 46.1255C135.16 44.4926 136.107 43.5487 137.562 43.5487C138.998 43.5487 139.979 44.5195 140.132 46.1255H135.006ZM137.309 41.3446C133.672 41.3446 131.086 43.9051 131.086 47.5079C131.086 51.1375 133.779 53.5406 137.926 53.5406C138.844 53.5406 141.073 53.5406 143.197 51.9786V49.6813C141.459 50.9131 140.309 51.3374 138.82 51.3374C136.494 51.3374 135.058 50.1317 134.929 48.0738H143.398C143.573 43.7783 140.741 41.3446 137.309 41.3446Z" fill="#009E4D"/>
<mask id="mask0_1214_8959" style="mask-type:luminance" maskUnits="userSpaceOnUse" x="44" y="35" width="112" height="34">
<path d="M44.6016 35.7309V68.2621H155.21V35.7309" fill="white"/>
</mask>
<g mask="url(#mask0_1214_8959)">
<path d="M148.943 44.9303H148.998C150.097 42.4817 151.328 41.3335 152.757 41.3335C153.497 41.3335 154.136 41.6146 155.21 42.4064L154.191 45.6685C153.218 45.0571 152.579 44.8013 151.992 44.8013C150.632 44.8013 149.763 46.0778 148.943 48.2356V53.311H145.234V41.549H148.943V44.9303Z" fill="#009E4D"/>
<path d="M115.685 36.6123C116.033 37.5264 115.406 38.8014 114.29 39.4575C113.17 40.1129 111.986 39.9049 111.641 38.9908C111.289 38.0752 111.913 36.7987 113.032 36.1463C114.149 35.4871 115.334 35.6959 115.685 36.6123Z" fill="#009E4D"/>
</g>
<path d="M82.9922 45.8385C82.9922 42.6502 80.8174 41.3446 78.671 41.3446C77.2116 41.3446 76.012 41.9583 74.9388 43.3116H74.8879V35.9479H71.1797V53.2924H74.8879V45.8385C75.7553 44.5881 76.4962 44.0535 77.3651 44.0535C78.5183 44.0535 79.2847 44.8706 79.2847 46.6281V50.761C80.5285 50.1242 81.7925 49.7335 82.9922 49.5881V45.8385Z" fill="#009E4D"/>
<path d="M92.2926 41.341C90.7824 41.341 89.6291 41.9002 88.4489 43.2453V41.5617H84.7422V49.5569C86.0264 49.6844 87.6646 50.2712 88.4489 51.2405V45.7461C89.4233 44.2891 90.1148 43.8037 91.0369 43.8037C92.0868 43.8037 92.8846 44.4942 92.8846 46.1532V53.2961H96.5921V45.8475C96.5921 42.3826 94.1359 41.341 92.2926 41.341Z" fill="#009E4D"/>
<path d="M98.6388 56.6746H94.3311V59.7241H98.4869V61.0327H94.3311V64.1784H98.7675V65.4855H92.8867V55.369H98.6388V56.6746Z" fill="#009E4D"/>
<path d="M102.156 65.4913H103.476V55.3659H102.156V65.4913Z" fill="#009E4D"/>
<path d="M110.01 59.8202C110.946 59.8202 111.526 60.4622 111.569 61.471H108.209C108.391 60.4174 108.999 59.8202 110.01 59.8202ZM108.185 62.3486H112.886C112.886 59.8798 111.753 58.6883 109.98 58.6883C108.141 58.6883 106.863 60.0431 106.863 62.0637C106.863 63.9106 108.017 65.6158 110.095 65.6158C111.227 65.6158 111.959 65.3653 112.77 64.8292V63.5497C111.987 64.0605 111.227 64.355 110.428 64.355C109.15 64.355 108.391 63.672 108.185 62.3486Z" fill="#009E4D"/>
<path d="M121.502 60.5673C120.743 60.0498 120.236 59.8977 119.658 59.8977C118.45 59.8977 117.614 60.8208 117.614 62.1726C117.614 63.5497 118.504 64.3796 119.879 64.3796C120.445 64.3796 120.984 64.2335 121.649 63.9367V65.2333C121.205 65.4421 120.357 65.6158 119.658 65.6158C117.66 65.6158 116.273 64.2469 116.273 62.2904C116.273 60.0826 117.54 58.6883 119.568 58.6883C120.342 58.6883 120.863 58.868 121.502 59.1476V60.5673Z" fill="#009E4D"/>
<path d="M127.514 58.8158H129.632V60.0006H127.514V63.4245C127.514 64.2081 128.083 64.4348 128.468 64.4348C128.945 64.4348 129.438 64.2685 129.972 63.9397V65.1729C129.509 65.4272 128.798 65.6158 128.362 65.6158C126.926 65.6158 126.199 64.7271 126.199 63.5237V60.0006H125.035V59.8537L127.514 57.4372V58.8158Z" fill="#009E4D"/>
<path d="M134.677 58.8158V60.36H134.704C135.377 59.1782 136.017 58.6883 136.64 58.6883C137.177 58.6883 137.68 58.9396 138.233 59.4608L137.534 60.6195C137.132 60.2236 136.613 59.9507 136.299 59.9507C135.39 59.9507 134.677 60.8708 134.677 62.0108V65.4913H133.359V58.8158H134.677Z" fill="#009E4D"/>
<path d="M151.754 60.5673C150.991 60.0498 150.485 59.8977 149.904 59.8977C148.699 59.8977 147.869 60.8208 147.869 62.1726C147.869 63.5497 148.76 64.3796 150.127 64.3796C150.693 64.3796 151.229 64.2335 151.903 63.9367V65.2333C151.449 65.4421 150.601 65.6158 149.904 65.6158C147.908 65.6158 146.516 64.2469 146.516 62.2904C146.516 60.0826 147.789 58.6883 149.816 58.6883C150.592 58.6883 151.108 58.868 151.754 59.1476V60.5673Z" fill="#009E4D"/>
<path d="M141.73 65.4913H143.05V58.8161H141.73V65.4913Z" fill="#009E4D"/>
<mask id="mask1_1214_8959" style="mask-type:luminance" maskUnits="userSpaceOnUse" x="44" y="35" width="112" height="34">
<path d="M44.6016 35.7309V68.2621H155.21V35.7309" fill="white"/>
</mask>
<g mask="url(#mask1_1214_8959)">
<path d="M143.094 56.4179C143.223 56.74 142.998 57.1956 142.601 57.4275C142.201 57.6601 141.779 57.5855 141.658 57.2627C141.538 56.9369 141.756 56.485 142.157 56.2524C142.553 56.0168 142.974 56.0921 143.094 56.4179Z" fill="#009E4D"/>
<path d="M84.0349 56.9578C83.8022 56.9578 83.7041 56.9958 83.6091 57.1017C83.5717 57.1427 83.5567 57.1844 83.5432 57.2679L82.36 61.7386C82.0824 63.3067 80.1493 64.8725 77.6295 64.8725H74.1263L74.734 62.5752H76.9844C77.2142 62.5752 77.3938 62.4902 77.5442 62.3232C77.5996 62.2583 77.6714 62.1569 77.6812 62.0526L78.6151 58.1463C78.8905 56.5775 80.5542 54.8447 83.0733 54.8447H86.661L86.2023 56.9578H84.0349ZM84.8432 59.6822L85.2436 58.2358H88.8882C89.338 56.1383 88.984 54.1953 87.7065 52.9225C85.1208 50.3464 79.7115 51.2218 75.6815 55.0632C75.0521 55.6597 74.5207 56.3046 74.0365 56.9637H76.2308L75.7204 58.4132H73.0988C72.8481 58.8703 72.6131 59.3236 72.4335 59.7836H75.5423L75.0446 61.2331H71.9897C71.4673 63.4476 71.8003 65.5129 73.1145 66.8245C75.668 69.3678 81.0608 68.4738 85.0887 64.6331C85.7936 63.965 86.3759 63.244 86.902 62.5036H84.0828L84.5124 61.0572H87.8083C88.05 60.5971 88.2723 60.1423 88.4459 59.6822H84.8432Z" fill="#009E4D"/>
</g>
</svg>
