<svg width="200" height="104" viewBox="0 0 200 104" fill="none" xmlns="http://www.w3.org/2000/svg">
<g clip-path="url(#clip0_1214_9014)">
<path d="M136.345 67.9939L124.345 35.0218L124.336 35H124.1L121.628 41.7757L117.129 54.1109L117.119 54.1011C115.56 52.7281 113.36 51.8698 110.589 51.5502L109.744 51.4632L110.582 51.3559C115.151 50.5366 118.222 47.6571 118.222 44.1878C118.222 39.4304 113.739 36.1097 107.316 36.1097H93.9519V36.3505H97.8351V60.9331L88.4041 35.0218L88.3959 35H88.159L85.6878 41.7757L76.1561 67.9091L76.0974 67.9159C75.9345 67.9359 75.7734 67.9519 75.614 67.9639C75.3742 67.9826 75.1358 67.9939 74.8967 67.9939H65.2658L83.5729 36.3505L83.709 36.1126H61.3187V45.9014H61.5563C61.5984 41.1335 64.3809 36.3505 70.5286 36.3505H77.9454L59.5 68.231H84.3495V58.8526H84.1119C84.0796 63.0083 81.7189 66.9555 76.5854 67.8468L76.4222 67.8746L80.3317 57.151H91.2837L95.23 67.9939H91.337V68.231H106.616V67.9939H102.707V51.638H107.218C111.809 51.638 114.442 53.6847 114.442 57.2515V60.1528C114.442 60.4724 114.463 60.9398 114.487 61.3307V61.345L112.063 67.9924H108.895V68.2295H115.452V67.9924H112.318L114.527 61.9392C114.531 61.9977 114.533 62.033 114.533 62.033L114.594 62.5784L114.653 62.9393C115.021 65.1714 115.877 66.8122 117.195 67.8161L117.384 67.9534C118.386 68.6481 119.63 69 121.085 69C123.012 69 124.297 68.5206 125.357 67.3922L125.218 67.2616C124.241 68.1619 123.421 68.5266 122.393 68.5266C120.642 68.5266 119.725 66.4071 119.725 64.3168V60.2518C119.735 59.2432 119.576 58.24 119.257 57.283L119.213 57.157V57.1525H127.224L131.171 67.9954H127.278V68.2325H140.5V67.9954L136.345 67.9939ZM80.4189 56.9139L85.8141 42.1223L91.1972 56.9139H80.4189ZM102.709 51.4002V36.3505H106.153C110.752 36.3505 113.181 39.0792 113.181 44.2388C113.181 49.7263 111.787 51.4002 107.218 51.4002H102.709ZM119.12 56.9139L119.097 56.8554C118.741 55.9902 118.223 55.2007 117.57 54.5295L117.344 54.3045L117.32 54.2819L121.752 42.1223L127.135 56.9139H119.12Z" fill="white"/>
</g>
<defs>
<clipPath id="clip0_1214_9014">
<rect width="81" height="34" fill="white" transform="translate(59.5 35)"/>
</clipPath>
</defs>
</svg>
