<svg width="16" height="16" viewBox="0 0 16 16" fill="none" xmlns="http://www.w3.org/2000/svg">
<mask id="path-1-inside-1_1188_4539" fill="white">
<path d="M13.8538 8.35378L9.35375 12.8538C9.25993 12.9476 9.13268 13.0003 9 13.0003C8.86732 13.0003 8.74007 12.9476 8.64625 12.8538C8.55243 12.76 8.49972 12.6327 8.49972 12.5C8.49972 12.3674 8.55243 12.2401 8.64625 12.1463L12.2931 8.50003H2.5C2.36739 8.50003 2.24021 8.44736 2.14645 8.35359C2.05268 8.25982 2 8.13264 2 8.00003C2 7.86743 2.05268 7.74025 2.14645 7.64648C2.24021 7.55271 2.36739 7.50003 2.5 7.50003H12.2931L8.64625 3.85378C8.55243 3.75996 8.49972 3.63272 8.49972 3.50003C8.49972 3.36735 8.55243 3.2401 8.64625 3.14628C8.74007 3.05246 8.86732 2.99976 9 2.99976C9.13268 2.99976 9.25993 3.05246 9.35375 3.14628L13.8538 7.64628C13.9002 7.69272 13.9371 7.74786 13.9623 7.80856C13.9874 7.86926 14.0004 7.93433 14.0004 8.00003C14.0004 8.06574 13.9874 8.13081 13.9623 8.1915C13.9371 8.2522 13.9002 8.30735 13.8538 8.35378Z"/>
</mask>
<path d="M13.8538 8.35378L9.35375 12.8538C9.25993 12.9476 9.13268 13.0003 9 13.0003C8.86732 13.0003 8.74007 12.9476 8.64625 12.8538C8.55243 12.76 8.49972 12.6327 8.49972 12.5C8.49972 12.3674 8.55243 12.2401 8.64625 12.1463L12.2931 8.50003H2.5C2.36739 8.50003 2.24021 8.44736 2.14645 8.35359C2.05268 8.25982 2 8.13264 2 8.00003C2 7.86743 2.05268 7.74025 2.14645 7.64648C2.24021 7.55271 2.36739 7.50003 2.5 7.50003H12.2931L8.64625 3.85378C8.55243 3.75996 8.49972 3.63272 8.49972 3.50003C8.49972 3.36735 8.55243 3.2401 8.64625 3.14628C8.74007 3.05246 8.86732 2.99976 9 2.99976C9.13268 2.99976 9.25993 3.05246 9.35375 3.14628L13.8538 7.64628C13.9002 7.69272 13.9371 7.74786 13.9623 7.80856C13.9874 7.86926 14.0004 7.93433 14.0004 8.00003C14.0004 8.06574 13.9874 8.13081 13.9623 8.1915C13.9371 8.2522 13.9002 8.30735 13.8538 8.35378Z" fill="white"/>
<path d="M13.8538 8.35378L13.0057 7.50478L13.0052 7.50526L13.8538 8.35378ZM9.35375 12.8538L10.2023 13.7023L9.35375 12.8538ZM8.64625 12.1463L7.79779 11.2977L7.79772 11.2978L8.64625 12.1463ZM12.2931 8.50003L13.1416 9.34863L15.1905 7.30003H12.2931V8.50003ZM12.2931 7.50003V8.70003H15.1905L13.1416 6.65143L12.2931 7.50003ZM8.64625 3.85378L7.79772 4.70231L7.79779 4.70238L8.64625 3.85378ZM9 2.99976V1.79976V2.99976ZM9.35375 3.14628L8.50522 3.99481V3.99481L9.35375 3.14628ZM13.8538 7.64628L13.0052 8.49481L13.0057 8.49528L13.8538 7.64628ZM13.8538 8.35378L13.0052 7.50526L8.50522 12.0053L9.35375 12.8538L10.2023 13.7023L14.7023 9.20231L13.8538 8.35378ZM9.35375 12.8538L8.50522 12.0053C8.63645 11.874 8.81442 11.8003 9 11.8003V13.0003V14.2003C9.45094 14.2003 9.88341 14.0212 10.2023 13.7023L9.35375 12.8538ZM9 13.0003V11.8003C9.18558 11.8003 9.36355 11.874 9.49478 12.0053L8.64625 12.8538L7.79772 13.7023C8.11659 14.0212 8.54906 14.2003 9 14.2003V13.0003ZM8.64625 12.8538L9.49478 12.0053C9.626 12.1365 9.69972 12.3145 9.69972 12.5H8.49972H7.29972C7.29972 12.951 7.47886 13.3834 7.79772 13.7023L8.64625 12.8538ZM8.49972 12.5H9.69972C9.69972 12.6856 9.626 12.8636 9.49478 12.9948L8.64625 12.1463L7.79772 11.2978C7.47886 11.6166 7.29972 12.0491 7.29972 12.5H8.49972ZM8.64625 12.1463L9.49471 12.9949L13.1416 9.34863L12.2931 8.50003L11.4447 7.65143L7.79779 11.2977L8.64625 12.1463ZM12.2931 8.50003V7.30003H2.5V8.50003V9.70003H12.2931V8.50003ZM2.5 8.50003V7.30003C2.68565 7.30003 2.8637 7.37378 2.99497 7.50506L2.14645 8.35359L1.29792 9.20212C1.61673 9.52093 2.04913 9.70003 2.5 9.70003V8.50003ZM2.14645 8.35359L2.99497 7.50506C3.12625 7.63634 3.2 7.81438 3.2 8.00003H2H0.8C0.8 8.4509 0.979106 8.8833 1.29792 9.20212L2.14645 8.35359ZM2 8.00003H3.2C3.2 8.18569 3.12625 8.36373 2.99497 8.49501L2.14645 7.64648L1.29792 6.79795C0.979107 7.11676 0.8 7.54916 0.8 8.00003H2ZM2.14645 7.64648L2.99497 8.49501C2.8637 8.62628 2.68565 8.70003 2.5 8.70003V7.50003V6.30003C2.04913 6.30003 1.61673 6.47914 1.29792 6.79795L2.14645 7.64648ZM2.5 7.50003V8.70003H12.2931V7.50003V6.30003H2.5V7.50003ZM12.2931 7.50003L13.1416 6.65143L9.49471 3.00518L8.64625 3.85378L7.79779 4.70238L11.4447 8.34863L12.2931 7.50003ZM8.64625 3.85378L9.49478 3.00526C9.626 3.13648 9.69972 3.31445 9.69972 3.50003H8.49972H7.29972C7.29972 3.95098 7.47886 4.38345 7.79772 4.70231L8.64625 3.85378ZM8.49972 3.50003H9.69972C9.69972 3.68561 9.626 3.86359 9.49478 3.99481L8.64625 3.14628L7.79772 2.29776C7.47886 2.61662 7.29972 3.04909 7.29972 3.50003H8.49972ZM8.64625 3.14628L9.49478 3.99481C9.36355 4.12604 9.18558 4.19976 9 4.19976V2.99976V1.79976C8.54906 1.79976 8.11659 1.97889 7.79772 2.29776L8.64625 3.14628ZM9 2.99976V4.19976C8.81442 4.19976 8.63645 4.12604 8.50522 3.99481L9.35375 3.14628L10.2023 2.29776C9.88341 1.97889 9.45094 1.79976 9 1.79976V2.99976ZM9.35375 3.14628L8.50522 3.99481L13.0052 8.49481L13.8538 7.64628L14.7023 6.79776L10.2023 2.29776L9.35375 3.14628ZM13.8538 7.64628L13.0057 8.49528C12.9406 8.43027 12.889 8.35307 12.8538 8.26809L13.9623 7.80856L15.0708 7.34904C14.9853 7.14266 14.8599 6.95517 14.7018 6.79728L13.8538 7.64628ZM13.9623 7.80856L12.8538 8.26809C12.8185 8.1831 12.8004 8.09201 12.8004 8.00003H14.0004H15.2004C15.2004 7.77664 15.1564 7.55542 15.0708 7.34904L13.9623 7.80856ZM14.0004 8.00003H12.8004C12.8004 7.90805 12.8185 7.81696 12.8538 7.73198L13.9623 8.1915L15.0708 8.65103C15.1564 8.44465 15.2004 8.22343 15.2004 8.00003H14.0004ZM13.9623 8.1915L12.8538 7.73198C12.889 7.647 12.9406 7.5698 13.0057 7.50478L13.8538 8.35378L14.7018 9.20278C14.8599 9.0449 14.9853 8.85741 15.0708 8.65103L13.9623 8.1915Z" fill="white" mask="url(#path-1-inside-1_1188_4539)"/>
</svg>
