<svg width="20" height="20" viewBox="0 0 20 20" fill="none" xmlns="http://www.w3.org/2000/svg">
<path d="M10 2C8.41775 2 6.87103 2.46919 5.55544 3.34824C4.23985 4.22729 3.21447 5.47672 2.60897 6.93853C2.00347 8.40034 1.84504 10.0089 2.15372 11.5607C2.4624 13.1126 3.22433 14.538 4.34315 15.6569C5.46197 16.7757 6.88743 17.5376 8.43928 17.8463C9.99113 18.155 11.5997 17.9965 13.0615 17.391C14.5233 16.7855 15.7727 15.7602 16.6518 14.4446C17.5308 13.129 18 11.5822 18 10C17.9976 7.87902 17.1539 5.8456 15.6542 4.34584C14.1544 2.84608 12.121 2.00244 10 2ZM16.0277 6.92308H13.2854C12.94 5.65608 12.358 4.4659 11.57 3.41538C12.5221 3.6441 13.4135 4.07598 14.183 4.68143C14.9526 5.28687 15.5813 6.05156 16.0277 6.92308ZM16.7692 10C16.7698 10.6243 16.6836 11.2456 16.5131 11.8462H13.5508C13.7395 10.6226 13.7395 9.37738 13.5508 8.15384H16.5131C16.6836 8.7544 16.7698 9.37572 16.7692 10ZM10 3.46154C10.9215 4.44809 11.6055 5.63203 12 6.92308H8C8.39407 5.63185 9.07817 4.44783 10 3.46154ZM8 13.0769H12C11.6059 14.3681 10.9218 15.5522 10 16.5385C9.07852 15.5519 8.39447 14.368 8 13.0769ZM7.7 11.8462C7.48873 10.6244 7.48873 9.37555 7.7 8.15384H12.3062C12.5174 9.37555 12.5174 10.6244 12.3062 11.8462H7.7ZM11.5731 16.5846C12.3611 15.5341 12.9431 14.3439 13.2885 13.0769H16.0315C15.5849 13.9488 14.9548 14.7137 14.1847 15.3191C13.4146 15.9246 12.5226 16.3563 11.57 16.5846H11.5731Z" fill="#A3A3A3"/>
</svg>
