<svg width="24" height="24" viewBox="0 0 24 24" fill="none" xmlns="http://www.w3.org/2000/svg">
<path d="M12 1.5C9.9233 1.5 7.89323 2.11581 6.16652 3.26957C4.4398 4.42332 3.09399 6.0632 2.29927 7.98182C1.50455 9.90045 1.29661 12.0116 1.70176 14.0484C2.1069 16.0852 3.10693 17.9562 4.57538 19.4246C6.04383 20.8931 7.91475 21.8931 9.95155 22.2982C11.9884 22.7034 14.0996 22.4955 16.0182 21.7007C17.9368 20.906 19.5767 19.5602 20.7304 17.8335C21.8842 16.1068 22.5 14.0767 22.5 12C22.4968 9.21621 21.3895 6.54736 19.4211 4.57892C17.4526 2.61048 14.7838 1.50321 12 1.5ZM19.9113 7.96154H16.3121C15.8588 6.29861 15.0949 4.7365 14.0606 3.35769C15.3102 3.65788 16.4802 4.22473 17.4902 5.01937C18.5002 5.81402 19.3255 6.81768 19.9113 7.96154ZM20.8846 12C20.8853 12.8194 20.7722 13.6349 20.5484 14.4231H16.6604C16.9081 12.8172 16.9081 11.1828 16.6604 9.57692H20.5484C20.7722 10.3651 20.8853 11.1806 20.8846 12ZM12 3.41827C13.2094 4.71312 14.1073 6.26704 14.625 7.96154H9.375C9.89222 6.26681 10.7901 4.71278 12 3.41827ZM9.375 16.0385H14.625C14.1078 17.7332 13.2099 19.2872 12 20.5817C10.7906 19.2869 9.89274 17.733 9.375 16.0385ZM8.98125 14.4231C8.70395 12.8196 8.70395 11.1804 8.98125 9.57692H15.0268C15.3041 11.1804 15.3041 12.8196 15.0268 14.4231H8.98125ZM14.0647 20.6423C15.0989 19.2635 15.8628 17.7014 16.3161 16.0385H19.9164C19.3301 17.1828 18.5032 18.1867 17.4925 18.9814C16.4817 19.776 15.311 20.3426 14.0606 20.6423H14.0647Z" fill="currentColor"/>
</svg>
