<svg width="122" height="40" viewBox="0 0 122 40" fill="none" xmlns="http://www.w3.org/2000/svg">
<path d="M0 23.7054V5.32686H3.11636L3.30281 6.49879C3.85327 6.03716 4.45699 5.68201 5.11403 5.43344C5.77099 5.18479 6.54349 5.06055 7.43127 5.06055C9.278 5.06055 10.6986 5.56656 11.6929 6.57875C12.7051 7.5731 13.2112 9.20676 13.2112 11.4796C13.2112 13.7526 12.6696 15.4484 11.5864 16.567C10.521 17.668 9.06492 18.2184 7.2182 18.2184C5.79761 18.2184 4.59019 17.8988 3.59583 17.2596V23.7054H0ZM6.31259 15.5816C7.37802 15.5816 8.18593 15.253 8.7364 14.596C9.28687 13.939 9.56215 12.9091 9.56215 11.5063C9.56215 10.1567 9.31358 9.18901 8.81636 8.60305C8.31914 7.99933 7.5201 7.69743 6.41917 7.69743C5.31823 7.69743 4.37712 8.0792 3.59583 8.84274V14.6227C3.96873 14.9068 4.35937 15.1376 4.76776 15.3151C5.1939 15.4927 5.70887 15.5816 6.31259 15.5816Z" fill="white"/>
<path d="M19.6772 18.2184C18.8782 18.2184 18.1324 18.0764 17.4398 17.7923C16.7651 17.4904 16.2147 17.0554 15.7884 16.4872C15.38 15.9011 15.1758 15.1732 15.1758 14.303C15.1758 13.06 15.6108 12.0657 16.481 11.3199C17.3688 10.5741 18.674 10.2012 20.3964 10.2012H24.1254V9.85493C24.1254 9.07356 23.9034 8.52309 23.4595 8.20353C23.0333 7.88388 22.1632 7.72405 20.8492 7.72405C19.4109 7.72405 18.0258 7.946 16.694 8.38998V5.85958C17.28 5.62876 17.9903 5.44232 18.8249 5.30024C19.6772 5.14042 20.6006 5.06055 21.595 5.06055C23.495 5.06055 24.9599 5.45119 25.9899 6.23248C27.0375 6.99602 27.5613 8.23015 27.5613 9.9348V17.9521H24.445L24.2585 16.8067C23.7614 17.2507 23.1487 17.597 22.4207 17.8455C21.6926 18.0941 20.7781 18.2184 19.6772 18.2184ZM20.6628 15.8479C21.4618 15.8479 22.1543 15.7147 22.7403 15.4484C23.3263 15.182 23.788 14.8446 24.1254 14.4362V12.4386H20.4763C19.0735 12.4386 18.3721 13.0157 18.3721 14.1698C18.3721 15.2885 19.1356 15.8479 20.6628 15.8479Z" fill="white"/>
<path d="M32.566 22.6402C32.0156 22.6402 31.5272 22.6047 31.1011 22.5336C30.6748 22.4804 30.2576 22.3739 29.8492 22.2141V19.6837C30.1511 19.7903 30.4263 19.8613 30.6748 19.8968C30.9412 19.9323 31.2076 19.95 31.474 19.95C32.202 19.95 32.7613 19.7814 33.152 19.444C33.5604 19.1066 33.9688 18.5384 34.3772 17.7393L28.7305 5.32715H32.4861L36.1884 13.9038L39.8641 5.32715H43.593L38.6122 17.0734C38.1506 18.1744 37.6445 19.1421 37.094 19.9767C36.5613 20.829 35.9309 21.486 35.2029 21.9477C34.4749 22.4094 33.5959 22.6402 32.566 22.6402Z" fill="white"/>
<path d="M49.6737 18.2187C48.555 18.2187 47.5517 18.0234 46.6639 17.6327C45.7938 17.2243 45.1101 16.5673 44.613 15.6617C44.1157 14.7383 43.8672 13.522 43.8672 12.0126C43.8672 10.5033 44.1424 9.23363 44.6928 8.20377C45.2433 7.17383 45.9802 6.39254 46.9036 5.85982C47.8269 5.3271 48.8391 5.06079 49.9401 5.06079C51.3251 5.06079 52.5059 5.38035 53.4826 6.01965V0H57.0783V17.9524H53.9887L53.7755 16.7803C53.2251 17.2598 52.6213 17.6238 51.9644 17.8724C51.3251 18.1032 50.5615 18.2187 49.6737 18.2187ZM50.6592 15.5818C51.7779 15.5818 52.719 15.2 53.4826 14.4365V8.68315C52.7368 8.0262 51.8666 7.69767 50.8723 7.69767C48.6349 7.69767 47.5162 9.13601 47.5162 12.0126C47.5162 13.3622 47.7914 14.2944 48.3419 14.8094C48.8924 15.3243 49.6648 15.5818 50.6592 15.5818Z" fill="white"/>
<path d="M66.432 18.2184C64.2479 18.2184 62.5166 17.6768 61.2381 16.5937C59.9595 15.4927 59.3203 13.8324 59.3203 11.6128C59.3203 9.60628 59.8531 8.01708 60.9184 6.84506C62.0016 5.65539 63.6086 5.06055 65.7391 5.06055C67.6924 5.06055 69.1839 5.57543 70.2139 6.60537C71.2618 7.61756 71.7861 8.94932 71.7861 10.6007V12.8913H62.6498C62.8451 13.9035 63.3067 14.596 64.0348 14.9689C64.7806 15.3418 65.8279 15.5282 67.1778 15.5282C67.8528 15.5282 68.5359 15.4661 69.2288 15.3418C69.9387 15.2175 70.5429 15.0577 71.0403 14.8624V17.4194C70.4541 17.6857 69.7702 17.881 68.9894 18.0054C68.2078 18.1474 67.3553 18.2184 66.432 18.2184ZM62.6498 10.6806H68.6425V9.98804C68.6425 9.26 68.4301 8.69179 68.0034 8.2834C67.5776 7.85726 66.8578 7.64419 65.8458 7.64419C64.6563 7.64419 63.8217 7.88388 63.3423 8.36335C62.8806 8.84274 62.6498 9.61515 62.6498 10.6806Z" fill="white"/>
<path d="M78.6062 18.2184C77.665 18.2184 76.7677 18.1474 75.9162 18.0054C75.0637 17.881 74.3798 17.7212 73.8652 17.5259V14.5427C74.4864 14.7913 75.1874 14.9867 75.969 15.1287C76.7507 15.253 77.4696 15.3152 78.1266 15.3152C79.014 15.3152 79.6361 15.2619 79.9911 15.1553C80.364 15.0488 80.5504 14.8091 80.5504 14.4362C80.5504 14.01 80.2663 13.6993 79.698 13.5039C79.1476 13.3086 78.322 13.0334 77.2213 12.6783C76.0667 12.2876 75.1784 11.817 74.5572 11.2666C73.936 10.7161 73.625 9.89931 73.625 8.81612C73.625 7.6086 74.0598 6.68524 74.9301 6.04603C75.8185 5.38898 77.2383 5.06055 79.1915 5.06055C79.9732 5.06055 80.71 5.12267 81.4029 5.247C82.0949 5.35349 82.6811 5.48669 83.1607 5.64652V8.60305C82.6811 8.37223 82.1308 8.20353 81.5096 8.09695C80.8875 7.97262 80.3102 7.9105 79.7778 7.9105C79.014 7.9105 78.4018 7.96375 77.9402 8.07033C77.4965 8.17691 77.2742 8.40773 77.2742 8.76287C77.2742 9.15352 77.5135 9.42871 77.9931 9.58853C78.4906 9.74835 79.2543 9.98805 80.2842 10.3077C81.2962 10.6096 82.0859 10.9381 82.6542 11.2932C83.2226 11.6483 83.6223 12.0746 83.8527 12.5717C84.084 13.0512 84.1996 13.6549 84.1996 14.3829C84.1996 16.9399 82.3351 18.2184 78.6062 18.2184Z" fill="white"/>
<path d="M86.6953 17.9524V0H90.2916V9.8818L95.0057 5.3271H99.1075L94.0205 10.4944L99.4006 17.9524H95.5919L91.7563 12.3855L90.2916 13.7972V17.9524H86.6953Z" fill="white"/>
<g opacity="0.4">
<path d="M120.194 15.2828C119.813 15.5024 119.222 15.5193 118.759 15.362C117.783 15.0308 116.714 14.5903 115.718 14.0141C114.663 13.4055 113.869 12.749 113.285 12.1596C113.033 11.9053 113.065 11.5824 113.426 11.3735C115.299 10.292 118.331 10.2909 120.2 11.3699C122.069 12.4489 122.067 14.2002 120.194 15.2804V15.2828Z" fill="white"/>
<path d="M113.08 15.0889C112.631 14.7781 111.659 14.7469 111.316 15.1021L108.227 18.0884L108.673 18.2169L113.791 16.5353C114.413 16.3348 114.351 15.7611 113.801 15.5031C113.664 15.4383 113.53 15.3698 113.403 15.2954C113.289 15.2294 113.182 15.1609 113.08 15.0901V15.0889Z" fill="white"/>
<path d="M117.179 15.9243C117.868 15.9136 117.964 15.4262 117.401 15.1982C116.724 14.9233 116.034 14.5992 115.372 14.2175C114.669 13.8106 114.077 13.3858 113.583 12.9705C113.194 12.644 112.35 12.6944 112.324 13.0917C112.275 13.8287 112.732 14.5704 113.7 15.1286C114.654 15.6795 115.918 15.9448 117.179 15.9232V15.9243Z" fill="white"/>
</g>
<path fill-rule="evenodd" clip-rule="evenodd" d="M104.174 1.78479C105.311 0.642168 106.853 0 108.46 0C110.067 0 111.61 0.642168 112.749 1.78479C113.886 2.92749 114.524 4.47698 114.524 6.09378C114.524 6.29905 114.514 6.50665 114.494 6.71435C114.493 6.71811 114.492 6.72205 114.491 6.72599C114.491 6.73218 114.489 6.73846 114.489 6.74437C114.361 8.09271 113.502 9.42312 112.874 10.3931C112.832 10.4583 112.791 10.5221 112.751 10.584C112.634 10.7654 112.454 11.0184 112.236 11.3249C111.273 12.6769 109.567 15.0712 109.294 16.9695L109.22 17.5648C109.199 17.752 109.11 17.9248 108.97 18.0497C108.83 18.1745 108.65 18.2441 108.462 18.2441C108.275 18.2441 108.094 18.1745 107.955 18.0497C107.814 17.9237 107.726 17.752 107.704 17.5648L107.63 16.9695C107.348 15.0095 105.536 12.49 104.595 11.1818C104.418 10.9358 104.272 10.7326 104.172 10.584C103.545 9.64659 102.57 8.18342 102.434 6.74437C102.432 6.73469 102.43 6.72394 102.43 6.71435C102.409 6.50549 102.398 6.29905 102.398 6.09378C102.398 4.47698 103.038 2.92749 104.174 1.78479ZM110.115 5.25773C110.474 6.97259 109.697 8.58635 108.379 8.86217C107.061 9.13789 105.702 7.97125 105.343 6.25638C104.984 4.54152 105.762 2.92776 107.079 2.65203C108.397 2.37622 109.757 3.54286 110.115 5.25773Z" fill="white"/>
<path d="M46.0273 28.9731V27.7011H47.7913V28.9731H46.0273ZM45.8233 38.5131C45.3193 38.5131 44.8873 38.4411 44.5273 38.2971V37.1811C44.6553 37.2211 44.7793 37.2491 44.8993 37.2651C45.0273 37.2891 45.1433 37.3011 45.2473 37.3011C45.5753 37.3011 45.8113 37.2331 45.9553 37.0971C46.0993 36.9691 46.1713 36.7611 46.1713 36.4731V31.2171H45.3193L45.4633 30.0171H47.7913V36.6291C47.7913 37.1891 47.6273 37.6411 47.2993 37.9851C46.9793 38.3371 46.4873 38.5131 45.8233 38.5131ZM51.8979 35.8251C50.8339 35.8251 50.0539 35.5691 49.5579 35.0571C49.0619 34.5371 48.8139 33.8051 48.8139 32.8611C48.8139 31.9171 49.0619 31.1891 49.5579 30.6771C50.0619 30.1571 50.8419 29.8971 51.8979 29.8971C52.9619 29.8971 53.7419 30.1571 54.2379 30.6771C54.7419 31.1891 54.9939 31.9171 54.9939 32.8611C54.9939 33.8051 54.7459 34.5371 54.2499 35.0571C53.7539 35.5691 52.9699 35.8251 51.8979 35.8251ZM51.8979 34.4451C52.4179 34.4451 52.7899 34.3291 53.0139 34.0971C53.2379 33.8571 53.3499 33.4451 53.3499 32.8611C53.3499 32.2771 53.2379 31.8691 53.0139 31.6371C52.7899 31.3971 52.4179 31.2771 51.8979 31.2771C51.3859 31.2771 51.0179 31.3971 50.7939 31.6371C50.5699 31.8691 50.4579 32.2771 50.4579 32.8611C50.4579 33.4451 50.5699 33.8571 50.7939 34.0971C51.0179 34.3291 51.3859 34.4451 51.8979 34.4451ZM58.1003 35.8251C57.4203 35.8251 56.8883 35.6371 56.5043 35.2611C56.1283 34.8771 55.9403 34.3171 55.9403 33.5811V30.0171H57.5603V33.5451C57.5603 33.9291 57.6523 34.2091 57.8363 34.3851C58.0203 34.5531 58.2963 34.6371 58.6643 34.6371C58.9443 34.6371 59.2003 34.5811 59.4323 34.4691C59.6723 34.3571 59.8763 34.2171 60.0443 34.0491V30.0171H61.6643V35.7051H60.1643L60.1043 35.1651C59.8643 35.3571 59.5803 35.5171 59.2523 35.6451C58.9323 35.7651 58.5483 35.8251 58.1003 35.8251ZM62.9233 35.7051V30.0171H64.4233L64.4953 30.6051C64.7513 30.4451 65.0673 30.3011 65.4433 30.1731C65.8273 30.0371 66.2033 29.9451 66.5713 29.8971V31.1211C66.3553 31.1531 66.1193 31.2011 65.8633 31.2651C65.6073 31.3291 65.3633 31.4011 65.1313 31.4811C64.8993 31.5611 64.7033 31.6451 64.5433 31.7331V35.7051H62.9233ZM67.2798 35.7051V30.0171H68.7798L68.8398 30.5571C69.0718 30.3811 69.3638 30.2291 69.7158 30.1011C70.0758 29.9651 70.4518 29.8971 70.8438 29.8971C71.5958 29.8971 72.1438 30.0731 72.4878 30.4251C72.8318 30.7771 73.0038 31.3211 73.0038 32.0571V35.7051H71.3838V32.1411C71.3838 31.7571 71.3038 31.4851 71.1438 31.3251C70.9918 31.1651 70.7038 31.0851 70.2798 31.0851C70.0318 31.0851 69.7798 31.1411 69.5238 31.2531C69.2758 31.3651 69.0678 31.5051 68.8998 31.6731V35.7051H67.2798ZM75.815 35.8251C75.455 35.8251 75.119 35.7611 74.807 35.6331C74.503 35.4971 74.255 35.3011 74.063 35.0451C73.879 34.7811 73.787 34.4531 73.787 34.0611C73.787 33.5011 73.983 33.0531 74.375 32.7171C74.775 32.3811 75.363 32.2131 76.139 32.2131H77.819V32.0571C77.819 31.7051 77.719 31.4571 77.519 31.3131C77.327 31.1691 76.935 31.0971 76.343 31.0971C75.695 31.0971 75.071 31.1971 74.471 31.3971V30.2571C74.735 30.1531 75.055 30.0691 75.431 30.0051C75.815 29.9331 76.231 29.8971 76.679 29.8971C77.535 29.8971 78.195 30.0731 78.659 30.4251C79.131 30.7691 79.367 31.3251 79.367 32.0931V35.7051H77.963L77.879 35.1891C77.655 35.3891 77.379 35.5451 77.051 35.6571C76.723 35.7691 76.311 35.8251 75.815 35.8251ZM76.259 34.7571C76.619 34.7571 76.931 34.6971 77.195 34.5771C77.459 34.4571 77.667 34.3051 77.819 34.1211V33.2211H76.175C75.543 33.2211 75.227 33.4811 75.227 34.0011C75.227 34.5051 75.571 34.7571 76.259 34.7571ZM82.1355 35.8251C81.5835 35.8251 81.1795 35.6971 80.9235 35.4411C80.6755 35.1851 80.5515 34.7771 80.5515 34.2171V27.6171H82.1715V34.0851C82.1715 34.2851 82.2115 34.4251 82.2915 34.5051C82.3715 34.5771 82.4875 34.6131 82.6395 34.6131C82.8475 34.6131 83.0355 34.5851 83.2035 34.5291V35.6451C82.8995 35.7651 82.5435 35.8251 82.1355 35.8251ZM83.9799 28.9731V27.7011H85.7439V28.9731H83.9799ZM84.1119 35.7051V31.2171H83.2599L83.4039 30.0171H85.7319V35.7051H84.1119ZM88.9952 35.8251C88.5712 35.8251 88.1672 35.7931 87.7832 35.7291C87.3992 35.6731 87.0912 35.6011 86.8592 35.5131V34.1691C87.1392 34.2811 87.4552 34.3691 87.8072 34.4331C88.1592 34.4891 88.4832 34.5171 88.7792 34.5171C89.1792 34.5171 89.4592 34.4931 89.6192 34.4451C89.7872 34.3971 89.8712 34.2891 89.8712 34.1211C89.8712 33.9291 89.7432 33.7891 89.4872 33.7011C89.2392 33.6131 88.8672 33.4891 88.3712 33.3291C87.8512 33.1531 87.4512 32.9411 87.1712 32.6931C86.8912 32.4451 86.7512 32.0771 86.7512 31.5891C86.7512 31.0451 86.9472 30.6291 87.3392 30.3411C87.7392 30.0451 88.3792 29.8971 89.2592 29.8971C89.6112 29.8971 89.9432 29.9251 90.2552 29.9811C90.5672 30.0291 90.8312 30.0891 91.0472 30.1611V31.4931C90.8312 31.3891 90.5832 31.3131 90.3032 31.2651C90.0232 31.2091 89.7632 31.1811 89.5232 31.1811C89.1792 31.1811 88.9032 31.2051 88.6952 31.2531C88.4952 31.3011 88.3952 31.4051 88.3952 31.5651C88.3952 31.7411 88.5032 31.8651 88.7192 31.9371C88.9432 32.0091 89.2872 32.1171 89.7512 32.2611C90.2072 32.3971 90.5632 32.5451 90.8192 32.7051C91.0752 32.8651 91.2552 33.0571 91.3592 33.2811C91.4632 33.4971 91.5152 33.7691 91.5152 34.0971C91.5152 35.2491 90.6752 35.8251 88.9952 35.8251ZM94.5999 35.8251C93.9439 35.8251 93.4559 35.6531 93.1359 35.3091C92.8239 34.9651 92.6679 34.4971 92.6679 33.9051V31.2651H91.8639V30.0171H92.6679V28.7931L94.2879 28.3131V30.0171H95.7279L95.6319 31.2651H94.2879V33.7971C94.2879 34.1091 94.3599 34.3251 94.5039 34.4451C94.6479 34.5571 94.8719 34.6131 95.1759 34.6131C95.3999 34.6131 95.6319 34.5731 95.8719 34.4931V35.6091C95.6959 35.6811 95.5039 35.7331 95.2959 35.7651C95.0879 35.8051 94.8559 35.8251 94.5999 35.8251ZM96.3433 35.7051V34.4931H97.6633V35.7051H96.3433ZM98.6664 35.7051V30.0171H100.166L100.226 30.5571C100.458 30.3811 100.75 30.2291 101.102 30.1011C101.462 29.9651 101.838 29.8971 102.23 29.8971C102.982 29.8971 103.53 30.0731 103.874 30.4251C104.218 30.7771 104.39 31.3211 104.39 32.0571V35.7051H102.77V32.1411C102.77 31.7571 102.69 31.4851 102.53 31.3251C102.378 31.1651 102.09 31.0851 101.666 31.0851C101.418 31.0851 101.166 31.1411 100.91 31.2531C100.662 31.3651 100.454 31.5051 100.286 31.6731V35.7051H98.6664ZM108.366 35.8251C107.382 35.8251 106.602 35.5811 106.026 35.0931C105.45 34.5971 105.162 33.8491 105.162 32.8491C105.162 31.9451 105.402 31.2291 105.882 30.7011C106.37 30.1651 107.094 29.8971 108.054 29.8971C108.934 29.8971 109.606 30.1291 110.07 30.5931C110.542 31.0491 110.778 31.6491 110.778 32.3931V33.4251H106.662C106.75 33.8811 106.958 34.1931 107.286 34.3611C107.622 34.5291 108.094 34.6131 108.702 34.6131C109.006 34.6131 109.314 34.5851 109.626 34.5291C109.946 34.4731 110.218 34.4011 110.442 34.3131V35.4651C110.178 35.5851 109.87 35.6731 109.518 35.7291C109.166 35.7931 108.782 35.8251 108.366 35.8251ZM106.662 32.4291H109.362V32.1171C109.362 31.7891 109.266 31.5331 109.074 31.3491C108.882 31.1571 108.558 31.0611 108.102 31.0611C107.566 31.0611 107.19 31.1691 106.974 31.3851C106.766 31.6011 106.662 31.9491 106.662 32.4291ZM114.042 35.8251C113.386 35.8251 112.898 35.6531 112.578 35.3091C112.266 34.9651 112.11 34.4971 112.11 33.9051V31.2651H111.306V30.0171H112.11V28.7931L113.73 28.3131V30.0171H115.17L115.074 31.2651H113.73V33.7971C113.73 34.1091 113.802 34.3251 113.946 34.4451C114.09 34.5571 114.314 34.6131 114.618 34.6131C114.842 34.6131 115.074 34.5731 115.314 34.4931V35.6091C115.138 35.6811 114.946 35.7331 114.738 35.7651C114.53 35.8051 114.298 35.8251 114.042 35.8251Z" fill="white"/>
</svg>
