<svg width="40" height="41" viewBox="0 0 40 41" fill="none" xmlns="http://www.w3.org/2000/svg">
<path d="M29 20.0645C29 20.2634 28.921 20.4541 28.7803 20.5948C28.6397 20.7354 28.4489 20.8145 28.25 20.8145H20.75V28.3145C20.75 28.5134 20.671 28.7041 20.5303 28.8448C20.3897 28.9854 20.1989 29.0645 20 29.0645C19.8011 29.0645 19.6103 28.9854 19.4697 28.8448C19.329 28.7041 19.25 28.5134 19.25 28.3145V20.8145H11.75C11.5511 20.8145 11.3603 20.7354 11.2197 20.5948C11.079 20.4541 11 20.2634 11 20.0645C11 19.8655 11.079 19.6748 11.2197 19.5341C11.3603 19.3935 11.5511 19.3145 11.75 19.3145H19.25V11.8145C19.25 11.6155 19.329 11.4248 19.4697 11.2841C19.6103 11.1435 19.8011 11.0645 20 11.0645C20.1989 11.0645 20.3897 11.1435 20.5303 11.2841C20.671 11.4248 20.75 11.6155 20.75 11.8145V19.3145H28.25C28.4489 19.3145 28.6397 19.3935 28.7803 19.5341C28.921 19.6748 29 19.8655 29 20.0645Z" fill="white"/>
</svg>
