<svg width="270" height="93" viewBox="0 0 270 93" fill="none" xmlns="http://www.w3.org/2000/svg">
<g clip-path="url(#clip0_289_7900)">
<path d="M26.153 30.0354H25.1992L27.9578 22.5225H28.8968L31.6555 30.0354H30.7018L28.4567 23.7112H28.398L26.153 30.0354ZM26.5052 27.1007H30.3496V27.9078H26.5052V27.1007ZM33.7354 22.5225V30.0354H32.8257V22.5225H33.7354ZM41.605 24.8703H40.6953C40.6415 24.6087 40.5473 24.3788 40.4129 24.1807C40.2808 23.9826 40.1193 23.8163 39.9286 23.6818C39.7403 23.5448 39.5311 23.4421 39.3013 23.3737C39.0715 23.3052 38.8317 23.2709 38.5823 23.2709C38.1275 23.2709 37.7154 23.3859 37.3461 23.6158C36.9792 23.8456 36.687 24.1843 36.4694 24.6319C36.2541 25.0794 36.1465 25.6285 36.1465 26.279C36.1465 26.9296 36.2541 27.4785 36.4694 27.9261C36.687 28.3736 36.9792 28.7123 37.3461 28.9422C37.7154 29.1721 38.1275 29.287 38.5823 29.287C38.8317 29.287 39.0715 29.2527 39.3013 29.1844C39.5311 29.1159 39.7403 29.0143 39.9286 28.8799C40.1193 28.7429 40.2808 28.5754 40.4129 28.3773C40.5473 28.1768 40.6415 27.9468 40.6953 27.6876H41.605C41.5365 28.0716 41.4118 28.4152 41.2309 28.7184C41.0499 29.0217 40.8249 29.2797 40.5559 29.4925C40.2869 29.7028 39.9848 29.863 39.6498 29.973C39.3172 30.0831 38.9614 30.1381 38.5823 30.1381C37.9415 30.1381 37.3717 29.9816 36.8728 29.6685C36.3739 29.3555 35.9814 28.9103 35.6953 28.3332C35.4092 27.7561 35.266 27.0713 35.266 26.279C35.266 25.4866 35.4092 24.8018 35.6953 24.2247C35.9814 23.6476 36.3739 23.2024 36.8728 22.8894C37.3717 22.5764 37.9415 22.4199 38.5823 22.4199C38.9614 22.4199 39.3172 22.4748 39.6498 22.5849C39.9848 22.695 40.2869 22.8564 40.5559 23.0692C40.8249 23.2795 41.0499 23.5363 41.2309 23.8395C41.4118 24.1403 41.5365 24.4839 41.605 24.8703ZM43.0752 30.0354V22.5225H45.6137C46.203 22.5225 46.6847 22.629 47.0589 22.8417C47.4356 23.0521 47.7143 23.337 47.8954 23.6965C48.0763 24.056 48.1668 24.457 48.1668 24.8997C48.1668 25.3424 48.0763 25.7446 47.8954 26.1065C47.7168 26.4685 47.4405 26.7571 47.0663 26.9722C46.6921 27.1851 46.2128 27.2914 45.6283 27.2914H43.8088V26.4844H45.599C46.0024 26.4844 46.3264 26.4147 46.5711 26.2754C46.8156 26.1359 46.9929 25.9476 47.103 25.7103C47.2155 25.4707 47.2718 25.2005 47.2718 24.8997C47.2718 24.5989 47.2155 24.3299 47.103 24.0926C46.9929 23.8554 46.8144 23.6696 46.5674 23.535C46.3203 23.3982 45.9926 23.3296 45.5843 23.3296H43.9849V30.0354H43.0752ZM49.1737 30.0354H48.22L50.9787 22.5225H51.9177L54.6763 30.0354H53.7225L51.4775 23.7112H51.4188L49.1737 30.0354ZM49.5259 27.1007H53.3703V27.9078H49.5259V27.1007Z" fill="white" fill-opacity="0.6"/>
<path d="M33.3527 42.3532C33.3234 42.0572 33.1975 41.8273 32.9749 41.6636C32.7524 41.4996 32.4503 41.4177 32.0688 41.4177C31.8096 41.4177 31.5908 41.4544 31.4122 41.5278C31.2337 41.5987 31.0967 41.6978 31.0013 41.8249C30.9084 41.9521 30.862 42.0963 30.862 42.2578C30.8571 42.3922 30.8852 42.5097 30.9464 42.61C31.0098 42.7102 31.0967 42.797 31.2068 42.8704C31.3167 42.9414 31.444 43.0037 31.5883 43.0574C31.7325 43.1088 31.8867 43.1529 32.0505 43.1896L32.7254 43.3509C33.0532 43.4243 33.354 43.5222 33.6278 43.6445C33.9017 43.7667 34.139 43.9171 34.3395 44.0956C34.54 44.2742 34.6954 44.4845 34.8055 44.7266C34.9179 44.9686 34.9754 45.2463 34.9778 45.5594C34.9754 46.0191 34.8579 46.4177 34.6256 46.7552C34.3958 47.0903 34.0632 47.3507 33.6278 47.5366C33.1951 47.72 32.6728 47.8117 32.0615 47.8117C31.455 47.8117 30.9268 47.7188 30.4767 47.533C30.0292 47.347 29.6796 47.0719 29.4276 46.7075C29.1781 46.3406 29.0473 45.8871 29.0352 45.3465H30.5722C30.5893 45.5985 30.6613 45.8088 30.7886 45.9775C30.9182 46.1438 31.0906 46.2697 31.3057 46.3553C31.5235 46.4385 31.7692 46.4801 32.0431 46.4801C32.3121 46.4801 32.5458 46.441 32.7438 46.3627C32.9443 46.2844 33.0996 46.1756 33.2097 46.0362C33.3197 45.8969 33.3747 45.7366 33.3747 45.5557C33.3747 45.3869 33.3246 45.2451 33.2244 45.1301C33.1266 45.0151 32.9822 44.9174 32.7915 44.8367C32.6031 44.7559 32.372 44.6825 32.0982 44.6166L31.2802 44.4111C30.6468 44.2571 30.1466 44.0161 29.7797 43.6884C29.4129 43.3607 29.2307 42.9193 29.2332 42.3642C29.2307 41.9093 29.3519 41.5119 29.5964 41.1719C29.8434 40.832 30.1821 40.5667 30.6125 40.376C31.0429 40.1851 31.532 40.0898 32.0798 40.0898C32.6374 40.0898 33.1241 40.1851 33.5399 40.376C33.958 40.5667 34.2833 40.832 34.5157 41.1719C34.748 41.5119 34.8677 41.9056 34.8751 42.3532H33.3527ZM42.9501 43.949C42.9501 44.7682 42.7948 45.4652 42.4843 46.0398C42.1761 46.6145 41.7554 47.0536 41.2224 47.3568C40.6916 47.6576 40.0949 47.8081 39.4321 47.8081C38.7645 47.8081 38.1653 47.6564 37.6347 47.3531C37.1039 47.0499 36.6846 46.6109 36.3765 46.0362C36.0682 45.4615 35.9142 44.7657 35.9142 43.949C35.9142 43.1296 36.0682 42.4326 36.3765 41.8579C36.6846 41.2832 37.1039 40.8454 37.6347 40.5446C38.1653 40.2414 38.7645 40.0898 39.4321 40.0898C40.0949 40.0898 40.6916 40.2414 41.2224 40.5446C41.7554 40.8454 42.1761 41.2832 42.4843 41.8579C42.7948 42.4326 42.9501 43.1296 42.9501 43.949ZM41.3397 43.949C41.3397 43.4182 41.2601 42.9707 41.1013 42.6063C40.9447 42.2419 40.7234 41.9656 40.4373 41.7772C40.1512 41.5889 39.8161 41.4947 39.4321 41.4947C39.0481 41.4947 38.7131 41.5889 38.427 41.7772C38.1409 41.9656 37.9184 42.2419 37.7593 42.6063C37.6029 42.9707 37.5246 43.4182 37.5246 43.949C37.5246 44.4796 37.6029 44.9272 37.7593 45.2915C37.9184 45.6559 38.1409 45.9322 38.427 46.1206C38.7131 46.3088 39.0481 46.403 39.4321 46.403C39.8161 46.403 40.1512 46.3088 40.4373 46.1206C40.7234 45.9322 40.9447 45.6559 41.1013 45.2915C41.2601 44.9272 41.3397 44.4796 41.3397 43.949ZM50.7554 42.8227H49.1487C49.1193 42.6149 49.0594 42.4302 48.969 42.2688C48.8785 42.1049 48.7622 41.9656 48.6205 41.8506C48.4786 41.7356 48.3148 41.6477 48.1288 41.5865C47.9455 41.5253 47.7462 41.4947 47.5309 41.4947C47.142 41.4947 46.8033 41.5914 46.5148 41.7845C46.2262 41.9754 46.0025 42.2541 45.8434 42.621C45.6846 42.9854 45.605 43.428 45.605 43.949C45.605 44.4845 45.6846 44.9345 45.8434 45.2988C46.0049 45.6632 46.2299 45.9383 46.5184 46.1243C46.807 46.3101 47.1408 46.403 47.5199 46.403C47.7328 46.403 47.9296 46.3749 48.1105 46.3186C48.294 46.2624 48.4566 46.1805 48.5985 46.0729C48.7402 45.9628 48.8577 45.8296 48.9506 45.673C49.046 45.5165 49.112 45.3379 49.1487 45.1375L50.7554 45.1448C50.7138 45.4896 50.61 45.8222 50.4436 46.1426C50.2798 46.4605 50.0584 46.7454 49.7796 46.9973C49.5033 47.2467 49.1731 47.4449 48.7892 47.5915C48.4076 47.7359 47.9761 47.8081 47.4942 47.8081C46.8241 47.8081 46.225 47.6564 45.6968 47.3531C45.171 47.0499 44.7553 46.6109 44.4496 46.0362C44.1463 45.4615 43.9946 44.7657 43.9946 43.949C43.9946 43.1296 44.1488 42.4326 44.4569 41.8579C44.765 41.2832 45.1831 40.8454 45.7115 40.5446C46.2397 40.2414 46.8339 40.0898 47.4942 40.0898C47.9296 40.0898 48.3331 40.1509 48.7049 40.2732C49.0789 40.3955 49.4103 40.574 49.6989 40.8087C49.9876 41.0412 50.2223 41.3261 50.4032 41.6636C50.5867 42.001 50.704 42.3873 50.7554 42.8227Z" fill="white" fill-opacity="0.6"/>
<path d="M66.8346 35.1963H13.168M66.8346 35.0648C66.8346 49.8844 54.8209 61.8981 40.0013 61.8981C25.1817 61.8981 13.168 49.8844 13.168 35.0648C13.168 20.2451 25.1817 8.23145 40.0013 8.23145C54.8209 8.23145 66.8346 20.2451 66.8346 35.0648Z" stroke="white" stroke-opacity="0.6" stroke-width="0.583333"/>
</g>
<path d="M12.7567 83.1605C11.9487 83.1605 11.2487 82.9245 10.6567 82.4525C10.0647 81.9725 9.70072 81.3485 9.56472 80.5805L10.5967 80.2445C10.6767 80.8285 10.9207 81.3005 11.3287 81.6605C11.7367 82.0125 12.2207 82.1885 12.7807 82.1885C13.3567 82.1885 13.8167 82.0645 14.1607 81.8165C14.5047 81.5605 14.6767 81.2245 14.6767 80.8085C14.6767 80.4645 14.5567 80.1765 14.3167 79.9445C14.0847 79.7045 13.7927 79.5325 13.4407 79.4285C13.0887 79.3165 12.7047 79.1925 12.2887 79.0565C11.8727 78.9205 11.4887 78.7805 11.1367 78.6365C10.7847 78.4925 10.4887 78.2605 10.2487 77.9405C10.0167 77.6205 9.90072 77.2285 9.90072 76.7645C9.90072 76.1165 10.1647 75.5885 10.6927 75.1805C11.2207 74.7725 11.9007 74.5685 12.7327 74.5685C13.5007 74.5685 14.1567 74.7605 14.7007 75.1445C15.2447 75.5205 15.5687 76.0205 15.6727 76.6445L14.6767 77.0285C14.5887 76.5725 14.3727 76.2125 14.0287 75.9485C13.6927 75.6765 13.2607 75.5405 12.7327 75.5405C12.1967 75.5405 11.7727 75.6525 11.4607 75.8765C11.1567 76.0925 11.0047 76.3885 11.0047 76.7645C11.0047 77.0205 11.0927 77.2365 11.2687 77.4125C11.4447 77.5885 11.6727 77.7245 11.9527 77.8205C12.2407 77.9165 12.5527 78.0085 12.8887 78.0965C13.2327 78.1845 13.5727 78.2885 13.9087 78.4085C14.2527 78.5285 14.5647 78.6805 14.8447 78.8645C15.1327 79.0405 15.3647 79.2925 15.5407 79.6205C15.7167 79.9485 15.8047 80.3405 15.8047 80.7965C15.8047 81.5085 15.5247 82.0805 14.9647 82.5125C14.4127 82.9445 13.6767 83.1605 12.7567 83.1605ZM20.64 83.1605C19.44 83.1605 18.448 82.7565 17.664 81.9485C16.888 81.1405 16.5 80.1125 16.5 78.8645C16.5 77.6165 16.888 76.5885 17.664 75.7805C18.448 74.9725 19.44 74.5685 20.64 74.5685C21.832 74.5685 22.816 74.9725 23.592 75.7805C24.376 76.5885 24.768 77.6165 24.768 78.8645C24.768 80.1125 24.376 81.1405 23.592 81.9485C22.816 82.7565 21.832 83.1605 20.64 83.1605ZM20.628 82.1765C21.508 82.1765 22.232 81.8645 22.8 81.2405C23.368 80.6165 23.652 79.8245 23.652 78.8645C23.652 77.9045 23.368 77.1125 22.8 76.4885C22.232 75.8565 21.508 75.5405 20.628 75.5405C19.756 75.5405 19.036 75.8565 18.468 76.4885C17.9 77.1125 17.616 77.9045 17.616 78.8645C17.616 79.8245 17.9 80.6165 18.468 81.2405C19.036 81.8645 19.756 82.1765 20.628 82.1765ZM29.5978 83.1605C28.4618 83.1605 27.4978 82.7885 26.7058 82.0445C25.9138 81.2925 25.5178 80.2325 25.5178 78.8645C25.5178 77.4965 25.9138 76.4405 26.7058 75.6965C27.5058 74.9445 28.4698 74.5685 29.5978 74.5685C30.5098 74.5685 31.2818 74.8085 31.9138 75.2885C32.5538 75.7605 32.9618 76.4045 33.1378 77.2205L32.0578 77.4605C31.9218 76.8525 31.6378 76.3805 31.2058 76.0445C30.7818 75.7085 30.2418 75.5405 29.5858 75.5405C28.7058 75.5405 27.9938 75.8325 27.4498 76.4165C26.9138 77.0005 26.6458 77.8165 26.6458 78.8645C26.6458 79.9125 26.9138 80.7285 27.4498 81.3125C27.9938 81.8885 28.7058 82.1765 29.5858 82.1765C30.2338 82.1765 30.7658 82.0165 31.1818 81.6965C31.6058 81.3765 31.8938 80.9245 32.0458 80.3405L33.1378 80.5685C32.9218 81.3685 32.5018 82.0005 31.8778 82.4645C31.2538 82.9285 30.4938 83.1605 29.5978 83.1605ZM38.8987 83.0645V75.6365H36.2227V74.6645H42.6547V75.6365H39.9907V83.0645H38.8987ZM46.942 77.0165H47.986L44.818 85.2485H43.774L44.65 82.9805L42.286 77.0165H43.39L45.166 81.6485L46.942 77.0165ZM48.7297 85.2485V77.0165H49.7497V77.8925C49.9177 77.6125 50.1817 77.3805 50.5417 77.1965C50.9097 77.0125 51.3097 76.9205 51.7417 76.9205C52.6457 76.9205 53.3537 77.2125 53.8657 77.7965C54.3777 78.3725 54.6337 79.1205 54.6337 80.0405C54.6337 80.9525 54.3737 81.7005 53.8537 82.2845C53.3337 82.8685 52.6217 83.1605 51.7177 83.1605C51.3337 83.1605 50.9617 83.0765 50.6017 82.9085C50.2417 82.7325 49.9577 82.5045 49.7497 82.2245V85.2485H48.7297ZM51.6217 82.2485C52.2217 82.2485 52.7017 82.0485 53.0617 81.6485C53.4217 81.2405 53.6017 80.7045 53.6017 80.0405C53.6017 79.3765 53.4217 78.8445 53.0617 78.4445C52.7017 78.0365 52.2217 77.8325 51.6217 77.8325C51.0297 77.8325 50.5537 78.0365 50.1937 78.4445C49.8417 78.8445 49.6657 79.3765 49.6657 80.0405C49.6657 80.7045 49.8417 81.2405 50.1937 81.6485C50.5537 82.0485 51.0297 82.2485 51.6217 82.2485ZM61.1688 79.7645C61.1688 79.9325 61.1608 80.0885 61.1448 80.2325H56.3688C56.4008 80.8405 56.5928 81.3325 56.9448 81.7085C57.3048 82.0765 57.7568 82.2605 58.3008 82.2605C58.7648 82.2605 59.1488 82.1565 59.4528 81.9485C59.7568 81.7405 59.9528 81.4485 60.0408 81.0725L61.0008 81.3005C60.8488 81.8845 60.5328 82.3405 60.0528 82.6685C59.5808 82.9965 58.9968 83.1605 58.3008 83.1605C57.4128 83.1605 56.6968 82.8605 56.1528 82.2605C55.6168 81.6605 55.3488 80.9205 55.3488 80.0405C55.3488 79.1525 55.6128 78.4125 56.1408 77.8205C56.6768 77.2205 57.3888 76.9205 58.2768 76.9205C59.1488 76.9205 59.8488 77.1965 60.3768 77.7485C60.9048 78.2925 61.1688 78.9645 61.1688 79.7645ZM56.4288 79.3805H60.0888C60.0408 78.9005 59.8568 78.5125 59.5368 78.2165C59.2168 77.9205 58.7968 77.7725 58.2768 77.7725C57.8048 77.7725 57.4048 77.9165 57.0768 78.2045C56.7488 78.4845 56.5328 78.8765 56.4288 79.3805ZM64.4284 83.0645L64.4164 82.1165L67.5724 79.3925C68.5084 78.5845 68.9764 77.8165 68.9764 77.0885C68.9764 76.6165 68.8284 76.2405 68.5324 75.9605C68.2444 75.6805 67.8564 75.5405 67.3684 75.5405C66.7844 75.5405 66.3364 75.7325 66.0244 76.1165C65.7124 76.4925 65.5884 76.9925 65.6524 77.6165L64.5964 77.5445C64.5324 76.6645 64.7564 75.9485 65.2684 75.3965C65.7884 74.8445 66.4884 74.5685 67.3684 74.5685C68.1924 74.5685 68.8524 74.8005 69.3484 75.2645C69.8524 75.7205 70.1044 76.3285 70.1044 77.0885C70.1044 77.6005 69.9564 78.1005 69.6604 78.5885C69.3644 79.0765 68.8924 79.5925 68.2444 80.1365L65.9644 82.0805H70.1044V83.0645H64.4284Z" fill="white" fill-opacity="0.6"/>
<g clip-path="url(#clip1_289_7900)">
<path d="M154.835 35.0648C154.835 49.8844 142.821 61.8981 128.001 61.8981M154.835 35.0648C154.835 20.2451 142.821 8.23145 128.001 8.23145M154.835 35.0648H142.001M128.001 61.8981C113.182 61.8981 101.168 49.8844 101.168 35.0648M128.001 61.8981C135.733 61.8981 142.001 49.8844 142.001 35.0648M128.001 61.8981C120.269 61.8981 114.001 49.8844 114.001 35.0648M128.001 61.8981V44.3981M101.168 35.0648C101.168 20.2451 113.182 8.23145 128.001 8.23145M101.168 35.0648H114.001M128.001 8.23145C120.269 8.23145 114.001 20.2451 114.001 35.0648M128.001 8.23145C135.733 8.23145 142.001 20.2451 142.001 35.0648M128.001 8.23145V25.7314" stroke="white" stroke-opacity="0.6" stroke-width="0.583333"/>
<path d="M119.501 39.3975V31.1772H120.281V39.3975H119.501ZM125.038 39.5684C123.3 39.5684 122.121 38.6341 122.001 37.3182L121.996 37.2555H122.776L122.782 37.3182C122.867 38.224 123.813 38.8449 125.078 38.8449C126.314 38.8449 127.202 38.1727 127.202 37.2498V37.2384C127.202 36.4808 126.661 35.9624 125.397 35.6776L124.554 35.4896C122.902 35.1136 122.207 34.4129 122.207 33.2793V33.2736C122.207 31.9691 123.374 31.0063 125.015 31.0063C126.621 31.0063 127.738 31.9406 127.835 33.1198L127.84 33.1938H127.06L127.054 33.1255C126.935 32.3337 126.16 31.7241 124.992 31.7298C123.859 31.7298 122.998 32.3394 122.998 33.2565V33.2622C122.998 33.9857 123.505 34.4471 124.753 34.7319L125.596 34.9256C127.305 35.313 127.994 36.0023 127.994 37.1473V37.153C127.994 38.6056 126.809 39.5684 125.038 39.5684ZM133.104 39.5684C130.786 39.5684 129.379 37.9106 129.379 35.2902V35.2788C129.379 32.6527 130.808 31.0063 133.104 31.0063C135.406 31.0063 136.824 32.6584 136.824 35.2788V35.2902C136.824 37.9049 135.417 39.5684 133.104 39.5684ZM133.104 38.8449C134.904 38.8449 136.032 37.4492 136.032 35.2902V35.2788C136.032 33.1084 134.899 31.7298 133.104 31.7298C131.31 31.7298 130.176 33.1084 130.176 35.2788V35.2902C130.176 37.4492 131.287 38.8449 133.104 38.8449Z" fill="white" fill-opacity="0.6"/>
</g>
<path d="M103.229 83.0645V74.6645H104.321V83.0645H103.229ZM108.489 83.1605C107.681 83.1605 106.981 82.9245 106.389 82.4525C105.797 81.9725 105.433 81.3485 105.297 80.5805L106.329 80.2445C106.409 80.8285 106.653 81.3005 107.061 81.6605C107.469 82.0125 107.953 82.1885 108.513 82.1885C109.089 82.1885 109.549 82.0645 109.893 81.8165C110.237 81.5605 110.409 81.2245 110.409 80.8085C110.409 80.4645 110.289 80.1765 110.049 79.9445C109.817 79.7045 109.525 79.5325 109.173 79.4285C108.821 79.3165 108.437 79.1925 108.021 79.0565C107.605 78.9205 107.221 78.7805 106.869 78.6365C106.517 78.4925 106.221 78.2605 105.981 77.9405C105.749 77.6205 105.633 77.2285 105.633 76.7645C105.633 76.1165 105.897 75.5885 106.425 75.1805C106.953 74.7725 107.633 74.5685 108.465 74.5685C109.233 74.5685 109.889 74.7605 110.433 75.1445C110.977 75.5205 111.301 76.0205 111.405 76.6445L110.409 77.0285C110.321 76.5725 110.105 76.2125 109.761 75.9485C109.425 75.6765 108.993 75.5405 108.465 75.5405C107.929 75.5405 107.505 75.6525 107.193 75.8765C106.889 76.0925 106.737 76.3885 106.737 76.7645C106.737 77.0205 106.825 77.2365 107.001 77.4125C107.177 77.5885 107.405 77.7245 107.685 77.8205C107.973 77.9165 108.285 78.0085 108.621 78.0965C108.965 78.1845 109.305 78.2885 109.641 78.4085C109.985 78.5285 110.297 78.6805 110.577 78.8645C110.865 79.0405 111.097 79.2925 111.273 79.6205C111.449 79.9485 111.537 80.3405 111.537 80.7965C111.537 81.5085 111.257 82.0805 110.697 82.5125C110.145 82.9445 109.409 83.1605 108.489 83.1605ZM116.372 83.1605C115.172 83.1605 114.18 82.7565 113.396 81.9485C112.62 81.1405 112.232 80.1125 112.232 78.8645C112.232 77.6165 112.62 76.5885 113.396 75.7805C114.18 74.9725 115.172 74.5685 116.372 74.5685C117.564 74.5685 118.548 74.9725 119.324 75.7805C120.108 76.5885 120.5 77.6165 120.5 78.8645C120.5 80.1125 120.108 81.1405 119.324 81.9485C118.548 82.7565 117.564 83.1605 116.372 83.1605ZM116.36 82.1765C117.24 82.1765 117.964 81.8645 118.532 81.2405C119.1 80.6165 119.384 79.8245 119.384 78.8645C119.384 77.9045 119.1 77.1125 118.532 76.4885C117.964 75.8565 117.24 75.5405 116.36 75.5405C115.488 75.5405 114.768 75.8565 114.2 76.4885C113.632 77.1125 113.348 77.9045 113.348 78.8645C113.348 79.8245 113.632 80.6165 114.2 81.2405C114.768 81.8645 115.488 82.1765 116.36 82.1765ZM123.772 83.0645L123.76 82.1165L126.916 79.3925C127.852 78.5845 128.32 77.8165 128.32 77.0885C128.32 76.6165 128.172 76.2405 127.876 75.9605C127.588 75.6805 127.2 75.5405 126.712 75.5405C126.128 75.5405 125.68 75.7325 125.368 76.1165C125.056 76.4925 124.932 76.9925 124.996 77.6165L123.94 77.5445C123.876 76.6645 124.1 75.9485 124.612 75.3965C125.132 74.8445 125.832 74.5685 126.712 74.5685C127.536 74.5685 128.196 74.8005 128.692 75.2645C129.196 75.7205 129.448 76.3285 129.448 77.0885C129.448 77.6005 129.3 78.1005 129.004 78.5885C128.708 79.0765 128.236 79.5925 127.588 80.1365L125.308 82.0805H129.448V83.0645H123.772ZM130.528 83.0645C130.776 80.9045 132.02 78.4285 134.26 75.6365H129.544V74.6645H135.388V75.6365C133.068 78.6285 131.82 81.1045 131.644 83.0645H130.528ZM138.874 83.1605C137.842 83.1605 137.046 82.7765 136.486 82.0085C135.934 81.2325 135.658 80.1845 135.658 78.8645C135.658 77.5445 135.934 76.5005 136.486 75.7325C137.046 74.9565 137.842 74.5685 138.874 74.5685C139.898 74.5685 140.69 74.9565 141.25 75.7325C141.81 76.5085 142.09 77.5525 142.09 78.8645C142.09 80.1765 141.81 81.2205 141.25 81.9965C140.69 82.7725 139.898 83.1605 138.874 83.1605ZM138.874 82.1765C139.538 82.1765 140.05 81.8805 140.41 81.2885C140.778 80.6965 140.962 79.8885 140.962 78.8645C140.962 77.8405 140.778 77.0325 140.41 76.4405C140.05 75.8405 139.538 75.5405 138.874 75.5405C138.194 75.5405 137.674 75.8365 137.314 76.4285C136.954 77.0205 136.774 77.8325 136.774 78.8645C136.774 79.8885 136.954 80.6965 137.314 81.2885C137.674 81.8805 138.194 82.1765 138.874 82.1765ZM146.041 83.1605C145.009 83.1605 144.213 82.7765 143.653 82.0085C143.101 81.2325 142.825 80.1845 142.825 78.8645C142.825 77.5445 143.101 76.5005 143.653 75.7325C144.213 74.9565 145.009 74.5685 146.041 74.5685C147.065 74.5685 147.857 74.9565 148.417 75.7325C148.977 76.5085 149.257 77.5525 149.257 78.8645C149.257 80.1765 148.977 81.2205 148.417 81.9965C147.857 82.7725 147.065 83.1605 146.041 83.1605ZM146.041 82.1765C146.705 82.1765 147.217 81.8805 147.577 81.2885C147.945 80.6965 148.129 79.8885 148.129 78.8645C148.129 77.8405 147.945 77.0325 147.577 76.4405C147.217 75.8405 146.705 75.5405 146.041 75.5405C145.361 75.5405 144.841 75.8365 144.481 76.4285C144.121 77.0205 143.941 77.8325 143.941 78.8645C143.941 79.8885 144.121 80.6965 144.481 81.2885C144.841 81.8805 145.361 82.1765 146.041 82.1765ZM151.743 83.0645V76.0325C151.223 76.5125 150.559 76.8245 149.751 76.9685V75.9965C150.615 75.8125 151.335 75.3685 151.911 74.6645H152.775V83.0645H151.743Z" fill="white" fill-opacity="0.6"/>
<g clip-path="url(#clip2_289_7900)">
<path d="M246.957 21.2324V48.8955L223 62.7266L199.043 48.8955V21.2324L223 7.40137L246.957 21.2324Z" stroke="white" stroke-opacity="0.6" stroke-width="0.583333"/>
<g clip-path="url(#clip3_289_7900)">
<path d="M206.666 25.5372L205.523 26.2353L205.834 24.9326L204.816 24.0614L206.151 23.9543L206.666 22.7178L207.18 23.9543L208.515 24.0614L207.498 24.9326L207.809 26.2353L206.666 25.5372Z" fill="white" fill-opacity="0.6"/>
</g>
<g clip-path="url(#clip4_289_7900)">
<path d="M214.834 22.0372L213.691 22.7353L214.001 21.4326L212.984 20.5614L214.319 20.4543L214.834 19.2178L215.348 20.4543L216.683 20.5614L215.666 21.4326L215.977 22.7353L214.834 22.0372Z" fill="white" fill-opacity="0.6"/>
</g>
<g clip-path="url(#clip5_289_7900)">
<path d="M231.166 22.0372L230.023 22.7353L230.334 21.4326L229.316 20.5614L230.651 20.4543L231.166 19.2178L231.68 20.4543L233.015 20.5614L231.998 21.4326L232.309 22.7353L231.166 22.0372Z" fill="white" fill-opacity="0.6"/>
</g>
<g clip-path="url(#clip6_289_7900)">
<path d="M222.998 18.5372L221.855 19.2353L222.166 17.9326L221.148 17.0614L222.483 16.9543L222.998 15.7178L223.512 16.9543L224.847 17.0614L223.83 17.9326L224.141 19.2353L222.998 18.5372Z" fill="white" fill-opacity="0.6"/>
</g>
<g clip-path="url(#clip7_289_7900)">
<path d="M239.334 25.5372L238.191 26.2353L238.501 24.9326L237.484 24.0614L238.819 23.9543L239.334 22.7178L239.848 23.9543L241.183 24.0614L240.166 24.9326L240.477 26.2353L239.334 25.5372Z" fill="white" fill-opacity="0.6"/>
</g>
<g clip-path="url(#clip8_289_7900)">
<path d="M206.666 46.5372L205.523 47.2353L205.834 45.9326L204.816 45.0614L206.151 44.9543L206.666 43.7178L207.18 44.9543L208.515 45.0614L207.498 45.9326L207.809 47.2353L206.666 46.5372Z" fill="white" fill-opacity="0.6"/>
</g>
<g clip-path="url(#clip9_289_7900)">
<path d="M214.834 50.0372L213.691 50.7353L214.001 49.4326L212.984 48.5614L214.319 48.4543L214.834 47.2178L215.348 48.4543L216.683 48.5614L215.666 49.4326L215.977 50.7353L214.834 50.0372Z" fill="white" fill-opacity="0.6"/>
</g>
<g clip-path="url(#clip10_289_7900)">
<path d="M231.166 50.0372L230.023 50.7353L230.334 49.4326L229.316 48.5614L230.651 48.4543L231.166 47.2178L231.68 48.4543L233.015 48.5614L231.998 49.4326L232.309 50.7353L231.166 50.0372Z" fill="white" fill-opacity="0.6"/>
</g>
<g clip-path="url(#clip11_289_7900)">
<path d="M222.998 53.5372L221.855 54.2353L222.166 52.9326L221.148 52.0614L222.483 51.9543L222.998 50.7178L223.512 51.9543L224.847 52.0614L223.83 52.9326L224.141 54.2353L222.998 53.5372Z" fill="white" fill-opacity="0.6"/>
</g>
<g clip-path="url(#clip12_289_7900)">
<path d="M239.334 46.5372L238.191 47.2353L238.501 45.9326L237.484 45.0614L238.819 44.9543L239.334 43.7178L239.848 44.9543L241.183 45.0614L240.166 45.9326L240.477 47.2353L239.334 46.5372Z" fill="white" fill-opacity="0.6"/>
</g>
<path d="M211.544 39.5684C209.322 39.5684 207.887 37.8879 207.887 35.2731V35.2617C207.887 32.6812 209.334 31.0063 211.544 31.0063C213.293 31.0063 214.563 31.9862 214.888 33.5186L214.899 33.5755H214.119L214.102 33.5243C213.76 32.3621 212.837 31.7298 211.544 31.7298C209.801 31.7298 208.684 33.1027 208.684 35.2617V35.2731C208.684 37.4606 209.795 38.8449 211.544 38.8449C213.139 38.8449 214.193 37.7682 214.193 36.1732V35.9909H211.652V35.3016H214.973V36.1048C214.973 38.1784 213.612 39.5684 211.544 39.5684ZM216.796 39.3975V31.1772H219.502C222.009 31.1772 223.404 32.7324 223.404 35.2788V35.2902C223.404 37.8423 222.014 39.3975 219.502 39.3975H216.796ZM217.577 38.6911H219.457C221.468 38.6911 222.607 37.415 222.607 35.2959V35.2845C222.607 33.1654 221.462 31.8836 219.457 31.8836H217.577V38.6911ZM225.182 39.3975V31.1772H228.098C229.665 31.1772 230.736 32.1969 230.736 33.7236V33.735C230.736 35.2617 229.665 36.2985 228.098 36.2985H225.962V39.3975H225.182ZM227.916 31.8722H225.962V35.6035H227.916C229.181 35.6035 229.944 34.9028 229.944 33.7407V33.7293C229.944 32.5729 229.181 31.8722 227.916 31.8722ZM232.428 39.3975V31.1772H235.373C236.974 31.1772 237.999 32.1115 237.999 33.5755V33.5869C237.999 34.7433 237.338 35.6149 236.239 35.9054L238.233 39.3975H237.321L235.43 36.0308C235.379 36.0308 235.322 36.0308 235.271 36.0308H233.208V39.3975H232.428ZM233.208 35.3358H235.31C236.501 35.3358 237.202 34.7035 237.202 33.6097V33.5983C237.202 32.5216 236.472 31.8722 235.276 31.8722H233.208V35.3358Z" fill="white" fill-opacity="0.6"/>
</g>
<path d="M183.715 83.1605C182.595 83.1605 181.639 82.7845 180.847 82.0325C180.063 81.2805 179.671 80.2245 179.671 78.8645C179.671 77.9445 179.867 77.1525 180.259 76.4885C180.651 75.8245 181.147 75.3405 181.747 75.0365C182.355 74.7245 183.019 74.5685 183.739 74.5685C184.675 74.5685 185.463 74.8085 186.103 75.2885C186.751 75.7685 187.159 76.4125 187.327 77.2205L186.247 77.4485C186.127 76.8565 185.843 76.3925 185.395 76.0565C184.955 75.7125 184.403 75.5405 183.739 75.5405C182.867 75.5405 182.159 75.8365 181.615 76.4285C181.071 77.0125 180.799 77.8245 180.799 78.8645C180.799 79.9045 181.067 80.7165 181.603 81.3005C182.147 81.8845 182.855 82.1765 183.727 82.1765C184.503 82.1765 185.127 81.9485 185.599 81.4925C186.071 81.0285 186.315 80.4245 186.331 79.6805H183.403V78.7325H187.363V83.0645H186.367V81.7685C186.175 82.1925 185.835 82.5325 185.347 82.7885C184.859 83.0365 184.315 83.1605 183.715 83.1605ZM188.721 83.0645V74.6645H191.217C192.433 74.6645 193.437 75.0365 194.229 75.7805C195.029 76.5245 195.429 77.5525 195.429 78.8645C195.429 80.1765 195.029 81.2045 194.229 81.9485C193.437 82.6925 192.433 83.0645 191.217 83.0645H188.721ZM189.801 82.0805H191.181C192.069 82.0805 192.809 81.8125 193.401 81.2765C194.001 80.7405 194.301 79.9365 194.301 78.8645C194.301 78.1365 194.149 77.5245 193.845 77.0285C193.549 76.5245 193.173 76.1685 192.717 75.9605C192.261 75.7445 191.749 75.6365 191.181 75.6365H189.801V82.0805ZM196.556 83.0645V74.6645H199.748C200.564 74.6645 201.216 74.8885 201.704 75.3365C202.192 75.7765 202.436 76.3645 202.436 77.1005C202.436 77.8365 202.192 78.4285 201.704 78.8765C201.216 79.3165 200.564 79.5365 199.748 79.5365H197.648V83.0645H196.556ZM197.648 78.5525H199.712C200.208 78.5525 200.596 78.4245 200.876 78.1685C201.164 77.9125 201.308 77.5565 201.308 77.1005C201.308 76.6445 201.164 76.2885 200.876 76.0325C200.596 75.7685 200.208 75.6365 199.712 75.6365H197.648V78.5525ZM209.898 83.0645H208.65L206.322 79.3205H204.462V83.0645H203.37V74.6645H206.394C207.194 74.6645 207.834 74.8765 208.314 75.3005C208.794 75.7245 209.034 76.2885 209.034 76.9925C209.034 77.5045 208.894 77.9525 208.614 78.3365C208.342 78.7125 207.962 78.9845 207.474 79.1525L209.898 83.0645ZM204.462 75.6365V78.3365H206.274C206.794 78.3365 207.198 78.2205 207.486 77.9885C207.774 77.7485 207.918 77.4165 207.918 76.9925C207.918 76.5685 207.774 76.2365 207.486 75.9965C207.198 75.7565 206.794 75.6365 206.274 75.6365H204.462ZM217.051 83.1605C215.915 83.1605 214.951 82.7885 214.159 82.0445C213.367 81.2925 212.971 80.2325 212.971 78.8645C212.971 77.4965 213.367 76.4405 214.159 75.6965C214.959 74.9445 215.923 74.5685 217.051 74.5685C217.963 74.5685 218.735 74.8085 219.367 75.2885C220.007 75.7605 220.415 76.4045 220.591 77.2205L219.511 77.4605C219.375 76.8525 219.091 76.3805 218.659 76.0445C218.235 75.7085 217.695 75.5405 217.039 75.5405C216.159 75.5405 215.447 75.8325 214.903 76.4165C214.367 77.0005 214.099 77.8165 214.099 78.8645C214.099 79.9125 214.367 80.7285 214.903 81.3125C215.447 81.8885 216.159 82.1765 217.039 82.1765C217.687 82.1765 218.219 82.0165 218.635 81.6965C219.059 81.3765 219.347 80.9245 219.499 80.3405L220.591 80.5685C220.375 81.3685 219.955 82.0005 219.331 82.4645C218.707 82.9285 217.947 83.1605 217.051 83.1605ZM226.566 82.2845C225.99 82.8685 225.254 83.1605 224.358 83.1605C223.462 83.1605 222.726 82.8685 222.15 82.2845C221.574 81.6925 221.286 80.9445 221.286 80.0405C221.286 79.1365 221.574 78.3925 222.15 77.8085C222.726 77.2165 223.462 76.9205 224.358 76.9205C225.254 76.9205 225.99 77.2165 226.566 77.8085C227.15 78.3925 227.442 79.1365 227.442 80.0405C227.442 80.9445 227.15 81.6925 226.566 82.2845ZM222.894 81.6365C223.27 82.0445 223.758 82.2485 224.358 82.2485C224.958 82.2485 225.446 82.0445 225.822 81.6365C226.198 81.2205 226.386 80.6885 226.386 80.0405C226.386 79.3925 226.198 78.8645 225.822 78.4565C225.446 78.0405 224.958 77.8325 224.358 77.8325C223.758 77.8325 223.27 78.0405 222.894 78.4565C222.518 78.8645 222.33 79.3925 222.33 80.0405C222.33 80.6885 222.518 81.2205 222.894 81.6365ZM228.507 83.0645V77.0165H229.527V78.1565C229.871 77.3325 230.479 76.9205 231.351 76.9205C231.847 76.9205 232.271 77.0325 232.623 77.2565C232.983 77.4805 233.215 77.7925 233.319 78.1925C233.487 77.8165 233.743 77.5125 234.087 77.2805C234.439 77.0405 234.835 76.9205 235.275 76.9205C235.923 76.9205 236.435 77.1085 236.811 77.4845C237.195 77.8605 237.387 78.3685 237.387 79.0085V83.0645H236.367V79.2125C236.367 78.7885 236.251 78.4525 236.019 78.2045C235.787 77.9485 235.463 77.8205 235.047 77.8205C234.543 77.8205 234.151 78.0245 233.871 78.4325C233.591 78.8405 233.451 79.3725 233.451 80.0285V83.0645H232.431V79.2125C232.431 78.7885 232.315 78.4525 232.083 78.2045C231.859 77.9485 231.539 77.8205 231.123 77.8205C230.619 77.8205 230.227 78.0245 229.947 78.4325C229.667 78.8405 229.527 79.3725 229.527 80.0285V83.0645H228.507ZM238.802 85.2485V77.0165H239.822V77.8925C239.99 77.6125 240.254 77.3805 240.614 77.1965C240.982 77.0125 241.382 76.9205 241.814 76.9205C242.718 76.9205 243.426 77.2125 243.938 77.7965C244.45 78.3725 244.706 79.1205 244.706 80.0405C244.706 80.9525 244.446 81.7005 243.926 82.2845C243.406 82.8685 242.694 83.1605 241.79 83.1605C241.406 83.1605 241.034 83.0765 240.674 82.9085C240.314 82.7325 240.03 82.5045 239.822 82.2245V85.2485H238.802ZM241.694 82.2485C242.294 82.2485 242.774 82.0485 243.134 81.6485C243.494 81.2405 243.674 80.7045 243.674 80.0405C243.674 79.3765 243.494 78.8445 243.134 78.4445C242.774 78.0365 242.294 77.8325 241.694 77.8325C241.102 77.8325 240.626 78.0365 240.266 78.4445C239.914 78.8445 239.738 79.3765 239.738 80.0405C239.738 80.7045 239.914 81.2405 240.266 81.6485C240.626 82.0485 241.102 82.2485 241.694 82.2485ZM245.769 83.0645V74.5685H246.789V83.0645H245.769ZM248.129 74.5685H249.305V75.8645H248.129V74.5685ZM248.201 83.0645V77.0165H249.221V83.0645H248.201ZM252.889 76.9205C253.633 76.9205 254.233 77.1245 254.689 77.5325C255.145 77.9405 255.373 78.4925 255.373 79.1885V83.0645H254.365V82.0325C254.189 82.3765 253.917 82.6525 253.549 82.8605C253.189 83.0605 252.789 83.1605 252.349 83.1605C251.749 83.1605 251.257 82.9965 250.873 82.6685C250.497 82.3325 250.309 81.9005 250.309 81.3725C250.309 80.2365 251.269 79.5725 253.189 79.3805L254.365 79.2485V79.1285C254.365 78.7125 254.229 78.3845 253.957 78.1445C253.693 77.8965 253.337 77.7725 252.889 77.7725C252.473 77.7725 252.129 77.8885 251.857 78.1205C251.585 78.3525 251.429 78.6725 251.389 79.0805L250.441 78.9005C250.529 78.3005 250.797 77.8205 251.245 77.4605C251.701 77.1005 252.249 76.9205 252.889 76.9205ZM252.505 82.3205C253.089 82.3205 253.545 82.1405 253.873 81.7805C254.201 81.4205 254.365 80.9365 254.365 80.3285V80.0405L253.189 80.1725C251.949 80.3085 251.329 80.7045 251.329 81.3605C251.329 81.6405 251.437 81.8725 251.653 82.0565C251.877 82.2325 252.161 82.3205 252.505 82.3205ZM256.791 83.0645V77.0165H257.811V78.1565C258.027 77.7805 258.315 77.4805 258.675 77.2565C259.035 77.0325 259.439 76.9205 259.887 76.9205C260.519 76.9205 261.035 77.1165 261.435 77.5085C261.843 77.9005 262.047 78.4165 262.047 79.0565V83.0645H261.027V79.2485C261.027 78.8325 260.903 78.4965 260.655 78.2405C260.407 77.9765 260.075 77.8445 259.659 77.8445C259.091 77.8445 258.639 78.0765 258.303 78.5405C257.975 78.9965 257.811 79.6205 257.811 80.4125V83.0645H256.791ZM266.459 83.0165C266.195 83.1125 265.879 83.1605 265.511 83.1605C264.967 83.1605 264.531 83.0045 264.203 82.6925C263.883 82.3725 263.723 81.8925 263.723 81.2525V77.9165H262.595V77.0165H263.723V75.1805H264.743V77.0165H266.363V77.9165H264.743V81.2885C264.743 81.6005 264.823 81.8365 264.983 81.9965C265.143 82.1565 265.359 82.2365 265.631 82.2365C265.927 82.2365 266.179 82.1845 266.387 82.0805L266.459 83.0165Z" fill="white" fill-opacity="0.6"/>
<defs>
<clipPath id="clip0_289_7900">
<rect width="56" height="56" fill="white" transform="translate(12 7.06445)"/>
</clipPath>
<clipPath id="clip1_289_7900">
<rect width="56" height="56" fill="white" transform="translate(100 7.06445)"/>
</clipPath>
<clipPath id="clip2_289_7900">
<rect width="56" height="56" fill="white" transform="translate(195 7.06445)"/>
</clipPath>
<clipPath id="clip3_289_7900">
<rect width="4.66667" height="4.66667" fill="white" transform="translate(204.332 22.2314)"/>
</clipPath>
<clipPath id="clip4_289_7900">
<rect width="4.66667" height="4.66667" fill="white" transform="translate(212.5 18.7314)"/>
</clipPath>
<clipPath id="clip5_289_7900">
<rect width="4.66667" height="4.66667" fill="white" transform="translate(228.832 18.7314)"/>
</clipPath>
<clipPath id="clip6_289_7900">
<rect width="4.66667" height="4.66667" fill="white" transform="translate(220.668 15.2314)"/>
</clipPath>
<clipPath id="clip7_289_7900">
<rect width="4.66667" height="4.66667" fill="white" transform="translate(237 22.2314)"/>
</clipPath>
<clipPath id="clip8_289_7900">
<rect width="4.66667" height="4.66667" fill="white" transform="translate(204.332 43.2314)"/>
</clipPath>
<clipPath id="clip9_289_7900">
<rect width="4.66667" height="4.66667" fill="white" transform="translate(212.5 46.7314)"/>
</clipPath>
<clipPath id="clip10_289_7900">
<rect width="4.66667" height="4.66667" fill="white" transform="translate(228.832 46.7314)"/>
</clipPath>
<clipPath id="clip11_289_7900">
<rect width="4.66667" height="4.66667" fill="white" transform="translate(220.668 50.2314)"/>
</clipPath>
<clipPath id="clip12_289_7900">
<rect width="4.66667" height="4.66667" fill="white" transform="translate(237 43.2314)"/>
</clipPath>
</defs>
</svg>
