<svg width="48" height="49" viewBox="0 0 48 49" fill="none" xmlns="http://www.w3.org/2000/svg">
<rect y="0.0644531" width="48" height="48" rx="24" fill="#34E0A1"/>
<path d="M19.4828 25.4831C19.4828 26.8544 18.371 27.9661 17 27.9661C15.629 27.9661 14.5172 26.8544 14.5172 25.4831C14.5172 24.1121 15.629 23.0001 17 23.0001C18.371 23.0001 19.4828 24.1121 19.4828 25.4831ZM30.9938 23.0001C29.6228 23.0001 28.5111 24.1121 28.5111 25.4831C28.5111 26.8544 29.6228 27.9661 30.9938 27.9661C32.3648 27.9661 33.4766 26.8544 33.4766 25.4831C33.4762 24.1127 32.3642 23.0007 30.9938 23.0001ZM37.9938 25.4831C37.9938 29.3472 34.8587 32.4801 30.9938 32.4801C29.2309 32.4831 27.5323 31.8177 26.2405 30.6179L24 33.0553L21.7586 30.6151C20.4669 31.8162 18.7677 32.4826 17.0038 32.4799C13.1417 32.4799 10.0077 29.3472 10.0077 25.4829C10.0063 24.5095 10.2086 23.5466 10.6016 22.656C10.9946 21.7655 11.5695 20.967 12.2895 20.3119L10 17.8208H15.087C20.4694 14.1574 27.5438 14.1574 32.9263 17.8208H38L35.7107 20.3119C36.4309 20.9669 37.0062 21.7654 37.3994 22.656C37.7926 23.5466 37.9951 24.5096 37.9938 25.4831ZM21.7365 25.4831C21.7365 22.8682 19.6166 20.7478 17.0017 20.7478C14.3869 20.7478 12.2669 22.8682 12.2669 25.4831C12.2669 28.098 14.3869 30.2184 17.0017 30.2184C19.6166 30.2184 21.7363 28.098 21.7365 25.4831ZM29.2538 18.4137C27.5888 17.72 25.8029 17.3629 23.9991 17.3629C22.1954 17.3629 20.4095 17.72 18.7445 18.4137C21.7337 19.5579 24 22.2305 24 25.3468C24 22.2307 26.2657 19.5579 29.2538 18.4137ZM35.7299 25.4829C35.7299 22.8678 33.61 20.7476 30.9951 20.7476C28.3802 20.7476 26.2603 22.8676 26.2603 25.4829C26.2603 28.0978 28.3802 30.2182 30.9951 30.2182C33.61 30.2182 35.7299 28.0978 35.7299 25.4829Z" fill="black"/>
</svg>
