<svg width="48" height="49" viewBox="0 0 48 49" fill="none" xmlns="http://www.w3.org/2000/svg">
<rect y="0.0649414" width="48" height="48" rx="24" fill="white"/>
<g clip-path="url(#clip0_1240_24276)">
<path d="M37.0375 28.1591H38.8987V24.7589C38.8987 23.9833 39.3521 23.4344 40.0202 23.4344C40.6644 23.4344 40.9985 23.8879 40.9985 24.5322V28.1591H42.8597V24.1744C42.8597 22.826 42.0485 21.8715 40.736 21.8715C39.9009 21.8715 39.3162 22.2295 38.8748 22.8857H38.839V22.0505H37.0374V28.1591H37.0375ZM33.3866 21.8834C31.4418 21.8834 30.1414 23.2794 30.1414 25.1167C30.1414 26.9422 31.4419 28.3501 33.3866 28.3501C35.3313 28.3501 36.6317 26.9422 36.6317 25.1167C36.6317 23.2793 35.3313 21.8834 33.3866 21.8834ZM33.3747 26.9779C32.4917 26.9779 32.0265 26.2383 32.0265 25.1167C32.0265 23.9833 32.4917 23.2555 33.3747 23.2555C34.2575 23.2555 34.7467 23.9832 34.7467 25.1167C34.7467 26.2383 34.2575 26.9779 33.3747 26.9779ZM24.844 28.1591H30.0698V26.6917H27.111V26.6557L29.9386 23.4821V22.0505H24.844V23.5179H27.7075V23.5538L24.844 26.7512V28.1591ZM22.4576 28.1591H24.3307V22.0505H22.4576V28.1591ZM18.1147 28.1591H19.9759V25.3554C19.9759 24.0787 20.7395 23.5179 21.9087 23.6731H21.9445V22.0625C21.849 22.0266 21.7417 22.0147 21.5628 22.0147C20.835 22.0147 20.3458 22.3487 19.9282 23.0646H19.8923V22.0505H18.1147V28.1591ZM14.6906 26.99C13.8673 26.99 13.3663 26.4529 13.2708 25.6299H17.6733C17.6852 24.3173 17.3391 23.2674 16.6113 22.6112C16.0984 22.134 15.4182 21.8715 14.5593 21.8715C12.722 21.8715 11.4453 23.2674 11.4453 25.0928C11.4453 26.9301 12.6623 28.338 14.6786 28.338C15.4422 28.338 16.0506 28.1352 16.5517 27.7891C17.0887 27.4194 17.4704 26.8824 17.5777 26.3456H15.7881C15.6092 26.7512 15.2393 26.99 14.6906 26.99ZM14.5951 23.2077C15.2513 23.2077 15.7046 23.697 15.7762 24.4128H13.2827C13.4259 23.6849 13.8196 23.2077 14.5951 23.2077ZM22.4576 19.8789H24.3307V21.5374H22.4576V19.8789Z" fill="#EE001E"/>
<path d="M9.26518 28.0833L6.94922 22.0508H5.07031L7.38627 28.0833C7.40384 28.1293 7.44795 28.1594 7.49702 28.1594H9.37593C9.32686 28.1594 9.28275 28.1293 9.26518 28.0833Z" fill="url(#paint0_radial_1240_24276)"/>
<path d="M7.61075 28.0833L9.92671 22.0508H11.8056L9.48966 28.0833C9.47209 28.1293 9.42798 28.1594 9.37891 28.1594H7.5C7.54913 28.1594 7.59325 28.1293 7.61075 28.0833Z" fill="#EE001E"/>
</g>
<defs>
<radialGradient id="paint0_radial_1240_24276" cx="0" cy="0" r="1" gradientTransform="matrix(1.1007 -3.04862 3.29766 1.19187 8.98965 27.1107)" gradientUnits="userSpaceOnUse">
<stop stop-color="#F5FF1E"/>
<stop offset="0.257" stop-color="#F5FF1E"/>
<stop offset="0.2655" stop-color="#F5FA1E"/>
<stop offset="0.423" stop-color="#F5A620"/>
<stop offset="0.5621" stop-color="#F56321"/>
<stop offset="0.6779" stop-color="#F53322"/>
<stop offset="0.7657" stop-color="#F51523"/>
<stop offset="0.8155" stop-color="#F50A23"/>
</radialGradient>
<clipPath id="clip0_1240_24276">
<rect width="38.0033" height="8.51275" fill="white" transform="translate(5 19.8086)"/>
</clipPath>
</defs>
</svg>
