<svg width="150" height="48" viewBox="0 0 150 48" fill="none" xmlns="http://www.w3.org/2000/svg">
<g clip-path="url(#clip0_1253_24539)">
<mask id="mask0_1253_24539" style="mask-type:luminance" maskUnits="userSpaceOnUse" x="0" y="6" width="120" height="36">
<path d="M119.082 6.5H0.957031V41.5H119.082V6.5Z" fill="white"/>
</mask>
<g mask="url(#mask0_1253_24539)">
<path fill-rule="evenodd" clip-rule="evenodd" d="M57.8584 30.3477V25.8199C57.8584 23.2642 59.9316 21.5337 62.9498 21.5337C65.9686 21.5337 67.578 23.1838 67.578 26.3029V30.3477H69.4899V26.0413C69.4899 22.0166 67.4172 19.9037 63.4934 19.9037C60.9373 19.9037 58.9254 20.9299 57.8584 22.7411V15.7583H55.9471V30.3477H57.8584ZM19.5966 30.7299C22.9572 30.7299 24.9897 29.9251 26.177 28.2548C26.177 28.9994 26.2172 29.7037 26.3178 30.3476H28.31C28.1289 29.3012 28.0886 28.617 28.0886 26.7254V24.1496C28.0886 21.3726 25.9355 19.9037 21.8303 19.9037C17.866 19.9037 15.2902 21.433 14.9682 23.6466H17.0812C17.4031 22.1575 19.0734 21.3726 21.8303 21.3726C24.5469 21.3726 26.1568 22.3185 26.1568 23.9282V24.1295L19.8784 24.4917C17.3227 24.6326 16.3768 24.9949 15.6525 25.518C14.9682 26.0211 14.5859 26.8059 14.5859 27.7115C14.5859 29.6232 16.558 30.7299 19.5966 30.7299ZM20.2405 29.3012C17.9062 29.3012 16.6183 28.7579 16.6183 27.6713C16.6183 26.504 17.4232 25.9809 20.2606 25.7998L26.1568 25.4375V25.9004C26.1568 28.0133 23.6817 29.3012 20.2405 29.3012ZM33.2704 20.2856H31.4995V30.3472H33.4112V26.5842C33.4112 25.1354 33.6929 23.9078 34.4979 23.0626C35.2021 22.2779 36.1078 21.8351 37.6974 21.8351C38.2408 21.8351 38.5829 21.8754 39.0457 21.9559V20.1045C38.6232 20.0039 38.2609 19.9837 37.7175 19.9837C35.5644 19.9837 33.8539 21.2516 33.2704 23.2035V20.2856ZM53.4222 27.0675C52.6977 29.3817 50.142 30.7299 46.54 30.7299C42.2738 30.7299 39.4767 28.5969 39.4767 25.3168C39.4767 22.0166 42.2939 19.9037 46.6607 19.9037C50.4439 19.9037 52.6775 21.1312 53.4624 23.707L51.3293 23.9886C50.7458 22.2983 49.1962 21.4933 46.5802 21.4933C43.3404 21.4933 41.5091 22.8617 41.5091 25.3168C41.5091 27.6914 43.4409 29.1402 46.6003 29.1402C49.0755 29.1402 50.6652 28.3353 51.4098 26.7656L53.4222 27.0675ZM74.9502 16.1204V18.4547H72.6561V16.1204H74.9502ZM74.7692 20.2859V30.3476H72.8573V20.2859H74.7692ZM84.8643 30.3477L91.0626 20.2861H88.8691L84.0795 28.1744C83.9404 28.3936 83.8602 28.593 83.7801 28.7921L83.7777 28.7982H83.758L83.7556 28.7923C83.6754 28.593 83.5952 28.3936 83.4561 28.1744L78.6666 20.2861H76.4731L82.6708 30.3477H84.8643ZM98.2845 19.9037C102.672 19.9037 105.408 21.8757 105.408 25.1357V25.8601H93.2133C93.3544 27.9127 95.2056 29.1603 98.4453 29.1603C100.901 29.1603 102.611 28.456 103.597 27.0675L105.227 27.8523C103.879 29.7641 101.686 30.7299 98.4256 30.7299C94.0183 30.7299 91.2211 28.7378 91.2211 25.4375C91.2211 21.7751 94.1392 19.9037 98.2845 19.9037ZM98.2845 21.2921C95.3866 21.2921 93.3943 22.5197 93.2133 24.4515H103.396V24.4314C103.376 22.4191 101.062 21.2921 98.2845 21.2921Z" fill="white"/>
<path d="M18.5161 7.59375H101.523C110.616 7.59375 117.988 14.9391 117.988 24C117.988 33.061 110.616 40.4062 101.523 40.4062H18.5161C9.42259 40.4062 2.05078 33.061 2.05078 24C2.05078 14.9391 9.42259 7.59375 18.5161 7.59375Z" stroke="white" stroke-width="1.96875"/>
</g>
</g>
<defs>
<clipPath id="clip0_1253_24539">
<rect width="119.219" height="35" fill="white" transform="translate(0 6.5)"/>
</clipPath>
</defs>
</svg>
