<svg width="150" height="48" viewBox="0 0 150 48" fill="none" xmlns="http://www.w3.org/2000/svg">
<g clip-path="url(#clip0_1253_24903)">
<path d="M76.2426 20.7323C78.2347 20.7323 80.1211 21.9509 80.5192 24.5839H71.6476C72.0189 22.2734 73.7461 20.7323 76.2426 20.7323ZM80.2356 28.4794C79.5581 29.5356 78.2485 30.348 76.4555 30.348C73.985 30.348 72.0985 28.9937 71.6476 26.6028H82.7777C82.8314 26.2601 82.8585 25.9138 82.8589 25.5669C82.8589 21.8485 80.2592 18.5542 76.2443 18.5542C72.101 18.5542 69.2852 21.6089 69.2852 25.5409C69.2852 29.5218 72.1286 32.5277 76.4035 32.5277C79.0601 32.5277 81.0789 31.3318 82.2472 29.5218L80.2356 28.4794Z" fill="white"/>
<path d="M68.1933 12.79H65.8828V32.1815H68.1933V12.79Z" fill="white"/>
<path d="M95.7131 24.0264V32.1806H93.4018V24.1589C93.4018 21.9808 92.1539 20.7589 90.1083 20.7589C87.983 20.7589 86.2566 22.0076 86.2566 25.1419V32.1806H83.9453V18.9009H86.2566V20.8134C87.2396 19.2462 88.7004 18.5557 90.5624 18.5557C93.6699 18.5557 95.7155 20.6273 95.7155 24.0281" fill="white"/>
<path d="M108.456 25.54C108.456 22.8306 106.41 20.785 103.728 20.785C101.071 20.785 99.0262 22.8306 99.0262 25.54C99.0262 28.2494 101.071 30.2951 103.728 30.2951C106.409 30.2951 108.456 28.2494 108.456 25.54ZM110.766 12.79V32.1815H108.456V29.8962C107.393 31.521 105.694 32.5268 103.435 32.5268C99.7427 32.5268 96.7148 29.4713 96.7148 25.54C96.7148 21.6088 99.7427 18.5533 103.435 18.5533C105.693 18.5533 107.393 19.5623 108.456 21.1831V12.79H110.766Z" fill="white"/>
<path d="M114.943 12.79H112.633V32.1815H114.943V12.79Z" fill="white"/>
<path d="M61.7605 25.5404C61.7605 22.8311 59.7157 20.7854 57.0323 20.7854C54.3765 20.7854 52.3308 22.8311 52.3308 25.5404C52.3308 28.2498 54.3765 30.2955 57.0323 30.2955C59.7132 30.2955 61.7605 28.2498 61.7605 25.5404ZM64.0718 18.9014V32.1811H61.7605V29.8966C60.6979 31.5214 58.9983 32.5272 56.7406 32.5272C53.0482 32.5272 50.0195 29.4717 50.0195 25.5404C50.0195 21.6092 53.0482 18.5537 56.7406 18.5537C58.9983 18.5537 60.6979 19.5627 61.7605 21.1835V18.9014H64.0718Z" fill="white"/>
<path d="M46.5915 29.6252C45.4085 30.0617 44.1316 30.1796 42.8888 29.9669C41.6459 29.7543 40.4808 29.2187 39.5102 28.4137C38.5397 27.6088 37.7978 26.5628 37.3589 25.3808C36.9201 24.1987 36.7998 22.922 37.0099 21.6787C37.2201 20.4354 37.7535 19.2693 38.5565 18.2971C39.3596 17.325 40.4041 16.5811 41.5853 16.1399C42.7665 15.6988 44.043 15.5759 45.2867 15.7837C46.5304 15.9914 47.6976 16.5225 48.6713 17.3237C49.0773 17.6587 49.4446 18.038 49.7664 18.4545L51.7657 16.9922C50.601 15.4695 49.0103 14.3269 47.1954 13.7092C45.3805 13.0915 43.4231 13.0265 41.5712 13.5225C39.7194 14.0185 38.0565 15.0531 36.7933 16.4953C35.5301 17.9374 34.7235 19.7221 34.4757 21.6231C34.228 23.5242 34.5502 25.456 35.4015 27.1737C36.2529 28.8915 37.5951 30.3177 39.2579 31.2718C40.9208 32.2259 42.8295 32.6648 44.7421 32.5329C46.6546 32.4011 48.485 31.7043 50.0012 30.531L48.6705 28.4269C48.0488 28.9389 47.3462 29.3439 46.5915 29.6252Z" fill="white"/>
<path d="M126.097 18.9014V26.4389C126.097 28.8762 124.679 30.4197 122.515 30.4197C120.351 30.4197 118.783 28.8762 118.783 26.4389V18.9014H116.445V26.2131C116.445 30.0444 118.833 32.532 122.515 32.532C125.699 32.532 126.197 30.5172 126.197 30.4669V33.1787C126.197 35.8653 125.028 37.3829 122.59 37.3829C121.719 37.3872 120.876 37.0748 120.218 36.5038C119.561 35.9329 119.133 35.1424 119.015 34.2795L116.925 35.0107C117.224 36.289 117.947 37.4283 118.976 38.2431C120.006 39.0579 121.281 39.5 122.594 39.4976C126.375 39.4976 128.443 37.0092 128.443 33.1787V18.9014H126.097Z" fill="white"/>
<path d="M18.8132 26.6377C17.9252 27.4257 16.8162 28.4063 14.8055 28.4063H13.6032C12.1481 28.4063 10.8247 27.8774 9.87744 26.9188C8.95211 25.9821 8.44273 24.7001 8.44273 23.3084V21.6633C8.44273 20.2716 8.95211 18.9896 9.87744 18.0529C10.8247 17.0943 12.1481 16.5662 13.6032 16.5662H14.8055C16.8187 16.5662 17.9252 17.546 18.8132 18.334C19.7352 19.1464 20.5306 19.8565 22.6518 19.8565C22.9753 19.8564 23.2983 19.8306 23.6178 19.7793L23.6104 19.7606C23.4834 19.4451 23.3343 19.1389 23.1644 18.8442L21.7468 16.3883C21.1075 15.2812 20.188 14.3618 19.0808 13.7227C17.9736 13.0835 16.7177 12.747 15.4392 12.7471H12.6031C11.3246 12.747 10.0687 13.0835 8.96148 13.7227C7.85428 14.3618 6.93482 15.2812 6.29552 16.3883L4.87787 18.8442C4.23878 19.9515 3.90234 21.2074 3.90234 22.4859C3.90234 23.7643 4.23878 25.0202 4.87787 26.1275L6.29552 28.5834C6.93482 29.6905 7.85428 30.6099 8.96148 31.2491C10.0687 31.8882 11.3246 32.2247 12.6031 32.2246H15.4392C16.7177 32.2247 17.9736 31.8882 19.0808 31.2491C20.188 30.6099 21.1075 29.6905 21.7468 28.5834L23.1644 26.1315C23.3343 25.8369 23.4834 25.5307 23.6104 25.2151L23.6178 25.1973C23.2985 25.1442 22.9754 25.1171 22.6518 25.116C20.5306 25.116 19.7352 25.822 18.8132 26.6385" fill="white"/>
<path d="M14.8056 18.0571H13.6033C11.3886 18.0571 9.93359 19.6389 9.93359 21.6634V23.3086C9.93359 25.3331 11.3886 26.9149 13.6033 26.9149H14.8056C18.0325 26.9149 17.779 23.6246 22.6519 23.6246C23.1136 23.6241 23.5743 23.6665 24.0281 23.7513C24.176 22.9142 24.176 22.0577 24.0281 21.2207C23.5742 21.3051 23.1136 21.3475 22.6519 21.3474C17.7774 21.3474 18.0325 18.0571 14.8056 18.0571Z" fill="white"/>
<path d="M26.8289 24.9537C25.9991 24.346 25.0421 23.9346 24.0301 23.7505C24.0301 23.7595 24.0301 23.7668 24.0301 23.7749C23.943 24.26 23.8069 24.735 23.6239 25.1926C24.4599 25.322 25.253 25.6487 25.9376 26.1455C25.9376 26.152 25.9336 26.1602 25.9311 26.1675C25.0499 29.0208 23.1745 31.4634 20.6455 33.0516C18.1165 34.6398 15.1018 35.2681 12.1489 34.8226C9.19602 34.377 6.50092 32.887 4.55317 30.6233C2.60543 28.3596 1.53426 25.4723 1.53426 22.486C1.53426 19.4997 2.60543 16.6125 4.55317 14.3488C6.50092 12.085 9.19602 10.5951 12.1489 10.1495C15.1018 9.7039 18.1165 10.3323 20.6455 11.9204C23.1745 13.5086 25.0499 15.9512 25.9311 18.8046C25.9311 18.8119 25.9352 18.82 25.9376 18.8265C25.2531 19.3234 24.4599 19.6498 23.6239 19.7787C23.8067 20.2369 23.9428 20.7124 24.0301 21.1979C24.0296 21.2055 24.0296 21.2131 24.0301 21.2207C25.042 21.037 25.999 20.6258 26.8289 20.0183C27.6266 19.4277 27.4723 18.7607 27.3512 18.3659C26.3649 15.1667 24.2635 12.4275 21.429 10.6461C18.5946 8.86471 15.2151 8.15929 11.9046 8.65804C8.59419 9.15679 5.57254 10.8266 3.38873 13.3641C1.20493 15.9015 0.00390625 19.1382 0.00390625 22.486C0.00390625 25.8338 1.20493 29.0705 3.38873 31.608C5.57254 34.1454 8.59419 35.8153 11.9046 36.314C15.2151 36.8128 18.5946 36.1073 21.429 34.3259C24.2635 32.5445 26.3649 29.8054 27.3512 26.6062C27.4723 26.2113 27.6266 25.5443 26.8289 24.9537Z" fill="white"/>
<path d="M23.6164 19.7787C23.2972 19.8317 22.9741 19.8589 22.6505 19.8599C20.5293 19.8599 19.7339 19.1539 18.8126 18.3375C17.9239 17.5494 16.8174 16.5688 14.8042 16.5688H13.6018C12.146 16.5688 10.8234 17.0977 9.87612 18.0564C8.95079 18.9931 8.44141 20.2751 8.44141 21.6667V23.3119C8.44141 24.7035 8.95079 25.9855 9.87612 26.9222C10.8234 27.8809 12.146 28.4089 13.6018 28.4089H14.8042C16.8174 28.4089 17.9239 27.4292 18.8126 26.6411C19.7339 25.8287 20.5293 25.1187 22.6505 25.1187C22.974 25.1187 23.297 25.1446 23.6164 25.1958C23.7998 24.7384 23.9359 24.2633 24.0226 23.7782C24.0231 23.7701 24.0231 23.7619 24.0226 23.7538C23.5687 23.6697 23.1081 23.6275 22.6464 23.6279C17.772 23.6279 18.027 26.919 14.8001 26.919H13.5978C11.3831 26.919 9.92812 25.3364 9.92812 23.3119V21.6635C9.92812 19.639 11.3831 18.0572 13.5978 18.0572H14.8001C18.027 18.0572 17.7736 21.3466 22.6464 21.3466C23.1081 21.3474 23.5688 21.3053 24.0226 21.2207C24.0226 21.2134 24.0226 21.2061 24.0226 21.198C23.9353 20.7124 23.7992 20.2369 23.6164 19.7787Z" fill="#0AE8F0"/>
<path d="M23.6164 19.7787C23.2972 19.8317 22.9741 19.8589 22.6505 19.8599C20.5293 19.8599 19.7339 19.1539 18.8126 18.3375C17.9239 17.5494 16.8174 16.5688 14.8042 16.5688H13.6018C12.146 16.5688 10.8234 17.0977 9.87612 18.0564C8.95079 18.9931 8.44141 20.2751 8.44141 21.6667V23.3119C8.44141 24.7035 8.95079 25.9855 9.87612 26.9222C10.8234 27.8809 12.146 28.4089 13.6018 28.4089H14.8042C16.8174 28.4089 17.9239 27.4292 18.8126 26.6411C19.7339 25.8287 20.5293 25.1187 22.6505 25.1187C22.974 25.1187 23.297 25.1446 23.6164 25.1958C23.7998 24.7384 23.9359 24.2633 24.0226 23.7782C24.0231 23.7701 24.0231 23.7619 24.0226 23.7538C23.5687 23.6697 23.1081 23.6275 22.6464 23.6279C17.772 23.6279 18.027 26.919 14.8001 26.919H13.5978C11.3831 26.919 9.92812 25.3364 9.92812 23.3119V21.6635C9.92812 19.639 11.3831 18.0572 13.5978 18.0572H14.8001C18.027 18.0572 17.7736 21.3466 22.6464 21.3466C23.1081 21.3474 23.5688 21.3053 24.0226 21.2207C24.0226 21.2134 24.0226 21.2061 24.0226 21.198C23.9353 20.7124 23.7992 20.2369 23.6164 19.7787Z" fill="#0AE8F0"/>
</g>
<defs>
<clipPath id="clip0_1253_24903">
<rect width="128.435" height="30.9951" fill="white" transform="translate(0 8.50244)"/>
</clipPath>
</defs>
</svg>
