<svg width="150" height="48" viewBox="0 0 150 48" fill="none" xmlns="http://www.w3.org/2000/svg">
<g clip-path="url(#clip0_1253_25110)">
<path d="M12.8424 23.8169L0.529536 26.3796C0.515236 26.3826 0.501671 26.3884 0.489618 26.3967C0.477566 26.405 0.467264 26.4155 0.459305 26.4278C0.451347 26.44 0.445887 26.4537 0.443241 26.4681C0.440594 26.4825 0.440813 26.4972 0.443885 26.5115L2.61043 36.6079C2.6141 36.6249 2.62257 36.6405 2.63483 36.6528C2.64708 36.6651 2.66258 36.6734 2.67945 36.6769L24.4441 41.2214C24.4748 41.2277 24.5067 41.2234 24.5347 41.2092C24.5627 41.1949 24.585 41.1717 24.5982 41.1431C26.1781 37.6986 27.7463 34.2438 29.3029 30.7787C29.4972 30.3465 29.6192 29.8946 29.6689 29.423C30.4317 22.2222 31.1946 15.0291 31.9574 7.84381C31.9591 7.82836 31.9576 7.81273 31.9532 7.79783C31.9488 7.78293 31.9415 7.76905 31.9317 7.75697C31.9219 7.7449 31.9098 7.73487 31.8962 7.72746C31.8825 7.72005 31.8675 7.71541 31.8521 7.71379L23.3042 6.81723C23.2545 6.8123 23.213 6.82955 23.1797 6.86899C23.1596 6.89281 23.1454 6.94273 23.1372 7.01872C22.6188 11.9286 22.0968 16.8378 21.5714 21.7465C21.5682 21.7769 21.5628 21.8033 21.5554 21.8259C21.5542 21.8295 21.5518 21.8326 21.5487 21.8347C21.5456 21.8368 21.5419 21.8379 21.5382 21.8378C21.5345 21.8376 21.5309 21.8363 21.5281 21.8339C21.5254 21.8316 21.5235 21.8283 21.5228 21.8247L18.8417 9.42621C18.8101 9.27955 18.7207 9.22163 18.5736 9.25244L10.2451 10.987C10.2306 10.99 10.2168 10.9959 10.2045 11.0043C10.1923 11.0127 10.1818 11.0234 10.1737 11.0359C10.1656 11.0484 10.1601 11.0624 10.1574 11.0771C10.1548 11.0917 10.1551 11.1068 10.1582 11.1214L12.88 23.7596C12.8825 23.7721 12.88 23.7852 12.873 23.796C12.8659 23.8067 12.8549 23.8142 12.8424 23.8169Z" stroke="#80E6DE" stroke-width="0.123239"/>
<path d="M73.4671 18.3571C73.4671 17.8859 73.2799 17.434 72.9467 17.1009C72.6136 16.7677 72.1617 16.5806 71.6906 16.5806C71.2194 16.5806 70.7676 16.7677 70.4344 17.1009C70.1012 17.434 69.9141 17.8859 69.9141 18.3571C69.9141 18.8282 70.1012 19.2801 70.4344 19.6132C70.7676 19.9464 71.2194 20.1336 71.6906 20.1336C72.1617 20.1336 72.6136 19.9464 72.9467 19.6132C73.2799 19.2801 73.4671 18.8282 73.4671 18.3571Z" stroke="#80E6DE" stroke-width="0.123239"/>
<path d="M43.4622 21.4454C37.673 22.0135 37.4 31.5923 43.0955 32.7372C44.7402 33.0681 46.2264 32.4174 47.3732 31.2935C47.3816 31.2853 47.3922 31.2795 47.4036 31.2768C47.4151 31.2741 47.427 31.2744 47.4383 31.2779C47.4496 31.2814 47.4597 31.2878 47.4676 31.2965C47.4756 31.3052 47.481 31.3158 47.4835 31.3274L47.7219 32.492C47.7289 32.5256 47.7472 32.5557 47.7738 32.5774C47.8004 32.5991 47.8337 32.6109 47.868 32.6109H50.509C50.6396 32.6109 50.6902 32.5472 50.6606 32.4199C50.432 31.4334 50.2021 30.4092 50.2021 29.4067C50.2017 25.2137 50.2015 21.0282 50.2015 16.8504C50.2015 16.8344 50.1951 16.8191 50.1838 16.8077C50.1725 16.7964 50.1571 16.79 50.1411 16.79H47.444C47.4277 16.79 47.412 16.7965 47.4005 16.8081C47.3889 16.8196 47.3824 16.8353 47.3824 16.8517V22.8245C47.3825 22.8356 47.3793 22.8464 47.3731 22.8557C47.3669 22.8649 47.3581 22.8721 47.3478 22.8763C47.3375 22.8805 47.3262 22.8815 47.3154 22.8792C47.3045 22.8768 47.2946 22.8713 47.2869 22.8633C46.2233 21.7722 44.9484 21.2996 43.4622 21.4454Z" stroke="#80E6DE" stroke-width="0.123239"/>
<path d="M67.7638 16.8771C67.7638 16.8538 67.7546 16.8316 67.7382 16.8152C67.7218 16.7988 67.6995 16.7896 67.6763 16.7896H65.0328C65.0096 16.7896 64.9873 16.7988 64.9709 16.8152C64.9545 16.8316 64.9453 16.8538 64.9453 16.8771V32.5223C64.9453 32.5455 64.9545 32.5678 64.9709 32.5842C64.9873 32.6006 65.0096 32.6098 65.0328 32.6098H67.6763C67.6995 32.6098 67.7218 32.6006 67.7382 32.5842C67.7546 32.5678 67.7638 32.5455 67.7638 32.5223V16.8771Z" stroke="#80E6DE" stroke-width="0.123239"/>
<path d="M52.0942 27.232C52.3055 32.9552 58.1921 33.9442 62.315 31.5885C62.3417 31.5733 62.3617 31.5487 62.3713 31.5196C62.3808 31.4904 62.3792 31.4588 62.3668 31.4307L61.3821 29.2272C61.3753 29.212 61.3655 29.1984 61.3533 29.1871C61.3411 29.1759 61.3267 29.1672 61.311 29.1617C61.2953 29.1562 61.2787 29.1539 61.2621 29.155C61.2455 29.1561 61.2293 29.1605 61.2145 29.1681C59.3357 30.1275 56.5616 30.5594 55.1425 28.5451C55.1301 28.5276 55.1228 28.507 55.1213 28.4856C55.1199 28.4642 55.1243 28.4428 55.1343 28.4238C55.1442 28.4047 55.1592 28.3887 55.1776 28.3775C55.196 28.3663 55.2171 28.3603 55.2386 28.3602L62.9238 28.3584C62.9408 28.3584 62.9572 28.3525 62.9703 28.3417C62.9833 28.3309 62.9922 28.3159 62.9953 28.2992C63.7157 24.5817 61.4055 21.449 57.5481 21.3836C54.2657 21.3282 51.9765 24.0438 52.0942 27.232Z" stroke="#80E6DE" stroke-width="0.123239"/>
<path d="M86.3263 29.5484C87.8927 33.513 93.0071 33.3977 96.061 31.6256C96.125 31.5886 96.1419 31.5362 96.1115 31.4684L95.1299 29.2834C95.124 29.2703 95.1155 29.2586 95.105 29.2488C95.0945 29.2391 95.0821 29.2315 95.0687 29.2267C95.0552 29.2218 95.041 29.2196 95.0267 29.2204C95.0125 29.2211 94.9985 29.2248 94.9857 29.231C93.0706 30.1547 90.4191 30.6027 88.9229 28.645C88.8921 28.6043 88.8708 28.5678 88.8589 28.5353C88.8535 28.5206 88.8518 28.5049 88.8538 28.4894C88.8558 28.4739 88.8616 28.4591 88.8705 28.4463C88.8795 28.4335 88.8914 28.423 88.9052 28.4158C88.919 28.4086 88.9344 28.4047 88.95 28.4047L96.6581 28.3899C96.7197 28.3899 96.7556 28.3595 96.7659 28.2987C97.2835 25.2134 95.7566 22.1521 92.5012 21.5329C87.6332 20.6067 84.6163 25.2202 86.3263 29.5484Z" stroke="#80E6DE" stroke-width="0.123239"/>
<path d="M98.8092 32.6106H101.451C101.476 32.6106 101.501 32.6005 101.518 32.5826C101.536 32.5647 101.546 32.5404 101.546 32.5151C101.545 30.4972 101.545 28.4698 101.548 26.4326C101.548 25.9943 101.579 25.6932 101.639 25.5293C102.126 24.2229 104.123 24.4343 105.076 24.8804C105.091 24.8875 105.107 24.8915 105.124 24.8923C105.141 24.893 105.157 24.8904 105.173 24.8846C105.189 24.8788 105.203 24.8699 105.215 24.8585C105.228 24.8471 105.237 24.8334 105.244 24.8182L106.498 22.0003C106.504 21.9879 106.504 21.9739 106.499 21.9613C106.495 21.9486 106.485 21.9383 106.473 21.9325C104.635 21.0458 102.842 21.312 101.506 22.9172C101.501 22.9224 101.496 22.9263 101.489 22.9285C101.483 22.9306 101.476 22.9309 101.469 22.9293C101.463 22.9277 101.457 22.9243 101.452 22.9194C101.447 22.9145 101.444 22.9084 101.442 22.9018L101.195 21.7335C101.182 21.6731 101.144 21.6429 101.082 21.6429H98.373C98.3611 21.6429 98.3493 21.6456 98.3385 21.6507C98.3278 21.6558 98.3183 21.6633 98.3108 21.6725C98.3033 21.6817 98.298 21.6925 98.2952 21.704C98.2924 21.7155 98.2922 21.7275 98.2947 21.739C98.4981 22.7021 98.7211 23.6499 98.7224 24.6161C98.7256 27.2636 98.7271 29.901 98.7267 32.528C98.7267 32.5499 98.7354 32.5709 98.7509 32.5864C98.7663 32.6019 98.7873 32.6106 98.8092 32.6106Z" stroke="#80E6DE" stroke-width="0.123239"/>
<path d="M106.887 29.7808C108.179 32.5438 111.416 33.4854 114.117 32.3546C116.122 31.5148 117.329 29.7463 117.441 27.5773C117.609 24.3274 115.551 21.5841 112.145 21.4301C107.576 21.223 105.036 25.823 106.887 29.7808Z" stroke="#80E6DE" stroke-width="0.123239"/>
<path d="M120.121 23.3332C117.72 26.0913 118.674 31.1158 122.253 32.4227C123.839 33.0013 125.623 32.9385 127.117 32.1491C130.377 30.4281 130.836 25.8497 128.537 23.2093C126.374 20.7242 122.242 20.8949 120.121 23.3332Z" stroke="#80E6DE" stroke-width="0.123239"/>
<path d="M73.1244 21.7493C73.1244 21.7209 73.1131 21.6936 73.093 21.6735C73.0729 21.6534 73.0456 21.6421 73.0172 21.6421H70.4119C70.3835 21.6421 70.3562 21.6534 70.3361 21.6735C70.316 21.6936 70.3047 21.7209 70.3047 21.7493V32.5032C70.3047 32.5316 70.316 32.5589 70.3361 32.579C70.3562 32.5991 70.3835 32.6104 70.4119 32.6104H73.0172C73.0456 32.6104 73.0729 32.5991 73.093 32.579C73.1131 32.5589 73.1244 32.5316 73.1244 32.5032V21.7493Z" stroke="#80E6DE" stroke-width="0.123239"/>
<path d="M77.5684 32.5714C77.5715 32.5828 77.5783 32.5928 77.5877 32.5999C77.597 32.607 77.6084 32.6109 77.6202 32.6109H82.0722C82.084 32.6109 82.0954 32.607 82.1048 32.5999C82.1141 32.5928 82.1209 32.5828 82.124 32.5714L85.0491 21.7104C85.0513 21.7024 85.0516 21.694 85.05 21.6859C85.0484 21.6778 85.045 21.6702 85.04 21.6637C85.035 21.6571 85.0285 21.6518 85.0211 21.6481C85.0137 21.6445 85.0056 21.6426 84.9973 21.6426H82.034C82.0221 21.6426 82.0105 21.6467 82.0012 21.654C81.9918 21.6614 81.9851 21.6717 81.9823 21.6832L79.8786 30.3094C79.8757 30.321 79.869 30.3314 79.8596 30.3388C79.8501 30.3462 79.8385 30.3502 79.8265 30.3502C79.8145 30.3502 79.8028 30.3462 79.7934 30.3388C79.784 30.3314 79.7773 30.321 79.7744 30.3094L77.6732 21.6832C77.6703 21.6717 77.6637 21.6614 77.6543 21.654C77.6449 21.6467 77.6334 21.6426 77.6214 21.6426H74.6865C74.6782 21.6426 74.6701 21.6445 74.6627 21.6481C74.6553 21.6518 74.6488 21.6571 74.6438 21.6637C74.6388 21.6702 74.6354 21.6778 74.6338 21.6859C74.6322 21.694 74.6325 21.7024 74.6347 21.7104L77.5684 32.5714Z" stroke="#80E6DE" stroke-width="0.123239"/>
<path d="M16.7011 27.9494C16.9716 26.3843 14.28 25.696 13.8955 27.2815C13.5973 28.5114 14.2554 29.1621 15.4779 29.1153C16.1373 29.0894 16.5957 28.5576 16.7011 27.9494Z" stroke="#80E6DE" stroke-width="0.123239"/>
<path d="M22.827 28.9516C22.9419 28.6391 22.9281 28.2938 22.7884 27.9917C22.6488 27.6895 22.3948 27.4551 22.0824 27.3402L21.7991 27.2359C21.4866 27.1209 21.1413 27.1348 20.8391 27.2744C20.5369 27.4141 20.3026 27.668 20.1876 27.9805L20.0889 28.2488C19.974 28.5612 19.9878 28.9065 20.1275 29.2087C20.2671 29.5109 20.5211 29.7453 20.8335 29.8602L21.1169 29.9645C21.4293 30.0794 21.7746 30.0655 22.0768 29.9259C22.379 29.7863 22.6133 29.5323 22.7283 29.2199L22.827 28.9516Z" stroke="#80E6DE" stroke-width="0.123239"/>
<path d="M47.4209 27.1566C47.4261 26.4181 47.1294 25.7078 46.5962 25.1818C46.063 24.6559 45.3369 24.3574 44.5776 24.3521C44.2017 24.3495 43.8289 24.4189 43.4806 24.5564C43.1323 24.6939 42.8153 24.8968 42.5476 25.1536C42.28 25.4103 42.067 25.7158 41.9207 26.0526C41.7745 26.3894 41.6979 26.751 41.6954 27.1167C41.6902 27.8552 41.9869 28.5655 42.5201 29.0915C43.0534 29.6174 43.7795 29.9159 44.5387 29.9212C44.9147 29.9238 45.2874 29.8544 45.6357 29.7169C45.984 29.5794 46.3011 29.3765 46.5687 29.1197C46.8364 28.863 47.0494 28.5575 47.1956 28.2207C47.3418 27.8839 47.4184 27.5223 47.4209 27.1566Z" stroke="#80E6DE" stroke-width="0.123239"/>
<path d="M54.9428 26.116C54.9903 26.1191 55.0642 26.1469 55.108 26.1462C56.4098 26.1331 57.7116 26.1265 59.0134 26.1265C59.2926 26.1259 59.7738 26.1592 60.1522 26.1314C60.1678 26.1303 60.1829 26.1255 60.1964 26.1175C60.2098 26.1096 60.2213 26.0986 60.2298 26.0855C60.2383 26.0724 60.2437 26.0574 60.2455 26.0419C60.2473 26.0264 60.2455 26.0106 60.2403 25.9959C59.9757 25.2532 59.4875 24.7393 58.7756 24.4542C57.3023 23.8638 55.2996 24.2742 54.8788 26.0279C54.8656 26.0822 54.887 26.1115 54.9428 26.116Z" stroke="#80E6DE" stroke-width="0.123239"/>
<path d="M94.022 26.0839C93.8155 23.5624 88.7794 23.693 88.711 26.0863C88.7107 26.093 88.7118 26.0997 88.7142 26.1059C88.7166 26.1121 88.7202 26.1178 88.7248 26.1226C88.7294 26.1274 88.7349 26.1312 88.741 26.1337C88.7471 26.1363 88.7537 26.1376 88.7603 26.1375L93.9875 26.1208C93.9923 26.1208 93.997 26.1199 94.0014 26.118C94.0058 26.1161 94.0098 26.1133 94.013 26.1098C94.0163 26.1063 94.0187 26.1022 94.0203 26.0978C94.0218 26.0933 94.0224 26.0885 94.022 26.0839Z" stroke="#80E6DE" stroke-width="0.123239"/>
<path d="M114.734 27.0825C114.721 26.3446 114.407 25.6422 113.863 25.1297C113.318 24.6173 112.586 24.3368 111.828 24.3501C111.071 24.3633 110.349 24.6691 109.822 25.2002C109.296 25.7314 109.007 26.4443 109.02 27.1822C109.033 27.9202 109.346 28.6226 109.891 29.135C110.436 29.6475 111.168 29.9279 111.925 29.9147C112.683 29.9015 113.405 29.5957 113.931 29.0645C114.458 28.5334 114.747 27.8204 114.734 27.0825Z" stroke="#80E6DE" stroke-width="0.123239"/>
<path d="M127.253 27.1592C127.26 26.4207 126.965 25.7098 126.433 25.1829C125.902 24.6561 125.177 24.3563 124.419 24.3497C124.043 24.3464 123.671 24.4152 123.323 24.5521C122.975 24.689 122.658 24.8914 122.39 25.1476C122.122 25.4039 121.909 25.709 121.762 26.0456C121.616 26.3822 121.538 26.7436 121.535 27.1093C121.529 27.8478 121.824 28.5586 122.355 29.0855C122.887 29.6124 123.612 29.9121 124.37 29.9187C124.745 29.922 125.118 29.8532 125.466 29.7163C125.814 29.5794 126.131 29.377 126.399 29.1208C126.667 28.8645 126.88 28.5594 127.026 28.2228C127.173 27.8863 127.25 27.5248 127.253 27.1592Z" stroke="#80E6DE" stroke-width="0.123239"/>
<path d="M12.8424 23.8174C12.8549 23.8147 12.8659 23.8072 12.873 23.7964C12.88 23.7857 12.8825 23.7726 12.88 23.7601L10.1582 11.1219C10.1551 11.1073 10.1548 11.0922 10.1574 11.0775C10.1601 11.0629 10.1656 11.0489 10.1737 11.0364C10.1818 11.0239 10.1923 11.0131 10.2045 11.0048C10.2168 10.9964 10.2306 10.9905 10.2451 10.9875L18.5736 9.25293C18.7207 9.22212 18.8101 9.28004 18.8417 9.42669L21.5228 21.8252C21.5235 21.8288 21.5254 21.832 21.5281 21.8344C21.5309 21.8368 21.5345 21.8381 21.5382 21.8383C21.5419 21.8384 21.5456 21.8373 21.5487 21.8352C21.5518 21.833 21.5542 21.83 21.5554 21.8264C21.5628 21.8038 21.5682 21.7773 21.5714 21.7469C22.0968 16.8383 22.6188 11.9291 23.1372 7.01921C23.1454 6.94321 23.1596 6.8933 23.1797 6.86948C23.213 6.83004 23.2545 6.81279 23.3042 6.81772L31.8521 7.71428C31.8675 7.7159 31.8825 7.72054 31.8962 7.72795C31.9098 7.73536 31.9219 7.74539 31.9317 7.75746C31.9415 7.76954 31.9488 7.78342 31.9532 7.79832C31.9576 7.81322 31.9591 7.82884 31.9574 7.8443C31.1946 15.0296 30.4317 22.2226 29.6689 29.4235C29.6192 29.8951 29.4972 30.347 29.3029 30.7792C27.7463 34.2442 26.1781 37.6991 24.5982 41.1436C24.585 41.1722 24.5627 41.1954 24.5347 41.2096C24.5067 41.2238 24.4748 41.2282 24.4441 41.2219L2.67945 36.6774C2.66258 36.6739 2.64708 36.6655 2.63483 36.6533C2.62257 36.641 2.6141 36.6254 2.61043 36.6084L0.443885 26.512C0.440813 26.4977 0.440594 26.483 0.443241 26.4686C0.445887 26.4542 0.451347 26.4405 0.459305 26.4283C0.467264 26.416 0.477566 26.4054 0.489618 26.3972C0.501671 26.3889 0.515236 26.3831 0.529536 26.3801L12.8424 23.8174ZM16.7022 27.9502C16.9728 26.3851 14.2812 25.6968 13.8967 27.2822C13.5985 28.5122 14.2566 29.1629 15.4791 29.116C16.1384 29.0902 16.5969 28.5584 16.7022 27.9502ZM22.8308 28.9523C22.9457 28.6399 22.9319 28.2946 22.7922 27.9924C22.6526 27.6902 22.3986 27.4558 22.0862 27.3409L21.8029 27.2366C21.4904 27.1217 21.1451 27.1355 20.8429 27.2752C20.5407 27.4148 20.3064 27.6688 20.1914 27.9812L20.0927 28.2495C19.9778 28.5619 19.9916 28.9072 20.1313 29.2094C20.2709 29.5116 20.5249 29.746 20.8373 29.8609L21.1207 29.9652C21.4331 30.0801 21.7784 30.0663 22.0806 29.9266C22.3828 29.787 22.6171 29.533 22.7321 29.2206L22.8308 28.9523Z" fill="#00CCBC"/>
<path d="M71.6906 20.134C72.6717 20.134 73.4671 19.3387 73.4671 18.3576C73.4671 17.3764 72.6717 16.5811 71.6906 16.5811C70.7094 16.5811 69.9141 17.3764 69.9141 18.3576C69.9141 19.3387 70.7094 20.134 71.6906 20.134Z" fill="#00CCBC"/>
<path d="M43.0955 32.7377C37.4 31.5928 37.673 22.014 43.4622 21.4459C44.9484 21.3001 46.2233 21.7727 47.2869 22.8638C47.2946 22.8718 47.3045 22.8773 47.3154 22.8796C47.3262 22.882 47.3375 22.881 47.3478 22.8768C47.3581 22.8726 47.3669 22.8654 47.3731 22.8562C47.3793 22.8469 47.3825 22.8361 47.3824 22.8249V16.8521C47.3824 16.8358 47.3889 16.8201 47.4005 16.8086C47.412 16.797 47.4277 16.7905 47.444 16.7905H50.1411C50.1571 16.7905 50.1725 16.7969 50.1838 16.8082C50.1951 16.8195 50.2015 16.8349 50.2015 16.8509C50.2015 21.0287 50.2017 25.2141 50.2021 29.4072C50.2021 30.4097 50.432 31.4338 50.6606 32.4204C50.6902 32.5477 50.6396 32.6114 50.509 32.6114H47.868C47.8337 32.6114 47.8004 32.5996 47.7738 32.5779C47.7472 32.5562 47.7289 32.5261 47.7219 32.4925L47.4835 31.3279C47.481 31.3163 47.4756 31.3057 47.4676 31.297C47.4597 31.2883 47.4496 31.2818 47.4383 31.2784C47.427 31.2749 47.4151 31.2745 47.4036 31.2773C47.3922 31.28 47.3816 31.2858 47.3732 31.294C46.2264 32.4179 44.7402 33.0686 43.0955 32.7377ZM47.4224 27.1565C47.4276 26.418 47.1309 25.7076 46.5977 25.1817C46.0644 24.6557 45.3383 24.3573 44.5791 24.352C44.2031 24.3493 43.8303 24.4188 43.482 24.5563C43.1337 24.6938 42.8167 24.8967 42.5491 25.1534C42.2814 25.4101 42.0684 25.7156 41.9222 26.0524C41.776 26.3893 41.6994 26.7508 41.6968 27.1165C41.6917 27.855 41.9883 28.5654 42.5216 29.0913C43.0548 29.6173 43.7809 29.9157 44.5402 29.921C44.9161 29.9236 45.2889 29.8542 45.6372 29.7167C45.9855 29.5792 46.3025 29.3763 46.5702 29.1196C46.8378 28.8629 47.0508 28.5574 47.197 28.2205C47.3433 27.8837 47.4198 27.5221 47.4224 27.1565Z" fill="#00CCBC"/>
<path d="M67.6763 16.79H65.0328C64.9845 16.79 64.9453 16.8292 64.9453 16.8775V32.5228C64.9453 32.5711 64.9845 32.6103 65.0328 32.6103H67.6763C67.7246 32.6103 67.7638 32.5711 67.7638 32.5228V16.8775C67.7638 16.8292 67.7246 16.79 67.6763 16.79Z" fill="#00CCBC"/>
<path d="M62.315 31.5885C58.1921 33.9442 52.3055 32.9552 52.0942 27.232C51.9765 24.0438 54.2657 21.3282 57.5481 21.3836C61.4055 21.449 63.7157 24.5817 62.9953 28.2992C62.9922 28.3159 62.9833 28.3309 62.9703 28.3417C62.9572 28.3525 62.9408 28.3584 62.9238 28.3584L55.2386 28.3602C55.2171 28.3603 55.196 28.3663 55.1776 28.3775C55.1592 28.3887 55.1442 28.4047 55.1343 28.4238C55.1243 28.4428 55.1199 28.4642 55.1213 28.4856C55.1228 28.507 55.1301 28.5276 55.1425 28.5451C56.5616 30.5594 59.3357 30.1275 61.2145 29.1681C61.2293 29.1605 61.2455 29.1561 61.2621 29.155C61.2787 29.1539 61.2953 29.1562 61.311 29.1617C61.3267 29.1672 61.3411 29.1759 61.3533 29.1871C61.3655 29.1984 61.3753 29.212 61.3821 29.2272L62.3668 31.4307C62.3792 31.4588 62.3808 31.4904 62.3713 31.5196C62.3617 31.5487 62.3417 31.5733 62.315 31.5885ZM54.9466 26.116C54.994 26.1191 55.068 26.1469 55.1117 26.1462C56.4135 26.1331 57.7153 26.1265 59.0172 26.1265C59.2963 26.1259 59.7775 26.1592 60.1559 26.1314C60.1715 26.1303 60.1866 26.1255 60.2001 26.1175C60.2135 26.1096 60.225 26.0986 60.2335 26.0855C60.242 26.0724 60.2474 26.0574 60.2492 26.0419C60.2511 26.0264 60.2493 26.0106 60.244 25.9959C59.9795 25.2532 59.4912 24.7393 58.7793 24.4542C57.306 23.8638 55.3033 24.2742 54.8825 26.0279C54.8693 26.0822 54.8907 26.1115 54.9466 26.116Z" fill="#00CCBC"/>
<path d="M96.061 31.6256C93.0071 33.3977 87.8927 33.513 86.3263 29.5484C84.6163 25.2202 87.6332 20.6067 92.5012 21.5329C95.7566 22.1521 97.2835 25.2134 96.7659 28.2987C96.7556 28.3595 96.7197 28.3899 96.6581 28.3899L88.95 28.4047C88.9344 28.4047 88.919 28.4086 88.9052 28.4158C88.8914 28.423 88.8795 28.4335 88.8705 28.4463C88.8616 28.4591 88.8558 28.4739 88.8538 28.4894C88.8518 28.5049 88.8535 28.5206 88.8589 28.5353C88.8708 28.5678 88.8921 28.6043 88.9229 28.645C90.4191 30.6027 93.0706 30.1547 94.9857 29.231C94.9985 29.2248 95.0125 29.2211 95.0267 29.2204C95.041 29.2196 95.0552 29.2218 95.0687 29.2267C95.0821 29.2315 95.0945 29.2391 95.105 29.2488C95.1155 29.2586 95.124 29.2703 95.1299 29.2834L96.1115 31.4684C96.1419 31.5362 96.125 31.5886 96.061 31.6256ZM94.0183 26.0841C93.8118 23.5626 88.7757 23.6932 88.7073 26.0866C88.707 26.0932 88.7081 26.0999 88.7105 26.1061C88.7129 26.1124 88.7165 26.1181 88.7211 26.1229C88.7257 26.1276 88.7312 26.1314 88.7373 26.134C88.7434 26.1365 88.75 26.1378 88.7566 26.1377L93.9838 26.1211C93.9886 26.1211 93.9933 26.1201 93.9977 26.1182C94.0021 26.1163 94.0061 26.1135 94.0093 26.1101C94.0126 26.1066 94.015 26.1025 94.0166 26.098C94.0181 26.0935 94.0187 26.0888 94.0183 26.0841Z" fill="#00CCBC"/>
<path d="M98.8131 32.6111C98.7912 32.6111 98.7702 32.6024 98.7548 32.5869C98.7393 32.5714 98.7306 32.5504 98.7306 32.5285C98.731 29.9015 98.7296 27.2641 98.7263 24.6165C98.725 23.6503 98.502 22.7026 98.2986 21.7395C98.2961 21.7279 98.2963 21.716 98.2991 21.7045C98.3019 21.6929 98.3072 21.6822 98.3147 21.673C98.3222 21.6638 98.3317 21.6563 98.3424 21.6512C98.3532 21.6461 98.365 21.6434 98.3769 21.6434H101.086C101.148 21.6434 101.186 21.6736 101.198 21.734L101.446 22.9023C101.448 22.9089 101.451 22.915 101.456 22.9199C101.46 22.9248 101.466 22.9282 101.473 22.9298C101.48 22.9314 101.487 22.9311 101.493 22.929C101.5 22.9268 101.505 22.9229 101.51 22.9177C102.846 21.3125 104.639 21.0463 106.477 21.933C106.489 21.9388 106.499 21.9491 106.503 21.9617C106.508 21.9744 106.508 21.9884 106.502 22.0008L105.248 24.8187C105.241 24.8339 105.231 24.8476 105.219 24.859C105.207 24.8704 105.193 24.8793 105.177 24.8851C105.161 24.8908 105.145 24.8935 105.128 24.8928C105.111 24.892 105.095 24.888 105.08 24.8809C104.127 24.4348 102.13 24.2234 101.643 25.5297C101.583 25.6937 101.552 25.9948 101.552 26.4331C101.549 28.4702 101.549 30.4977 101.55 32.5156C101.55 32.5409 101.54 32.5652 101.522 32.5831C101.504 32.601 101.48 32.6111 101.455 32.6111H98.8131Z" fill="#00CCBC"/>
<path d="M114.117 32.3546C111.416 33.4854 108.179 32.5438 106.887 29.7808C105.036 25.823 107.576 21.223 112.145 21.4301C115.551 21.5841 117.609 24.3274 117.441 27.5773C117.329 29.7463 116.122 31.5148 114.117 32.3546ZM114.738 27.0825C114.725 26.3446 114.412 25.6421 113.867 25.1297C113.322 24.6173 112.59 24.3368 111.832 24.35C111.075 24.3633 110.353 24.6691 109.827 25.2002C109.3 25.7314 109.011 26.4443 109.024 27.1822C109.037 27.9202 109.35 28.6226 109.895 29.135C110.44 29.6475 111.172 29.9279 111.93 29.9147C112.687 29.9015 113.409 29.5956 113.935 29.0645C114.462 28.5334 114.751 27.8204 114.738 27.0825Z" fill="#00CCBC"/>
<path d="M122.257 32.4227C118.678 31.1158 117.724 26.0913 120.124 23.3332C122.246 20.8949 126.378 20.7242 128.541 23.2093C130.839 25.8497 130.381 30.4281 127.121 32.1491C125.626 32.9385 123.843 33.0013 122.257 32.4227ZM127.257 27.1595C127.263 26.421 126.968 25.7101 126.437 25.1832C125.905 24.6564 125.18 24.3566 124.422 24.35C124.047 24.3468 123.674 24.4155 123.326 24.5524C122.978 24.6893 122.661 24.8917 122.393 25.1479C122.126 25.4042 121.912 25.7093 121.766 26.0459C121.619 26.3825 121.542 26.7439 121.539 27.1096C121.532 27.8481 121.827 28.5589 122.359 29.0858C122.891 29.6127 123.615 29.9124 124.373 29.919C124.749 29.9223 125.121 29.8535 125.469 29.7166C125.817 29.5797 126.134 29.3773 126.402 29.1211C126.67 28.8648 126.883 28.5597 127.03 28.2231C127.176 27.8866 127.254 27.5251 127.257 27.1595Z" fill="#00CCBC"/>
<path d="M73.0172 21.6426H70.4119C70.3527 21.6426 70.3047 21.6906 70.3047 21.7498V32.5037C70.3047 32.5629 70.3527 32.6109 70.4119 32.6109H73.0172C73.0764 32.6109 73.1244 32.5629 73.1244 32.5037V21.7498C73.1244 21.6906 73.0764 21.6426 73.0172 21.6426Z" fill="#00CCBC"/>
<path d="M77.5723 32.5719L74.6386 21.7108C74.6364 21.7029 74.6361 21.6945 74.6377 21.6864C74.6393 21.6783 74.6427 21.6707 74.6477 21.6641C74.6527 21.6576 74.6592 21.6523 74.6666 21.6486C74.674 21.645 74.6821 21.6431 74.6904 21.6431H77.6253C77.6373 21.6431 77.6488 21.6472 77.6582 21.6545C77.6676 21.6619 77.6742 21.6722 77.6771 21.6837L79.7783 30.3099C79.7812 30.3215 79.7879 30.3319 79.7973 30.3393C79.8067 30.3467 79.8184 30.3507 79.8304 30.3507C79.8424 30.3507 79.8541 30.3467 79.8635 30.3393C79.8729 30.3319 79.8796 30.3215 79.8825 30.3099L81.9862 21.6837C81.989 21.6722 81.9957 21.6619 82.0051 21.6545C82.0144 21.6472 82.026 21.6431 82.0379 21.6431H85.0012C85.0095 21.6431 85.0176 21.645 85.025 21.6486C85.0324 21.6523 85.0389 21.6576 85.0439 21.6641C85.0489 21.6707 85.0523 21.6783 85.0539 21.6864C85.0555 21.6945 85.0552 21.7029 85.053 21.7108L82.1279 32.5719C82.1248 32.5833 82.118 32.5933 82.1087 32.6004C82.0993 32.6075 82.0879 32.6114 82.0761 32.6114H77.6241C77.6123 32.6114 77.6009 32.6075 77.5916 32.6004C77.5822 32.5933 77.5755 32.5833 77.5723 32.5719Z" fill="#00CCBC"/>
<path d="M54.9467 26.116C54.8909 26.1115 54.8695 26.0822 54.8827 26.0279C55.3035 24.2742 57.3062 23.8638 58.7795 24.4542C59.4914 24.7393 59.9796 25.2532 60.2442 25.9959C60.2495 26.0106 60.2512 26.0264 60.2494 26.0419C60.2476 26.0574 60.2422 26.0724 60.2337 26.0855C60.2252 26.0986 60.2137 26.1096 60.2003 26.1175C60.1868 26.1255 60.1717 26.1303 60.1561 26.1314C59.7777 26.1592 59.2965 26.1259 59.0173 26.1265C57.7155 26.1265 56.4137 26.1331 55.1119 26.1462C55.0681 26.1469 54.9942 26.1191 54.9467 26.116Z" fill="black"/>
<path d="M88.711 26.0863C88.7794 23.693 93.8155 23.5624 94.022 26.0839C94.0224 26.0885 94.0218 26.0933 94.0203 26.0978C94.0187 26.1022 94.0163 26.1063 94.013 26.1098C94.0098 26.1133 94.0058 26.1161 94.0014 26.118C93.997 26.1199 93.9923 26.1208 93.9875 26.1208L88.7603 26.1375C88.7537 26.1376 88.7471 26.1363 88.741 26.1337C88.7349 26.1312 88.7294 26.1274 88.7248 26.1226C88.7202 26.1178 88.7166 26.1121 88.7142 26.1059C88.7118 26.0997 88.7107 26.093 88.711 26.0863Z" fill="black"/>
<path d="M44.5427 29.9206C46.1237 29.9316 47.4141 28.6939 47.4249 27.156C47.4356 25.6182 46.1626 24.3626 44.5815 24.3515C43.0005 24.3405 41.71 25.5782 41.6993 27.1161C41.6886 28.6539 42.9616 29.9095 44.5427 29.9206Z" fill="black"/>
<path d="M111.931 29.9147C113.508 29.8871 114.766 28.6191 114.739 27.0825C114.712 25.5459 113.411 24.3225 111.833 24.35C110.256 24.3776 108.998 25.6456 109.025 27.1822C109.052 28.7189 110.353 29.9422 111.931 29.9147Z" fill="black"/>
<path d="M124.373 29.9191C125.952 29.9329 127.243 28.6974 127.256 27.1596C127.27 25.6218 126.001 24.3639 124.422 24.3501C122.843 24.3364 121.552 25.5719 121.538 27.1097C121.525 28.6475 122.794 29.9053 124.373 29.9191Z" fill="black"/>
<path d="M13.8994 27.282C14.2839 25.6965 16.9755 26.3848 16.705 27.9499C16.5996 28.5581 16.1412 29.0899 15.4818 29.1158C14.2593 29.1626 13.6012 28.5119 13.8994 27.282Z" fill="black"/>
<path d="M22.0903 27.3404L21.8069 27.2362C21.1563 26.9968 20.4349 27.3301 20.1955 27.9807L20.0968 28.2491C19.8574 28.8996 20.1908 29.6211 20.8413 29.8605L21.1247 29.9647C21.7753 30.2041 22.4967 29.8707 22.7361 29.2201L22.8348 28.9518C23.0742 28.3012 22.7408 27.5798 22.0903 27.3404Z" fill="black"/>
</g>
<defs>
<clipPath id="clip0_1253_25110">
<rect width="130.264" height="35" fill="white" transform="translate(0 6.5)"/>
</clipPath>
</defs>
</svg>
