<svg width="150" height="52" viewBox="0 0 150 52" fill="none" xmlns="http://www.w3.org/2000/svg">
<mask id="mask0_1253_24361" style="mask-type:luminance" maskUnits="userSpaceOnUse" x="0" y="3" width="66" height="46">
<path d="M66 3.55957H0V48.4182H66V3.55957Z" fill="white"/>
</mask>
<g mask="url(#mask0_1253_24361)">
<path d="M55.0923 18.7882L60.1227 14.4293L48.3087 3.55957H38.5391L45.7305 10.1736L55.0923 18.7882Z" fill="white"/>
<path d="M39.0649 43.1676L65.9999 19.8375L61.1002 15.332L56.0675 19.6886L34.0117 38.7926L39.0649 43.1676Z" fill="#E6A023"/>
<path d="M39.0649 43.1676L65.9999 19.8375L61.1002 15.332L56.0675 19.6886L34.0117 38.7926L39.0649 43.1676Z" fill="#3AA648"/>
<path d="M33.0015 39.6683L10.9388 20.562L6.03906 25.0677L33.0015 48.4182L38.0524 44.0433L33.0015 39.6683Z" fill="white"/>
<path d="M9.06614 11.4956L0 19.8375L5.03268 24.1964L9.93013 19.6886L9.97826 19.6428L18.8359 11.4956H9.06614Z" fill="#E6A023"/>
<path d="M9.06614 11.4956L0 19.8375L5.03268 24.1964L9.93013 19.6886L9.97826 19.6428L18.8359 11.4956H9.06614Z" fill="#3AA648"/>
<path d="M36.5886 3.55957H17.6932L10.5039 10.1736H20.2714H22.0864H43.7755L36.5886 3.55957Z" fill="white"/>
<path d="M29.3499 28.998C28.999 29.3377 28.5842 29.6044 28.1294 29.7822C27.6745 29.96 27.1888 30.0456 26.7006 30.0338C24.1087 30.0338 23.0132 28.2509 23.004 26.4358C22.9948 24.6208 24.1797 22.769 26.7006 22.769C27.1765 22.7687 27.6478 22.8628 28.0872 23.0456C28.5266 23.2286 28.9254 23.4967 29.2605 23.8346L28.3827 24.6826C27.9296 24.2518 27.3258 24.0157 26.7006 24.0248C25.0161 24.0248 24.2896 25.2808 24.2989 26.445C24.308 27.6091 24.9864 28.8078 26.7006 28.8078C27.3537 28.8031 27.9807 28.5499 28.4538 28.0996L29.3499 28.998Z" fill="#3AA648"/>
<path d="M35.447 24.923C35.4508 25.2142 35.3648 25.4996 35.2009 25.7402C35.0369 25.9809 34.8028 26.1652 34.5304 26.2683C35.3462 26.5157 35.6465 27.382 35.6465 27.8221C35.6465 29.3759 34.48 29.8846 33.0361 29.8846H29.7383V22.8994H33.0452C34.4203 22.8994 35.447 23.5181 35.447 24.923ZM31.0331 25.7H33.0452C33.8726 25.7 34.1407 25.3516 34.1407 24.9529C34.1407 24.6343 33.8818 24.0957 33.0452 24.0957H31.0331V25.7ZM31.0331 28.6495H33.0452C33.5815 28.6495 34.3516 28.4684 34.3516 27.8107C34.3516 27.1529 33.5815 26.855 33.0452 26.855H31.0331V28.6495Z" fill="#3AA648"/>
<path d="M42.9116 26.3278C42.9413 28.0903 41.8642 29.8732 39.4258 29.8732H36.6758V22.8994H39.4258C41.8161 22.8994 42.8818 24.6159 42.9116 26.3278ZM37.9889 28.6196H39.4258C41.0072 28.6196 41.635 27.4737 41.6053 26.3278C41.5778 25.2439 40.9384 24.1576 39.4258 24.1576H37.9889V28.6196Z" fill="#3AA648"/>
<path d="M20.6414 17.3329C20.662 18.6003 19.8898 19.879 18.1366 19.879H16.168V14.8716H18.1366C19.8553 14.8716 20.6208 16.0954 20.6414 17.3329ZM17.1076 18.9715H18.1366C19.2824 18.9715 19.7246 18.1419 19.7041 17.326C19.6812 16.5469 19.2251 15.7653 18.1366 15.7653H17.1076V18.9715Z" fill="white"/>
<path d="M21.3477 19.879V14.8716H22.285V19.879H21.3477Z" fill="white"/>
<path d="M26.7271 18.9349H24.1076L23.6767 19.879H22.6523L24.8983 14.8716H25.9295L28.1777 19.879H27.1465L26.7271 18.9349ZM25.4162 15.9235L24.4857 18.0548H26.3467L25.4162 15.9235Z" fill="white"/>
<path d="M32.8957 16.2534L31.2662 18.4283H31.0805L29.4764 16.2466V19.8881H28.5391V14.8784H29.6391L31.2044 17.0326L32.7719 14.8784H33.8536V19.8881H32.9071L32.8957 16.2534Z" fill="white"/>
<path d="M39.6489 17.4041C39.6328 18.699 38.8399 19.9938 37.0798 19.9938C35.3198 19.9938 34.5039 18.7288 34.5039 17.4109C34.5039 16.0932 35.3495 14.7617 37.0798 14.7617C38.8101 14.7617 39.6626 16.0955 39.6489 17.4041ZM35.4344 17.427C35.4573 18.2497 35.8927 19.1298 37.0798 19.1298C38.267 19.1298 38.7046 18.2429 38.7184 17.4202C38.7321 16.5974 38.26 15.6302 37.0798 15.6302C35.8995 15.6302 35.4137 16.5814 35.4344 17.427Z" fill="white"/>
<path d="M43.637 14.8647H44.5811V19.8791H43.9944L41.3612 16.5033V19.8791H40.4102V14.8716H41.1756L43.637 17.9701V14.8647Z" fill="white"/>
<path d="M49.8501 17.3329C49.873 18.6003 49.1007 19.879 47.3475 19.879H45.3789V14.8716H47.3475C49.0641 14.8716 49.8295 16.0954 49.8501 17.3329ZM46.3162 18.9715H47.3475C48.4934 18.9715 48.9357 18.1419 48.9151 17.326C48.8921 16.5469 48.4339 15.7653 47.3475 15.7653H46.3162V18.9715Z" fill="white"/>
</g>
</svg>
