<svg width="150" height="48" viewBox="0 0 150 48" fill="none" xmlns="http://www.w3.org/2000/svg">
<path d="M54.0062 19.805C54.0062 17.0403 54.0539 14.4663 54.1969 12.083L46.9039 13.4653V14.1327L47.6189 14.228C48.1432 14.2757 48.4769 14.4663 48.6676 14.7523C48.8582 15.086 49.0012 15.5627 49.0966 16.2777C49.1919 17.66 49.2872 20.806 49.2396 25.7633C49.2396 30.673 49.1919 33.7713 49.0966 34.963C51.7182 35.535 53.7679 35.7733 55.2932 35.7733C58.1532 35.7733 60.3936 34.963 62.0142 33.2947C63.6349 31.674 64.4929 29.386 64.4929 26.5737C64.4929 24.3333 63.8732 22.4743 62.6339 20.9967C61.3946 19.519 59.8216 18.804 57.9626 18.804C56.7232 18.804 55.4362 19.1377 54.0062 19.805ZM54.1492 34.4863C54.0539 32.961 53.9586 28.385 53.9586 20.9013C54.3876 20.7583 54.9596 20.663 55.6746 20.663C56.8186 20.663 57.7242 21.235 58.3916 22.4267C59.0589 23.6183 59.3926 25.0483 59.3926 26.8597C59.3926 29.1 59.0112 30.9113 58.2486 32.4367C57.4859 33.9143 56.5326 34.677 55.3409 34.677C54.9596 34.5817 54.5782 34.534 54.1492 34.4863ZM19.5432 12.5597H0.476562V13.513L1.47756 13.6083C2.24023 13.7513 2.76456 14.0373 3.09823 14.4663C3.4319 14.943 3.62256 15.7057 3.67023 16.7543C4.05156 21.9023 4.05156 26.7167 3.67023 31.1497C3.5749 32.1983 3.38423 32.961 3.09823 33.4377C2.76456 33.9143 2.24023 34.2003 1.47756 34.2957L0.476562 34.4387V35.392H12.7746V34.4387L11.4876 34.3433C11.1735 34.3171 10.868 34.2275 10.5895 34.08C10.311 33.9326 10.0652 33.7303 9.8669 33.4853C9.53323 33.0087 9.34256 32.246 9.2949 31.1973C9.1519 29.2907 9.05656 27.098 9.05656 24.667L11.6306 24.7147C13.0129 24.7623 13.9662 25.811 14.4429 27.9083H15.3962V20.1387H14.4429C13.9662 22.1883 13.0606 23.237 11.6306 23.2847L9.05656 23.3323C9.05656 19.0423 9.1519 15.9917 9.2949 14.1327H13.0606C15.7299 14.1327 17.5412 15.8487 18.5899 19.2807L19.7339 18.947L19.5432 12.5597ZM17.3029 27.241C17.3029 29.7197 18.0179 31.7693 19.4002 33.39C20.7826 35.0107 22.8322 35.7733 25.4062 35.7733C27.9802 35.7733 30.0776 34.963 31.6029 33.2947C33.1282 31.674 33.8432 29.6243 33.8432 27.1457C33.8432 24.667 33.1282 22.6173 31.7459 20.9967C30.3636 19.376 28.3139 18.6133 25.7399 18.6133C23.1659 18.6133 21.0686 19.4237 19.5432 21.092C18.0179 22.7127 17.3029 24.7623 17.3029 27.241ZM27.9326 21.807C28.5046 23.1893 28.7429 25.0007 28.7429 27.1933C28.7429 32.246 27.6942 34.7247 25.6446 34.7247C24.5959 34.7247 23.7856 34.0097 23.2136 32.5797C22.6416 31.1497 22.4032 29.3383 22.4032 27.1933C22.4032 22.1883 23.4519 19.7097 25.5016 19.7097C26.5502 19.662 27.3606 20.377 27.9326 21.807ZM68.2109 33.39C69.7839 34.963 71.7859 35.7733 74.1692 35.7733C75.6469 35.7733 76.9339 35.4873 78.0779 34.8677C79.2219 34.2957 80.1276 33.5807 80.7472 32.7227L80.2706 32.1507C79.2219 32.961 78.0302 33.3423 76.6479 33.3423C74.7412 33.3423 73.2636 32.7227 72.2626 31.4357C71.2139 30.1487 70.7372 28.528 70.8326 26.4307H81.0332C81.0332 24.1427 80.4612 22.2837 79.2696 20.806C78.0779 19.376 76.4096 18.661 74.2646 18.661C71.5952 18.661 69.5456 19.519 68.0679 21.1873C66.5902 22.8557 65.8752 24.9053 65.8752 27.3363C65.8752 29.815 66.6379 31.817 68.2109 33.39ZM71.7382 21.4257C72.2626 20.2817 72.9299 19.7097 73.8356 19.7097C75.2656 19.7097 75.9806 21.521 75.9806 25.1913L70.9279 25.2867C70.9756 23.8567 71.2139 22.5697 71.7382 21.4257ZM93.8556 19.519C92.5686 18.947 90.9479 18.6133 88.9936 18.6133C86.9916 18.6133 85.4186 19.1377 84.2269 20.1387C83.0352 21.1397 82.4156 22.379 82.4156 23.8567C82.4156 25.1437 82.7969 26.1447 83.5119 26.8597C84.2269 27.5747 85.3709 28.1943 86.8486 28.7187C88.1832 29.1953 89.1366 29.672 89.6132 30.101C90.0899 30.5777 90.3759 31.102 90.3759 31.817C90.3759 32.4843 90.1376 33.104 89.6132 33.5807C89.1366 34.105 88.4692 34.3433 87.6112 34.3433C85.5139 34.3433 83.9409 32.818 82.8446 29.7673L82.0342 30.0057L82.2249 34.7723C83.9409 35.4397 85.8476 35.7733 87.9449 35.7733C90.1376 35.7733 91.8059 35.2967 93.0452 34.2957C94.2846 33.3423 94.9042 31.96 94.9042 30.244C94.9042 29.1 94.6182 28.1467 93.9986 27.4317C93.3789 26.7167 92.3779 26.097 90.9479 25.525C89.3749 24.953 88.2786 24.4287 87.7066 23.952C87.1346 23.4753 86.8486 22.9033 86.8486 22.1883C86.8486 21.4733 87.0392 20.9013 87.4682 20.4247C87.8972 19.948 88.4216 19.7573 89.0889 19.7573C90.9956 19.7573 92.3779 21.1397 93.2359 23.8567L94.0462 23.6183L93.8556 19.519ZM48.0002 19.09C47.3329 18.7563 46.6179 18.6133 45.8076 18.6133C44.9972 18.6133 44.1869 18.947 43.2812 19.6143C42.3756 20.2817 41.7082 21.1873 41.1839 22.4267L41.2316 18.6133L33.9862 20.0433V20.7107L34.7012 20.7583C35.6069 20.8537 36.1312 21.5687 36.2266 22.8557C36.5126 25.811 36.5126 28.957 36.2266 32.2937C36.1312 33.5807 35.6069 34.248 34.7012 34.391L33.9862 34.4863V35.392H44.0916V34.4863L42.8046 34.391C41.8989 34.2957 41.3746 33.5807 41.2792 32.2937C40.9932 29.529 40.9456 26.5737 41.1839 23.523C41.4699 23.0463 42.0896 22.7603 43.0429 22.665C43.9962 22.5697 45.0926 22.8557 46.2366 23.523L48.0002 19.09Z" fill="white"/>
</svg>
