<svg width="150" height="48" viewBox="0 0 150 48" fill="none" xmlns="http://www.w3.org/2000/svg">
<g clip-path="url(#clip0_1253_24346)">
<path d="M5.55717 22.6769H10.4743V29.7726C10.4743 33.3551 8.68625 35.4028 5.23613 35.4028C1.78602 35.4028 0 33.3551 0 29.7726V18.1297C0 14.5472 1.78805 12.4995 5.23613 12.4995C8.68424 12.4995 10.4743 14.5472 10.4743 18.1297V20.3036H7.15219V17.9057C7.15219 16.3059 6.44918 15.6993 5.32351 15.6993C4.19786 15.6993 3.49483 16.3099 3.49483 17.9057V30.0047C3.49483 31.6046 4.19583 32.1806 5.32351 32.1806C6.45119 32.1806 7.15219 31.6046 7.15219 30.0047V25.8706H5.55717V22.6769Z" fill="white"/>
<path d="M15.5509 27.7292L11.1133 12.7603H14.7849L17.467 22.9642L20.149 12.7603H23.5016L19.064 27.7292V35.1506H15.5509V27.7292Z" fill="white"/>
<path d="M32.3384 28.6574L34.734 12.7603H39.6186V35.1506H36.2986V19.0926L33.8724 35.1506H30.5504L27.9333 19.3165V35.1506H24.8672V12.7603H29.7539L32.3384 28.6574Z" fill="white"/>
<path d="M46.9012 12.4995C50.3189 12.4995 52.0743 14.5472 52.0743 18.1297V18.8319H48.7604V17.9057C48.7604 16.3059 48.1224 15.6973 47.0049 15.6973C45.8873 15.6973 45.2494 16.3079 45.2494 17.9057C45.2494 22.512 52.1151 23.3751 52.1151 29.7726C52.1151 33.3551 50.3271 35.4028 46.8769 35.4028C43.4268 35.4028 41.6406 33.3551 41.6406 29.7726V28.3966H44.9607V30.0047C44.9607 31.6046 45.6637 32.1806 46.7894 32.1806C47.9151 32.1806 48.6181 31.6046 48.6181 30.0047C48.6181 25.3984 41.7525 24.5353 41.7525 18.1378C41.7281 14.5472 43.4775 12.4995 46.9012 12.4995Z" fill="#0086EC"/>
<path d="M57.6342 35.1506H54.1211V12.7603H57.6342V22.3555H61.6268V12.7603H65.2028V35.1506H61.6268V25.5553H57.6342V35.1506Z" fill="#0086EC"/>
<path fill-rule="evenodd" clip-rule="evenodd" d="M75.5797 35.1506H79.1173L75.5411 12.7603H70.4005L66.8242 35.1506H70.0449L70.6545 31.0796H74.97L75.5797 35.1506ZM74.4925 28.0488H71.1095L72.8 16.7254L74.4925 28.0488Z" fill="#0086EC"/>
<path fill-rule="evenodd" clip-rule="evenodd" d="M88.0831 35.1268L88.0911 35.1506L91.6673 35.1547C91.3157 34.3242 91.2832 33.5242 91.2832 32.4373V28.977C91.2832 26.6423 90.7082 24.9467 88.9527 24.2119C90.5173 23.475 91.2528 21.9729 91.2528 19.6687V17.91C91.2528 14.4538 89.6882 12.7603 86.0472 12.7603H80.7461V35.1486H84.2531V26.0316H85.4721C87.0692 26.0316 87.7722 26.8031 87.7722 28.8813V32.4007C87.7722 34.1992 87.8946 34.5646 88.0831 35.1268ZM84.2592 22.8359V15.9641L85.9517 15.958C87.1972 15.958 87.7397 16.6623 87.7397 18.2622V20.4686C87.7397 22.2599 86.9413 22.8359 85.6326 22.8359H84.2592Z" fill="#0086EC"/>
<path d="M98.1843 26.227L97.0972 28.2727V35.1506H93.5859V12.7603H97.0972V22.5163L101.695 12.7603H105.208L100.324 22.7402L105.208 35.1506H101.6L98.1843 26.227Z" fill="#0086EC"/>
<path d="M136.91 12.751H107.645L128.782 16.3314L120.179 29.5295H119.448L118.249 30.7182L116.987 29.5295H116.652L115.437 30.7386L114.228 29.5295H113.819L112.611 30.7406L111.363 29.5295H107.645L112.556 31.4428L113.876 30.8139L114.618 32.253L114.99 32.3954L116.506 31.6464L117.3 33.3196L117.613 33.4254L116.501 35.1576L136.91 12.751Z" fill="#0086EC"/>
<path d="M111.113 17.8315L119.718 19.875L116.018 20.2821L111.113 17.8315Z" fill="#0086EC"/>
</g>
<defs>
<clipPath id="clip0_1253_24346">
<rect width="136.948" height="23.001" fill="white" transform="translate(0 12.4995)"/>
</clipPath>
</defs>
</svg>
