<svg width="150" height="48" viewBox="0 0 150 48" fill="none" xmlns="http://www.w3.org/2000/svg">
<g>
<path d="M6.28238 22.6622H11.8412V30.6624C11.8412 34.7015 9.81979 37.0102 5.91945 37.0102C2.01909 37.0102 0 34.7015 0 30.6624V17.5353C0 13.4962 2.02139 11.1875 5.91945 11.1875C9.8175 11.1875 11.8412 13.4962 11.8412 17.5353V19.9863H8.08552V17.2829C8.08552 15.479 7.29078 14.7952 6.01822 14.7952C4.74567 14.7952 3.95089 15.4836 3.95089 17.2829V30.924C3.95089 32.7279 4.74337 33.3774 6.01822 33.3774C7.29308 33.3774 8.08552 32.7279 8.08552 30.924V26.263H6.28238V22.6622Z" fill="white"/>
<path d="M17.5792 28.3536L12.5625 11.4766H16.7132L19.7453 22.9811L22.7774 11.4766H26.5675L21.5507 28.3536V36.721H17.5792V28.3536Z" fill="white"/>
<path d="M36.5673 29.4001L39.2754 11.4766H44.7975V36.721H41.0442V18.6161L38.3015 36.721H34.5459L31.5873 18.8686V36.721H28.1211V11.4766H33.6454L36.5673 29.4001Z" fill="white"/>
<path d="M53.029 11.1875C56.8926 11.1875 58.8773 13.4962 58.8773 17.5353V18.3271H55.1308V17.2829C55.1308 15.479 54.4095 14.7929 53.1461 14.7929C51.8828 14.7929 51.1615 15.4813 51.1615 17.2829C51.1615 22.4763 58.9232 23.4494 58.9232 30.6624C58.9232 34.7015 56.9018 37.0102 53.0014 37.0102C49.1011 37.0102 47.082 34.7015 47.082 30.6624V29.1111H50.8353V30.924C50.8353 32.7279 51.6301 33.3774 52.9027 33.3774C54.1753 33.3774 54.97 32.7279 54.97 30.924C54.97 25.7305 47.2084 24.7575 47.2084 17.5445C47.1807 13.4962 49.1585 11.1875 53.029 11.1875Z" fill="white"/>
<path d="M65.1552 36.721H61.1836V11.4766H65.1552V22.295H69.6688V11.4766H73.7116V36.721H69.6688V25.9026H65.1552V36.721Z" fill="white"/>
<path fill-rule="evenodd" clip-rule="evenodd" d="M85.4488 36.7229H89.4475L85.4053 11.4785H79.5933L75.5508 36.7229H79.1913L79.8809 32.133H84.7599L85.4488 36.7229ZM84.2199 28.7153H80.3951L82.3067 15.9484L84.2199 28.7153Z" fill="white"/>
<path fill-rule="evenodd" clip-rule="evenodd" d="M99.584 36.6961L99.5924 36.7229L103.635 36.7275C103.238 35.7912 103.201 34.8893 103.201 33.6637V29.7624C103.201 27.13 102.551 25.2183 100.566 24.3899C102.335 23.5591 103.167 21.8654 103.167 19.2676V17.2847C103.167 13.3879 101.398 11.4785 97.2818 11.4785H91.2891V36.7206H95.2534V26.4416H96.6319C98.4375 26.4416 99.2323 27.3114 99.2323 29.6545V33.6225C99.2323 35.6503 99.3704 36.0622 99.584 36.6961ZM95.2603 22.8381V15.0904L97.1735 15.0835C98.5816 15.0835 99.1949 15.8775 99.1949 17.6814V20.1691C99.1949 22.1886 98.2925 22.8381 96.8134 22.8381H95.2603Z" fill="white"/>
<path d="M110.999 26.6599L109.77 28.9664V36.721H105.801V11.4766H109.77V22.4762L114.968 11.4766H118.94L113.418 22.7287L118.94 36.721H114.86L110.999 26.6599Z" fill="white"/>
</g>
</svg>
