<svg width="150" height="48" viewBox="0 0 150 48" fill="none" xmlns="http://www.w3.org/2000/svg">
<g clip-path="url(#clip0_1253_24771)">
<path d="M76.9119 11.4817C76.9119 12.7226 77.4731 13.6975 79.7486 14.1407C81.078 14.4361 81.3732 14.643 81.3732 15.0861C81.3732 15.5292 81.078 15.7952 80.1319 15.7952C79.0394 15.7952 77.7392 15.4111 76.8828 14.9088V16.9178C77.5621 17.2428 78.4483 17.6269 80.1319 17.6269C82.4956 17.6269 83.4117 16.5633 83.4117 15.027M83.4117 15.0566C83.4117 13.5794 82.6435 12.8998 80.4279 12.4271C79.2165 12.1612 78.9206 11.8953 78.9206 11.5112C78.9206 11.0385 79.3645 10.8317 80.1618 10.8317C81.137 10.8317 82.0824 11.1272 82.9978 11.5408V9.62042C82.3484 9.29543 81.3732 9.05908 80.2209 9.05908C78.0343 9.05908 76.9119 10.0045 76.9119 11.5408" fill="white"/>
<path d="M107.164 9.11719V17.5373H108.966V11.1262L109.705 12.8102L112.246 17.5373H114.491V9.11719H112.719V14.5533L112.039 12.9579L110 9.11719H107.164Z" fill="white"/>
<path d="M95.7582 9.11719H93.8086V17.5373H95.7582V9.11719Z" fill="white"/>
<path d="M91.5641 15.0263C91.5641 13.5491 90.7959 12.8695 88.5802 12.3968C87.3689 12.1309 87.073 11.865 87.073 11.481C87.073 11.0083 87.5169 10.8015 88.3142 10.8015C89.2894 10.8015 90.2347 11.0969 91.1501 11.5105V9.59015C90.5007 9.26516 89.5255 9.02881 88.3732 9.02881C86.1867 9.02881 85.0643 9.97422 85.0643 11.5105C85.0643 12.7514 85.6255 13.7263 87.9002 14.1695C89.2304 14.4649 89.5255 14.6718 89.5255 15.1149C89.5255 15.558 89.2304 15.824 88.2843 15.824C87.1918 15.824 85.8915 15.4399 85.0352 14.9377V16.9466C85.7144 17.2716 86.6007 17.6557 88.2843 17.6557C90.6188 17.6557 91.5641 16.5921 91.5641 15.0263Z" fill="white"/>
<path d="M61.7305 9.11719V17.5373H65.7485L66.3689 15.7055H63.6804V9.11719H61.7305Z" fill="white"/>
<path d="M53.7773 9.11719V10.9194H55.9341V17.5373H57.9135V10.9194H60.2475V9.11719H53.7773Z" fill="white"/>
<path d="M50.9093 9.11719H48.3389L45.4141 17.5373H47.6594L48.073 16.1192C48.5753 16.2669 49.1071 16.3555 49.6389 16.3555C50.1707 16.3555 50.7025 16.2669 51.2047 16.1192L51.6183 17.5373H53.8636C53.8341 17.5373 50.9093 9.11719 50.9093 9.11719ZM49.6093 14.5828C49.2252 14.5828 48.8707 14.5238 48.5457 14.4351L49.6093 10.7717L50.6729 14.4351C50.3479 14.5238 49.9934 14.5828 49.6093 14.5828Z" fill="white"/>
<path d="M72.6888 9.11719H70.1185L67.1641 17.5373H69.4094L69.823 16.1192C70.3253 16.2669 70.8571 16.3555 71.3889 16.3555C71.9207 16.3555 72.4524 16.2669 72.9547 16.1192L73.3683 17.5373H75.6137L72.6888 9.11719ZM71.3889 14.5828C71.0048 14.5828 70.6502 14.5238 70.3253 14.4351L71.3889 10.7717L72.4524 14.4351C72.1275 14.5238 71.773 14.5828 71.3889 14.5828Z" fill="white"/>
<path d="M102.823 9.11719H100.253L97.3281 17.5373H99.5729L99.9869 16.1192C100.489 16.2669 101.02 16.3555 101.552 16.3555C102.085 16.3555 102.616 16.2669 103.119 16.1192L103.532 17.5373H105.778L102.823 9.11719ZM101.552 14.5828C101.168 14.5828 100.814 14.5238 100.489 14.4351L101.552 10.7717L102.616 14.4351C102.292 14.5238 101.907 14.5828 101.552 14.5828Z" fill="white"/>
<path d="M0.585938 14.8001C0.585938 9.71908 4.70492 5.6001 9.78593 5.6001H28.1859C33.2669 5.6001 37.3859 9.71908 37.3859 14.8001V33.2001C37.3859 38.2811 33.2669 42.4001 28.1859 42.4001H9.78593C4.70492 42.4001 0.585938 38.2811 0.585938 33.2001V14.8001Z" fill="#1868DB"/>
<path d="M29.7651 23.2059H23.572L28.9355 20.1092L27.7577 18.0686L22.3941 21.1651L25.49 15.8021L23.4493 14.6235L20.3534 19.9866V13.7939H17.9975V19.9872L14.9004 14.6235L12.8604 15.8015L15.9569 21.1645L10.5934 18.0686L9.41547 20.1087L14.779 23.2052H8.58594V25.5612H14.7784L9.41547 28.6578L10.5934 30.6986L15.9563 27.6025L12.8598 32.9656L14.9004 34.1435L17.9969 28.7799V34.9731H20.3528V28.7804L23.4488 34.1435L25.4894 32.9656L22.3929 27.6019L27.7564 30.6986L28.9343 28.6578L23.5714 25.5617H29.7639V23.2059H29.7651ZM19.1755 27.5877C17.3991 27.5877 15.9593 26.1479 15.9593 24.3714C15.9593 22.595 17.3991 21.1551 19.1755 21.1551C20.9519 21.1551 22.3917 22.595 22.3917 24.3714C22.3917 26.1479 20.9519 27.5877 19.1755 27.5877Z" fill="white"/>
<path d="M45.4141 37.5001V21.7427H48.3071V37.5001H45.4141Z" fill="white"/>
<path d="M73.1641 26.7924H75.9267V28.0987C76.5139 27.0542 77.8847 26.4878 79.0593 26.4878C80.5175 26.4878 81.692 27.1193 82.2356 28.2724C83.0835 26.966 84.2151 26.4878 85.6288 26.4878C87.6084 26.4878 89.5013 27.685 89.5013 30.5576V37.5006H86.6953V31.1457C86.6953 29.9919 86.1287 29.1216 84.8016 29.1216C83.5619 29.1216 82.8221 30.0793 82.8221 31.2332V37.5013H79.9509V31.1457C79.9509 29.9919 79.3644 29.1216 78.058 29.1216C76.7961 29.1216 76.0564 30.0576 76.0564 31.2332V37.5013H73.1641V26.7924Z" fill="white"/>
<path d="M54.8458 37.811C51.5866 37.811 49.2266 35.3937 49.2266 32.1469C49.2266 28.9519 51.579 26.4771 54.8458 26.4771C58.1284 26.4771 60.465 28.9749 60.465 32.1469C60.465 35.37 58.1036 37.811 54.8458 37.811ZM54.8458 29.0981C53.1648 29.0981 51.7975 30.4657 51.7975 32.1475C51.7975 33.8294 53.1648 35.197 54.8458 35.197C56.5268 35.197 57.8933 33.8294 57.8933 32.1475C57.8933 30.4657 56.5268 29.0981 54.8458 29.0981Z" fill="white"/>
<path d="M66.6466 37.811C63.3874 37.811 61.0273 35.3937 61.0273 32.1469C61.0273 28.9519 63.3799 26.4771 66.6466 26.4771C69.9293 26.4771 72.2658 28.9749 72.2658 32.1469C72.2658 35.37 69.9031 37.811 66.6466 37.811ZM66.6466 29.0617C64.9464 29.0617 63.5632 30.4459 63.5632 32.1462C63.5632 33.8466 64.9464 35.2309 66.6466 35.2309C68.3466 35.2309 69.73 33.8466 69.73 32.1462C69.7293 30.4459 68.3461 29.0617 66.6466 29.0617Z" fill="white"/>
</g>
<defs>
<clipPath id="clip0_1253_24771">
<rect width="115" height="36.8" fill="white" transform="translate(0 5.6001)"/>
</clipPath>
</defs>
</svg>
