<svg width="150" height="48" viewBox="0 0 150 48" fill="none" xmlns="http://www.w3.org/2000/svg">
<g clip-path="url(#clip0_1253_24830)">
<mask id="mask0_1253_24830" style="mask-type:luminance" maskUnits="userSpaceOnUse" x="0" y="2" width="101" height="43">
<path d="M0 2.80664H100.281V44.3374H0V2.80664Z" fill="white"/>
</mask>
<g mask="url(#mask0_1253_24830)">
<path d="M40.1371 27.209H36.7731V39.6252H40.1382L40.1371 27.209ZM46.7805 40.0139C45.9017 40.0139 45.0374 39.9054 44.1835 39.6862C43.3296 39.466 42.6493 39.1765 42.1469 38.8198L42.5604 36.257C43.13 36.6498 43.7803 36.9538 44.5133 37.173C45.2432 37.3921 45.9431 37.5038 46.6109 37.5038C48.0738 37.5038 48.8047 37.0789 48.8047 36.2343C48.8047 35.9748 48.7447 35.7587 48.6217 35.586C48.4997 35.4165 48.2681 35.2552 47.927 35.0991C47.5858 34.944 47.0896 34.7786 46.4383 34.6008C44.9599 34.1769 43.9116 33.6652 43.2923 33.0625C42.6752 32.4608 42.3671 31.6565 42.3671 30.6485C42.3671 29.4462 42.8127 28.5075 43.7079 27.8303C44.6022 27.1563 45.8293 26.8192 47.3904 26.8192C48.1554 26.8192 48.9184 26.9133 49.6834 27.1004C50.4474 27.2865 51.0812 27.5191 51.5857 27.7941L51.1701 30.3063C50.6045 29.9828 49.9981 29.7367 49.3671 29.5744C48.7696 29.4175 48.1549 29.3359 47.5372 29.3314C46.2677 29.3314 45.634 29.7212 45.634 30.5007C45.634 30.8604 45.789 31.152 46.0971 31.3805C46.4062 31.6079 47.0007 31.8519 47.8784 32.1114C49.4229 32.5518 50.525 33.079 51.1835 33.6973C51.841 34.3155 52.1718 35.1446 52.1718 36.1846C52.1718 37.3735 51.6911 38.3081 50.7317 38.9894C49.7723 39.6727 48.4532 40.0139 46.7805 40.0139ZM54.0027 39.6242V27.2079H57.2458L57.2696 29.6726C57.5632 28.8114 58.0047 28.1477 58.5981 27.6856C59.1925 27.2214 59.8873 26.9888 60.6854 26.9888C60.9438 26.9888 61.2085 27.0146 61.4773 27.0642C61.7461 27.1108 61.9611 27.1759 62.1224 27.2576L61.8308 30.4542C61.5846 30.3622 61.3321 30.2883 61.0751 30.2329C60.8105 30.1723 60.5402 30.14 60.2687 30.1368C59.3435 30.1368 58.627 30.4645 58.1236 31.1251C57.6191 31.7826 57.3668 32.7296 57.3668 33.966V39.6242H54.0027ZM69.5246 40.0139C67.6864 40.0139 66.2763 39.5352 65.2931 38.5769C64.3089 37.6154 63.8179 36.2508 63.8179 34.4768V27.209H67.2088V34.4044C67.2088 36.1453 67.9873 37.0138 69.5483 37.0138C71.0939 37.0138 71.8662 36.1453 71.8662 34.4044V27.209H75.2561V34.4768C75.2561 36.2498 74.7609 37.6154 73.7694 38.5759C72.777 39.5352 71.3596 40.0139 69.5246 40.0139ZM34.1275 2.80664V19.5049L23.7448 24.6627V6.35679C26.9724 4.41423 30.2372 2.80664 34.1275 2.80664ZM22.1931 7.29963V19.4109L11.8952 24.4962V12.7086C14.7423 11.7988 17.1191 10.4549 20.8532 8.13703L22.1931 7.29963ZM10.3155 19.4501L0 24.5293V14.5405C0 14.5405 6.755 14.0102 10.3041 13.1624L10.3144 19.4512L10.3155 19.4501ZM0 39.6242V27.2079H3.2431L3.29272 28.9892C3.61734 28.3069 4.10944 27.7745 4.76799 27.392C5.42653 27.0115 6.19466 26.8192 7.07341 26.8192C8.92499 26.8192 10.1945 27.608 10.8779 29.1846C11.2168 28.4553 11.7753 27.8502 12.4751 27.454C13.1988 27.0312 14.0155 26.8192 14.9263 26.8192C16.3737 26.8192 17.4799 27.27 18.2449 28.1735C19.0068 29.074 19.3904 30.3797 19.3904 32.0876V39.6242H16.0232V32.7224C16.0232 30.786 15.283 29.8194 13.8036 29.8194C13.0386 29.8194 12.4431 30.0913 12.0109 30.6361C11.5819 31.1809 11.3658 31.9491 11.3658 32.9415V39.6242H7.99868V32.6975C7.99868 30.7788 7.27501 29.8194 5.82869 29.8194C5.03058 29.8194 4.42269 30.0882 3.99883 30.6247C3.57703 31.1613 3.36509 31.9242 3.36509 32.9157V39.6252L0 39.6242ZM30.7459 28.9169C30.3463 28.2547 29.7727 27.7147 29.0876 27.3558C28.3951 26.9957 27.6247 26.8114 26.8442 26.8192C25.738 26.8192 24.7414 27.1108 23.8565 27.6969C22.9705 28.2821 22.2665 29.074 21.7475 30.0747C21.2264 31.0755 20.9649 32.2013 20.9649 33.4533C20.9649 34.7218 21.2099 35.8517 21.6979 36.8442C22.1848 37.8346 22.8557 38.612 23.7107 39.1724C24.5636 39.7348 25.5427 40.0139 26.6488 40.0139C27.5917 40.0139 28.4198 39.8195 29.1362 39.4277C29.8556 39.0349 30.4543 38.4534 30.8679 37.7457L30.9165 39.6242H34.1368L34.1244 22.5227L30.7345 24.032L30.7459 28.9169ZM30.016 35.9882C29.3978 36.6561 28.609 36.991 27.6496 36.991C26.6881 36.991 25.9004 36.6561 25.2842 35.9882C24.666 35.3235 24.3558 34.4695 24.3558 33.4295C24.3558 32.3719 24.666 31.5107 25.2842 30.8449C25.9004 30.1771 26.6892 29.8432 27.6496 29.8432C28.609 29.8432 29.3967 30.1771 30.016 30.8439C30.6322 31.5107 30.9423 32.3719 30.9423 33.4285C30.9423 34.4695 30.6322 35.3224 30.016 35.9882ZM90.2072 29.9776C89.7192 28.9954 89.0431 28.2221 88.1819 27.6597C87.3208 27.1004 86.3366 26.8192 85.2304 26.8192C84.2875 26.8192 83.4543 27.0219 82.7306 27.4292C82.0044 27.8399 81.402 28.4384 80.9865 29.1619L80.938 27.209H77.7683V44.2981H81.1333V37.9421C82.0276 39.3233 83.3364 40.0139 85.0608 40.0139C86.167 40.0139 87.1616 39.7224 88.0486 39.1362C88.9346 38.551 89.6376 37.7591 90.1576 36.7584C90.6786 35.7587 90.9381 34.6329 90.9381 33.3809C90.9381 32.0969 90.6952 30.9618 90.2072 29.9776ZM86.6209 35.9892C86.0027 36.6571 85.2149 36.99 84.2555 36.99C83.2796 36.99 82.4825 36.6571 81.8663 35.9892C81.2471 35.3235 80.938 34.4695 80.938 33.4295C80.938 32.3719 81.2481 31.5118 81.8663 30.8449C82.4825 30.1771 83.2796 29.8432 84.2555 29.8432C85.2149 29.8432 86.0027 30.1771 86.6209 30.8439C87.2391 31.5107 87.5482 32.3719 87.5482 33.4285C87.5482 34.4695 87.2391 35.3235 86.6209 35.9892ZM93.7935 24.1778V27.209H91.3558V29.9641H93.7935V39.6242H97.1607V29.9641H100.112V27.209H97.1607V23.4779L93.7935 24.1778Z" fill="white"/>
</g>
</g>
<defs>
<clipPath id="clip0_1253_24830">
<rect width="100.281" height="42.3867" fill="white" transform="translate(0 2.80664)"/>
</clipPath>
</defs>
</svg>
