<svg width="150" height="48" viewBox="0 0 150 48" fill="none" xmlns="http://www.w3.org/2000/svg">
<g clip-path="url(#clip0_1240_24222)">
<path d="M124.644 15.4419H124.51C122.597 15.4419 116.319 16.0484 116.285 23.9325C116.285 32.1535 123.167 32.5578 124.544 32.5578H124.611C125.484 32.5578 128.471 32.3893 130.62 30.2667C132.131 28.7842 132.869 26.6279 132.869 23.9325C132.836 16.0484 126.558 15.4419 124.644 15.4419ZM127.095 29.2222C126.625 29.6265 125.853 30.0982 124.678 30.0982H124.443C123.268 30.0982 122.496 29.6265 122.026 29.2222C120.851 28.1777 120.247 26.291 120.247 23.6292C120.28 18.4069 122.865 17.6319 124.409 17.6319H124.644C126.189 17.6319 128.774 18.4069 128.807 23.6292C128.874 26.291 128.27 28.1777 127.095 29.2222ZM25.4444 35.1184C23.9338 34.5457 21.7181 32.8947 20.4089 31.3449C18.7975 29.4918 14.9034 24.3031 14.8698 24.2694L13.0906 21.9109C11.3785 19.5524 9.43145 16.9244 7.48438 15.3408V32.5241H9.83429V23.6292L9.86786 23.6966C10.5057 24.5052 11.1771 25.3813 11.8485 26.2573C12.9563 27.6724 14.0641 29.1548 15.0041 30.233C15.6419 30.9742 17.3204 32.76 17.7904 33.1643C19.9389 35.2195 23.4302 36.5335 26.888 36.5335C28.3986 36.5335 29.8421 36.2977 31.1849 35.8597V35.7586C30.6478 35.8597 30.0435 35.9271 29.4393 35.9271C28.13 35.8597 26.7537 35.6238 25.4444 35.1184Z" fill="white"/>
<path d="M10.6418 16.6887C12.2531 18.5081 16.2815 23.6968 16.3487 23.7642L18.1279 26.1226C19.84 28.4811 21.7871 31.1092 23.7006 32.6927V15.442H21.3842V24.3706L21.3171 24.3032C20.6792 23.4946 20.0078 22.6186 19.3364 21.7426C18.2286 20.3275 17.1208 18.845 16.1808 17.7668C15.543 17.0256 13.7302 15.2399 13.2602 14.8356C11.1117 12.7803 7.62044 11.5 4.16271 11.5C2.65205 11.5 1.34281 11.7358 0 12.2075V12.3086C0.537123 12.1739 1.14139 12.1402 1.77922 12.1402C3.08846 12.1402 4.36413 12.4097 5.63979 12.9151C7.15045 13.4542 9.36609 15.1051 10.6418 16.6887ZM101.416 24.2022C99.5021 22.5512 97.3872 22.1469 95.7758 21.035C94.668 20.1253 94.7015 18.9124 95.3058 18.3059C96.6822 16.7898 99.4349 17.3962 100.14 17.5647C100.979 17.7668 101.416 18.0027 102.188 18.3733V16.4528C98.8307 15.442 93.4594 14.4987 91.3781 17.9353C90.606 19.3504 90.4046 21.9111 92.6538 23.4272C94.903 25.2129 98.7971 26.0553 99.2335 27.5377C99.5357 28.3464 99.1999 29.1213 98.6628 29.6604C96.6822 31.5472 93.258 30.4016 91.2102 29.4582V31.5135C93.4594 32.5243 96.2793 32.7938 98.7971 32.2547C100.509 31.8167 102.456 30.3005 102.725 28.3801C103.027 26.4596 102.658 25.2466 101.416 24.2022ZM113.837 24.2022C111.923 22.5512 109.808 22.1469 108.197 21.035C107.089 20.1253 107.123 18.9124 107.727 18.3059C109.103 16.7898 111.856 17.3962 112.561 17.5647C113.4 17.7668 113.837 18.0027 114.609 18.3733V16.4528C111.252 15.442 105.88 14.4987 103.799 17.9353C103.027 19.3504 102.826 21.9111 105.075 23.4272C107.324 25.2129 111.218 26.0553 111.654 27.5377C111.957 28.3464 111.621 29.1213 111.084 29.6604C109.07 31.5472 105.679 30.4016 103.631 29.4582V31.5135C105.88 32.5243 108.7 32.7938 111.218 32.2547C112.93 31.8167 114.877 30.3005 115.179 28.3801C115.414 26.4596 115.045 25.2466 113.837 24.2022ZM79.1585 32.0863H89.9346V30.1321H82.8848V24.7412H88.5246V22.8544H82.8848V17.8679H89.9346V15.9137H79.1585V32.0863ZM48.2068 24.2022C46.2933 22.5512 44.1784 22.1469 42.567 21.035C41.4592 20.1253 41.4928 18.9124 42.097 18.3059C43.4734 16.7898 46.2262 17.3962 46.9311 17.5647C47.7704 17.7668 48.2068 18.0027 48.9789 18.3733V16.4528C45.6219 15.442 40.2507 14.4987 38.1693 17.9353C37.3972 19.3504 37.1958 21.9111 39.445 23.4272C41.6942 25.2129 45.5883 26.0553 46.0248 27.5377C46.3269 28.3464 45.9912 29.1213 45.4541 29.6604C43.4734 31.5472 40.0493 30.4016 38.0015 29.4582V31.5135C40.2507 32.5243 43.0706 32.7938 45.5883 32.2547C47.3004 31.8167 49.2475 30.3005 49.5496 28.3801C49.7846 26.4596 49.4153 25.2466 48.2068 24.2022ZM25.9833 32.0863H36.7929V30.1321H29.7096V24.7412H35.3494V22.8544H29.7096V17.8679H36.7929V15.9137H25.9833V32.0863ZM58.2779 15.7453H51.1946V32.2884H54.9544V31.2776L54.8873 26.2237C54.8873 26.2237 60.5271 26.5943 62.2392 24.3032C63.4813 22.8544 63.582 20.597 63.0448 18.7776C62.3399 16.7224 60.3592 15.779 58.2779 15.7453ZM59.0836 23.1914C58.0765 24.3032 56.3644 24.1348 54.8873 24.0337V17.8679C54.8873 17.8679 57.9086 17.1941 59.1843 18.8787C59.8892 19.7884 59.9228 22.0458 59.0836 23.1914ZM75.533 24.2695C76.7415 22.8544 76.8422 20.6307 76.3386 18.845C75.6672 16.8571 73.7202 15.9137 71.6724 15.8801H64.7234V32.0863H68.4161L68.3825 26.1226C68.3825 26.1226 69.0539 26.19 70.1617 26.1226L73.7202 32.1199H77.7822L73.6866 25.4488C74.358 25.1792 75.1301 24.8086 75.533 24.2695ZM72.5452 23.1914C71.5381 24.2695 69.8596 24.1348 68.4496 24.0337V17.969C68.4496 17.969 71.4038 17.2951 72.6459 18.9461C73.3509 19.8558 73.3845 22.0795 72.5452 23.1914ZM134.952 28.4811C133.777 28.4811 132.837 29.3908 132.837 30.5364C132.837 31.6819 133.777 32.5916 134.952 32.5916C136.06 32.5916 137 31.7156 137 30.5364C137 29.3908 136.06 28.4811 134.952 28.4811ZM134.952 32.3558C133.912 32.3558 133.039 31.5809 133.039 30.5364C133.039 29.5256 133.878 28.717 134.952 28.717C135.959 28.717 136.799 29.5593 136.799 30.5364C136.799 31.5809 135.959 32.3558 134.952 32.3558Z" fill="white"/>
<path d="M135.524 30.5362C135.591 30.4688 135.893 30.3677 135.893 29.9634C135.893 29.5591 135.625 29.3232 135.155 29.3232H134.047V31.6143H134.416V30.7046H135.054C135.423 30.7046 135.524 30.8731 135.524 31.2774C135.524 31.4459 135.524 31.547 135.591 31.648H136.028C135.927 31.547 135.927 31.2774 135.927 31.0079C135.893 30.6373 135.692 30.5362 135.524 30.5362ZM135.121 30.3677H134.45V29.6265H135.121C135.323 29.6265 135.558 29.6602 135.558 29.9971C135.524 30.2329 135.39 30.3677 135.121 30.3677Z" fill="white"/>
</g>
<defs>
<clipPath id="clip0_1240_24222">
<rect width="137" height="25" fill="white" transform="translate(0 11.5)"/>
</clipPath>
</defs>
</svg>
