<svg width="150" height="48" viewBox="0 0 150 48" fill="none" xmlns="http://www.w3.org/2000/svg">
<g>
<path fill-rule="evenodd" clip-rule="evenodd" d="M118.547 15.4775C116.588 15.4775 110.547 16.1692 110.547 23.9512C110.547 32.252 117.077 32.5978 118.383 32.5978C119.2 32.5978 122.138 32.4249 124.097 30.3497C125.567 28.7933 126.22 26.7181 126.22 23.9511C126.383 15.9962 120.506 15.4775 118.547 15.4775ZM120.995 29.3121C120.506 29.658 119.853 30.1768 118.71 30.1768H118.547C117.404 30.1768 116.751 29.658 116.261 29.3121C115.118 28.2745 114.629 26.3722 114.629 23.6053C114.629 18.4173 117.077 17.5527 118.547 17.5527H118.71C120.179 17.5527 122.628 18.4173 122.628 23.6053C122.628 26.3722 122.138 28.2745 120.995 29.3121ZM24.1852 35.1918C22.7159 34.673 20.5936 32.9437 19.4508 31.3873C17.9815 29.485 14.2267 24.297 14.2267 24.297C13.5736 23.6053 13.0839 22.7406 12.4308 21.8759C10.7983 19.4549 9.00249 16.8609 7.04343 15.3045V32.5978H9.329V23.6053L11.2881 26.1993C12.2676 27.5827 13.4104 29.1391 14.2267 30.1767C14.8797 30.8685 16.349 32.7707 16.8387 33.1166C18.961 35.1918 22.2261 36.4023 25.4913 36.4023C26.9606 36.4023 28.2666 36.2294 29.5726 35.7106V35.5377C29.0829 35.7106 28.4299 35.7106 27.9401 35.7106C26.7973 36.0565 25.4913 35.7106 24.1852 35.1918ZM10.1453 16.688C11.6146 18.5902 15.5327 23.7782 15.5327 23.7782C16.0224 24.47 16.6755 25.3347 17.1652 26.1993C18.7978 28.6204 20.5936 31.2144 22.5526 32.7708V15.4775H20.2671V24.47L18.308 21.876C17.3285 20.3196 16.3489 18.9361 15.3694 17.8985C14.8797 17.0339 13.0839 15.3045 12.5941 14.7857C10.635 12.7105 7.20668 11.5 3.94157 11.5C2.63552 11.5 1.32949 11.6729 0.0234375 12.1917V12.3647C0.513198 12.1917 1.16621 12.1917 1.656 12.1917C2.96205 12.1917 4.10482 12.5376 5.41087 12.8835C6.88018 13.4022 9.00249 15.1316 10.1453 16.688ZM96.5072 24.297C94.7114 22.5677 92.5891 22.2218 91.1198 21.1842C89.977 20.3196 90.1403 19.109 90.63 18.4173C91.9361 16.688 94.7114 17.3797 95.3644 17.5527C96.1807 17.7256 96.5072 17.8985 97.3235 18.4173V16.515C94.0584 15.4775 88.9975 14.6128 87.0384 18.0714C86.2222 19.4549 86.0589 21.876 88.1812 23.4324C90.3035 25.1617 94.0584 26.0264 94.3849 27.5828C94.7114 28.4474 94.3849 29.1392 93.8952 29.658C91.9361 31.5603 88.8343 30.3497 86.8752 29.4851V31.5603C88.9975 32.5979 91.7728 32.7708 94.0584 32.252C95.691 31.9061 97.4867 30.3497 97.8133 28.4474C98.1398 26.5452 97.65 25.3347 96.5072 24.297ZM108.262 24.297C106.466 22.5677 104.343 22.2218 102.874 21.1842C101.731 20.3196 101.895 19.109 102.384 18.4173C103.69 16.8609 106.303 17.5527 106.956 17.7256C107.772 17.8985 108.098 18.0714 108.915 18.5902V16.515C105.65 15.4775 100.589 14.6128 98.6295 18.0714C97.9765 19.4549 97.8133 21.876 99.9356 23.4324C102.058 25.1617 105.813 26.0264 106.139 27.5828C106.466 28.4474 106.139 29.1392 105.65 29.658C103.69 31.5603 100.589 30.3497 98.6296 29.4851V31.5603C100.752 32.5979 103.364 32.7708 105.813 32.252C107.445 31.9061 109.241 30.3497 109.568 28.4474C109.894 26.5452 109.404 25.3347 108.262 24.297ZM75.284 32.252H85.5691V30.1768H78.8756V24.8158H84.2631V22.9136H78.8756V17.8985H85.5691V15.9962H75.284V32.252ZM45.8981 24.297C44.1023 22.5677 41.98 22.2218 40.5107 21.1842C39.3679 20.3196 39.5312 19.109 40.021 18.4173C41.327 16.8609 43.9391 17.5527 44.5921 17.7256C45.4084 17.8985 45.7349 18.0714 46.5512 18.5902V16.515C43.2861 15.4775 38.2251 14.6128 36.2661 18.0714C35.6131 19.4549 35.2866 21.876 37.5722 23.4324C39.6945 25.1617 43.4493 26.0264 43.7759 27.5828C44.1024 28.4474 43.7759 29.1392 43.2861 29.658C41.327 31.5603 38.2252 30.3497 36.2661 29.4851V31.5603C38.3884 32.5979 41.1638 32.7708 43.4493 32.252C45.0819 31.9061 46.8777 30.3497 47.2042 28.4474C47.3675 26.5452 47.0409 25.3347 45.8981 24.297ZM24.675 32.252H34.96V30.1768H28.2666V24.8158H33.654V22.9136H28.2666V17.8985H34.96V15.9962H24.675V32.252ZM55.5302 15.8233H48.8367V32.4249H52.2651V26.3723C52.2651 26.3723 57.6525 26.7181 59.285 24.47C60.4278 23.0865 60.5911 20.6654 60.1013 18.9361C59.285 16.688 57.4892 15.8233 55.5302 15.8233ZM56.1832 23.2594C55.2037 24.297 53.5711 24.297 52.2651 24.1241V17.8985C52.2651 17.8985 55.2037 17.2068 56.3465 18.9361C56.9995 19.8008 56.9995 22.0489 56.1832 23.2594ZM71.8557 24.297C72.9985 22.9136 73.1617 20.6654 72.672 18.7632C72.0189 16.8609 70.2231 15.8233 68.2641 15.8233H61.5706V32.252H64.9989V26.1993H66.6315L70.2231 32.252H74.1413L70.2231 25.5076C70.7129 25.1617 71.5292 24.8158 71.8557 24.297ZM69.0804 23.2594C68.1008 24.297 66.4683 24.1241 65.1622 24.1241V18.0714C65.1622 18.0714 67.9376 17.3797 69.2436 19.109C69.7334 19.9737 69.8966 22.0489 69.0804 23.2594ZM128.505 28.6204C127.362 28.6204 126.546 29.485 126.546 30.6956C126.546 31.9061 127.526 32.7708 128.505 32.7708C129.485 32.7708 130.464 31.9061 130.464 30.6956C130.464 29.485 129.485 28.6204 128.505 28.6204ZM128.505 32.4249C127.526 32.4249 126.709 31.5602 126.709 30.5226C126.709 29.485 127.526 28.6204 128.505 28.6204C129.485 28.6204 130.301 29.485 130.301 30.5226C130.138 31.7331 129.321 32.4249 128.505 32.4249ZM128.995 30.6956C128.995 30.6956 129.321 30.5226 129.321 30.1768C129.321 29.8309 128.995 29.4851 128.668 29.4851H127.689V31.7332H128.015V30.8685H128.668C128.995 30.8685 129.158 31.0415 129.158 31.3873V31.7332H129.485C129.321 31.5603 129.321 31.3873 129.321 31.0415C129.321 30.6956 129.158 30.6956 128.995 30.6956ZM128.505 30.5226H127.852V29.8309H128.505C128.668 29.8309 128.832 29.8309 128.832 30.1768C128.995 30.3497 128.832 30.5226 128.505 30.5226Z" fill="white"/>
</g>
</svg>
