<svg width="150" height="52" viewBox="0 0 150 52" fill="none" xmlns="http://www.w3.org/2000/svg">
<path d="M0 35.5868V17.3945H3.08478L3.26934 18.5545C3.81423 18.0976 4.41183 17.746 5.06222 17.5C5.71252 17.2538 6.4772 17.1309 7.35598 17.1309C9.18399 17.1309 10.5902 17.6317 11.5745 18.6337C12.5764 19.618 13.0774 21.2351 13.0774 23.4849C13.0774 25.7348 12.5413 27.4134 11.4691 28.5208C10.4144 29.6105 8.97308 30.1554 7.14507 30.1554C5.73887 30.1554 4.54368 29.839 3.5594 29.2063V35.5868H0ZM6.24863 27.5453C7.30327 27.5453 8.103 27.2201 8.64789 26.5697C9.19278 25.9194 9.46526 24.8999 9.46526 23.5113C9.46526 22.1754 9.21922 21.2175 8.72703 20.6375C8.23485 20.0399 7.44391 19.741 6.35413 19.741C5.26435 19.741 4.33277 20.1189 3.5594 20.8747V26.5961C3.92852 26.8773 4.3152 27.1058 4.71946 27.2816C5.14128 27.4573 5.65103 27.5453 6.24863 27.5453Z" fill="white"/>
<path d="M19.4792 30.1554C18.6883 30.1554 17.95 30.0148 17.2645 29.7336C16.5966 29.4348 16.0517 29.0042 15.6298 28.4417C15.2256 27.8616 15.0234 27.141 15.0234 26.2797C15.0234 25.0493 15.454 24.065 16.3153 23.3268C17.1942 22.5886 18.4861 22.2194 20.1911 22.2194H23.8823V21.8767C23.8823 21.1032 23.6625 20.5583 23.2231 20.242C22.8013 19.9256 21.94 19.7674 20.6393 19.7674C19.2156 19.7674 17.8445 19.9871 16.5263 20.4266V17.9218C17.1063 17.6933 17.8094 17.5088 18.6355 17.3681C19.4792 17.2099 20.3932 17.1309 21.3776 17.1309C23.2583 17.1309 24.7084 17.5175 25.7279 18.2909C26.7649 19.0467 27.2834 20.2684 27.2834 21.9557V29.8918H24.1986L24.0141 28.758C23.522 29.1975 22.9155 29.5403 22.1949 29.7863C21.4742 30.0324 20.569 30.1554 19.4792 30.1554ZM20.4548 27.8089C21.2457 27.8089 21.9312 27.677 22.5113 27.4134C23.0913 27.1498 23.5483 26.8158 23.8823 26.4116V24.4341H20.2702C18.8816 24.4341 18.1873 25.0054 18.1873 26.1479C18.1873 27.2552 18.9431 27.8089 20.4548 27.8089Z" fill="white"/>
<path d="M32.2381 34.5327C31.6932 34.5327 31.2098 34.4975 30.788 34.4272C30.366 34.3745 29.953 34.2691 29.5488 34.1109V31.6061C29.8476 31.7116 30.12 31.7819 30.366 31.817C30.6298 31.8521 30.8934 31.8697 31.1571 31.8697C31.8777 31.8697 32.4314 31.7028 32.8181 31.3688C33.2224 31.0348 33.6266 30.4724 34.0309 29.6814L28.4414 17.395H32.1589L35.8237 25.8848L39.4622 17.395H43.1534L38.223 29.0223C37.766 30.1121 37.2651 31.07 36.7202 31.8962C36.1929 32.7398 35.5689 33.3902 34.8482 33.8471C34.1276 34.3042 33.2575 34.5327 32.2381 34.5327Z" fill="white"/>
<path d="M49.1695 30.1557C48.0622 30.1557 47.0691 29.9623 46.1902 29.5756C45.3289 29.1714 44.6522 28.521 44.1601 27.6246C43.6679 26.7106 43.4219 25.5066 43.4219 24.0125C43.4219 22.5184 43.6943 21.2617 44.2392 20.2422C44.7841 19.2227 45.5135 18.4494 46.4275 17.922C47.3415 17.3947 48.3435 17.1311 49.4332 17.1311C50.8042 17.1311 51.9731 17.4474 52.9398 18.0802V12.1216H56.4992V29.8921H53.4408L53.2298 28.7319C52.685 29.2065 52.0873 29.5669 51.437 29.8129C50.8042 30.0414 50.0484 30.1557 49.1695 30.1557ZM50.1451 27.5455C51.2525 27.5455 52.184 27.1676 52.9398 26.4118V20.7168C52.2016 20.0665 51.3403 19.7413 50.356 19.7413C48.1413 19.7413 47.034 21.165 47.034 24.0125C47.034 25.3484 47.3064 26.2712 47.8513 26.7809C48.3962 27.2906 49.1607 27.5455 50.1451 27.5455Z" fill="white"/>
<path d="M65.7623 30.1554C63.6003 30.1554 61.8865 29.6193 60.6209 28.5471C59.3554 27.4573 58.7227 25.8139 58.7227 23.6168C58.7227 21.6305 59.25 20.0574 60.3045 18.8973C61.3767 17.7197 62.9675 17.1309 65.0764 17.1309C67.0099 17.1309 68.4863 17.6405 69.5058 18.66C70.5431 19.662 71.0621 20.9802 71.0621 22.6149V24.8823H62.0184C62.2117 25.8842 62.6687 26.5697 63.3893 26.9388C64.1276 27.3079 65.1643 27.4925 66.5005 27.4925C67.1687 27.4925 67.8448 27.431 68.5307 27.3079C69.2334 27.1849 69.8315 27.0267 70.3239 26.8334V29.3645C69.7436 29.6281 69.0666 29.8215 68.2938 29.9445C67.5201 30.0852 66.6762 30.1554 65.7623 30.1554ZM62.0184 22.694H67.9504V22.0084C67.9504 21.2878 67.7401 20.7253 67.3177 20.3211C66.8963 19.8992 66.1838 19.6883 65.182 19.6883C64.0046 19.6883 63.1784 19.9256 62.7039 20.4002C62.2468 20.8747 62.0184 21.6393 62.0184 22.694Z" fill="white"/>
<path d="M77.8096 30.1554C76.878 30.1554 75.9898 30.0852 75.1468 29.9445C74.303 29.8215 73.626 29.6633 73.1167 29.4699V26.517C73.7316 26.763 74.4255 26.9565 75.1992 27.097C75.9729 27.2201 76.6845 27.2816 77.3349 27.2816C78.2133 27.2816 78.8291 27.2289 79.1805 27.1234C79.5496 27.0179 79.7342 26.7807 79.7342 26.4116C79.7342 25.9897 79.4529 25.6821 78.8904 25.4887C78.3456 25.2953 77.5284 25.0229 76.4388 24.6714C75.2959 24.2847 74.4166 23.8189 73.8017 23.274C73.1868 22.7291 72.8789 21.9206 72.8789 20.8484C72.8789 19.6531 73.3093 18.7391 74.1708 18.1064C75.0501 17.456 76.4556 17.1309 78.389 17.1309C79.1628 17.1309 79.8921 17.1924 80.578 17.3154C81.263 17.4208 81.8433 17.5527 82.318 17.7109V20.6375C81.8433 20.409 81.2985 20.242 80.6836 20.1365C80.0678 20.0134 79.4964 19.9519 78.9693 19.9519C78.2134 19.9519 77.6073 20.0046 77.1504 20.1101C76.7112 20.2156 76.4911 20.4441 76.4911 20.7957C76.4911 21.1824 76.728 21.4548 77.2027 21.613C77.6952 21.7712 78.4511 22.0084 79.4707 22.3248C80.4724 22.6237 81.2541 22.9489 81.8167 23.3003C82.3792 23.6519 82.775 24.0738 83.003 24.5659C83.2319 25.0405 83.3464 25.6381 83.3464 26.3588C83.3464 28.8899 81.5008 30.1554 77.8096 30.1554Z" fill="white"/>
<path d="M85.8203 29.8921V12.1216H89.3802V21.9033L94.0465 17.3947H98.1067L93.0713 22.5096L98.3969 29.8921H94.6268L90.83 24.3816L89.3802 25.779V29.8921H85.8203Z" fill="white"/>
<g opacity="0.4">
<path d="M118.982 27.2496C118.605 27.467 118.02 27.4837 117.561 27.328C116.595 27.0001 115.536 26.5641 114.551 25.9938C113.506 25.3914 112.721 24.7415 112.143 24.1581C111.893 23.9063 111.925 23.5867 112.283 23.3799C114.136 22.3094 117.138 22.3083 118.988 23.3764C120.838 24.4444 120.835 26.178 118.982 27.2472V27.2496Z" fill="white"/>
<path d="M111.941 27.0572C111.497 26.7495 110.534 26.7186 110.194 27.0702L107.137 30.0263L107.579 30.1534L112.645 28.4888C113.261 28.2904 113.199 27.7226 112.655 27.4671C112.519 27.403 112.387 27.3352 112.261 27.2615C112.148 27.1962 112.042 27.1284 111.941 27.0583L111.941 27.0572Z" fill="white"/>
<path d="M115.997 27.8844C116.679 27.8738 116.774 27.3913 116.217 27.1656C115.547 26.8936 114.864 26.5727 114.209 26.1949C113.512 25.7922 112.927 25.3716 112.438 24.9605C112.053 24.6373 111.217 24.6872 111.191 25.0804C111.142 25.81 111.595 26.5442 112.553 27.0967C113.497 27.6421 114.749 27.9046 115.997 27.8832V27.8844Z" fill="white"/>
</g>
<path fill-rule="evenodd" clip-rule="evenodd" d="M103.125 13.8883C104.25 12.7572 105.776 12.1216 107.367 12.1216C108.958 12.1216 110.485 12.7572 111.613 13.8883C112.738 15.0194 113.37 16.5532 113.37 18.1536C113.37 18.3568 113.36 18.5623 113.34 18.7679C113.34 18.7716 113.339 18.7755 113.338 18.7794C113.337 18.7856 113.335 18.7918 113.335 18.7976C113.209 20.1323 112.358 21.4492 111.737 22.4094C111.695 22.474 111.655 22.5371 111.615 22.5984C111.499 22.778 111.321 23.0284 111.105 23.3317C110.151 24.67 108.463 27.0401 108.193 28.9191L108.12 29.5084C108.099 29.6937 108.01 29.8648 107.872 29.9884C107.734 30.1119 107.555 30.1809 107.37 30.1809C107.184 30.1809 107.005 30.1119 106.868 29.9884C106.728 29.8637 106.64 29.6937 106.619 29.5084L106.545 28.9191C106.267 26.979 104.473 24.485 103.542 23.1901C103.366 22.9465 103.222 22.7454 103.123 22.5984C102.502 21.6704 101.538 20.2221 101.403 18.7976C101.401 18.788 101.398 18.7774 101.398 18.7679C101.378 18.5612 101.367 18.3568 101.367 18.1536C101.367 16.5532 102 15.0194 103.125 13.8883ZM109.006 17.326C109.361 19.0235 108.592 20.6209 107.287 20.894C105.983 21.1669 104.638 20.0121 104.282 18.3146C103.927 16.6171 104.696 15.0197 106.001 14.7467C107.305 14.4737 108.651 15.6285 109.006 17.326Z" fill="white"/>
<path d="M44.8471 40.9231V39.664H46.5933V40.9231H44.8471ZM44.6452 50.3665C44.1463 50.3665 43.7187 50.2952 43.3623 50.1527V49.048C43.489 49.0876 43.6118 49.1153 43.7306 49.1311C43.8573 49.1549 43.9721 49.1667 44.075 49.1667C44.3997 49.1667 44.6333 49.0994 44.7759 48.9648C44.9184 48.8381 44.9897 48.6322 44.9897 48.3471V43.1444H44.1463L44.2888 41.9565H46.5933V48.5016C46.5933 49.0559 46.4309 49.5033 46.1062 49.8438C45.7895 50.1922 45.3025 50.3665 44.6452 50.3665ZM50.6583 47.7057C49.6051 47.7057 48.833 47.4523 48.342 46.9455C47.851 46.4307 47.6055 45.7062 47.6055 44.7717C47.6055 43.8373 47.851 43.1167 48.342 42.6099C48.8409 42.0951 49.613 41.8378 50.6583 41.8378C51.7115 41.8378 52.4836 42.0951 52.9746 42.6099C53.4735 43.1167 53.7229 43.8373 53.7229 44.7717C53.7229 45.7062 53.4774 46.4307 52.9864 46.9455C52.4955 47.4523 51.7194 47.7057 50.6583 47.7057ZM50.6583 46.3397C51.173 46.3397 51.5412 46.2249 51.763 45.9952C51.9847 45.7576 52.0956 45.3498 52.0956 44.7717C52.0956 44.1936 51.9847 43.7898 51.763 43.5601C51.5412 43.3226 51.173 43.2038 50.6583 43.2038C50.1515 43.2038 49.7872 43.3226 49.5655 43.5601C49.3437 43.7898 49.2329 44.1936 49.2329 44.7717C49.2329 45.3498 49.3437 45.7576 49.5655 45.9952C49.7872 46.2249 50.1515 46.3397 50.6583 46.3397ZM56.7978 47.7057C56.1247 47.7057 55.5981 47.5196 55.218 47.1474C54.8458 46.7673 54.6597 46.213 54.6597 45.4844V41.9565H56.2633V45.4488C56.2633 45.8289 56.3544 46.1061 56.5365 46.2803C56.7186 46.4466 56.9918 46.5297 57.3561 46.5297C57.6333 46.5297 57.8867 46.4743 58.1163 46.3634C58.3539 46.2526 58.5558 46.114 58.7221 45.9477V41.9565H60.3257V47.5869H58.8409L58.7815 47.0524C58.544 47.2424 58.2628 47.4008 57.9382 47.5275C57.6214 47.6463 57.2413 47.7057 56.7978 47.7057ZM61.5719 47.5869V41.9565H63.0567L63.128 42.5386C63.3814 42.3802 63.6942 42.2377 64.0664 42.111C64.4465 41.9763 64.8187 41.8853 65.183 41.8378V43.0494C64.9692 43.081 64.7356 43.1285 64.4822 43.1919C64.2287 43.2553 63.9872 43.3265 63.7576 43.4057C63.5279 43.4849 63.3339 43.568 63.1755 43.6552V47.5869H61.5719ZM65.8844 47.5869V41.9565H67.3692L67.4286 42.4911C67.6582 42.3169 67.9472 42.1664 68.2957 42.0397C68.652 41.9051 69.0242 41.8378 69.4123 41.8378C70.1566 41.8378 70.6991 42.012 71.0396 42.3604C71.3801 42.7088 71.5504 43.2473 71.5504 43.9759V47.5869H69.9468V44.059C69.9468 43.6789 69.8676 43.4097 69.7092 43.2513C69.5588 43.0929 69.2737 43.0137 68.854 43.0137C68.6085 43.0137 68.359 43.0692 68.1056 43.18C67.8601 43.2909 67.6542 43.4295 67.4879 43.5958V47.5869H65.8844ZM74.3331 47.7057C73.9767 47.7057 73.6441 47.6423 73.3353 47.5156C73.0344 47.381 72.7889 47.187 72.5988 46.9336C72.4167 46.6723 72.3256 46.3476 72.3256 45.9596C72.3256 45.4052 72.5196 44.9618 72.9077 44.6292C73.3036 44.2966 73.8856 44.1303 74.6538 44.1303H76.3168V43.9759C76.3168 43.6274 76.2178 43.382 76.0198 43.2394C75.8298 43.0969 75.4417 43.0256 74.8557 43.0256C74.2143 43.0256 73.5966 43.1246 73.0027 43.3226V42.1941C73.264 42.0912 73.5808 42.008 73.953 41.9447C74.3331 41.8734 74.7449 41.8378 75.1883 41.8378C76.0356 41.8378 76.689 42.012 77.1483 42.3604C77.6155 42.7009 77.8491 43.2513 77.8491 44.0115V47.5869H76.4593L76.3762 47.0761C76.1544 47.2741 75.8812 47.4285 75.5565 47.5394C75.2319 47.6503 74.824 47.7057 74.3331 47.7057ZM74.7726 46.6485C75.1289 46.6485 75.4378 46.5891 75.6991 46.4703C75.9604 46.3516 76.1663 46.2011 76.3168 46.019V45.1281H74.6894C74.0638 45.1281 73.751 45.3854 73.751 45.9002C73.751 46.3991 74.0915 46.6485 74.7726 46.6485ZM80.5896 47.7057C80.0432 47.7057 79.6433 47.579 79.3898 47.3256C79.1444 47.0722 79.0216 46.6683 79.0216 46.114V39.5809H80.6252V45.9833C80.6252 46.1813 80.6648 46.3199 80.744 46.3991C80.8232 46.4703 80.938 46.506 81.0885 46.506C81.2944 46.506 81.4804 46.4783 81.6467 46.4228V47.5275C81.3458 47.6463 80.9934 47.7057 80.5896 47.7057ZM82.4152 40.9231V39.664H84.1613V40.9231H82.4152ZM82.5459 47.5869V43.1444H81.7025L81.8451 41.9565H84.1495V47.5869H82.5459ZM87.3797 47.7057C86.96 47.7057 86.5601 47.674 86.18 47.6107C85.7999 47.5552 85.495 47.484 85.2654 47.3969V46.0665C85.5426 46.1773 85.8554 46.2645 86.2038 46.3278C86.5522 46.3832 86.8729 46.411 87.1659 46.411C87.5619 46.411 87.839 46.3872 87.9974 46.3397C88.1637 46.2922 88.2469 46.1853 88.2469 46.019C88.2469 45.8289 88.1202 45.6903 87.8668 45.6032C87.6213 45.5161 87.253 45.3934 86.7621 45.235C86.2473 45.0608 85.8514 44.8509 85.5742 44.6054C85.2971 44.3599 85.1585 43.9957 85.1585 43.5126C85.1585 42.9741 85.3525 42.5623 85.7405 42.2773C86.1365 41.9843 86.77 41.8378 87.6411 41.8378C87.9895 41.8378 88.3181 41.8655 88.627 41.9209C88.9358 41.9684 89.1971 42.0278 89.411 42.0991V43.4176C89.1971 43.3146 88.9517 43.2394 88.6745 43.1919C88.3973 43.1365 88.14 43.1088 87.9024 43.1088C87.5619 43.1088 87.2887 43.1325 87.0828 43.18C86.8848 43.2275 86.7858 43.3305 86.7858 43.4889C86.7858 43.6631 86.8927 43.7858 87.1065 43.8571C87.3283 43.9284 87.6688 44.0353 88.1281 44.1778C88.5795 44.3124 88.9319 44.4589 89.1853 44.6173C89.4387 44.7757 89.6169 44.9657 89.7198 45.1875C89.8227 45.4013 89.8742 45.6705 89.8742 45.9952C89.8742 47.1355 89.0427 47.7057 87.3797 47.7057ZM92.9276 47.7057C92.2783 47.7057 91.7952 47.5354 91.4785 47.1949C91.1696 46.8544 91.0152 46.3912 91.0152 45.8052V43.1919H90.2193V41.9565H91.0152V40.7449L92.6188 40.2698V41.9565H94.0442L93.9492 43.1919H92.6188V45.6982C92.6188 46.0071 92.6901 46.2209 92.8326 46.3397C92.9751 46.4505 93.1969 46.506 93.4978 46.506C93.7195 46.506 93.9492 46.4664 94.1867 46.3872V47.4919C94.0125 47.5632 93.8225 47.6146 93.6166 47.6463C93.4107 47.6859 93.181 47.7057 92.9276 47.7057ZM94.6533 47.5869V46.3872H95.96V47.5869H94.6533ZM96.9529 47.5869V41.9565H98.4377L98.4971 42.4911C98.7268 42.3169 99.0158 42.1664 99.3642 42.0397C99.7206 41.9051 100.093 41.8378 100.481 41.8378C101.225 41.8378 101.768 42.012 102.108 42.3604C102.449 42.7088 102.619 43.2473 102.619 43.9759V47.5869H101.015V44.059C101.015 43.6789 100.936 43.4097 100.778 43.2513C100.627 43.0929 100.342 43.0137 99.9225 43.0137C99.677 43.0137 99.4276 43.0692 99.1742 43.18C98.9287 43.2909 98.7228 43.4295 98.5565 43.5958V47.5869H96.9529ZM106.554 47.7057C105.58 47.7057 104.808 47.4642 104.238 46.9811C103.668 46.4901 103.383 45.7497 103.383 44.7599C103.383 43.865 103.62 43.1563 104.095 42.6336C104.578 42.103 105.295 41.8378 106.245 41.8378C107.116 41.8378 107.782 42.0674 108.241 42.5267C108.708 42.9781 108.942 43.572 108.942 44.3085V45.33H104.867C104.954 45.7814 105.16 46.0902 105.485 46.2565C105.818 46.4228 106.285 46.506 106.887 46.506C107.188 46.506 107.493 46.4783 107.801 46.4228C108.118 46.3674 108.387 46.2961 108.609 46.209V47.3493C108.348 47.4681 108.043 47.5552 107.694 47.6107C107.346 47.674 106.966 47.7057 106.554 47.7057ZM104.867 44.3441H107.54V44.0353C107.54 43.7106 107.445 43.4572 107.255 43.275C107.065 43.085 106.744 42.99 106.293 42.99C105.762 42.99 105.39 43.0969 105.176 43.3107C104.97 43.5245 104.867 43.869 104.867 44.3441ZM112.173 47.7057C111.523 47.7057 111.04 47.5354 110.723 47.1949C110.415 46.8544 110.26 46.3912 110.26 45.8052V43.1919H109.464V41.9565H110.26V40.7449L111.864 40.2698V41.9565H113.289L113.194 43.1919H111.864V45.6982C111.864 46.0071 111.935 46.2209 112.077 46.3397C112.22 46.4505 112.442 46.506 112.743 46.506C112.964 46.506 113.194 46.4664 113.432 46.3872V47.4919C113.257 47.5632 113.067 47.6146 112.861 47.6463C112.656 47.6859 112.426 47.7057 112.173 47.7057Z" fill="white" fill-opacity="0.8"/>
</svg>
