<svg width="150" height="48" viewBox="0 0 150 48" fill="none" xmlns="http://www.w3.org/2000/svg">
<path d="M37.4943 24.9919C37.5624 25.0049 37.6305 25.017 37.6984 25.029L37.4943 24.9919ZM38.0509 25.0846C38.1302 25.0965 38.2095 25.1069 38.2889 25.1174L38.0509 25.0846ZM38.6395 25.1552C38.7169 25.1623 38.7939 25.1689 38.8713 25.1748L38.6395 25.1552ZM38.9542 25.1805C39.0196 25.1853 39.085 25.1892 39.1503 25.1926L38.9542 25.1805ZM39.2455 25.1976C39.323 25.201 39.4004 25.204 39.4779 25.2065L39.2455 25.1976ZM39.5548 25.2074C39.7278 25.212 39.9009 25.2121 40.0739 25.2078L39.5548 25.2074ZM40.1566 25.2065C40.2372 25.204 40.3179 25.2009 40.3985 25.1971L40.1566 25.2065ZM40.4745 25.1935C40.5445 25.1896 40.6133 25.1853 40.6827 25.1805L40.4745 25.1935ZM40.7549 25.1755C40.8305 25.1698 40.9064 25.1634 40.9815 25.1564L40.7549 25.1755ZM41.3694 25.1131C41.4277 25.1063 41.4856 25.0987 41.5432 25.0896L41.3694 25.1131ZM51.9961 5.567C51.9334 5.53321 51.8691 5.5025 51.8034 5.47498L51.9961 5.567ZM51.3648 5.33992C51.2842 5.32342 51.2029 5.31095 51.1211 5.30257L51.3648 5.33992ZM10.0275 13.7202C9.7472 13.4629 9.53418 13.1409 9.4071 12.7823C9.3037 12.4828 9.16978 12.1086 9.16978 11.7908C9.17638 10.3582 10.0125 9.2941 10.9126 8.80145C11.3217 8.57779 11.4736 8.42427 11.536 8.34547C11.506 8.33223 11.4741 8.32407 11.4415 8.32133C10.2163 8.32133 9.58817 7.8453 9.27978 7.44239C8.98757 7.06499 8.83838 6.57849 8.83838 6.04644C8.83838 5.78793 8.87482 5.51735 8.94657 5.24061C9.29186 4.6703 9.61983 4.827 9.82072 5.11876C9.94872 5.30143 10.8258 5.92322 11.9066 6.02184C12.693 6.09654 13.1169 6.48123 13.3374 6.78849C13.5916 7.14425 13.689 7.5729 13.689 7.93755C13.689 8.08673 13.6722 8.2268 13.6401 8.35139C13.5216 8.83197 13.0153 9.26517 12.3102 9.81704L11.9102 10.1487C11.3246 10.6611 11.0023 11.2314 11.0023 11.7148C11.0023 11.8355 11.0235 11.9532 11.0643 12.0619C11.0812 12.1065 11.1014 12.1496 11.1253 12.1903C11.387 12.6333 12.1266 12.9112 13.1993 12.5358C13.6952 12.3639 14.6497 11.763 15.2326 11.1852C15.9184 10.501 16.8337 10.3368 17.7152 10.2671C18.4796 10.2095 18.9501 10.022 19.2815 9.64941C20.2609 8.5459 21.2034 8.39079 22.0855 8.3252C22.423 8.29923 22.4412 8.27509 22.4852 8.21564C22.9715 7.56812 23.471 7.22533 23.9192 7.02581C24.2608 6.8739 24.5729 6.80466 24.8284 6.74863L25.1386 6.67233L25.2161 6.645C25.7071 6.48693 26.0873 6.35597 27.0862 5.68088L27.1288 5.654L27.1291 5.65355L27.171 5.62735L27.1714 5.62713L27.2136 5.6023L27.2142 5.60207L27.2564 5.57793L27.2571 5.5777L27.2994 5.55538L27.3008 5.55493L27.3427 5.53306L27.3441 5.53261L27.3862 5.51211L27.388 5.51165L27.4304 5.49206L27.432 5.49115L27.4746 5.47339L27.4764 5.4727L27.5188 5.45517L27.521 5.45471L27.5636 5.43877L27.5657 5.43763L27.6078 5.4226L27.6527 5.40756L27.6556 5.40688L27.6975 5.39344L27.7003 5.39276L27.7429 5.38046L27.7458 5.37978L27.788 5.36816L27.7912 5.36725L27.8335 5.35723L27.8374 5.35632L27.8791 5.34675L27.8825 5.34584L27.9251 5.33719L27.9287 5.33627L27.9709 5.32853L27.9747 5.32785L28.0169 5.32079L28.0207 5.32033L28.0624 5.31418L28.0667 5.31327L28.1087 5.30849L28.113 5.30758L28.1542 5.30302L28.1588 5.30279L28.2004 5.29892L28.2052 5.29847L28.2467 5.2955L28.2515 5.29505L28.2922 5.29254L28.297 5.29232L28.3382 5.29049L28.3842 5.28913H28.389L28.43 5.28867H28.481L28.5216 5.28913L28.5264 5.28936H28.5312C28.5603 5.29004 28.5895 5.29186 28.6186 5.29345L28.6587 5.29596L28.6644 5.29642L28.7038 5.29938L28.7097 5.29983L28.7491 5.3037L28.7553 5.30439L28.7944 5.30826L28.8008 5.30872L28.8398 5.3135L28.8459 5.31441L28.8846 5.31919L28.8912 5.32033L28.9295 5.32603L28.9359 5.32716L28.9744 5.33309L28.9812 5.33445L29.0188 5.34106L29.0259 5.3422L29.0632 5.34903L29.07 5.35062C29.1297 5.36178 29.1885 5.37499 29.2461 5.38912L29.2823 5.39823L29.2896 5.40028C29.3477 5.41531 29.4051 5.43125 29.4616 5.44811L29.495 5.45858L29.5032 5.46109C29.6153 5.49639 29.7239 5.53625 29.8292 5.57839L29.8588 5.59068L29.8975 5.60663C32.0339 2.70425 35.4116 0.77306 39.2506 0.598366V0.597455C39.4396 0.588958 39.6287 0.584629 39.8179 0.584473C39.943 0.584555 40.068 0.586453 40.193 0.590167C40.2552 0.592217 40.3174 0.594722 40.3793 0.597227H40.38C40.4415 0.600188 40.5037 0.603149 40.5654 0.607021C44.2802 0.830228 47.5518 2.70107 49.6588 5.49821C49.9597 5.39367 50.2875 5.31783 50.622 5.29505L50.6309 5.29459L50.6626 5.29254L50.6956 5.29095L50.7036 5.29049L50.7122 5.29027L50.7446 5.28936L50.7532 5.2889L50.7856 5.28867L50.7942 5.28844L50.8272 5.28822H50.8352L50.8682 5.28844H50.8764L50.9172 5.28913L50.9505 5.29049L50.9578 5.29072L50.991 5.29232L50.9988 5.29277L51.0322 5.29505L51.0386 5.2955L51.0725 5.29824L51.0792 5.29869L51.1133 5.30211L51.1195 5.30279C51.2013 5.31116 51.2826 5.32363 51.3632 5.34015L51.3989 5.34743L51.4037 5.34857L51.439 5.357L51.444 5.35791L51.4796 5.36702L51.4843 5.36816L51.5203 5.37773L51.5242 5.37887L51.5611 5.38912L51.5645 5.39025L51.6005 5.40141L51.6046 5.40255L51.6413 5.41462L51.6445 5.41554L51.6841 5.42943L51.7212 5.44264L51.7235 5.44378L51.7604 5.45813L51.7627 5.45904L51.8002 5.47407L51.8025 5.47521C51.8674 5.50254 51.9317 5.53283 51.9952 5.56723L51.9964 5.56791L52.0339 5.58795L52.0344 5.58841L52.072 5.61004L52.0727 5.61027L52.1102 5.63305L52.1107 5.63328L52.1478 5.65674L52.1854 5.68111C52.8737 6.14893 53.2714 6.35505 53.6107 6.48966C53.7633 6.55047 53.905 6.59625 54.0553 6.64522L54.1344 6.67255L54.4478 6.74886C54.6177 6.78621 54.8117 6.82926 55.0219 6.89804C55.5478 7.06932 56.1762 7.40185 56.786 8.21587C56.8301 8.27532 56.8497 8.29946 57.1889 8.32542C58.0701 8.39125 59.011 8.54613 59.9944 9.64963C60.3233 10.0223 60.7916 10.2095 61.5558 10.2673C62.4424 10.337 63.3549 10.501 64.0393 11.1854C64.6228 11.7633 65.5762 12.3641 66.0734 12.5361C67.1457 12.9114 67.8889 12.6335 68.1445 12.1905C68.2005 12.0972 68.2381 11.9944 68.2572 11.8858C68.2672 11.8294 68.2723 11.7723 68.2725 11.715C68.2725 11.2317 67.9497 10.6614 67.3657 10.1489L67.2931 10.0885L66.9619 9.81727C66.2595 9.2654 65.753 8.8322 65.6309 8.35162C65.5988 8.22703 65.5849 8.08696 65.5849 7.93777C65.5849 7.5729 65.6846 7.14448 65.9338 6.78871C66.1559 6.48146 66.5843 6.09677 67.3657 6.02207C68.4522 5.92345 69.3245 5.30165 69.452 5.11899C69.6563 4.82723 69.9811 4.67053 70.3251 5.24084C70.3979 5.51757 70.4344 5.78815 70.4344 6.04666C70.4344 6.58168 70.2852 7.06522 69.9932 7.44262C69.6828 7.84553 69.0566 8.32155 67.8295 8.32155C67.8035 8.32155 67.7673 8.33362 67.737 8.3457C67.7978 8.42473 67.9497 8.57824 68.3597 8.80168C69.2598 9.29455 70.0968 10.3587 70.1044 11.7911C70.1044 12.1088 69.972 12.4828 69.8652 12.7825C69.7536 13.0969 69.5766 13.384 69.3459 13.625C69.3147 13.6573 69.2821 13.6892 69.2477 13.7204C68.7407 14.1914 67.8962 14.5611 66.4891 14.4771C66.3409 14.468 66.193 14.4546 66.0456 14.437C66.0092 15.1469 65.8145 15.9908 65.5405 16.4164C65.4571 16.5501 65.4407 16.6399 65.4407 16.6838C65.4407 16.7023 65.4425 16.713 65.4425 16.7207C65.4512 16.7237 66.0668 17.087 66.0668 17.087L66.1661 17.1373C66.1661 17.1373 66.224 17.1646 66.2315 17.1708C66.2404 17.1676 66.4442 17.1585 66.4442 17.1585L66.4845 17.1528L66.4886 17.1523C66.8735 17.1157 67.4614 16.9273 67.7113 17.6252C67.7766 17.8104 67.8165 17.9716 67.8541 18.1144C67.9304 18.4064 67.9957 18.6232 68.2513 18.8202C68.2513 18.8202 68.3777 18.7118 68.5212 18.5843C68.632 18.4864 68.7407 18.3861 68.8471 18.2834C69.0252 18.101 69.3548 18.1937 69.5923 18.2834C69.8326 18.3745 70.1301 18.5816 70.3403 18.7014C70.5519 18.82 70.6685 18.9706 70.7293 19.1503C70.7929 19.3295 70.9398 19.4482 71.1639 19.5669C71.3803 19.6898 71.6905 20.0839 71.6905 20.6157C71.6905 20.6972 71.6996 20.7669 71.7226 20.841C71.7383 20.8899 71.7597 20.9409 71.7891 20.999C72.0916 21.6087 71.8488 21.9158 71.6736 22.0451C71.4381 22.2214 71.0227 22.2943 70.6323 22.2305L70.6355 22.3307L70.0654 22.2547C69.8445 22.2271 69.5532 22.2836 69.3792 22.3198L69.3382 22.3307C68.9323 22.4114 68.4016 22.274 68.1035 21.7898C68.0925 21.7718 68.0816 21.7538 68.0714 21.7347C67.9192 21.4675 67.6823 21.2195 67.5664 21.1509C67.399 21.1969 67.1346 21.2594 66.8198 21.2272C66.5278 21.1979 66.1909 21.0858 65.8484 20.802C65.7917 20.7549 65.7345 20.7027 65.6778 20.6462C65.1744 20.1413 64.5103 20.0379 64.0928 20.1019L63.8439 20.1461C63.33 20.239 62.6882 20.3574 62.0953 19.9957C61.9477 19.9058 61.735 19.8131 61.5264 19.7249C60.9882 19.4906 60.4318 19.2489 60.3559 18.7394C60.3432 18.6485 60.2448 18.4825 60.1639 18.3504C60.0928 18.2335 60.0154 18.1058 59.9555 17.9689C59.8979 17.8381 59.8564 17.699 59.8525 17.5537C59.6763 17.599 59.4943 17.6176 59.3125 17.6088C59.2483 17.6056 59.1843 17.5992 59.1208 17.5899L58.8871 17.5537C58.4933 17.4865 57.6685 17.351 57.4059 17.4468C56.883 17.6354 55.2374 17.7265 54.7862 17.6234C54.7862 17.6234 54.6202 17.5869 54.4637 17.5537C54.3134 17.7088 54.1457 17.8543 53.9695 17.9839C54.2997 18.0019 54.5901 17.9609 54.7896 18.0124L55.2042 18.1217C55.3365 18.0825 55.6601 18.0871 55.8439 18.1037L56.3295 18.1402L56.8834 18.1934C57.1504 18.247 57.4337 18.3622 57.3852 18.8852C57.3665 19.0464 57.2763 19.2744 57.1406 19.4083C57.0659 19.4903 56.7764 19.9101 56.7128 20.0422L56.6921 20.0834C56.5794 20.3237 56.4122 20.5444 55.9255 20.5444C55.8637 20.5436 55.8019 20.546 55.7403 20.5517C55.7255 20.5911 55.6856 20.6642 55.6856 20.6642C55.5761 20.9134 55.4178 21.2603 55.1153 21.4609L55.0345 21.519C54.7917 21.6923 54.3872 21.9779 53.7679 21.7531L53.5547 21.6768C53.0149 21.4823 52.1986 21.1906 51.7866 20.9653L51.7287 20.9334C51.345 20.7234 51.26 20.6813 51.1206 20.7009L51.0432 20.713C50.7489 20.7542 50.1941 20.8287 49.8105 20.1927L49.7754 20.1376C47.9568 22.6339 45.2232 24.4207 42.0682 25.004L42.0543 25.007C41.9468 25.0265 41.8384 25.0448 41.73 25.0618L41.6897 25.0678L41.5414 25.0896C41.4838 25.0983 41.4259 25.106 41.3676 25.1133L41.2619 25.1265L41.0952 25.1445L40.9797 25.1566C40.9046 25.1637 40.8287 25.17 40.7531 25.1757L40.6814 25.1805C40.6119 25.1853 40.5431 25.1898 40.4732 25.1935L40.3971 25.1976C40.3165 25.2015 40.2363 25.2044 40.1552 25.2069L40.073 25.2083C39.9 25.2126 39.7269 25.2124 39.5539 25.2078L39.4765 25.2069C39.399 25.2044 39.3216 25.2015 39.2442 25.198L39.1494 25.1928C39.0841 25.1892 39.0187 25.1857 38.9533 25.1807L38.8702 25.1753C38.7929 25.1693 38.7156 25.1628 38.6383 25.1557L38.524 25.1438L38.3725 25.1274L38.288 25.1176C38.2085 25.1079 38.1292 25.0969 38.05 25.0846L37.9541 25.0705L37.7847 25.0441L37.6974 25.0295C37.6293 25.0174 37.5612 25.0056 37.4934 24.9924L37.3465 24.963L37.2713 24.9477C37.1709 24.9259 37.0697 24.9042 36.97 24.8801L36.9435 24.8739L36.7866 24.8357L36.706 24.8149C36.6124 24.7908 36.5192 24.7648 36.4263 24.7389L36.393 24.7291C33.6266 23.931 31.2627 22.1889 29.6691 19.8748L29.4593 20.1941C29.0794 20.83 28.5257 20.7553 28.2275 20.7143L28.1501 20.7022C28.0112 20.6827 27.9233 20.7248 27.5431 20.9348L27.4821 20.9667C27.0714 21.1919 26.2583 21.4837 25.7156 21.6782L25.5019 21.7545C24.8831 21.9793 24.4772 21.6932 24.239 21.5204L24.1554 21.4623C23.8527 21.2619 23.696 20.915 23.5848 20.6656C23.5848 20.6656 23.5484 20.5925 23.5306 20.5531C23.4689 20.5474 23.407 20.545 23.345 20.5458C22.8628 20.5458 22.6909 20.3251 22.58 20.0848L22.5604 20.0436C22.495 19.9115 22.2092 19.4917 22.1301 19.4097C21.9964 19.276 21.9015 19.0478 21.8864 18.8865C21.8363 18.3636 22.1235 18.2483 22.388 18.1948L22.9421 18.1415L23.4286 18.1051C23.6094 18.0884 23.9333 18.0839 24.0654 18.1231L24.4804 18.0137C24.6779 17.9623 24.9712 18.0033 25.2985 17.9853C25.1245 17.8535 24.9599 17.7097 24.8059 17.555C24.6476 17.5883 24.4831 17.6247 24.4831 17.6247C24.0306 17.7279 22.388 17.6368 21.8682 17.4482C21.604 17.3523 20.78 17.4876 20.3843 17.555L20.147 17.5912C19.9049 17.6284 19.6577 17.6161 19.4204 17.555C19.4079 17.8527 19.2467 18.1231 19.1084 18.3517C19.028 18.4838 18.9262 18.6499 18.9139 18.7408C18.8428 19.2503 18.2796 19.4919 17.743 19.7263C17.5346 19.8144 17.325 19.9071 17.1763 19.9971C16.5878 20.3588 15.943 20.2403 15.4275 20.1474L15.1779 20.1032C14.7627 20.0392 14.0981 20.1426 13.5936 20.6476C12.8222 21.4172 12.0546 21.248 11.705 21.1523C11.5893 21.2209 11.3508 21.4689 11.1998 21.7361C10.9083 22.2654 10.3514 22.4157 9.93187 22.3321L9.88973 22.3212C9.71754 22.285 9.42988 22.2285 9.20963 22.256L8.63613 22.3321L8.64228 22.2319C8.24984 22.2957 7.83304 22.2226 7.59662 22.0465C7.42284 21.9171 7.17936 21.6101 7.48684 21.0004C7.55813 20.8542 7.5825 20.7526 7.5825 20.6171C7.5825 20.085 7.89021 19.6912 8.10613 19.5682C8.33252 19.4496 8.48148 19.3309 8.54206 19.1516C8.60151 18.9719 8.71812 18.8214 8.92994 18.7027C9.13948 18.5829 9.43762 18.3759 9.67655 18.2848C9.91501 18.195 10.2446 18.1023 10.4243 18.2848C10.6054 18.4611 11.0201 18.8214 11.0201 18.8214C11.4007 18.5276 11.3643 18.1889 11.5615 17.6261C11.8082 16.9282 12.3983 17.1166 12.7814 17.1533L12.8254 17.1594C12.8254 17.1594 13.0319 17.1685 13.0381 17.1717C13.0488 17.1656 13.1066 17.1382 13.1066 17.1382L13.2025 17.0879C13.2025 17.0879 13.8211 16.7246 13.8273 16.7216C13.83 16.7141 13.83 16.7032 13.83 16.6848C13.83 16.6408 13.815 16.5511 13.7314 16.4174C13.4563 15.9914 13.2618 15.1478 13.2264 14.4379C13.1271 14.4497 13.0313 14.4595 12.937 14.467C11.4387 14.5873 10.5484 14.2083 10.0275 13.7202Z" fill="#F8EE3F"/>
<path d="M13.7152 13.9194C13.7152 13.9194 13.5904 15.1277 14.1347 16.1925C14.1347 16.1925 14.5381 16.7642 14.1193 17.1313L13.2854 17.616C13.2854 17.616 13.1734 17.6993 12.8014 17.6711C12.8014 17.6711 12.2874 17.5438 12.1156 17.7709C12.1156 17.7709 11.9664 18.2075 11.7797 18.5674C11.7797 18.5674 11.4 19.4397 10.7716 19.7191C10.7716 19.7191 10.2708 19.8339 10.1188 20.2683C10.1188 20.2683 9.95736 20.573 9.63394 20.5865C9.63394 20.5865 9.39274 20.663 9.23308 21.2003C9.23308 21.2003 9.14607 21.5478 9.15063 21.8143C9.15063 21.8143 9.56197 21.7603 9.83004 21.8574C9.83004 21.8574 10.4892 22.0788 10.7839 21.5358C10.7839 21.5358 11.3533 20.5607 11.7756 20.7074C11.7756 20.7074 12.6238 20.9912 13.2228 20.3721C13.2228 20.3721 14.0457 19.4732 15.208 19.6581C15.208 19.6581 16.5171 19.9232 16.9255 19.6212C16.9255 19.6212 17.7512 19.1896 18.0609 19.0825C18.0609 19.0825 18.4399 18.9712 18.4791 18.5562C18.4791 18.5562 18.7096 17.9724 18.8772 17.7779L18.2527 17.7709C18.2527 17.7709 17.6872 18.722 16.7262 19.0088C16.7262 19.0088 16.2008 19.2188 15.146 19.0482C15.146 19.0482 13.6316 18.7051 12.3015 20.1416C12.3015 20.1416 12.1197 20.4043 11.8603 20.2993C11.8603 20.2993 12.5953 19.0459 14.209 18.7489C14.209 18.7489 14.7372 18.6366 15.1777 18.7081C15.1777 18.7081 17.3512 18.7719 18.359 16.6321C18.359 16.6321 18.25 14.8077 18.7312 14.3756C18.7312 14.3756 18.9171 14.3187 18.8799 14.6715C18.8799 14.6715 18.5492 16.5826 19.1703 16.9527C19.1703 16.9527 19.5309 17.2361 20.198 17.1313C20.198 17.1313 21.2093 16.8897 22.0313 17.0304C22.0313 17.0304 23.2953 17.3304 24.3815 17.1917C24.3815 17.1917 24.0996 16.7598 24.1549 16.2435C24.1549 16.2435 24.3105 15.8738 24.4888 16.1116C24.4888 16.1116 24.9068 17.4923 26.049 17.9066C26.049 17.9066 27.0691 18.2781 27.0525 19.572C27.0525 19.572 26.8963 19.7494 25.5436 20.23C25.5436 20.23 25.0382 20.3897 24.8753 20.012C24.8753 20.012 24.223 18.6159 23.6552 18.6589L22.589 18.7455C22.589 18.7455 22.2253 18.8386 22.4932 19.1302C22.4932 19.1302 22.8583 19.6155 23.0074 19.9052C23.0074 19.9052 23.0509 20.1528 23.394 20.1002C23.394 20.1002 23.8698 19.8645 24.1381 20.7495C24.1381 20.7495 24.3836 21.1921 24.7993 21.3335C24.7993 21.3335 25.188 21.4633 25.5529 21.2586C25.5529 21.2586 27.3137 20.6122 27.6203 20.3831C27.6203 20.3831 28.0011 20.1699 28.3031 20.2724C28.3031 20.2724 28.8313 20.3983 29.0488 19.9815L29.5946 19.1372C29.5946 19.1372 29.7144 18.9293 29.6977 18.668C29.6977 18.668 29.7472 18.4093 29.529 18.1462C29.529 18.1462 29.3228 17.9282 29.2903 17.7704L28.9012 16.8562C28.9012 16.8562 28.7436 16.612 28.5705 16.5116L28.0512 16.5496C28.0512 16.5496 28.4086 17.4629 28.6703 17.8351C28.6703 17.8351 29.0245 18.3767 29.0065 18.7211C29.0065 18.7211 28.983 18.9625 28.8878 19.0632C28.8878 19.0632 28.768 19.255 28.7197 19.3481C28.7197 19.3481 28.5623 19.6898 28.4346 19.7656C28.4346 19.7656 28.2136 19.8963 28.1599 19.9016C28.1599 19.9016 28.0638 19.9282 28.1351 19.756C28.1351 19.756 28.4261 19.1436 28.407 18.8161C28.407 18.8161 28.4635 18.4749 28.2221 18.2751C28.2221 18.2751 27.6563 17.3821 27.5752 17.1151C27.5752 17.1151 27.3978 16.758 27.3033 16.6967C27.3033 16.6967 27.1056 16.4369 27.4247 16.3152C27.4247 16.3152 28.2196 16.1358 28.3619 16.0383C28.3619 16.0383 28.7441 15.9226 28.9924 15.1265C28.9924 15.1265 29.3342 14.1982 29.3292 13.6251C29.3292 13.6251 29.9993 14.917 28.9306 16.2307C28.9306 16.2307 29.7763 16.4801 30.1261 16.2307C30.1261 16.2307 31.1796 16.0768 31.3829 16.0207C31.3829 16.0207 31.6478 15.9567 31.4966 16.1446C31.4966 16.1446 31.1789 16.5965 31.152 16.8926C31.152 16.8926 31.1315 17.1283 30.9384 17.2664C30.9384 17.2664 30.3396 17.6857 30.287 18.0872C30.287 18.0872 30.1589 18.4737 30.4234 18.3813C30.4234 18.3813 30.7819 18.2152 30.9085 18.3824C30.9085 18.3824 30.9456 18.3999 30.8074 18.5551C30.8074 18.5551 30.4478 18.868 30.4209 19.288C30.4209 19.288 30.4874 19.7727 30.6145 19.9285C30.6145 19.9285 30.7764 20.153 31.0324 20.0817C31.0324 20.0817 31.1003 20.0269 31.2228 20.0637C31.2228 20.0637 31.3495 20.0633 31.6802 19.949C31.6802 19.949 32.1815 19.8112 32.3491 19.7519C32.3491 19.7519 32.9873 19.5237 33.3021 19.5397C33.3021 19.5397 33.5068 19.5171 33.7678 19.5693C33.7678 19.5693 34.5659 19.6599 35.0977 19.0721C35.0977 19.0721 35.5025 18.7512 35.6398 19.0627C35.6398 19.0627 36.6108 20.3655 38.1823 20.0223C38.1823 20.0223 36.9319 19.508 36.6076 18.8076C36.6076 18.8076 36.5643 18.213 35.9093 17.3871C35.9093 17.3871 35.7091 17.1131 35.9022 17.0418C35.9022 17.0418 36.014 16.9582 36.258 17.2031C36.258 17.2031 36.8802 17.8 37.105 18.3464C37.105 18.3464 37.8778 19.5142 38.9916 19.1217C38.9916 19.1217 38.1172 18.7844 37.7063 18.1553C37.7063 18.1553 37.4523 17.304 36.5987 16.6705C36.5987 16.6705 36.5652 15.7137 36.1671 15.176C36.1671 15.176 35.9642 14.2774 35.9095 14.0675C35.9095 14.0675 35.6947 13.2783 35.6961 13.0603C35.6961 13.0603 35.7671 12.0294 35.1025 11.227C35.1025 11.227 34.6572 10.3686 33.9637 9.77049C33.9637 9.77049 33.4367 9.11932 33.0447 8.72051C33.0447 8.72051 32.529 8.11603 31.4048 7.32729C31.4048 7.32729 30.8958 6.95717 30.5229 6.55927C30.5229 6.55927 28.5398 5.13189 27.1072 6.27685C27.1072 6.27685 26.1178 6.94989 25.2914 7.15829C25.2914 7.15829 23.5933 7.35599 22.8692 8.53465C22.8692 8.53465 22.8072 8.7524 22.1228 8.8353C22.1228 8.8353 20.6194 8.65377 19.5124 10.1324C19.5124 10.1324 18.9981 10.6344 17.9801 10.7565C17.9801 10.7565 16.3197 10.5866 15.2387 11.8595C15.2387 11.8595 12.511 14.239 10.8846 12.6959C10.8846 12.6959 10.0419 11.898 11.0053 10.4533C11.0053 10.4533 11.6164 9.71583 12.6588 8.94531C12.6588 8.94531 13.5045 8.34948 13.1169 7.42318C13.1169 7.42318 12.9121 6.52807 11.6446 6.50438C11.6446 6.50438 10.0542 6.19713 9.41096 5.39404C9.41096 5.39404 8.69283 7.92334 11.5114 7.88121C11.5114 7.88121 12.2459 7.98985 11.9895 8.57292C11.9895 8.57292 11.6294 9.07172 11.1461 9.25325C11.1461 9.25325 10.2958 9.62518 9.91158 10.8633C9.91158 10.8633 9.05292 13.0307 11.1479 13.8673C11.9542 14.1458 12.8855 14.0638 13.7152 13.9194ZM9.68177 19.0267C9.79542 18.9318 9.96191 18.8782 10.1097 18.9129C10.4432 18.9846 10.2414 19.2734 10.2414 19.2734C10.1063 19.526 9.6656 19.9521 9.6656 19.9521C9.27362 20.2457 8.96318 19.8961 8.96318 19.8961C8.67278 19.6098 9.05064 19.4713 9.05064 19.4713C9.27043 19.3821 9.68177 19.0267 9.68177 19.0267ZM8.84133 20.3815C8.84133 20.3815 8.96318 20.4714 8.89804 20.6491C8.89804 20.6491 8.58692 21.5007 8.60149 21.7865C8.60149 21.7865 7.91297 21.9095 7.81753 21.5697C7.81753 21.5697 7.79909 21.4385 7.91137 21.2483C7.91137 21.2483 8.02822 21.0709 8.05851 20.7464C8.05851 20.7464 8.04826 19.9296 8.57735 20.146C8.68235 20.2047 8.76525 20.2901 8.84133 20.3815ZM33.1094 18.6532C32.9882 18.6503 32.9575 18.6058 32.972 18.4724C33.0534 18.1013 33.3508 17.9412 33.3508 17.9412C33.9088 17.6078 33.9767 17.9417 33.9767 17.9417C34.079 18.5373 33.6082 18.6122 33.6082 18.6122C33.5141 18.6446 33.1094 18.6532 33.1094 18.6532ZM34.7928 15.9934C34.803 15.7139 34.8267 15.0928 34.5427 14.871C34.4379 14.7876 34.0234 14.3337 34.0234 14.3337C33.9603 14.2237 33.9118 14.2169 33.9118 14.2169C33.8264 14.2087 33.7161 14.4073 33.7161 14.4073C33.421 14.9769 33.1265 14.9074 33.1265 14.9074C33.124 14.8036 33.1934 14.6876 33.1934 14.6876C33.3359 14.4109 33.477 14.1335 33.6168 13.8554C33.6599 13.7566 33.6995 13.6249 33.6995 13.6249C33.9844 13.1833 34.253 13.5195 34.253 13.5195C34.3728 13.7534 35.0117 14.5155 35.0117 14.5155C35.1533 14.684 35.167 14.8651 35.167 14.8651C35.315 15.9089 34.7928 15.9934 34.7928 15.9934ZM28.9085 9.69214C28.8213 9.53521 28.8573 9.3751 28.945 9.2225C29.1427 8.91957 29.3274 9.25006 29.3274 9.25006C30.01 10.2016 29.506 11.6263 29.506 11.6263C29.4358 10.3151 28.9085 9.69214 28.9085 9.69214ZM65.5584 13.9194C65.5584 13.9194 65.6832 15.1277 65.1389 16.1925C65.1389 16.1925 64.7355 16.7642 65.1544 17.1313L65.9884 17.616C65.9884 17.616 66.1003 17.6993 66.4724 17.6711C66.4724 17.6711 66.9863 17.5438 67.1578 17.7709C67.1578 17.7709 67.3072 18.2075 67.4937 18.5674C67.4937 18.5674 67.8741 19.4397 68.5025 19.7191C68.5025 19.7191 69.0031 19.8339 69.1546 20.2683C69.1546 20.2683 69.3165 20.573 69.6395 20.5865C69.6395 20.5865 69.8811 20.663 70.0405 21.2003C70.0405 21.2003 70.1278 21.5478 70.1235 21.8143C70.1235 21.8143 69.7119 21.7603 69.4436 21.8574C69.4436 21.8574 68.7847 22.0788 68.4899 21.5358C68.4899 21.5358 67.9205 20.5607 67.4983 20.7074C67.4983 20.7074 66.6503 20.9912 66.0511 20.3721C66.0511 20.3721 65.2284 19.4732 64.0659 19.6581C64.0659 19.6581 62.7572 19.9232 62.3486 19.6212C62.3486 19.6212 61.5229 19.1896 61.2132 19.0825C61.2132 19.0825 60.8339 18.9712 60.7952 18.5562C60.7952 18.5562 60.5645 17.9724 60.3969 17.7779L61.0212 17.7709C61.0212 17.7709 61.5865 18.722 62.5474 19.0088C62.5474 19.0088 63.0733 19.2188 64.1276 19.0482C64.1276 19.0482 65.6422 18.7051 66.9724 20.1416C66.9724 20.1416 67.1543 20.4043 67.4133 20.2993C67.4133 20.2993 66.6788 19.0459 65.0649 18.7489C65.0649 18.7489 64.5369 18.6366 64.096 18.7081C64.096 18.7081 61.9224 18.7719 60.9141 16.6321C60.9141 16.6321 61.0237 14.8077 60.5424 14.3756C60.5424 14.3756 60.357 14.3187 60.3935 14.6715C60.3935 14.6715 60.7239 16.5826 60.1033 16.9527C60.1033 16.9527 59.7425 17.2361 59.0754 17.1313C59.0754 17.1313 58.0644 16.8897 57.2426 17.0304C57.2426 17.0304 55.9781 17.3304 54.8919 17.1917C54.8919 17.1917 55.1741 16.7598 55.1187 16.2435C55.1187 16.2435 54.9629 15.8738 54.7846 16.1116C54.7846 16.1116 54.3666 17.4923 53.2242 17.9066C53.2242 17.9066 52.204 18.2781 52.2207 19.572C52.2207 19.572 52.3774 19.7494 53.7303 20.23C53.7303 20.23 54.2359 20.3897 54.3988 20.012C54.3988 20.012 55.0504 18.6159 55.6184 18.6589L56.685 18.7455C56.685 18.7455 57.0485 18.8386 56.7805 19.1302C56.7805 19.1302 56.4158 19.6155 56.2662 19.9052C56.2662 19.9052 56.2231 20.1528 55.8799 20.1002C55.8799 20.1002 55.4041 19.8645 55.1353 20.7495C55.1353 20.7495 54.8903 21.1921 54.4746 21.3335C54.4746 21.3335 54.0856 21.4633 53.7209 21.2586C53.7209 21.2586 51.9601 20.6122 51.6538 20.3831C51.6538 20.3831 51.2727 20.1699 50.9709 20.2724C50.9709 20.2724 50.4432 20.3983 50.2257 19.9815L49.68 19.1372C49.68 19.1372 49.5597 18.9293 49.5766 18.668C49.5766 18.668 49.5269 18.4093 49.7454 18.1462C49.7454 18.1462 49.9517 17.9282 49.984 17.7704L50.3733 16.8562C50.3733 16.8562 50.5309 16.612 50.7038 16.5116L51.2235 16.5496C51.2235 16.5496 50.8657 17.4629 50.6038 17.8351C50.6038 17.8351 50.2496 18.3767 50.2676 18.7211C50.2676 18.7211 50.2913 18.9625 50.3863 19.0632C50.3863 19.0632 50.5061 19.255 50.5546 19.3481C50.5546 19.3481 50.7113 19.6898 50.8395 19.7656C50.8395 19.7656 51.0602 19.8963 51.1142 19.9016C51.1142 19.9016 51.2105 19.9282 51.1383 19.756C51.1383 19.756 50.8482 19.1436 50.8666 18.8161C50.8666 18.8161 50.8106 18.4749 51.0516 18.2751C51.0516 18.2751 51.6178 17.3821 51.6993 17.1151C51.6993 17.1151 51.8761 16.758 51.9708 16.6967C51.9708 16.6967 52.1685 16.4369 51.8494 16.3152C51.8494 16.3152 51.0548 16.1358 50.9124 16.0383C50.9124 16.0383 50.5302 15.9226 50.2817 15.1265C50.2817 15.1265 49.9401 14.1982 49.9449 13.6251C49.9449 13.6251 49.2748 14.917 50.3437 16.2307C50.3437 16.2307 49.498 16.4801 49.1482 16.2307C49.1482 16.2307 48.095 16.0768 47.8909 16.0207C47.8909 16.0207 47.6267 15.9567 47.7775 16.1446C47.7775 16.1446 48.095 16.5965 48.1223 16.8926C48.1223 16.8926 48.1424 17.1283 48.336 17.2664C48.336 17.2664 48.9347 17.6857 48.9869 18.0872C48.9869 18.0872 49.1151 18.4737 48.8505 18.3813C48.8505 18.3813 48.4922 18.2152 48.3656 18.3824C48.3656 18.3824 48.3284 18.3999 48.4667 18.5551C48.4667 18.5551 48.8263 18.868 48.853 19.288C48.853 19.288 48.7865 19.7727 48.6592 19.9285C48.6592 19.9285 48.4974 20.153 48.2414 20.0817C48.2414 20.0817 48.1738 20.0269 48.0506 20.0637C48.0506 20.0637 47.9242 20.0633 47.5935 19.949C47.5935 19.949 47.0922 19.8112 46.9245 19.7519C46.9245 19.7519 46.2863 19.5237 45.9713 19.5397C45.9713 19.5397 45.7666 19.5171 45.5056 19.5693C45.5056 19.5693 44.7073 19.6599 44.1754 19.0721C44.1754 19.0721 43.7707 18.7512 43.6338 19.0627C43.6338 19.0627 42.6626 20.3655 41.0908 20.0223C41.0908 20.0223 42.3419 19.508 42.6661 18.8076C42.6661 18.8076 42.7089 18.213 43.3639 17.3871C43.3639 17.3871 43.5639 17.1131 43.3707 17.0418C43.3707 17.0418 43.2591 16.9582 43.015 17.2031C43.015 17.2031 42.3934 17.8 42.1684 18.3464C42.1684 18.3464 41.3951 19.5142 40.2818 19.1217C40.2818 19.1217 41.1558 18.7844 41.5666 18.1553C41.5666 18.1553 41.8206 17.304 42.6749 16.6705C42.6749 16.6705 42.7082 15.7137 43.1065 15.176C43.1065 15.176 43.3097 14.2774 43.3639 14.0675C43.3639 14.0675 43.5785 13.2783 43.5771 13.0603C43.5771 13.0603 43.506 12.0294 44.1709 11.227C44.1709 11.227 44.6159 10.3686 45.3101 9.77049C45.3101 9.77049 45.837 9.11932 46.2287 8.72051C46.2287 8.72051 46.7446 8.11603 47.8688 7.32729C47.8688 7.32729 48.3776 6.95717 48.7503 6.55927C48.7503 6.55927 50.7332 5.13189 52.1662 6.27685C52.1662 6.27685 53.1556 6.94989 53.9824 7.15829C53.9824 7.15829 55.6801 7.35599 56.4037 8.53465C56.4037 8.53465 56.4657 8.7524 57.1501 8.8353C57.1501 8.8353 58.6536 8.65377 59.7607 10.1324C59.7607 10.1324 60.275 10.6344 61.2933 10.7565C61.2933 10.7565 62.9528 10.5866 64.0338 11.8595C64.0338 11.8595 66.7617 14.239 68.3884 12.6959C68.3884 12.6959 69.2306 11.898 68.2674 10.4533C68.2674 10.4533 67.6566 9.71583 66.6143 8.94531C66.6143 8.94531 65.768 8.34948 66.1561 7.42318C66.1561 7.42318 66.3608 6.52807 67.6283 6.50438C67.6283 6.50438 69.2188 6.19713 69.8618 5.39404C69.8618 5.39404 70.5803 7.92334 67.7613 7.88121C67.7613 7.88121 67.0266 7.98985 67.2833 8.57292C67.2833 8.57292 67.6434 9.07172 68.1267 9.25325C68.1267 9.25325 68.9769 9.62518 69.3614 10.8633C69.3614 10.8633 70.2203 13.0307 68.1244 13.8673C67.3192 14.1458 66.3882 14.0638 65.5584 13.9194ZM69.5921 19.0267C69.4782 18.9318 69.3117 18.8782 69.1643 18.9129C68.8305 18.9846 69.0325 19.2734 69.0325 19.2734C69.1678 19.526 69.6085 19.9521 69.6085 19.9521C70.0009 20.2457 70.3109 19.8961 70.3109 19.8961C70.6008 19.6098 70.2228 19.4713 70.2228 19.4713C70.0034 19.3821 69.5921 19.0267 69.5921 19.0267ZM70.4321 20.3815C70.4321 20.3815 70.3109 20.4714 70.3754 20.6491C70.3754 20.6491 70.6865 21.5007 70.6721 21.7865C70.6721 21.7865 71.3611 21.9095 71.4559 21.5697C71.4559 21.5697 71.4743 21.4385 71.3623 21.2483C71.3623 21.2483 71.2454 21.0709 71.2151 20.7464C71.2151 20.7464 71.2256 19.9296 70.6965 20.146C70.5913 20.2047 70.5084 20.2901 70.4321 20.3815ZM46.164 18.6532C46.2854 18.6503 46.3166 18.6058 46.3016 18.4724C46.2201 18.1013 45.923 17.9412 45.923 17.9412C45.365 17.6078 45.2969 17.9417 45.2969 17.9417C45.1951 18.5373 45.6657 18.6122 45.6657 18.6122C45.7597 18.6446 46.164 18.6532 46.164 18.6532ZM44.4811 15.9934C44.4706 15.7139 44.4467 15.0928 44.7312 14.871C44.8364 14.7876 45.2505 14.3337 45.2505 14.3337C45.3136 14.2237 45.3621 14.2169 45.3621 14.2169C45.447 14.2087 45.5579 14.4073 45.5579 14.4073C45.8527 14.9769 46.1476 14.9074 46.1476 14.9074C46.1499 14.8036 46.08 14.6876 46.08 14.6876C45.9375 14.4109 45.7965 14.1335 45.6568 13.8554C45.6256 13.7799 45.598 13.703 45.5741 13.6249C45.2892 13.1833 45.0209 13.5195 45.0209 13.5195C44.9011 13.7534 44.2624 14.5155 44.2624 14.5155C44.1779 14.6146 44.1238 14.736 44.1064 14.8651C43.9591 15.9089 44.4811 15.9934 44.4811 15.9934ZM50.3651 9.69214C50.4523 9.53521 50.4163 9.3751 50.3287 9.2225C50.131 8.91957 49.9467 9.25006 49.9467 9.25006C49.2639 10.2016 49.7679 11.6263 49.7679 11.6263C49.8376 10.3151 50.3651 9.69214 50.3651 9.69214Z" fill="#CC2729"/>
<path d="M0 29.4111V46.867H3.52234V32.7426H5.18182C5.18182 32.7426 7.77238 32.626 7.77238 34.9842C7.77238 37.3425 5.47244 37.2837 5.47244 37.2837H4.62813V41.3017L8.15115 46.8675H12.2844L7.36492 39.7301C7.36492 39.7301 11.4113 39.3807 11.4113 34.9847C11.4113 30.5893 8.35454 29.4118 4.27942 29.4118L0 29.4111ZM51.4984 37.5759C51.4984 37.5759 53.0408 36.3761 53.0408 34.1023C53.0408 31.8274 51.3886 29.7767 47.8706 29.7767H41.9788V46.8673H49.2358C49.2358 46.8673 54.4372 46.8083 54.4372 42.1079C54.4374 39.3793 53.3781 38.3344 51.4984 37.5759ZM48.6598 43.8927H45.5016V32.7567H47.1896C47.1896 32.7567 49.4836 32.5845 49.4836 34.5859C49.4836 36.5872 47.6588 36.4107 47.6588 36.4107H46.6076V39.4108H48.6591C49.1968 39.4108 50.9101 39.6716 50.9101 41.6431C50.9098 43.6141 48.6598 43.8927 48.6598 43.8927ZM73.7102 29.0679H77V46.8673H73.7102V29.0679ZM68.0485 29.0679H71.3816V46.8673H68.0485V29.0679ZM55.4286 36.4403H58.805V42.4077C58.805 42.4077 58.9225 44.4172 60.8141 44.4172C62.7056 44.4172 62.6776 42.4077 62.6776 42.4077V36.4685H66.0829V42.6122C66.0829 42.6122 66.52 47.4155 60.9011 47.4155C55.2829 47.4155 55.4286 43.1944 55.4286 42.4375V36.4403ZM33.0421 29.0679V37.1393C33.0421 37.1393 31.4118 35.8878 29.5476 35.8878C27.6852 35.8878 24.5411 37.1976 24.5411 41.331C24.5411 45.4647 27.2196 47.0376 29.5191 47.0376C31.8193 47.0376 33.1002 45.5235 33.1002 45.5235V46.8677H36.4183V29.0681L33.0421 29.0679ZM30.4798 44.1252C30.3049 44.1252 28.1216 44.1546 28.1216 41.4766C28.1216 38.7979 30.5085 38.7106 30.5085 38.7106C30.5085 38.7106 33.1872 38.7979 33.1872 41.418C33.1872 44.0382 30.6543 44.1252 30.4798 44.1252ZM17.9035 35.8873C23.5511 35.8873 23.3181 41.3896 23.3181 41.3896V42.2624H15.6621C15.6621 43.5137 16.7098 44.5912 18.1365 44.5912C19.5627 44.5912 20.2906 43.2231 20.2906 43.2231L22.9976 44.5618C21.746 46.4548 20.0576 47.2109 18.1656 47.2109C12.2848 47.2109 12.1684 42.3207 12.1684 41.7096C12.1684 41.0978 12.2563 35.8873 17.9035 35.8873ZM15.7199 40.2533H19.9126C19.9126 40.2533 19.7379 38.2745 17.8456 38.2745C15.9534 38.2742 15.7199 40.2533 15.7199 40.2533Z" fill="#CC2729"/>
</svg>
