<svg width="150" height="48" viewBox="0 0 150 48" fill="none" xmlns="http://www.w3.org/2000/svg">
<path d="M14.0839 12.0648C11.4808 10.9134 9.9284 10.4667 8.38684 10.4667C6.76901 10.4667 5.73283 11.0439 5.73283 11.9358C5.73283 14.6276 14.8982 13.87 14.8982 20.0963C14.8982 23.5296 12.0069 25.5244 7.9901 25.5244C4.83918 25.5244 3.2876 24.7124 1.50028 23.7928V19.9413C4.07803 21.6429 5.6558 22.2439 7.64419 22.2439C9.36833 22.2439 10.2982 21.6429 10.2982 20.5952C10.2982 17.664 1.13281 18.7378 1.13281 12.3265C1.13281 9.23483 3.81456 7.18779 7.9901 7.18779C10.0055 7.18779 11.8236 7.60917 14.0839 8.57781V12.0648Z" fill="#009E4D"/>
<path d="M26.9142 24.7063C25.3865 25.2582 24.0945 25.5215 22.8056 25.5215C18.5369 25.5215 15.7773 23.0446 15.7773 19.276C15.7773 15.5764 18.644 12.9629 22.647 12.9629C23.8834 12.9629 25.4643 13.2784 26.7285 13.7474V16.5796C25.7278 16.05 24.5691 15.7599 23.6207 15.7599C21.3296 15.7599 19.8558 17.1315 19.8558 19.2483C19.8558 21.3952 21.3049 22.8082 23.4882 22.8082C24.4096 22.8082 25.2285 22.5979 26.9142 21.9693V24.7063Z" fill="#009E4D"/>
<path d="M60.1986 17.8883C60.355 16.2073 61.3349 15.2356 62.8356 15.2356C64.3109 15.2356 65.3109 16.235 65.4688 17.8883H60.1986ZM62.5722 12.9668C58.8265 12.9668 56.1602 15.6025 56.1602 19.3113C56.1602 23.0477 58.9328 25.5215 63.2062 25.5215C64.153 25.5215 66.4426 25.5215 68.6236 23.9135V21.5487C66.8371 22.8167 65.6553 23.2534 64.1299 23.2534C61.7224 23.2534 60.2502 22.0123 60.1169 19.8939H68.8386C69.0196 15.472 66.106 12.9668 62.5722 12.9668Z" fill="#009E4D"/>
<path d="M70.3125 25.3008H74.1261V13.1897H70.3125V25.3008Z" fill="#009E4D"/>
<path d="M84.7396 21.9906C83.9454 22.7029 83.2851 22.9884 82.4708 22.9884C80.675 22.9884 79.5387 21.5163 79.5387 19.3096C79.5387 16.8918 80.675 15.498 82.5972 15.498C83.2851 15.498 84.1834 15.8134 84.7396 16.2087V21.9906ZM84.7396 7.41115V13.7211C83.7096 13.2245 82.6827 12.9628 81.5726 12.9628C78.0942 12.9628 75.6875 15.5241 75.6875 19.2306C75.6875 22.8572 78.0942 25.5244 81.3576 25.5244C82.6519 25.5244 83.6518 25.1867 84.7396 24.3224V25.2972H88.5524V7.41115H84.7396Z" fill="#009E4D"/>
<path d="M94.1955 17.8883C94.3542 16.2073 95.3287 15.2356 96.8272 15.2356C98.3048 15.2356 99.3148 16.235 99.4727 17.8883H94.1955ZM96.5667 12.9668C92.8219 12.9668 90.1602 15.6025 90.1602 19.3113C90.1602 23.0477 92.9328 25.5215 97.2016 25.5215C98.1469 25.5215 100.441 25.5215 102.627 23.9135V21.5487C100.839 22.8167 99.6545 23.2534 98.1222 23.2534C95.7278 23.2534 94.2494 22.0123 94.1161 19.8939H102.834C103.015 15.472 100.099 12.9668 96.5667 12.9668Z" fill="#009E4D"/>
<mask id="mask0_1253_25152" style="mask-type:luminance" maskUnits="userSpaceOnUse" x="1" y="7" width="114" height="34">
<path d="M1.13281 7.18785V40.6758H114.994V7.18785" fill="white"/>
</mask>
<g mask="url(#mask0_1253_25152)">
<path d="M108.545 16.6575H108.601C109.733 14.1369 111 12.9548 112.471 12.9548C113.232 12.9548 113.89 13.2442 114.996 14.0593L113.947 17.4173C112.945 16.788 112.287 16.5247 111.682 16.5247C110.283 16.5247 109.388 17.8387 108.545 20.06V25.2847H104.727V13.1767H108.545V16.6575Z" fill="#009E4D"/>
<path d="M74.3065 8.09509C74.6647 9.0361 74.0199 10.3486 72.8712 11.024C71.718 11.6987 70.4992 11.4846 70.144 10.5436C69.7819 9.60102 70.4237 8.28698 71.5754 7.61538C72.7256 6.93687 73.9452 7.15178 74.3065 8.09509Z" fill="#009E4D"/>
</g>
<path d="M40.6521 17.5925C40.6521 14.3105 38.4133 12.9665 36.2038 12.9665C34.7016 12.9665 33.4666 13.5982 32.3619 14.9913H32.3095V7.41102H28.4922V25.2656H32.3095V17.5925C33.2024 16.3053 33.9651 15.755 34.8595 15.755C36.0467 15.755 36.8356 16.5962 36.8356 18.4053V22.6598C38.116 22.0043 39.4172 21.6021 40.6521 21.4525V17.5925Z" fill="#009E4D"/>
<path d="M50.2295 12.9627C48.6749 12.9627 47.4877 13.5384 46.2728 14.923V13.1899H42.457V21.4203C43.779 21.5515 45.4654 22.1556 46.2728 23.1534V17.4974C47.2759 15.9976 47.9877 15.4979 48.9368 15.4979C50.0177 15.4979 50.8389 16.2087 50.8389 17.9165V25.2695H54.6555V17.6018C54.6555 14.035 52.127 12.9627 50.2295 12.9627Z" fill="#009E4D"/>
<path d="M56.7611 28.7468H52.3267V31.8861H56.6047V33.2331H52.3267V36.4714H56.8936V37.8169H50.8398V27.4029H56.7611V28.7468Z" fill="#009E4D"/>
<path d="M60.3828 37.8232H61.7411V27.4H60.3828V37.8232Z" fill="#009E4D"/>
<path d="M68.4661 31.9855C69.4291 31.9855 70.0261 32.6464 70.0708 33.6849H66.6117C66.7989 32.6003 67.4253 31.9855 68.4661 31.9855ZM66.5871 34.5883H71.4259C71.4259 32.0469 70.2603 30.8204 68.4352 30.8204C66.5416 30.8204 65.2266 32.215 65.2266 34.2951C65.2266 36.1963 66.4145 37.9517 68.5531 37.9517C69.7187 37.9517 70.4722 37.6938 71.3065 37.1419V35.8248C70.5007 36.3506 69.7187 36.6537 68.896 36.6537C67.5801 36.6537 66.7989 35.9507 66.5871 34.5883Z" fill="#009E4D"/>
<path d="M80.296 32.7546C79.5149 32.2219 78.9933 32.0654 78.3985 32.0654C77.1551 32.0654 76.2938 33.0156 76.2938 34.4071C76.2938 35.8248 77.2106 36.6791 78.6258 36.6791C79.2082 36.6791 79.7629 36.5286 80.4478 36.2232V37.5579C79.9902 37.7728 79.1181 37.9517 78.3985 37.9517C76.3416 37.9517 74.9141 36.5425 74.9141 34.5284C74.9141 32.2557 76.2183 30.8204 78.3053 30.8204C79.1027 30.8204 79.6389 31.0054 80.296 31.2932V32.7546Z" fill="#009E4D"/>
<path d="M86.4852 30.9517H88.6653V32.1713H86.4852V35.6958C86.4852 36.5025 87.0714 36.7359 87.4674 36.7359C87.9589 36.7359 88.4658 36.5647 89.0159 36.2262V37.4957C88.539 37.7575 87.8071 37.9517 87.3588 37.9517C85.8796 37.9517 85.1316 37.0367 85.1316 35.7979V32.1713H83.9336V32.0201L86.4852 29.5325V30.9517Z" fill="#009E4D"/>
<path d="M93.8606 30.9514V32.541H93.8883C94.5809 31.3244 95.2396 30.8202 95.8805 30.8202C96.4337 30.8202 96.9514 31.0788 97.5207 31.6153L96.8012 32.8081C96.3875 32.4005 95.8528 32.1196 95.53 32.1196C94.5947 32.1196 93.8606 33.0668 93.8606 34.2403V37.8232H92.5039V30.9514H93.8606Z" fill="#009E4D"/>
<path d="M111.439 32.7546C110.654 32.2219 110.133 32.0654 109.534 32.0654C108.294 32.0654 107.44 33.0156 107.44 34.4071C107.44 35.8248 108.357 36.6791 109.764 36.6791C110.347 36.6791 110.899 36.5286 111.593 36.2232V37.5579C111.125 37.7728 110.252 37.9517 109.534 37.9517C107.481 37.9517 106.047 36.5425 106.047 34.5284C106.047 32.2557 107.357 30.8204 109.444 30.8204C110.243 30.8204 110.774 31.0054 111.439 31.2932V32.7546Z" fill="#009E4D"/>
<path d="M101.121 37.8232H102.479V30.9516H101.121V37.8232Z" fill="#009E4D"/>
<mask id="mask1_1253_25152" style="mask-type:luminance" maskUnits="userSpaceOnUse" x="1" y="7" width="114" height="34">
<path d="M1.13281 7.18785V40.6758H114.994V7.18785" fill="white"/>
</mask>
<g mask="url(#mask1_1253_25152)">
<path d="M102.524 28.4829C102.657 28.8144 102.425 29.2834 102.016 29.5221C101.605 29.7616 101.17 29.6848 101.046 29.3525C100.922 29.0171 101.147 28.552 101.56 28.3125C101.967 28.0699 102.4 28.1475 102.524 28.4829Z" fill="#009E4D"/>
<path d="M41.7282 29.0389C41.4886 29.0389 41.3877 29.078 41.2898 29.187C41.2513 29.2292 41.2359 29.2722 41.222 29.3582L40.004 33.9604C39.7182 35.5745 37.7283 37.1864 35.1344 37.1864H31.5281L32.1537 34.8215H34.4703C34.7068 34.8215 34.8917 34.7341 35.0465 34.5621C35.1035 34.4953 35.1775 34.391 35.1875 34.2835L36.149 30.2623C36.4325 28.6474 38.1451 26.8637 40.7382 26.8637H44.4315L43.9592 29.0389H41.7282ZM42.5602 31.8435L42.9724 30.3544H46.7242C47.1872 28.1953 46.8228 26.1951 45.5077 24.8849C42.846 22.2331 37.2776 23.1342 33.129 27.0885C32.4811 27.7026 31.9341 28.3665 31.4357 29.045H33.6945L33.1691 30.5371H30.4704C30.2123 31.0076 29.9704 31.4743 29.7855 31.9479H32.9857L32.4734 33.44H29.3287C28.7909 35.7196 29.1337 37.8457 30.4866 39.1958C33.1151 41.8139 38.6666 40.8936 42.8129 36.94C43.5386 36.2523 44.138 35.51 44.6796 34.7479H41.7775L42.2197 33.2588H45.6125C45.8613 32.7853 46.0901 32.3171 46.2689 31.8435H42.5602Z" fill="#009E4D"/>
</g>
</svg>
