<svg width="150" height="48" viewBox="0 0 150 48" fill="none" xmlns="http://www.w3.org/2000/svg">
<g clip-path="url(#clip0_1253_24676)">
<path d="M79.8646 25.272C79.8646 25.3603 79.8646 25.4486 79.8646 25.5281V33.063C79.8646 33.2396 79.7233 33.381 79.5466 33.381H71.9941C71.9235 33.381 71.8528 33.381 71.791 33.381C71.7115 33.381 71.632 33.381 71.5613 33.3721C71.4995 33.3721 71.4553 33.3721 71.4111 33.3633C71.3228 33.3633 71.2433 33.3545 71.1638 33.3456C71.0931 33.3456 71.0225 33.328 70.943 33.3191C70.8811 33.3191 70.8281 33.3015 70.7751 33.2926C70.7751 33.2926 70.7575 33.2926 70.7486 33.2926C70.7045 33.2926 70.6691 33.2838 70.6338 33.275H70.6073C70.5455 33.2661 70.4836 33.2573 70.4218 33.2396C70.3335 33.222 70.2451 33.2043 70.1656 33.1778C69.9801 33.1336 69.8211 33.0895 69.671 33.0365C69.6091 33.0188 69.565 33.0011 69.512 32.9835L69.4236 32.957C69.3706 32.9393 69.3176 32.9128 69.2646 32.8951C69.2205 32.8775 69.1763 32.8598 69.141 32.851C69.141 32.851 69.1233 32.851 69.1145 32.8421C69.0173 32.8068 68.9113 32.7626 68.7876 32.7008C68.7523 32.6831 68.7258 32.6743 68.6993 32.6566C68.6198 32.6213 68.558 32.586 68.4873 32.5506C68.4078 32.5065 68.3283 32.4711 68.2576 32.4358C68.1781 32.3916 68.1075 32.3563 68.0368 32.3121C67.9661 32.268 67.8955 32.2238 67.8248 32.1796C67.7453 32.1355 67.6835 32.0825 67.6128 32.0383C67.551 31.9941 67.498 31.9588 67.445 31.9235C67.3036 31.8175 67.1623 31.7115 67.0298 31.6055C66.9768 31.5613 66.9326 31.526 66.8885 31.4818C66.7471 31.3581 66.6058 31.2345 66.4733 31.0931C66.4291 31.049 66.3938 31.0048 66.3496 30.9695C66.2966 30.9165 66.2525 30.8723 66.2171 30.8281C66.12 30.731 66.0405 30.625 65.961 30.5366L65.8991 30.466C65.8638 30.4218 65.8196 30.3688 65.7931 30.3246C65.7931 30.3246 65.696 30.201 65.6871 30.1833C65.6695 30.1568 65.643 30.1215 65.6165 30.0861C65.4398 29.8388 65.272 29.565 65.113 29.2823L65.0246 29.1145C64.9981 29.0615 64.9716 28.9996 64.9451 28.9466C64.9186 28.8936 64.8921 28.8318 64.8656 28.7788L64.8391 28.7081C64.8391 28.7081 64.8126 28.6375 64.795 28.611C64.7685 28.5491 64.742 28.4873 64.7243 28.4343C64.6978 28.3725 64.6713 28.3106 64.6536 28.2488L64.583 28.0545C64.5476 27.9573 64.5211 27.8601 64.4858 27.763V27.7276C64.4858 27.7276 64.4681 27.71 64.4681 27.7011C64.4681 27.7011 64.4681 27.6835 64.4681 27.6746C64.4416 27.5686 64.4063 27.4626 64.3886 27.3566C64.3533 27.2241 64.3268 27.074 64.3003 26.9326V26.915C64.3003 26.8973 64.3003 26.8708 64.2915 26.8531C64.2738 26.756 64.265 26.6765 64.2561 26.597V26.5705C64.2473 26.5175 64.2385 26.4733 64.2296 26.4203C64.2296 26.4203 64.2296 26.4115 64.2296 26.4026C64.2296 26.385 64.2296 26.3673 64.2296 26.3496C64.2296 26.279 64.2208 26.226 64.212 26.1641C64.212 26.1641 64.212 26.1553 64.212 26.1465C64.212 26.1111 64.212 26.067 64.212 26.0228V26.0051C64.212 25.9521 64.212 25.8991 64.2031 25.8461V25.7843C64.2031 25.696 64.2031 25.6076 64.2031 25.5281C64.2031 21.1998 67.7276 17.6753 72.056 17.6753C72.1266 17.6753 72.1973 17.6753 72.2768 17.6753C72.2768 17.6753 72.3651 17.6753 72.3828 17.6753C72.427 17.6753 72.4711 17.6753 72.5241 17.6753H72.5418C72.586 17.6753 72.6213 17.6753 72.6655 17.6753C72.6655 17.6753 72.6743 17.6753 72.6831 17.6753C72.7361 17.6753 72.7891 17.6753 72.8421 17.693H72.8598C72.8598 17.693 72.8951 17.693 72.9128 17.693H72.9305C72.9923 17.693 73.0541 17.7018 73.1071 17.7106C73.1866 17.7195 73.2661 17.7371 73.3456 17.746C73.381 17.746 73.3986 17.7548 73.4251 17.7548H73.4428C73.5841 17.7813 73.7343 17.8078 73.8756 17.8431C73.9463 17.8608 74.0258 17.8785 74.0965 17.905C74.1848 17.9315 74.2643 17.9491 74.3438 17.9756C74.4233 18.0021 74.5028 18.0286 74.5823 18.0551C74.7413 18.1081 74.9091 18.17 75.077 18.2406L75.1211 18.2583C75.1211 18.2583 75.1741 18.2848 75.2006 18.2936C75.2006 18.2936 75.2095 18.2936 75.2183 18.2936C75.236 18.2936 75.2536 18.3113 75.2713 18.3201C75.2713 18.3201 75.2801 18.3201 75.289 18.3201C75.342 18.3466 75.395 18.3731 75.4568 18.3996H75.4745C75.5275 18.435 75.5716 18.4526 75.6246 18.4791C75.7306 18.5321 75.8278 18.5851 75.925 18.6381C76.0221 18.6911 76.1105 18.7441 76.2076 18.7971C76.2076 18.7971 76.2076 18.7971 76.2165 18.7971C76.3136 18.859 76.402 18.912 76.4903 18.9738C76.5875 19.0356 76.6758 19.0975 76.7553 19.1681L76.9055 19.2741C76.9055 19.2741 76.9143 19.283 76.9231 19.283C76.932 19.2918 76.9408 19.2918 76.9496 19.3095C76.985 19.336 77.0203 19.3625 77.0468 19.389C77.0468 19.389 77.0468 19.389 77.0556 19.3978C77.0998 19.4331 77.1528 19.4773 77.197 19.5126C77.25 19.5568 77.2941 19.5921 77.3383 19.6363C77.3913 19.6805 77.4355 19.7246 77.4796 19.7688C77.5326 19.813 77.568 19.8571 77.6121 19.8925C77.6651 19.9455 77.7093 19.9896 77.7535 20.0338C77.7976 20.078 77.833 20.1221 77.8771 20.1663C77.9213 20.2193 77.9655 20.2635 78.0096 20.3165C78.0538 20.3606 78.0891 20.4048 78.1245 20.4578C78.1686 20.502 78.1951 20.5461 78.2305 20.5815C78.3011 20.6786 78.3718 20.7581 78.4336 20.8553C78.4336 20.8553 78.4425 20.873 78.4601 20.8906C78.5131 20.9701 78.575 21.0496 78.6191 21.1291C78.681 21.2175 78.7428 21.3146 78.7958 21.4118C78.8576 21.5178 78.9106 21.615 78.9636 21.7121L79.052 21.88C79.0785 21.933 79.105 21.986 79.1315 22.039C79.158 22.1008 79.1933 22.1626 79.211 22.2156L79.2375 22.2863C79.2375 22.2863 79.264 22.357 79.2816 22.3923C79.3081 22.4541 79.3346 22.516 79.3523 22.569C79.3788 22.6308 79.3965 22.6926 79.423 22.7545L79.4936 22.9488C79.529 23.046 79.5555 23.1431 79.582 23.2403V23.2756C79.582 23.2756 79.5996 23.2933 79.5996 23.3021C79.5996 23.3021 79.5996 23.3198 79.5996 23.3286C79.6261 23.4346 79.6526 23.5406 79.6791 23.6466C79.7145 23.7791 79.741 23.9293 79.7675 24.0706V24.0883C79.7675 24.106 79.7675 24.1325 79.7763 24.1501C79.794 24.2473 79.8028 24.3268 79.8116 24.4063V24.4328C79.8205 24.4858 79.8293 24.53 79.8381 24.583C79.8381 24.583 79.8381 24.5918 79.8381 24.6006C79.8381 24.6183 79.8381 24.636 79.8381 24.6536C79.8381 24.7243 79.847 24.7773 79.8558 24.8391C79.8558 24.8391 79.8558 24.848 79.8558 24.8568C79.8558 24.901 79.8558 24.9363 79.8558 24.9805C79.8558 24.9805 79.8558 24.9981 79.8558 25.007C79.8558 25.06 79.8558 25.1041 79.8646 25.1571V25.219V25.272ZM72.0118 29.936H75.6953C75.6953 29.936 75.7218 29.936 75.7306 29.936H76.4196V27.0121V25.5281C76.4196 23.099 74.441 21.1203 72.0118 21.1203C69.5826 21.1203 67.604 23.099 67.604 25.5281C67.604 27.9573 69.5826 29.936 72.0118 29.936Z" fill="white"/>
<path d="M54.1755 17.6846C54.0783 17.6846 53.9723 17.6846 53.8751 17.6846C52.5501 17.7376 51.3046 18.1174 50.227 18.7534C50.1475 18.7976 50.0768 18.8506 49.9973 18.8947C49.9178 18.9477 49.8383 19.0007 49.7588 19.0537C49.6793 19.1067 49.591 19.1686 49.5115 19.2304C49.326 19.3717 49.1405 19.5131 48.9726 19.6721C48.9373 19.7074 48.902 19.7427 48.8578 19.7692C48.7783 19.8399 48.7076 19.9106 48.6281 19.9812C48.5133 20.0961 48.4073 20.2109 48.3013 20.3257C48.2395 20.3964 48.1776 20.4671 48.1246 20.5377C48.0451 20.6349 47.9656 20.7321 47.8861 20.8292C47.8155 20.9264 47.736 21.0324 47.6653 21.1384C47.6123 21.2179 47.5593 21.2974 47.5151 21.3769C47.4621 21.4564 47.418 21.5359 47.365 21.6242C47.3208 21.6949 47.2855 21.7656 47.2413 21.8451C46.6053 23.0376 46.2696 24.4244 46.3315 25.8907C46.5081 29.8922 49.7588 33.1606 53.7603 33.3637C56.9756 33.5227 59.7846 31.7561 61.145 29.1149C61.1891 29.0266 61.2333 28.9382 61.2775 28.8499C61.3746 28.6379 61.2156 28.3994 60.986 28.3994H57.6646C57.5763 28.3994 57.488 28.4347 57.4261 28.5054C57.3555 28.5849 57.2848 28.6556 57.2053 28.7262C57.1788 28.7439 57.1611 28.7704 57.1346 28.7969C57.1081 28.8146 57.0905 28.8411 57.064 28.8587C57.0198 28.8941 56.9845 28.9294 56.9403 28.9559C56.905 28.9824 56.8696 29.0177 56.8255 29.0442C56.799 29.0707 56.7636 29.0884 56.7283 29.1149C56.7106 29.1237 56.7018 29.1326 56.6841 29.1414C56.6135 29.1944 56.534 29.2386 56.4633 29.2916C56.4103 29.3269 56.3573 29.3622 56.2955 29.3887C56.2601 29.4064 56.2336 29.4241 56.1983 29.4417C56.163 29.4594 56.1365 29.4771 56.1011 29.4859C56.0746 29.5036 56.0481 29.5124 56.0128 29.5301C55.9863 29.5389 55.9598 29.5477 55.9421 29.5654C55.8891 29.5919 55.8361 29.6184 55.7831 29.6361C55.7655 29.6449 55.739 29.6537 55.7213 29.6626C55.7036 29.6714 55.6771 29.6802 55.6595 29.6802C55.6418 29.6802 55.6153 29.6979 55.5976 29.7067C55.5976 29.7067 55.5888 29.7067 55.58 29.7067C55.5623 29.7067 55.5358 29.7244 55.5181 29.7244C55.5093 29.7244 55.5005 29.7244 55.4916 29.7332C55.4916 29.7332 55.4298 29.7509 55.4033 29.7597C55.368 29.7686 55.3415 29.7774 55.3061 29.7862C55.2708 29.7862 55.2355 29.8039 55.209 29.8127H55.1913C55.1295 29.8304 55.0676 29.8392 55.0058 29.8569C54.944 29.8657 54.891 29.8746 54.8291 29.8834C54.8203 29.8834 54.8115 29.8834 54.8026 29.8834C54.7673 29.8834 54.732 29.8922 54.6966 29.9011C54.6613 29.9011 54.626 29.9011 54.5906 29.9099C54.5288 29.9187 54.467 29.9276 54.3963 29.9276H54.3875C54.3168 29.9276 54.2461 29.9276 54.1755 29.9276C54.1136 29.9276 54.0606 29.9276 54.0076 29.9276C53.99 29.9276 53.9723 29.9276 53.9546 29.9276C53.9281 29.9276 53.9016 29.9276 53.884 29.9276C53.8751 29.9276 53.8575 29.9276 53.8486 29.9276H53.831C53.8133 29.9276 53.8045 29.9276 53.7868 29.9276C53.7426 29.9276 53.6985 29.9187 53.6543 29.9099C53.566 29.9099 53.4776 29.8922 53.3893 29.8657C53.3628 29.8657 53.3363 29.8657 53.301 29.8481C53.2745 29.8481 53.248 29.8392 53.2215 29.8304C53.2215 29.8304 53.2215 29.8304 53.2126 29.8304C53.1861 29.8304 53.1596 29.8216 53.1331 29.8127C53.1155 29.8127 53.0978 29.8127 53.0801 29.7951C53.0536 29.7951 53.0271 29.7862 53.0006 29.7774C52.983 29.7774 52.9653 29.7774 52.9565 29.7597C52.9123 29.7509 52.877 29.7421 52.8416 29.7244C52.8416 29.7244 52.7798 29.7067 52.7445 29.6891C52.7268 29.6891 52.718 29.6802 52.7003 29.6714C52.6826 29.6626 52.665 29.6626 52.6561 29.6537C52.6473 29.6537 52.6385 29.6537 52.6208 29.6449C52.5855 29.6272 52.5501 29.6184 52.5236 29.6007C52.4706 29.5831 52.4265 29.5566 52.3735 29.5301C52.3558 29.5301 52.3293 29.5124 52.3116 29.5036C52.294 29.5036 52.2763 29.4859 52.2586 29.4771C52.2586 29.4771 52.2586 29.4771 52.241 29.4771C52.1968 29.4594 52.1615 29.4329 52.1173 29.4152C52.0996 29.4152 52.0908 29.4064 52.082 29.3976C52.0378 29.3799 51.9936 29.3534 51.9583 29.3269C51.9318 29.3092 51.9053 29.2916 51.8788 29.2827C51.8258 29.2474 51.764 29.2121 51.711 29.1767C51.658 29.1414 51.605 29.1061 51.552 29.0619C51.5255 29.0442 51.499 29.0177 51.4725 29.0001C51.446 28.9824 51.4195 28.9559 51.393 28.9382C51.3665 28.9117 51.34 28.8941 51.3135 28.8676L51.2958 28.8499C51.2958 28.8499 51.287 28.8411 51.2781 28.8322C51.234 28.7969 51.1986 28.7616 51.1633 28.7262C51.1368 28.7086 51.1103 28.6821 51.0926 28.6556C51.0573 28.6202 51.022 28.5849 50.9778 28.5407C50.9778 28.5407 50.9601 28.5319 50.9601 28.5231C50.9071 28.4701 50.8541 28.4082 50.8011 28.3464C50.7835 28.3287 50.7658 28.3022 50.7481 28.2757C50.7305 28.2581 50.7128 28.2316 50.6951 28.2051C50.6598 28.1609 50.6245 28.1256 50.598 28.0814C50.5626 28.0372 50.5361 27.9931 50.5096 27.9489C50.4125 27.7987 50.3241 27.6486 50.2446 27.4896C50.227 27.4631 50.2181 27.4366 50.2005 27.4012C50.1651 27.3217 50.1298 27.2422 50.0945 27.1627C50.0768 27.1186 50.0591 27.0832 50.0503 27.0391C50.0326 26.9949 50.0238 26.9596 50.0061 26.9154C49.9885 26.8447 49.962 26.7741 49.9443 26.7122C49.9266 26.6416 49.909 26.5709 49.8913 26.5002H61.6926C61.834 26.5002 61.9488 26.4119 61.993 26.2882C62.0018 26.2617 62.0106 26.2352 62.0106 26.1999C62.0283 25.9879 62.0371 25.7671 62.0371 25.5374C62.0371 21.2091 58.5126 17.6846 54.1843 17.6846H54.1755ZM49.8736 24.5834C49.8913 24.5127 49.909 24.4421 49.9266 24.3714C49.9443 24.3007 49.9708 24.2301 49.9885 24.1682C49.9885 24.1506 49.9973 24.1329 50.0061 24.1152C50.0238 24.0711 50.0326 24.0357 50.0503 23.9916C50.0945 23.8767 50.1386 23.7707 50.1916 23.6647C50.2093 23.6294 50.227 23.5941 50.2446 23.5587C50.2623 23.5146 50.2888 23.4616 50.3153 23.4174C50.3418 23.3732 50.3683 23.3291 50.386 23.2849C50.386 23.2761 50.4036 23.2672 50.4036 23.2496C50.439 23.1877 50.4743 23.1259 50.5185 23.0729C50.5538 23.0111 50.598 22.9581 50.6421 22.8962C50.6863 22.8344 50.7305 22.7814 50.7746 22.7284C50.8188 22.6754 50.8718 22.6224 50.916 22.5694C50.9601 22.5164 51.0131 22.4634 51.0661 22.4192C51.1191 22.3662 51.1633 22.3221 51.2163 22.2691C51.3223 22.1719 51.4283 22.0836 51.5431 22.0041C51.5873 21.9687 51.6315 21.9422 51.6756 21.9069C51.6933 21.9069 51.7021 21.8892 51.711 21.8804C51.7728 21.8362 51.8346 21.8009 51.8876 21.7656C51.9495 21.7214 52.0113 21.6949 52.0731 21.6596C52.135 21.6242 52.1968 21.5889 52.2586 21.5624C52.3205 21.5359 52.3911 21.5006 52.453 21.4741C52.5148 21.4476 52.5855 21.4211 52.6561 21.3946C52.7268 21.3681 52.7886 21.3504 52.8593 21.3239C52.9476 21.2974 53.0271 21.2709 53.1155 21.2532C53.1508 21.2532 53.1773 21.2356 53.2126 21.2267C53.2303 21.2267 53.2568 21.2179 53.2833 21.2091C53.2833 21.2091 53.301 21.2091 53.3098 21.2091C53.3716 21.1914 53.4335 21.1826 53.5041 21.1737C53.5571 21.1737 53.619 21.1561 53.672 21.1472C53.7073 21.1472 53.7426 21.1472 53.778 21.1472C53.831 21.1472 53.8928 21.1384 53.9458 21.1296C54.0165 21.1296 54.096 21.1296 54.1755 21.1296C54.255 21.1296 54.3256 21.1296 54.4051 21.1296C54.4581 21.1296 54.52 21.1296 54.573 21.1472C54.6083 21.1472 54.6436 21.1472 54.679 21.1472C54.732 21.1472 54.785 21.1649 54.8468 21.1737C54.9175 21.1826 54.997 21.2002 55.0676 21.2091C55.1383 21.2267 55.209 21.2444 55.2708 21.2532C55.5535 21.3239 55.8273 21.4299 56.0835 21.5536C56.1541 21.5801 56.216 21.6154 56.2778 21.6507C56.3396 21.6861 56.4015 21.7214 56.4633 21.7567C56.5251 21.7921 56.587 21.8274 56.64 21.8716C56.6576 21.8716 56.6665 21.8892 56.6753 21.8981C56.7195 21.9334 56.7636 21.9599 56.8078 21.9952C56.8608 22.0394 56.9226 22.0836 56.9756 22.1277C57.0286 22.1719 57.0816 22.2161 57.1346 22.2602C57.1788 22.3044 57.223 22.3397 57.2583 22.3839C57.3113 22.4281 57.3555 22.4811 57.4085 22.5341C57.4615 22.5959 57.5145 22.6577 57.5675 22.7107C57.6205 22.7814 57.6735 22.8432 57.7265 22.9139C57.753 22.9492 57.7795 22.9934 57.806 23.0287C57.9561 23.2496 58.0886 23.4792 58.1946 23.7266C58.23 23.7972 58.2565 23.8679 58.283 23.9386C58.336 24.0799 58.3801 24.2212 58.4155 24.3626C58.4331 24.4244 58.4508 24.4951 58.4596 24.5569H49.856L49.8736 24.5834Z" fill="white"/>
<path d="M136.485 33.381H133.225C133.119 33.381 133.022 33.328 132.96 33.2485L129.347 28.1693L125.734 33.2485C125.673 33.3368 125.575 33.381 125.469 33.381H122.21C121.954 33.381 121.795 33.0895 121.945 32.8775L127.316 25.3161L122.245 18.1788C122.095 17.9668 122.245 17.6753 122.51 17.6753H125.77C125.876 17.6753 125.973 17.7283 126.035 17.8078L129.347 22.4718L132.66 17.8078C132.722 17.7195 132.819 17.6753 132.925 17.6753H136.184C136.44 17.6753 136.599 17.9668 136.449 18.1788L131.379 25.3161L136.75 32.8775C136.9 33.0895 136.75 33.381 136.485 33.381Z" fill="white"/>
<path d="M46.8246 14.9454V17.7721C46.8246 17.9488 46.6833 18.0901 46.5066 18.0901H41.3038V33.0626C41.3038 33.2393 41.1625 33.3806 40.9858 33.3806H38.1591C37.9825 33.3806 37.8411 33.2393 37.8411 33.0626V18.0901H32.6383C32.4616 18.0901 32.3203 17.9488 32.3203 17.7721V14.9454C32.3203 14.7688 32.4616 14.6274 32.6383 14.6274H46.5155C46.6921 14.6274 46.8335 14.7688 46.8335 14.9454H46.8246Z" fill="white"/>
<path d="M111.55 18.0906V22.2688H118.431C118.607 22.2688 118.749 22.4101 118.749 22.5868V25.4135C118.749 25.5901 118.607 25.7315 118.431 25.7315H111.55V29.9008H120.136C120.312 29.9008 120.454 30.0421 120.454 30.2188V33.0455C120.454 33.2221 120.312 33.3635 120.136 33.3635H108.396C108.219 33.3635 108.078 33.2221 108.078 33.0455V14.9371C108.078 14.7605 108.219 14.6191 108.396 14.6191H120.136C120.312 14.6191 120.454 14.7605 120.454 14.9371V17.7638C120.454 17.9405 120.312 18.0818 120.136 18.0818H111.55V18.0906Z" fill="white"/>
<path d="M105.62 24.3622V33.381H102.148V24.3622C102.148 22.5778 100.708 21.138 98.9241 21.138C97.1398 21.138 95.6999 22.5778 95.6999 24.3622V33.381H92.2284V24.3622C92.2284 22.5778 90.7886 21.138 89.0043 21.138C87.2199 21.138 85.7801 22.5778 85.7801 24.3622V33.381H82.3086V24.3622C82.3086 20.6698 85.3031 17.6665 88.9954 17.6665C90.9653 17.6665 92.7319 18.5145 93.9509 19.866C95.1699 18.5145 96.9454 17.6665 98.9064 17.6665C102.599 17.6665 105.602 20.661 105.602 24.3622H105.62Z" fill="white"/>
<path d="M7.19745 28.4784L10.8191 24.8567C11.2873 24.3886 11.2873 23.6377 10.8191 23.1696L4.07928 16.4297C3.61111 15.9616 2.86028 15.9616 2.39211 16.4297L0.448781 18.3642C-0.0193854 18.8324 -0.0193854 19.5832 0.448781 20.0514L6.01378 25.6164C6.79995 26.4026 7.19745 27.4361 7.19745 28.4784Z" fill="#3201B4"/>
<path d="M0.8745 30.5903C2.0405 31.7563 3.922 31.7563 5.088 30.5903L5.17633 30.502C6.28933 29.389 6.28933 27.5693 5.17633 26.4563L2.98567 24.2656L0.8745 26.3768C-0.2915 27.5428 -0.2915 29.4243 0.8745 30.5903Z" fill="#5730E5"/>
<path d="M19.2931 19.5474L15.6714 23.1691C15.2033 23.6372 15.2033 24.3881 15.6714 24.8562L22.4113 31.5961C22.8794 32.0642 23.6303 32.0642 24.0984 31.5961L26.0418 29.6527C26.5099 29.1846 26.5099 28.4337 26.0418 27.9656L20.4768 22.4006C19.6906 21.6144 19.2931 20.5809 19.2931 19.5386V19.5474Z" fill="#3201B4"/>
<path d="M25.621 17.4282C24.455 16.2622 22.5735 16.2622 21.4075 17.4282L21.3191 17.5165C20.2061 18.6295 20.2061 20.4492 21.3191 21.5622L23.5098 23.7529L25.621 21.6417C26.787 20.4757 26.787 18.5942 25.621 17.4282Z" fill="#5730E5"/>
<path d="M17.7123 30.0509L14.0906 26.4292C13.6225 25.9611 12.8716 25.9611 12.4035 26.4292L5.66362 33.1691C5.19546 33.6372 5.19546 34.3881 5.66362 34.8563L7.60696 36.7996C8.07512 37.2677 8.82596 37.2677 9.29413 36.7996L14.8591 31.2346C15.6453 30.4484 16.6788 30.0509 17.7211 30.0509H17.7123Z" fill="#3201B4"/>
<path d="M19.8325 36.3754C20.9985 35.2094 20.9985 33.3279 19.8325 32.1619L19.7441 32.0735C18.6311 30.9605 16.8115 30.9605 15.6985 32.0735L13.5078 34.2642L15.619 36.3754C16.785 37.5414 18.6665 37.5414 19.8325 36.3754Z" fill="#5730E5"/>
<path d="M8.78618 17.9489L12.4078 21.5706C12.876 22.0387 13.6268 22.0387 14.095 21.5706L20.8348 14.8307C21.303 14.3626 21.303 13.6117 20.8348 13.1436L18.8915 11.2002C18.4233 10.7321 17.6725 10.7321 17.2043 11.2002L11.6393 16.7652C10.8532 17.5514 9.81968 17.9489 8.77734 17.9489H8.78618Z" fill="#3201B4"/>
<path d="M6.66747 11.6245C5.50147 12.7905 5.50147 14.672 6.66747 15.838L6.7558 15.9263C7.8688 17.0393 9.68847 17.0393 10.8015 15.9263L12.9921 13.7357L10.881 11.6245C9.71497 10.4585 7.83347 10.4585 6.66747 11.6245Z" fill="#5730E5"/>
</g>
<defs>
<clipPath id="clip0_1253_24676">
<rect width="136.802" height="26.5" fill="white" transform="translate(0 10.75)"/>
</clipPath>
</defs>
</svg>
