<svg width="150" height="48" viewBox="0 0 150 48" fill="none" xmlns="http://www.w3.org/2000/svg">
<g clip-path="url(#clip0_1253_24923)">
<path d="M5.09938 18.9058C3.7358 18.9384 2.43907 19.5031 1.48623 20.4791C0.53339 21.4551 0 22.7649 0 24.1289C0 25.4929 0.53339 26.8027 1.48623 27.7787C2.43907 28.7547 3.7358 29.3193 5.09938 29.352H10.306V24.1454V24.1273C10.3076 22.7447 9.76004 21.4178 8.7837 20.4387C7.80735 19.4595 6.48214 18.9081 5.09938 18.9058Z" fill="#7374FC"/>
<path d="M34.2088 18.9053C33.5234 18.9061 32.845 19.0419 32.2121 19.3049C31.5792 19.5679 31.0044 19.9529 30.5204 20.4381C30.0363 20.9232 29.6526 21.499 29.3911 22.1324C29.1295 22.7659 28.9953 23.4446 28.9961 24.1299C28.9961 24.1299 28.9961 24.1299 28.9961 24.148V29.3546H34.2027C35.5663 29.3219 36.863 28.7573 37.8159 27.7813C38.7688 26.8053 39.3021 25.4955 39.3021 24.1315C39.3021 22.7675 38.7688 21.4576 37.8159 20.4817C36.863 19.5057 35.5663 18.941 34.2027 18.9083L34.2088 18.9053Z" fill="#F3AE4A"/>
<path d="M19.6961 16.0288H19.612C18.9323 16.0292 18.2594 16.1635 17.6317 16.4241C17.004 16.6846 16.4337 17.0663 15.9535 17.5473C15.4733 18.0283 15.0927 18.5992 14.8332 19.2274C14.5738 19.8556 14.4406 20.5287 14.4414 21.2084V27.049C14.4406 27.7286 14.5738 28.4018 14.8332 29.0299C15.0927 29.6581 15.4733 30.229 15.9535 30.7101C16.4337 31.1911 17.004 31.5728 17.6317 31.8333C18.2594 32.0938 18.9323 32.2282 19.612 32.2286H19.6961C20.3765 32.2294 21.0504 32.0959 21.6791 31.8359C22.308 31.5759 22.8792 31.1944 23.3604 30.7133C23.8415 30.2321 24.223 29.6608 24.4831 29.032C24.743 28.4033 24.8765 27.7294 24.8757 27.049V21.2084C24.8765 20.528 24.743 19.8541 24.4831 19.2253C24.223 18.5966 23.8415 18.0252 23.3604 17.5441C22.8792 17.063 22.308 16.6815 21.6791 16.4215C21.0504 16.1615 20.3765 16.028 19.6961 16.0288Z" fill="#CD8DFF"/>
<path d="M52.4004 20.0192V25.8687C52.4004 27.2898 52.4996 28.2723 54.119 28.2723C54.6607 28.26 55.1966 28.1585 55.7053 27.9718L55.9696 32.1028C54.7484 32.4488 53.4864 32.6306 52.2171 32.6437C47.987 32.6437 47.0947 30.0659 47.0947 26.3344V20.0252H44.7812V16.0203H47.0947V11.5918H52.4155V16.0203H56.0207V20.0192H52.4004Z" fill="white"/>
<path d="M68.9929 20.8469H68.7615C68.162 20.5677 67.5058 20.4319 66.8447 20.4503C64.2339 20.4503 63.5729 22.8959 63.5729 25.044V32.2817H58.2852V15.9948H63.5729L63.5399 18.3082H63.606C64.5313 16.5235 65.8863 15.6973 67.6379 15.6973C68.2042 15.6731 68.7687 15.7757 69.2903 15.9978L68.9929 20.8469Z" fill="white"/>
<path d="M81.7783 32.2762L81.7453 30.4254C81.0513 31.4168 79.3418 32.6396 76.9863 32.6396C72.4797 32.6396 71.1367 29.8966 71.1367 25.8317V15.9893H76.4245V25.1106C76.4245 26.9944 76.9533 28.2833 78.8281 28.2833C80.7028 28.2833 81.5711 26.7961 81.5711 24.648V15.9893H86.8588V32.2821L81.7783 32.2762Z" fill="white"/>
<path d="M102.691 32.2785L102.723 30.1304L102.624 30.1634C101.402 31.8158 99.4517 32.6421 97.2703 32.6421C92.5443 32.6421 89.5703 28.9406 89.5703 24.1486C89.5703 19.3566 92.5534 15.6912 97.283 15.6912C100.257 15.6912 101.909 17.1784 102.438 17.9716V9.4751H107.726V32.2785H102.691ZM98.7845 19.8524C96.5041 19.8524 94.9509 21.5708 94.9509 24.0825C94.9509 26.5942 96.5195 28.3097 98.7999 28.3097C101.08 28.3097 102.6 26.5912 102.6 24.0795C102.6 21.5678 101.08 19.8524 98.7999 19.8524H98.7845Z" fill="white"/>
<path d="M120.718 33.8294C119.517 36.7376 118.207 38.5223 115.431 38.5223C113.884 38.5544 112.346 38.285 110.902 37.7291L111.96 33.8234C112.586 34.0569 113.243 34.2015 113.91 34.2531C114.511 34.2531 115.067 34.253 115.496 33.1955L116.097 31.7744L109.641 15.9893H115.16L118.861 26.4656L122.521 15.9893H127.974L120.718 33.8294Z" fill="white"/>
</g>
<defs>
<clipPath id="clip0_1253_24923">
<rect width="128" height="29.0496" fill="white" transform="translate(0 9.4751)"/>
</clipPath>
</defs>
</svg>
