<svg width="150" height="48" viewBox="0 0 150 48" fill="none" xmlns="http://www.w3.org/2000/svg">
<g clip-path="url(#clip0_1253_24442)">
<path d="M52.875 38.4659V8.20215H57.6772V38.4659H52.875Z" fill="white"/>
<path d="M63.4531 38.4659V8.20215H68.2553V38.4659H63.4531Z" fill="white"/>
<path d="M76.9615 29.012C76.9644 29.7288 77.0914 30.4396 77.3367 31.1131C77.5472 31.7568 77.8974 32.3462 78.3621 32.8388C78.8244 33.3478 79.3862 33.7564 80.013 34.0393C80.7007 34.3312 81.4419 34.4761 82.189 34.4645C82.944 34.476 83.6933 34.3311 84.39 34.0393C85.0113 33.7587 85.569 33.3546 86.0291 32.8515C86.4892 32.3484 86.8421 31.7569 87.0661 31.1131C87.3116 30.4396 87.4385 29.7288 87.4413 29.012C87.4427 28.2949 87.3157 27.5834 87.0661 26.9111C86.8381 26.2754 86.49 25.6895 86.0407 25.1853C85.5749 24.6803 85.0139 24.2723 84.39 23.9848C83.6985 23.6878 82.9539 23.5346 82.2014 23.5346C81.4489 23.5346 80.7043 23.6878 80.013 23.9848C79.3789 24.2547 78.8144 24.6653 78.3621 25.1853C77.9181 25.6933 77.5705 26.2782 77.3367 26.9111C77.0828 27.5822 76.9556 28.2945 76.9615 29.012ZM72.0593 29.012C72.0431 27.6635 72.3072 26.3264 72.8346 25.0852C73.3341 23.8809 74.0746 22.7915 75.0106 21.8837C75.9366 20.9707 77.0328 20.2484 78.2372 19.7579C79.492 19.2469 80.834 18.9837 82.189 18.9824C84.1813 18.9543 86.1371 19.5197 87.8074 20.6064C89.4776 21.6932 90.7868 23.2522 91.5682 25.0852C92.0981 26.3257 92.3623 27.6633 92.3435 29.012C92.3624 30.3446 92.0981 31.666 91.5682 32.8888C91.0559 34.0789 90.3168 35.1577 89.3922 36.0652C88.451 36.9594 87.3587 37.6793 86.1658 38.1912C83.6239 39.225 80.7789 39.225 78.2372 38.1912C77.0377 37.6915 75.9431 36.9702 75.0106 36.0652C74.0965 35.149 73.3588 34.0722 72.8346 32.8888C72.3214 31.6609 72.0579 30.3429 72.0593 29.012Z" fill="white"/>
<path d="M117.5 19.4573L112.998 29.1867H112.973L108.446 18.957H107.421L102.869 29.1867H102.843L98.3413 19.4573H93.5391L102.193 38.491H103.244L107.921 29.1867L112.598 38.491H113.624L122.302 19.4573H117.5Z" fill="white"/>
<path d="M23.936 19.4573L19.4339 29.1867H19.4088L14.8818 18.957H13.8563L9.30425 29.1867H9.27924L4.8022 19.4573H0L8.65396 38.491H9.70444L14.3815 29.1867L19.0587 38.491H20.0842L28.7381 19.4573H23.936Z" fill="white"/>
<path d="M34.8435 27.2364H44.2478C44.2141 26.7876 44.1041 26.3477 43.9227 25.9358C43.7103 25.4612 43.4137 25.029 43.0473 24.6602C42.6239 24.2479 42.1221 23.9247 41.5715 23.7098C40.9072 23.4657 40.2033 23.3469 39.4956 23.3597C38.8044 23.3488 38.1172 23.4676 37.4697 23.7098C36.9479 23.9257 36.4724 24.2399 36.0691 24.6352C35.6971 24.9994 35.3997 25.4328 35.1937 25.9108C35.0048 26.3304 34.8865 26.7783 34.8435 27.2364ZM29.9662 28.9122C29.9556 27.5933 30.2021 26.285 30.6916 25.0604C31.1601 23.8964 31.8383 22.8281 32.6925 21.9089C33.5336 21.0048 34.5565 20.2888 35.6939 19.808C36.8903 19.2782 38.1872 19.0137 39.4956 19.0327C40.7654 19.0267 42.0237 19.2732 43.1973 19.758C44.342 20.2181 45.3803 20.9076 46.2487 21.784C47.1259 22.6854 47.8221 23.7467 48.2997 24.9103C48.8201 26.1886 49.0836 27.557 49.075 28.9372V29.6876C49.075 29.8876 49.05 30.2377 49.025 30.738H34.8435C34.967 31.2144 35.1609 31.6695 35.4187 32.0886C35.7185 32.5677 36.0994 32.9908 36.5442 33.3392C37.0398 33.7164 37.5874 34.0197 38.17 34.2396C38.8436 34.4816 39.5553 34.6001 40.271 34.5898C41.1543 34.577 42.0308 34.4337 42.8722 34.1646C43.8138 33.855 44.6762 33.3428 45.3983 32.6639L47.7995 36.2655C46.8401 37.0127 45.7895 37.6347 44.673 38.1164C43.2581 38.7177 41.7331 39.0159 40.1959 38.9918C38.8176 39.0062 37.4497 38.7513 36.1691 38.2415C34.9619 37.7422 33.859 37.021 32.9176 36.1155C31.9628 35.1778 31.2088 34.0556 30.7013 32.8173C30.1939 31.5789 29.9438 30.2503 29.9662 28.9122Z" fill="white"/>
</g>
<defs>
<clipPath id="clip0_1253_24442">
<rect width="122.306" height="31.5957" fill="white" transform="translate(0 8.20215)"/>
</clipPath>
</defs>
</svg>
