<svg width="150" height="48" viewBox="0 0 150 48" fill="none" xmlns="http://www.w3.org/2000/svg">
<g clip-path="url(#clip0_1253_24307)">
<path d="M76.8454 39.9939L64.8447 7.02176L64.8364 7H64.5996L62.1283 13.7757L57.6293 26.1109L57.6188 26.1011C56.0595 24.7281 53.8597 23.8698 51.0892 23.5502L50.2441 23.4632L51.0824 23.3559C55.6513 22.5366 58.7225 19.6571 58.7225 16.1878C58.7225 11.4304 54.2386 8.10966 47.8157 8.10966H34.4519V8.35049H38.3351V32.9331L28.9041 7.02176L28.8959 7H28.659L26.1878 13.7757L16.6561 39.9091L16.5974 39.9159C16.4345 39.9359 16.2734 39.9519 16.114 39.9639C15.8742 39.9826 15.6358 39.9939 15.3967 39.9939H5.76579L24.0729 8.35048L24.209 8.11265H1.81868V17.9014H2.05626C2.09836 13.1335 4.88089 8.35049 11.0286 8.35049H18.4454L0 40.231H24.8495V30.8526H24.6119C24.5796 35.0083 22.2189 38.9555 17.0854 39.8468L16.9222 39.8746L20.8317 29.151H31.7837L35.73 39.9939H31.837V40.231H47.1165V39.9939H43.207V23.638H47.718C52.3086 23.638 54.9415 25.6847 54.9415 29.2515V32.1528C54.9415 32.4724 54.9633 32.9398 54.9874 33.3307V33.345L52.5628 39.9924H49.3953V40.2295H55.952V39.9924H52.8184L55.0265 33.9392C55.031 33.9977 55.0333 34.033 55.0333 34.033L55.0942 34.5784L55.1528 34.9393C55.5212 37.1714 56.3768 38.8122 57.6947 39.8161L57.8842 39.9534C58.8856 40.6481 60.1299 41 61.5847 41C63.5117 41 64.7965 40.5206 65.8574 39.3922L65.7183 39.2616C64.7409 40.1619 63.9207 40.5266 62.8929 40.5266C61.1419 40.5266 60.2254 38.4071 60.2254 36.3168V32.2518C60.2347 31.2432 60.0765 30.24 59.757 29.283L59.7134 29.157V29.1525H67.7242L71.6705 39.9954H67.7776V40.2325H81V39.9954L76.8454 39.9939ZM20.9189 28.9139L26.3141 14.1223L31.6972 28.9139H20.9189ZM43.2092 23.4002V8.35049H46.6526C51.2523 8.35049 53.6807 11.0792 53.6807 16.2388C53.6807 21.7263 52.2868 23.4002 47.718 23.4002H43.2092ZM59.6202 28.9139L59.5969 28.8554C59.2409 27.9902 58.7226 27.2007 58.0699 26.5295L57.8444 26.3045L57.8203 26.2819L62.2516 14.1223L67.6347 28.9139H59.6202Z" fill="white"/>
</g>
<defs>
<clipPath id="clip0_1253_24307">
<rect width="81" height="34" fill="white" transform="translate(0 7)"/>
</clipPath>
</defs>
</svg>
