<svg width="150" height="48" viewBox="0 0 150 48" fill="none" xmlns="http://www.w3.org/2000/svg">
<g>
<path fill-rule="evenodd" clip-rule="evenodd" d="M64.8448 7.14648L76.8457 39.8766L81 39.8778V40.1129H67.7774V39.8778H71.6703L67.724 29.1147H59.7136V29.119L59.7565 29.2441C60.0762 30.194 60.2352 31.1894 60.2253 32.1914V36.2261C60.2253 38.3014 61.1421 40.405 62.8928 40.405C63.9207 40.405 64.7411 40.0429 65.718 39.1495L65.8573 39.2789C64.7963 40.3988 63.5114 40.875 61.5845 40.875C60.1302 40.875 58.8858 40.5252 57.8843 39.8361L57.6947 39.6999C56.3766 38.7033 55.5212 37.0748 55.153 34.8583L55.0941 34.5005L55.0327 33.9593L55.0266 33.866L52.8181 39.8748H55.952V40.1104H49.3953V39.8748H52.5629L54.9873 33.2763V33.2622C54.9614 32.8729 54.946 32.4828 54.9413 32.0926V29.2128C54.9413 25.6722 52.3088 23.641 47.7182 23.641H43.2061V39.8766H47.1156V40.1116H31.8361V39.8766H35.7296L31.7833 29.1134H20.8317L16.9223 39.7576L17.0855 39.7306C22.2192 38.8457 24.5798 34.9276 24.6117 30.8022H24.8498V40.1116H0L18.4459 8.4658H11.0283C4.88086 8.4658 2.09864 13.2135 2.05568 17.9465H1.8182V8.22955H24.2086L24.0723 8.4658L5.76573 39.8766H15.3968C15.6361 39.8766 15.8742 39.865 16.1141 39.8459C16.2736 39.8349 16.4344 39.8189 16.5976 39.7987L16.6559 39.7925L28.6587 7.125H28.8961L28.9041 7.14648L38.3351 32.8677V8.4658H34.452V8.22648H47.8158C54.2387 8.22648 58.7225 11.5229 58.7225 16.2455C58.7225 19.6892 55.6513 22.5475 51.0828 23.3606L50.2439 23.4674L51.0889 23.5533C53.8595 23.8705 56.0594 24.7229 57.6186 26.0858L57.629 26.0956L64.5993 7.125H64.8362L64.8448 7.14648ZM59.597 28.8201L59.6203 28.8778H67.635L62.2516 14.1947L57.8205 26.2649L57.8444 26.2876L58.0696 26.511C58.7216 27.1759 59.24 27.9601 59.597 28.8201ZM43.2092 23.4048V8.4658H46.6523C51.2521 8.4658 53.6809 11.1744 53.6809 16.2958C53.6809 21.743 52.2867 23.4048 47.7182 23.4048H43.2092ZM26.314 14.1947L20.9189 28.8784H31.6974L26.314 14.1947Z" fill="white"/>
</g>
</svg>
